<?xml version="1.0" encoding="utf-8"?>
<!-- Generator: Adobe Illustrator 24.0.1, SVG Export Plug-In . SVG Version: 6.00 Build 0)  -->
<svg version="1.1" xmlns="http://www.w3.org/2000/svg" xmlns:xlink="http://www.w3.org/1999/xlink" x="0px" y="0px"
	 viewBox="0 0 343.8 225.9" style="enable-background:new 0 0 343.8 225.9;" xml:space="preserve">
<style type="text/css">
	.st0{display:none;}
	.st1{display:inline;}
	.st2{fill:none;stroke:#999999;stroke-width:2.5;stroke-opacity:0.4;}
	.st3{fill:none;stroke:#666666;stroke-width:2.5;stroke-opacity:0.6;}
	.st4{fill:none;stroke:#333333;stroke-width:2.5;stroke-opacity:0.8;}
	.st5{fill:none;stroke:#FFCC00;stroke-width:2.5;stroke-opacity:0.8;}
	.st6{fill:none;stroke:#FF0000;stroke-width:0.5;stroke-opacity:0.6;}
	.st7{fill:none;stroke:#000000;stroke-width:0.25;stroke-opacity:0.4;}
	.st8{fill:#EE82EE;}
	.st9{font-family:'ArialMT';}
	.st10{font-size:32px;}
	.st11{fill:none;}
	.st12{fill:none;stroke:#000000;stroke-width:0.5;stroke-miterlimit:10;}
	.st13{fill:none;stroke:#000000;stroke-width:0.5;}
	.st14{fill:none;stroke:#6699FF;stroke-width:3.0014;stroke-miterlimit:40.0183;}
	.st15{fill:none;stroke:#6699FF;stroke-width:3.0002;stroke-miterlimit:40.0031;}
	.st16{fill:none;stroke:#6699FF;stroke-width:3.0007;stroke-miterlimit:40.0096;}
	.st17{fill:none;stroke:#FFCC66;stroke-width:3;stroke-miterlimit:40;}
	.st18{fill:none;stroke:#FFCC66;stroke-width:1.5;stroke-miterlimit:20;}
	.st19{fill:none;stroke:#FFCC66;stroke-width:2.16;stroke-miterlimit:28.8;}
	.st20{fill:none;stroke:#FF0000;stroke-width:0.5;}
</style>
<g id="centerline" xmlns:cc="http://creativecommons.org/ns#" xmlns:dc="http://purl.org/dc/elements/1.1/" xmlns:inkscape="http://www.inkscape.org/namespaces/inkscape" xmlns:rdf="http://www.w3.org/1999/02/22-rdf-syntax-ns#" xmlns:sodipodi="http://sodipodi.sourceforge.net/DTD/sodipodi-0.dtd" xmlns:svg="http://www.w3.org/2000/svg">
	
		<sodipodi:namedview  bordercolor="#666666" borderopacity="1" gridtolerance="10" guidetolerance="10" id="namedview48" inkscape:current-layer="w2d_Walls_shp" inkscape:cx="auto" inkscape:cy="auto" inkscape:pageopacity="0" inkscape:pageshadow="2" inkscape:window-height="auto" inkscape:window-maximized="1" inkscape:window-width="auto" inkscape:window-x="0" inkscape:window-y="0" inkscape:zoom="1" objecttolerance="10" pagecolor="#ffffff" showborder="false" showgrid="false">
		</sodipodi:namedview>
	<g id="grid" class="st0">
		<g id="grid1" class="st1">
			<path class="st2" d="M4.8,0v226.1"/>
			<path class="st2" d="M10.5,0v226.1"/>
			<path class="st2" d="M16.1,0v226.1"/>
			<path class="st2" d="M21.8,0v226.1"/>
			<path class="st2" d="M27.5,0v226.1"/>
			<path class="st2" d="M33.1,0v226.1"/>
			<path class="st2" d="M38.8,0v226.1"/>
			<path class="st2" d="M50.2,0v226.1"/>
			<path class="st2" d="M55.8,0v226.1"/>
			<path class="st2" d="M61.5,0v226.1"/>
			<path class="st2" d="M67.2,0v226.1"/>
			<path class="st2" d="M72.8,0v226.1"/>
			<path class="st2" d="M78.5,0v226.1"/>
			<path class="st2" d="M84.2,0v226.1"/>
			<path class="st2" d="M89.8,0v226.1"/>
			<path class="st2" d="M95.5,0v226.1"/>
			<path class="st2" d="M106.8,0v226.1"/>
			<path class="st2" d="M112.5,0v226.1"/>
			<path class="st2" d="M118.2,0v226.1"/>
			<path class="st2" d="M123.8,0v226.1"/>
			<path class="st2" d="M129.5,0v226.1"/>
			<path class="st2" d="M135.2,0v226.1"/>
			<path class="st2" d="M140.9,0v226.1"/>
			<path class="st2" d="M146.5,0v226.1"/>
			<path class="st2" d="M152.2,0v226.1"/>
			<path class="st2" d="M163.5,0v226.1"/>
			<path class="st2" d="M169.2,0v226.1"/>
			<path class="st2" d="M174.9,0v226.1"/>
			<path class="st2" d="M180.5,0v226.1"/>
			<path class="st2" d="M186.2,0v226.1"/>
			<path class="st2" d="M191.9,0v226.1"/>
			<path class="st2" d="M197.6,0v226.1"/>
			<path class="st2" d="M203.2,0v226.1"/>
			<path class="st2" d="M208.9,0v226.1"/>
			<path class="st2" d="M220.2,0v226.1"/>
			<path class="st2" d="M225.9,0v226.1"/>
			<path class="st2" d="M231.6,0v226.1"/>
			<path class="st2" d="M237.2,0v226.1"/>
			<path class="st2" d="M242.9,0v226.1"/>
			<path class="st2" d="M248.6,0v226.1"/>
			<path class="st2" d="M254.2,0v226.1"/>
			<path class="st2" d="M259.9,0v226.1"/>
			<path class="st2" d="M265.6,0v226.1"/>
			<path class="st2" d="M276.9,0v226.1"/>
			<path class="st2" d="M282.6,0v226.1"/>
			<path class="st2" d="M288.3,0v226.1"/>
			<path class="st2" d="M293.9,0v226.1"/>
			<path class="st2" d="M299.6,0v226.1"/>
			<path class="st2" d="M305.3,0v226.1"/>
			<path class="st2" d="M310.9,0v226.1"/>
			<path class="st2" d="M316.6,0v226.1"/>
			<path class="st2" d="M322.3,0v226.1"/>
			<path class="st2" d="M333.6,0v226.1"/>
			<path class="st2" d="M339.3,0v226.1"/>
			<path class="st2" d="M0,3.3h344"/>
			<path class="st2" d="M0,9h344"/>
			<path class="st2" d="M0,14.6h344"/>
			<path class="st2" d="M0,20.3h344"/>
			<path class="st2" d="M0,26h344"/>
			<path class="st2" d="M0,31.6h344"/>
			<path class="st2" d="M0,37.3h344"/>
			<path class="st2" d="M0,48.6h344"/>
			<path class="st2" d="M0,54.3h344"/>
			<path class="st2" d="M0,60h344"/>
			<path class="st2" d="M0,65.7h344"/>
			<path class="st2" d="M0,71.3h344"/>
			<path class="st2" d="M0,77h344"/>
			<path class="st2" d="M0,82.7h344"/>
			<path class="st2" d="M0,88.3h344"/>
			<path class="st2" d="M0,94h344"/>
			<path class="st2" d="M0,105.3h344"/>
			<path class="st2" d="M0,111h344"/>
			<path class="st2" d="M0,116.7h344"/>
			<path class="st2" d="M0,122.3h344"/>
			<path class="st2" d="M0,128h344"/>
			<path class="st2" d="M0,133.7h344"/>
			<path class="st2" d="M0,139.4h344"/>
			<path class="st2" d="M0,145h344"/>
			<path class="st2" d="M0,150.7h344"/>
			<path class="st2" d="M0,162h344"/>
			<path class="st2" d="M0,167.7h344"/>
			<path class="st2" d="M0,173.4h344"/>
			<path class="st2" d="M0,179h344"/>
			<path class="st2" d="M0,184.7h344"/>
			<path class="st2" d="M0,190.4h344"/>
			<path class="st2" d="M0,196.1h344"/>
			<path class="st2" d="M0,201.7h344"/>
			<path class="st2" d="M0,207.4h344"/>
			<path class="st2" d="M0,218.7h344"/>
			<path class="st2" d="M0,224.4h344"/>
		</g>
		<g id="grid10" class="st1">
			<path class="st3" d="M44.5,0v226.1"/>
			<path class="st3" d="M101.2,0v226.1"/>
			<path class="st3" d="M157.9,0v226.1"/>
			<path class="st3" d="M271.3,0v226.1"/>
			<path class="st3" d="M327.9,0v226.1"/>
			<path class="st3" d="M0,43h344"/>
			<path class="st3" d="M0,156.4h344"/>
			<path class="st3" d="M0,213.1h344"/>
		</g>
		<g id="grid100" class="st1">
			<path class="st4" d="M214.6,0v226.1"/>
			<path class="st4" d="M0,99.7h344"/>
		</g>
	</g>
	<g id="origin">
		<path class="st5" d="M221.8,99.7h-14.5 M214.6,106.9V92.4"/>
	</g>
	<g id="legs" inkscape:groupmode="layer">
		<path class="st6" d="M238.1,80.8l-23.5,18.9"/>
		<path class="st6" d="M190.7,88.1l47.4-7.3"/>
		<path class="st6" d="M180.1,76.1l10.6,12"/>
		<path class="st6" d="M172.4,99l7.7-23"/>
		<path class="st6" d="M99.9,83l72.5,16"/>
	</g>
	<g id="splays" inkscape:groupmode="layer">
		<path id="splay_splays_1" class="st7" d="M99.9,83l-27.3,57.1"/>
		<path id="splay_splays_2" class="st7" d="M99.9,83L65.9,72.4"/>
		<path id="splay_splays_3" class="st7" d="M99.9,83l34.6,32.4"/>
		<path id="splay_splays_4" class="st7" d="M99.9,83l-8.5-24.4"/>
		<path id="splay_splays_5" class="st7" d="M99.9,83L57.4,140"/>
		<path id="splay_splays_6" class="st7" d="M99.9,83l-31.4,33.6"/>
		<path id="splay_splays_7" class="st7" d="M99.9,83l43.6,43.8"/>
		<path id="splay_splays_8" class="st7" d="M99.9,83l64.6-8.6"/>
		<path id="splay_splays_9" class="st7" d="M172.4,99l-17.9,2.3"/>
		<path id="splay_splays_10" class="st7" d="M172.4,99l-7.8,3.6"/>
		<path id="splay_splays_11" class="st7" d="M172.4,99l-6.7-3.2"/>
		<path id="splay_splays_12" class="st7" d="M172.4,99l-5.4-4.5"/>
		<path id="splay_splays_13" class="st7" d="M172.4,99l-3.2-9"/>
		<path id="splay_splays_14" class="st7" d="M172.4,99l0.6-23.8"/>
		<path id="splay_splays_15" class="st7" d="M172.4,99l2.5-7.4"/>
		<path id="splay_splays_16" class="st7" d="M180.1,76.1l3.3,5.8"/>
		<path id="splay_splays_17" class="st7" d="M180.1,76.1l-0.6,11.2"/>
		<path id="splay_splays_18" class="st7" d="M180.1,76.1l-11,9.4"/>
		<path id="splay_splays_19" class="st7" d="M180.1,76.1l-8.8,8.4"/>
		<path id="splay_splays_20" class="st7" d="M180.1,76.1l-8.7,2.2"/>
		<path id="splay_splays_21" class="st7" d="M180.1,76.1l-1.5,5.2"/>
		<path id="splay_splays_22" class="st7" d="M180.1,76.1l13.6,2.5"/>
		<path id="splay_splays_23" class="st7" d="M180.1,76.1l11.9,7.6"/>
		<path id="splay_splays_24" class="st7" d="M180.1,76.1l28.5,30.7"/>
		<path id="splay_splays_25" class="st7" d="M190.7,88.1l-15,4.5"/>
		<path id="splay_splays_26" class="st7" d="M190.7,88.1L176.4,86"/>
		<path id="splay_splays_27" class="st7" d="M190.7,88.1L173.9,78"/>
		<path id="splay_splays_28" class="st7" d="M190.7,88.1L184.1,76"/>
		<path id="splay_splays_29" class="st7" d="M190.7,88.1l11.2-24.7"/>
		<path id="splay_splays_30" class="st7" d="M190.7,88.1l24.6-12.8"/>
		<path id="splay_splays_31" class="st7" d="M190.7,88.1l45.8-9.5"/>
		<path id="splay_splays_32" class="st7" d="M190.7,88.1l57.5,4.2"/>
		<path id="splay_splays_33" class="st7" d="M190.7,88.1l69.6,20.4"/>
		<path id="splay_splays_34" class="st7" d="M190.7,88.1l89.2,41.1"/>
		<path id="splay_splays_35" class="st7" d="M190.7,88.1l87.3,48.2"/>
		<path id="splay_splays_36" class="st7" d="M190.7,88.1l47.1-7.9"/>
		<path id="splay_splays_37" class="st7" d="M238.1,80.8l-41.4,12.8"/>
		<path id="splay_splays_38" class="st7" d="M238.1,80.8l-30.8,23.9"/>
		<path id="splay_splays_39" class="st7" d="M238.1,80.8L220,110.9"/>
		<path id="splay_splays_40" class="st7" d="M238.1,80.8l-7.9,40.5"/>
		<path id="splay_splays_41" class="st7" d="M238.1,80.8l-35.6,3.6"/>
		<path id="splay_splays_42" class="st7" d="M238.1,80.8l-34.9,0.9"/>
		<path id="splay_splays_43" class="st7" d="M238.1,80.8l-36.8,2.9"/>
		<path id="splay_splays_44" class="st7" d="M238.1,80.8l-56-14.3"/>
		<path id="splay_splays_45" class="st7" d="M238.1,80.8l-9-19.3"/>
		<path id="splay_splays_46" class="st7" d="M238.1,80.8l48.6,66.3"/>
		<path id="splay_splays_47" class="st7" d="M238.1,80.8l23.6,87.7"/>
		<path id="splay_splays_48" class="st7" d="M238.1,80.8l27.7,88.9"/>
	</g>
	<g id="stations" inkscape:groupmode="layer">
		<g id="station_6">
			<text id="s_6" transform="matrix(1 0 0 1 205.6616 103.93)" class="st8 st9 st10">6</text>
			<path class="st11" d=""/>
			<path class="st12" d="M208.6,103.3h12l-6-9.6L208.6,103.3z"/>
			<path marker-start="url(#Station)" class="st13" d="M214.6,99.7"/>
		</g>
		<g id="station_5">
			<text id="s_5" transform="matrix(1 0 0 1 229.2016 85.03)" class="st8 st9 st10">5</text>
			<path class="st11" d=""/>
			<path class="st12" d="M232.1,84.4h12l-6-9.6L232.1,84.4z"/>
			<path marker-start="url(#Station)" class="st13" d="M238.1,80.8"/>
		</g>
		<g id="station_3">
			<text id="s_3" transform="matrix(1 0 0 1 181.8116 92.32)" class="st8 st9 st10">3</text>
			<path class="st11" d=""/>
			<path class="st12" d="M184.7,91.7h12l-6-9.6L184.7,91.7z"/>
			<path marker-start="url(#Station)" class="st13" d="M190.7,88.1"/>
		</g>
		<g id="station_2">
			<text id="s_2" transform="matrix(1 0 0 1 171.1816 80.34)" class="st8 st9 st10">2</text>
			<path class="st11" d=""/>
			<path class="st12" d="M174.1,79.7h12l-6-9.6L174.1,79.7z"/>
			<path marker-start="url(#Station)" class="st13" d="M180.1,76.1"/>
		</g>
		<g id="station_1">
			<text id="s_1" transform="matrix(1 0 0 1 163.5215 103.29)" class="st8 st9 st10">1</text>
			<path class="st11" d=""/>
			<path class="st12" d="M166.4,102.6h12l-6-9.6L166.4,102.6z"/>
			<path marker-start="url(#Station)" class="st13" d="M172.4,99"/>
		</g>
		<g id="station_0">
			<text id="s_0" transform="matrix(1 0 0 1 91.0216 87.3)" class="st8 st9 st10">0</text>
			<path class="st11" d=""/>
			<path class="st12" d="M93.9,86.6h12l-6-9.6L93.9,86.6z"/>
			<path marker-start="url(#Station)" class="st13" d="M99.9,83"/>
		</g>
	</g>
</g>
<g id="scrap_0" inkscape:groupmode="layer">
	<g id="points_0" inkscape:groupmode="layer" class="st0">
		<g id="points_water-flow_0" inkscape:groupmode="layer" class="st1">
			<g>
				<g transform="matrix(-0.54,9.99,-9.99,-0.54,125.44,93.73)">
					<path class="st11" d=""/>
					<path marker-start="url(#water-flow)" class="st14" d="M0,0.8C-0.3,0.8-0.3,0,0,0s0.3-0.8,0-0.8s-0.2-0.8,0-0.8
						s0.4-0.1,0.4-0.4C0.4-2.1,0-2.3,0-2.5l1,1 M0-2.5l-1,1 M0.1,0"/>
				</g>
			</g>
			<g>
				<g transform="matrix(8.14,5.81,-5.81,8.14,173.21,85.95)">
					<path class="st11" d=""/>
					<path marker-start="url(#water-flow)" class="st15" d="M0,0.7C-0.3,0.7-0.3,0,0,0s0.2-0.8,0-0.8s-0.3-0.8,0-0.8
						s0.4-0.1,0.4-0.4S0-2.3,0-2.5l1,1 M0-2.5l-1,1 M0.1,0"/>
				</g>
			</g>
			<g>
				<g transform="matrix(6.36,7.72,-7.72,6.36,171.78,94.81)">
					<path class="st11" d=""/>
					<path marker-start="url(#water-flow)" class="st16" d="M0,0.7C-0.3,0.7-0.3,0,0,0s0.2-0.8,0-0.8s-0.3-0.8,0-0.8
						s0.4-0.1,0.4-0.4C0.4-2.1,0-2.3,0-2.5l1,1 M0-2.5l-1,1 M0.1,0"/>
				</g>
			</g>
		</g>
		<g id="points_blocks_0" inkscape:groupmode="layer" class="st1">
			<g>
				<g transform="matrix(10.00,0.00,-0.00,10.00,86.15,92.84)">
					<path class="st11" d=""/>
					<path marker-start="url(#blocks)" class="st17" d="M-1.8,1l3.3,0.5L2,1.2L1.8-1.3l-3-0.3L-1.8-1V1l2.3-1.3L2,1.2 M-1.8-1
						l2.3,0.8l1.3-1 M0.1,0"/>
				</g>
			</g>
			<g>
				<g transform="matrix(10.00,0.00,-0.00,10.00,85.89,85.95)">
					<path class="st11" d=""/>
					<path marker-start="url(#blocks)" class="st17" d="M-1.8,1l3.3,0.5L2,1.2L1.8-1.3l-3-0.3L-1.8-1V1l2.3-1.3L2,1.2 M-1.8-1
						l2.3,0.8l1.3-1 M0.1,0"/>
				</g>
			</g>
			<g>
				<g transform="matrix(10.00,0.00,-0.00,10.00,94.69,75.87)">
					<path class="st11" d=""/>
					<path marker-start="url(#blocks)" class="st17" d="M-1.8,1l3.3,0.5L2,1.2L1.8-1.3l-3-0.3L-1.8-1V1l2.3-1.3L2,1.2 M-1.8-1
						l2.3,0.8l1.3-1 M0.1,0"/>
				</g>
			</g>
			<g>
				<g transform="matrix(10.00,0.00,-0.00,10.00,113.45,71.02)">
					<path class="st11" d=""/>
					<path marker-start="url(#blocks)" class="st17" d="M-1.8,1l3.3,0.5L2,1.2L1.8-1.3l-3-0.3L-1.8-1V1l2.3-1.3L2,1.2 M-1.8-1
						l2.3,0.8l1.3-1 M0.1,0"/>
				</g>
			</g>
			<g>
				<g transform="matrix(10.00,0.00,-0.00,10.00,102.98,89.01)">
					<path class="st11" d=""/>
					<path marker-start="url(#blocks)" class="st17" d="M-1.8,1l3.3,0.5L2,1.2L1.8-1.3l-3-0.3L-1.8-1V1l2.3-1.3L2,1.2 M-1.8-1
						l2.3,0.8l1.3-1 M0.1,0"/>
				</g>
			</g>
			<g>
				<g transform="matrix(10.00,0.00,-0.00,10.00,94.44,85.05)">
					<path class="st11" d=""/>
					<path marker-start="url(#blocks)" class="st17" d="M-1.8,1l3.3,0.5L2,1.2L1.8-1.3l-3-0.3L-1.8-1V1l2.3-1.3L2,1.2 M-1.8-1
						l2.3,0.8l1.3-1 M0.1,0"/>
				</g>
			</g>
			<g>
				<g transform="matrix(5.00,0.00,-0.00,5.00,59.61,138.12)">
					<path class="st11" d=""/>
					<path marker-start="url(#blocks)" class="st18" d="M-1.8,1l3.3,0.5L2,1.2L1.7-1.3l-3-0.3L-1.8-1V1l2.3-1.3L2,1.2 M-1.8-1
						l2.3,0.8l1.3-1 M0.1,0"/>
				</g>
			</g>
			<g>
				<g transform="matrix(5.00,0.00,-0.00,5.00,69.31,139.78)">
					<path class="st11" d=""/>
					<path marker-start="url(#blocks)" class="st18" d="M-1.8,1l3.3,0.5L2,1.2L1.7-1.3l-3-0.3L-1.8-1V1l2.3-1.3L2,1.2 M-1.8-1
						l2.3,0.8l1.3-1 M0.1,0"/>
				</g>
			</g>
			<g>
				<g transform="matrix(10.00,0.00,-0.00,10.00,74.92,101.77)">
					<path class="st11" d=""/>
					<path marker-start="url(#blocks)" class="st17" d="M-1.8,1l3.3,0.5L2,1.2L1.8-1.3l-3-0.3L-1.8-1V1l2.3-1.3L2,1.2 M-1.8-1
						l2.3,0.8l1.3-1 M0.1,0"/>
				</g>
			</g>
			<g>
				<g transform="matrix(7.20,0.00,-0.00,7.20,145.41,92.66)">
					<path class="st11" d=""/>
					<path marker-start="url(#blocks)" class="st19" d="M-1.8,1l3.3,0.5L2,1.2L1.7-1.3l-3-0.3L-1.8-1V1l2.3-1.3L2,1.2 M-1.8-1
						l2.3,0.8l1.3-1 M0.1,0"/>
				</g>
			</g>
			<g>
				<g transform="matrix(5.00,0.00,-0.00,5.00,156.59,97.67)">
					<path class="st11" d=""/>
					<path marker-start="url(#blocks)" class="st18" d="M-1.7,1l3.3,0.5L2,1.2L1.8-1.3l-3-0.3L-1.7-1V1l2.3-1.3L2,1.2 M-1.7-1
						l2.3,0.8l1.3-1 M0.1,0"/>
				</g>
			</g>
			<g>
				<g transform="matrix(5.00,0.00,-0.00,5.00,136.81,98.60)">
					<path class="st11" d=""/>
					<path marker-start="url(#blocks)" class="st18" d="M-1.8,1l3.3,0.5L2,1.2L1.7-1.3l-3-0.3L-1.8-1V1l2.3-1.3L2,1.2 M-1.8-1
						l2.3,0.7l1.3-1 M0.1,0"/>
				</g>
			</g>
			<g>
				<g transform="matrix(7.20,0.00,-0.00,7.20,120.54,112.15)">
					<path class="st11" d=""/>
					<path marker-start="url(#blocks)" class="st19" d="M-1.8,1l3.3,0.5L2,1.2L1.8-1.3l-3-0.3L-1.8-1V1l2.3-1.3L2,1.2 M-1.8-1
						l2.3,0.8l1.3-1 M0.1,0"/>
				</g>
			</g>
			<g>
				<g transform="matrix(5.00,0.00,-0.00,5.00,120.11,103.41)">
					<path class="st11" d=""/>
					<path marker-start="url(#blocks)" class="st18" d="M-1.8,1l3.3,0.5L2,1.2L1.7-1.3l-3-0.3L-1.8-1V1l2.3-1.3L2,1.2 M-1.8-1
						l2.3,0.8l1.3-1 M0.1,0"/>
				</g>
			</g>
			<g>
				<g transform="matrix(5.00,0.00,-0.00,5.00,124.62,96.10)">
					<path class="st11" d=""/>
					<path marker-start="url(#blocks)" class="st18" d="M-1.8,1l3.3,0.5L2,1.2L1.8-1.3l-3-0.3L-1.8-1V1l2.3-1.3L2,1.2 M-1.8-1
						l2.3,0.7l1.3-1 M0.1,0"/>
				</g>
			</g>
			<g>
				<g transform="matrix(5.00,0.00,-0.00,5.00,106.42,115.80)">
					<path class="st11" d=""/>
					<path marker-start="url(#blocks)" class="st18" d="M-1.8,1l3.3,0.5L2,1.2L1.8-1.3l-3-0.3L-1.8-1V1l2.3-1.3L2,1.2 M-1.8-1
						l2.3,0.8l1.3-1 M0.1,0"/>
				</g>
			</g>
		</g>
	</g>
	<g id="lines_0" inkscape:groupmode="layer">
		<g id="lines_wall_0" inkscape:groupmode="layer">
			<path class="st20" d="M89.6,58.7l-4.4,1.8l-6.2,1.1l-3.5,2.8l-3.4,3L67.3,68l-4.1,1.3L61,72.7l-0.6,4.6"/>
			<path class="st20" d="M163.1,101.4l-1.9-0.2l-2.4-0.3l-1.5-0.2l-1.9-0.4l-1.9-0.1l-2-0.4l-1.8-0.4l-2.2,0.1l-1.5,0.6l-1.2,1.4
				l-2.6,0.7l-1.4,0.6l-0.7,1.5l-1.8,0.5l-1.6,0.3"/>
			<path class="st20" d="M209.8,106.9l-2-1.1l-1.9-1l-1.5-1.5l-1.9-0.9l-2.1-0.8l-1-1.3l-0.7-1.6l-1-1.2l-1.6-1.4l-1.4-1"/>
			<path class="st20" d="M264.8,169.4l-1.7-1.7l-2.8-1l-2.3-0.4l-2.5-0.6l-2.7,0.9l-2.4,0.9l-1.6,1.8l-2.7,0.1l-2.6-0.1l-2.1-0.7
				l0-2.5l0.9-2.3l1.6-1.5l2.3-1.5l1.7-1.7l0.5-2.4l0.1-2.6l0.2-2.4l0.1-2.4l-0.1-2.7l-0.3-2.4l0.1-2.4l-0.1-2.4l-0.8-2.2l-1.9-1.7
				l-2.1-0.8l-2.1-0.9l-1-2.1l-1.4-2l-2.7-1.5l-2.1-1.1l-1.4-2l-0.4-2.5l-1.5-1.9l-2.7-1.1l-2.3-1.2l-1.1-2.1l-0.2-2.3l-0.3-2.4
				l-3.3-0.6l-2.7-0.7l-1.6-1.6l-2.7-1l-3.3,0.1l-1.6-1.1"/>
			<path class="st20" d="M264.6,164.4l2.1,0.5l3-0.5l2.5-1.4l0.6-2.4l0.4-2.3l1.4-2l1.9-1.8l2.7-1.1l1.3-2l1.9-1.4l2.1-0.9l2-1.5
				l1.1-2l-0.2-2.6l-0.1-2.2l-0.9-2.2l-1.8-1.6l-1.6-1.8l-1.4-2l-0.5-2.2l-0.2-2.5l-0.5-2.2l-0.9-2.4l-2.1-1.3l-2.5-1.4l-1.9-1.9
				l-0.7-2.5l-0.5-2.3l-1.9-1.8l-2.3-1.3l-1.9-1.3l-1.2-1.9l-0.8-2.1l-2.1-1l-2.3-0.7l-1.7-1.5l-0.8-2.3l-0.5-2.4l-0.6-2.3l-1.4-2.2
				l-2-1.8l-2.3-1.2l-1.2-2l-0.7-2.2l-1.1-2.1l-1.6-1.6l-2.2-1.5l-1.9-1.4l-0.4-1.1"/>
			<path class="st20" d="M240.7,77.6l-0.8-2.1l-1.5-1.9l-1.9-1.7l-1.4-2.1l-0.9-2.4l-0.8-2.4l-0.4-2.2l-2.5-0.5l-2.3,0.1l-2.3,0.2
				l-0.9,2.4"/>
			<path class="st20" d="M225.2,63.1l-1.1,2.2l-0.1,2.5l-1.7,1.5"/>
			<path class="st20" d="M223.6,69.9l-2,1.7L219,73l-2.6,1.2l-1.3,2.1l-1.1-1.4"/>
			<path class="st20" d="M215.1,73.2l-2.1,1.3l-2.7,0.5l-3.1-1l-0.6-2.5l-0.2-2.6l-0.9-2.7l-2.6-1.1l-2.6-1l-2.7-0.5l-4.4,0.6
				l-3.2,0.3l-2.6,0.5"/>
			<path class="st20" d="M189.9,75.2l-0.8-1l-1.3-0.6l-1.1-0.4l-0.8-0.9l-1.3-0.5l-1.1-0.4l-0.8-0.8l-1-0.7l-0.8-0.8l0.7-1l0.9-0.5
				l1.3-0.7l1.3-0.4l1-0.4l1.3-0.3h1"/>
			<path class="st20" d="M104.5,59.8l-2.7-0.4l-2.1-1l-2.9-0.6l-2.6-0.3l-2.6-0.2l-2.8,0.2l-2.1,0.7"/>
			<path class="st20" d="M106,59.3l-2.3-0.1"/>
			<path class="st20" d="M102.4,56.7l2.5,1.9l1.9,1.4l3.1,0.3l3.1,0.3l2.5,0.3l2.4,0.3l2.3,0.2l3,0l2.2,0l2.4,0.4l2.2,0.1l2.4,0.1
				h3.5l2.4,0.7l2.1,0.8l2.6,0.3l1.6,1.5l1.7,1.4l2.3,0.3l2.4,0.8l1.8,1.2l2.8,0.2l2.4,0.3l1.6,1.4l1.7,1.3l1.9,1"/>
			<path class="st20" d="M189.8,74.9l0.9,0.9l1.2,0.5l1,0.8l0.3,0.9"/>
			<path class="st20" d="M191.2,78l-1.1-1.1l-2-0.4l-1.8-0.5l-1.6-0.9l-1.8-0.2l-2,0.4l-1.5,0.7l-1.6,0.2l-1.8,0.1l-1.7-0.1
				l-1.5,0.7l-1,1.3l-0.6,1.5l-0.5,1.5l-1.1,1.3l-0.6,1.4l0,1.7l0.1,1.7v1.6l-0.5,1.5l-0.9,1.4l-1.4,0.9l-1.1,1.1l-1.5-0.4l-0.8-1.4
				l-1.1-1.4l-0.9-1.5l-0.3-1.8l0.8-1.7l1-1.6l0.7-1.7l0.4-1.7l0.2-1.7l0.5-1.6l0.3-1.9l-0.5-1.6l-1-1.4"/>
			<path class="st20" d="M196.1,95.8l-1.7-0.9l-1.2-1.3l-0.7-1.6l-0.6-1.7l-0.6-1.4l-1.8,0.2l-1.6,0.4l-1.4,0.9l-0.9,1.4l-1.7,0.6
				l-1.9,0.3l-1.6,0.7l-1.5,0h-1.7l-1.7,0.6l-0.7,1.5l-0.7,1.7l-0.7,1.4l-1.1,1.2l-1.3,1l-1.5,0.7l-1.1,1.2l-2,0.4l-1.5,0.3
				l-1.4-0.7l-1.4-0.9l-1.8-0.2"/>
			<path class="st20" d="M57.1,128.3l2-1.9l2.3-0.9l2.3-1l1.4-2.1l0.8-2.7l0.4-2.5l0.6-2.5l-0.6-3.1l-0.4-3l-0.3-3l-0.5-3.5L64.9,99
				l-0.2-3.1L64,93.3l-0.7-2.9l-0.7-3l-0.8-2.8l-0.8-2.6l-1.3-2.7l-0.5-2.5"/>
			<path class="st20" d="M58.7,123.9l0.1,4.2l-0.9,4.3l-0.7,4.3l-0.5,4.5l1.4,3.9l3.6,1.9l4-0.8l4.7-0.5l3.5-1.8"/>
			<path class="st20" d="M141.1,106.3l-2.5,0.7l-2.4,1.2l-1.1,2l0.5,2.5l-0.9,2.3l0.9,2.2l3.1,1.1l2.3,1.6l1.1,2.8l1.1,2.4l0.6,2.5
				l-1.8,2.1l-2.3,1.5l-3.1,0l-3.3,0.1l-3.1,0.5l-3.3,0.2l-2.4,0.2l-3.5,0.5l-3.9-0.2l-2.6-1.2l-2.7-0.5l-3-0.5l-3.1,1.2l-3.4,1.2
				l-2.5,1l-2.9,2.5l-3.5,1.3l-2.8,0.8l-2.4,1l-3.1,1.3l-2.5,1l-2.5,1.5l-3,0.5l-2.6,0.3l-2.3,0.8"/>
		</g>
	</g>
	<g id="areas_0" inkscape:groupmode="layer" class="st0">
		<g id="areas_water_0" inkscape:groupmode="layer">
			<path class="st1" d="M211,104.1l3.6,1.5l3.1,1L211,104.1z"/>
			<path class="st1" d="M158.2,87l0.3-2.5l0.1-2.6l-0.9-2.2l-3.3,0.5l-3.1,0.6l-2.8,0.5l-3.1,0.1l-2.6,0.4l-2.6,0.4l-2.7-0.1
				l-2.3,0.3l-2.3,0.3l-2.9,0.4l-3.5,0.2l-2.4,0.6l-2.2,1.7l-2.6,1.4l-2.6,1.1L114,89l-3.1,0.7l-2.9,0.6l-1.8,2.3l-3,0.9l-3,1.4
				l-1.3,2.2l-2.6,2.3l-4,2.1l-2.2,2.5l-3.3,2l-3.5,1.5l-1.9,2.1l-2.9,1.5l-2.6,1.4l-1.8,2.1l-0.6,2.8l-0.6,2.4l-1.7,2.6l-2.1,1.6
				l-2.3,2.3l-0.6,2.5l-0.7,2.4l-0.5,2.3l1.2,1.9l2.9,0.9l2.6,0.5l2-1l1.5-2.1l3-1.1l2.7-1.1l1.9-1.8l3.8-1l3.1-0.3l2.5-1.5l2.4-1
				l2.6-0.5l2.3,1.2l2.6,0.5l3.2,0.9l2.6,0.3l2.8,0.1l3.4,0.1l2.4,0.2l2.9,0.4l2.6,0.1l2.5,0.6l2.8-0.3l2.8-0.6l2.4-0.9l3-0.9
				l2.6-0.8l1.9-1.8l0.7-2.5l-0.1-2.7l-2.6-2.7l-2.8-1l-2-1.8l-0.8-2.7l-0.2-3.4l0.5-2.4l1.3-2.3l2.5-0.8l2.8-0.8l2.1-1.4l3.1-2
				l2.9-0.5l2.2-1.2l3.2-0.8l2.5-0.5l2.1-1.4l0.5-2.4l0.4-2.5l0.1-2.4L158.2,87z"/>
			<path class="st1" d="M159.2,91.2l-1.5,2.2l0.5,1.4L159.2,91.2z"/>
			<path class="st1" d="M288.2,149.1l-0.7-3l-2.4-4.4l-1.8-3.1l-2.1-3.9l-0.8-3.8l-0.8-3.1l-1.5-2.6l-3.4-1.7l-2.4-1.5l-1.6-2.2
				l-3.1-1.7l-3.2-1.1l-2-2l-1.6-3.7l-2.7-2.3l-3.1-1.8l-1.9-2.6l-0.4-3.8l-1-2.5l-2.2-2.7l-2.6-2l-2-2l-1.2-2.8l-0.4-2.8l-0.7-2.7
				l-1.5-2.5l-2.5-2.2l-1.6-2.4l-1.6-3.2l-1-2.9l-2.9-0.2l-2.9,0.8l-1.8,2.6l-0.9,2.7l-1.6,2.5l-3.9,0.5l-3.2-0.1l-2.7,0.4l-2.9,0.1
				l-3.1-0.3l-2-2l-1.3-2.8l-2.2-1.7l-2.7-0.8l-2.6-1.1l-2.9-0.4l-3,0.4l-2.4,1.6l-0.1,2.9l1.6,2.9l3.3,1l2.6,1.4l0.4,2.9l-0.4,2.7
				l-0.1,2.7l0.4,2.7l0.8,2.8l1.6,2.8l3.5,1.2l2.7,0.7l2.3,2.1l2.5,1.3l3,1.2l2.9,2l2,1.9l3.2,1.5l2.8,1.4l1.3,2.6l1.8,2.2l2.4,1.4
				l2.4,1.6l1.7,2.6l0.9,2.8l1.4,2.6l2.5,1.9l2.7,1.5l1.9,2.1l0.9,2.8l2.4,2.1l2.6,1.4l1.8,2l1.3,2.7l0.5,2.9l0.5,3.3l-0.1,2.9
				l-0.8,2.8l-1.4,2.5l-1.6,2.5l-1.5,2.4l-0.3,2.6l3,1.1l2.6-0.5l2.5-1.6l3.7-0.5l2.8,0.7l2.6,1.1l2.8,0.3l2.9-0.1l2.4-1.9l2.9-2.6
				l3-1.9l1.6-3.1l1.1-2.6l2.3-2.4l2.3-2.2l2-1.7l1.2-1.4L288.2,149.1z"/>
			<path class="st1" d="M195.5,91.9l-3-1.1l-3.6-0.7l-3.7,0.4l-2.7,0.8l-2.7,0.6l-2,1.8l-1.5,2.3l-2.6,1.2l-2.8,0.9l-2.4,1.7l-1,2.5
				l-2.6,0.2l-4.3-0.4l-2.9-0.6l-4.6-0.4l-3.2-0.2l-2.8-0.6l-1.9-1.4l0.3-2.8l3.1-1.7l3.2-0.8l2.5-1l3.1-0.2l1.3,2.6l2.5,1.1
				l3.4,0.3l2.5-0.6l1.1-2.5l-0.1-3l0.3-2.7l0.2-2.9l1.9-2.2l2.4-1.3l2.4-1.1l2.6-0.7l3.3-0.8l3.4-0.9l2.9,0.8l2.3,1.2l3.1,0.6
				l2,0.6L195.5,91.9z"/>
			<path class="st1" d="M232.3,115.8l-2.6-2.5l-1.9-2.2l-2.7-1.4l-2.1-2.2l-2.9-1.3l-3.1,0l-2.7-0.2l-2.9-1l-2.8-1l-2.6-1l-1.5-2
				l-2.5-2.5l-2.8-1.2l-2.4-1.2l-0.8-3.2l0.9-2.7l4.8-0.4l2.2,1.3l2.7,3l5.2,2.6l1.3,0.7L232.3,115.8z"/>
		</g>
		<g id="areas_sand_0" inkscape:groupmode="layer">
			<path class="st1" d="M159.2,73.1l-1.9-2l-3.3-0.9l-3.1-1l-2.6-1.4l-3.2-0.7l-3.1,0.3l-2.2-1.9l-3.1-1.5l-2.8-0.6l-2.5,0l-3.7-0.1
				l-3.5-0.4l-2.7-0.7l-3.6,0.7l-2.8,1l-2.1,2l-0.6,3.1l-0.4,3l-0.8,3.6l-1.2,2.5l-2.5,1.6l-2.3,2.2l-0.4,2.5l2.1,2l3.8-0.2l2.4-1.5
				l2.6-1.5l3.9-1.3l2.5-1.3l2.7-1.9l3.6-0.8l3.2-0.5l3.2-0.4l3.9,0.4l2.4-0.8l3.5-1.3h3.5l2.6-1.1l3.3-0.7l3.4-0.6l1-2.5l-2.6-1.1
				l-1.6,0.3L159.2,73.1z"/>
			<path class="st1" d="M85.4,71.9L80.6,74l-2.2,2.6l-0.6,3.8l0.1,3.1l-0.6,3.1L74.6,90l-2.8,1l-3.2,0.4l-2-1.8l-1.1-3l-2.2-1.9
				l-2.4-1.8L85.4,71.9z"/>
			<path class="st1" d="M66.3,75.5l2.5-1.9l2.8-1.8l1.8-2l2.4-2.2l4.3-1.7l3.4-0.7l2.8-0.3l3,0.4l2.4,1.2l-2.2,2.5l-3.1,2.3
				l-1.7,2.3l-2.8,2l-2.7,1.5l-2,1.7l-0.7,1.4L66.3,75.5z"/>
		</g>
	</g>
</g>
</svg>
