<svg xmlns:i="http://ns.adobe.com/AdobeIllustrator/10.0/" xmlns:dc="http://purl.org/dc/elements/1.1/" xmlns:cc="http://creativecommons.org/ns#" xmlns:rdf="http://www.w3.org/1999/02/22-rdf-syntax-ns#" xmlns:svg="http://www.w3.org/2000/svg" xmlns="http://www.w3.org/2000/svg" xmlns:xlink="http://www.w3.org/1999/xlink" xmlns:sodipodi="http://sodipodi.sourceforge.net/DTD/sodipodi-0.dtd" xmlns:inkscape="http://www.inkscape.org/namespaces/inkscape" 
 width="452.126007px" height="578.834656px"
  version="1.1"
  id="svg46"
  sodipodi:docname="Vranja_jama-1s.svg"
  inkscape:version="0.92.4 (5da689c313, 2019-01-14)">
<!-- SVG created by TopoDroid v. 6.3.42 -->
  <sodipodi:namedview pagecolor="#ffffff" bordercolor="#666666" borderopacity="1" objecttolerance="10" gridtolerance="10" guidetolerance="10" inkscape:pageopacity="0" inkscape:pageshadow="2" inkscape:window-width="auto" inkscape:window-height="auto" id="namedview48" showgrid="false" inkscape:zoom="1" inkscape:cx="auto" inkscape:cy="auto" inkscape:window-x="0" inkscape:window-y="0" inkscape:window-maximized="1" inkscape:current-layer="w2d_Walls_shp" showborder="false"/>
  <defs>
    <style type="text/css" id="style_grid"> 
      .grid1 { stroke: #999999; stroke-opacity: 0.4; stroke-width: 2.50; fill: none; } 
      .grid10 { stroke: #666666; stroke-opacity: 0.6; stroke-width: 2.50; fill: none; } 
      .grid100 { stroke: #333333; stroke-opacity: 0.8; stroke-width: 2.50; fill: none; } 
      .origin { stroke: #ffcc00; stroke-opacity: 0.8; stroke-width: 2.50; fill: none; } 
      .p_label { stroke: black; fill: black; stroke-width: 1.50; } 
      .point { stroke: black; fill: none; stroke-width: 0.50; } 
      .legs { stroke: #882222; stroke-opacity: 0.6; fill: none; stroke-width: 2.50; } 
      .splays { stroke: grey; stroke-opacity: 0.4; fill: none; stroke-width: 2.50; } 
      .h-splays { stroke: lightseagreen; stroke-opacity: 0.4; fill: none; stroke-width: 2.50; } 
      .v-splays { stroke: lightsteelgreen; stroke-opacity: 0.4; fill: none; stroke-width: 2.50; } 
      .x-splays { stroke: lightseablue; stroke-opacity: 0.4; fill: none; stroke-width: 2.50; } 
      .stations { stroke: none; text-anchor: middle; font-size: 32; } 
      .triangle { stroke: red;  fill: none; stroke-width: 0.50; } 
      .circle_point { stroke: black;  fill: none; stroke-width: 0.50; } 
      .circle_label { stroke: black;  fill: grey; stroke-width: 1.50; } 
      .l_wall { stroke: #ff0000; stroke-width: 2.50; fill: none; } 
      .a_water { stroke: #3366ff; stroke-width: 2.50; fill: #3366ff; fill-opacity: 0.5; } 
      .a_sand { stroke: #ffff66; stroke-width: 2.50; fill: #ffff66; fill-opacity: 0.5; } 
    </style> 
    <marker id="Station" viewBox="0 0 100 100" refX="50" refY="50" 
      markerUnits="strokeWidth" markerWidth="40" markerHeight="24" orient="0" >
      <path d="M 0 80 L 100 80 L 50 0 z" stroke="black" fill="none" stroke-width="2.50" />
    </marker>
    <marker id="Triangle" viewBox="0 0 10 10" refX="0" refY="5" 
      markerUnits="strokeWidth" markerWidth="4" markerHeight="3" orient="auto" >
      <path d="M 0 0 L 10 5 L 0 10 z" />
    </marker>
    <marker id="Circle" markerWidth="20" markerHeight="20" viewBox="0 0 40 40" refX="10" refY="10">
      <circle cx="10" cy="10" r="10" fill="red" />
    </marker>
    <marker id="dir" viewBox="0 0 10 30"  orient="auto"       markerUnits="strokeWidth" markerWidth="4" refX="0" refY="30"      markerHeight="30" stroke="#cccc3a" stroke-width="12.00" fill="none" >
      <line x1="0" y1="0" x2="0" y2="30" />
    </marker>
    <marker id="rev" viewBox="0 0 10 30"  orient="auto"      markerUnits="strokeWidth" markerWidth="4" refX="0" refY="0"      markerHeight="30" stroke="#cccc3a" stroke-width="12.00" fill="none" >
      <line x1="0" y1="0" x2="0" y2="30" />
    </marker>
    <marker id="blocks" markerWidth="40" markerHeight="40" viewBox="0 0 40 40" refX="20" refY="20" orient="auto" markerUnits="strokeWidth" >
      <path d="M 16.50 22.00 L 23.00 23.00 L 24.00 22.50 L 23.50 17.50 L 17.50 17.00 L 16.50 18.00 L 16.50 22.00 L 21.00 19.50 L 24.00 22.50 M 16.50 18.00 L 21.00 19.50 L 23.50 17.50 " stroke-width="0.3" fill="none" stroke="#ffcc66" />
    </marker>
    <marker id="water-flow" markerWidth="40" markerHeight="40" viewBox="0 0 40 40" refX="20" refY="20" orient="auto" markerUnits="strokeWidth" >
      <path d="M 20.00 21.50 C 19.50 21.50 19.50 20.00 20.00 20.00 C 20.50 20.00 20.50 18.50 20.00 18.50 C 19.50 18.50 19.50 17.00 20.00 17.00 C 20.50 17.00 20.75 16.75 20.75 16.25 C 20.75 15.75 20.00 15.50 20.00 15.00 L 22.00 17.00 M 20.00 15.00 L 18.00 17.00 " stroke-width="0.3" fill="none" stroke="#6699ff" />
    </marker>
  </defs>
<g id="grid"
  style="fill:none;stroke-opacity:0.4" >
<g id="grid1"
 class="grid1" >
  <path d="M 1.52 0.00 L 1.52 579.09" />
  <path d="M 7.19 0.00 L 7.19 579.09" />
  <path d="M 12.86 0.00 L 12.86 579.09" />
  <path d="M 18.53 0.00 L 18.53 579.09" />
  <path d="M 24.20 0.00 L 24.20 579.09" />
  <path d="M 29.87 0.00 L 29.87 579.09" />
  <path d="M 35.54 0.00 L 35.54 579.09" />
  <path d="M 41.21 0.00 L 41.21 579.09" />
  <path d="M 46.88 0.00 L 46.88 579.09" />
  <path d="M 58.22 0.00 L 58.22 579.09" />
  <path d="M 63.89 0.00 L 63.89 579.09" />
  <path d="M 69.55 0.00 L 69.55 579.09" />
  <path d="M 75.22 0.00 L 75.22 579.09" />
  <path d="M 80.89 0.00 L 80.89 579.09" />
  <path d="M 86.56 0.00 L 86.56 579.09" />
  <path d="M 92.23 0.00 L 92.23 579.09" />
  <path d="M 97.90 0.00 L 97.90 579.09" />
  <path d="M 103.57 0.00 L 103.57 579.09" />
  <path d="M 114.91 0.00 L 114.91 579.09" />
  <path d="M 120.58 0.00 L 120.58 579.09" />
  <path d="M 126.25 0.00 L 126.25 579.09" />
  <path d="M 131.92 0.00 L 131.92 579.09" />
  <path d="M 137.59 0.00 L 137.59 579.09" />
  <path d="M 143.26 0.00 L 143.26 579.09" />
  <path d="M 148.92 0.00 L 148.92 579.09" />
  <path d="M 154.59 0.00 L 154.59 579.09" />
  <path d="M 160.26 0.00 L 160.26 579.09" />
  <path d="M 171.60 0.00 L 171.60 579.09" />
  <path d="M 177.27 0.00 L 177.27 579.09" />
  <path d="M 182.94 0.00 L 182.94 579.09" />
  <path d="M 188.61 0.00 L 188.61 579.09" />
  <path d="M 194.28 0.00 L 194.28 579.09" />
  <path d="M 199.95 0.00 L 199.95 579.09" />
  <path d="M 205.62 0.00 L 205.62 579.09" />
  <path d="M 211.29 0.00 L 211.29 579.09" />
  <path d="M 216.96 0.00 L 216.96 579.09" />
  <path d="M 228.29 0.00 L 228.29 579.09" />
  <path d="M 233.96 0.00 L 233.96 579.09" />
  <path d="M 239.63 0.00 L 239.63 579.09" />
  <path d="M 245.30 0.00 L 245.30 579.09" />
  <path d="M 250.97 0.00 L 250.97 579.09" />
  <path d="M 256.64 0.00 L 256.64 579.09" />
  <path d="M 262.31 0.00 L 262.31 579.09" />
  <path d="M 267.98 0.00 L 267.98 579.09" />
  <path d="M 273.65 0.00 L 273.65 579.09" />
  <path d="M 284.99 0.00 L 284.99 579.09" />
  <path d="M 290.66 0.00 L 290.66 579.09" />
  <path d="M 296.33 0.00 L 296.33 579.09" />
  <path d="M 302.00 0.00 L 302.00 579.09" />
  <path d="M 307.66 0.00 L 307.66 579.09" />
  <path d="M 313.33 0.00 L 313.33 579.09" />
  <path d="M 319.00 0.00 L 319.00 579.09" />
  <path d="M 324.67 0.00 L 324.67 579.09" />
  <path d="M 330.34 0.00 L 330.34 579.09" />
  <path d="M 341.68 0.00 L 341.68 579.09" />
  <path d="M 347.35 0.00 L 347.35 579.09" />
  <path d="M 353.02 0.00 L 353.02 579.09" />
  <path d="M 358.69 0.00 L 358.69 579.09" />
  <path d="M 364.36 0.00 L 364.36 579.09" />
  <path d="M 370.03 0.00 L 370.03 579.09" />
  <path d="M 375.70 0.00 L 375.70 579.09" />
  <path d="M 381.37 0.00 L 381.37 579.09" />
  <path d="M 387.03 0.00 L 387.03 579.09" />
  <path d="M 398.37 0.00 L 398.37 579.09" />
  <path d="M 404.04 0.00 L 404.04 579.09" />
  <path d="M 409.71 0.00 L 409.71 579.09" />
  <path d="M 415.38 0.00 L 415.38 579.09" />
  <path d="M 421.05 0.00 L 421.05 579.09" />
  <path d="M 426.72 0.00 L 426.72 579.09" />
  <path d="M 432.39 0.00 L 432.39 579.09" />
  <path d="M 438.06 0.00 L 438.06 579.09" />
  <path d="M 443.73 0.00 L 443.73 579.09" />
  <path d="M 0.00 3.06 L 452.24 3.06" />
  <path d="M 0.00 8.73 L 452.24 8.73" />
  <path d="M 0.00 14.40 L 452.24 14.40" />
  <path d="M 0.00 20.07 L 452.24 20.07" />
  <path d="M 0.00 25.74 L 452.24 25.74" />
  <path d="M 0.00 31.41 L 452.24 31.41" />
  <path d="M 0.00 42.74 L 452.24 42.74" />
  <path d="M 0.00 48.41 L 452.24 48.41" />
  <path d="M 0.00 54.08 L 452.24 54.08" />
  <path d="M 0.00 59.75 L 452.24 59.75" />
  <path d="M 0.00 65.42 L 452.24 65.42" />
  <path d="M 0.00 71.09 L 452.24 71.09" />
  <path d="M 0.00 76.76 L 452.24 76.76" />
  <path d="M 0.00 82.43 L 452.24 82.43" />
  <path d="M 0.00 88.10 L 452.24 88.10" />
  <path d="M 0.00 99.44 L 452.24 99.44" />
  <path d="M 0.00 105.11 L 452.24 105.11" />
  <path d="M 0.00 110.78 L 452.24 110.78" />
  <path d="M 0.00 116.45 L 452.24 116.45" />
  <path d="M 0.00 122.11 L 452.24 122.11" />
  <path d="M 0.00 127.78 L 452.24 127.78" />
  <path d="M 0.00 133.45 L 452.24 133.45" />
  <path d="M 0.00 139.12 L 452.24 139.12" />
  <path d="M 0.00 144.79 L 452.24 144.79" />
  <path d="M 0.00 156.13 L 452.24 156.13" />
  <path d="M 0.00 161.80 L 452.24 161.80" />
  <path d="M 0.00 167.47 L 452.24 167.47" />
  <path d="M 0.00 173.14 L 452.24 173.14" />
  <path d="M 0.00 178.81 L 452.24 178.81" />
  <path d="M 0.00 184.48 L 452.24 184.48" />
  <path d="M 0.00 190.15 L 452.24 190.15" />
  <path d="M 0.00 195.82 L 452.24 195.82" />
  <path d="M 0.00 201.48 L 452.24 201.48" />
  <path d="M 0.00 212.82 L 452.24 212.82" />
  <path d="M 0.00 218.49 L 452.24 218.49" />
  <path d="M 0.00 224.16 L 452.24 224.16" />
  <path d="M 0.00 229.83 L 452.24 229.83" />
  <path d="M 0.00 235.50 L 452.24 235.50" />
  <path d="M 0.00 241.17 L 452.24 241.17" />
  <path d="M 0.00 246.84 L 452.24 246.84" />
  <path d="M 0.00 252.51 L 452.24 252.51" />
  <path d="M 0.00 258.18 L 452.24 258.18" />
  <path d="M 0.00 269.52 L 452.24 269.52" />
  <path d="M 0.00 275.19 L 452.24 275.19" />
  <path d="M 0.00 280.85 L 452.24 280.85" />
  <path d="M 0.00 286.52 L 452.24 286.52" />
  <path d="M 0.00 292.19 L 452.24 292.19" />
  <path d="M 0.00 297.86 L 452.24 297.86" />
  <path d="M 0.00 303.53 L 452.24 303.53" />
  <path d="M 0.00 309.20 L 452.24 309.20" />
  <path d="M 0.00 314.87 L 452.24 314.87" />
  <path d="M 0.00 326.21 L 452.24 326.21" />
  <path d="M 0.00 331.88 L 452.24 331.88" />
  <path d="M 0.00 337.55 L 452.24 337.55" />
  <path d="M 0.00 343.22 L 452.24 343.22" />
  <path d="M 0.00 348.89 L 452.24 348.89" />
  <path d="M 0.00 354.56 L 452.24 354.56" />
  <path d="M 0.00 360.22 L 452.24 360.22" />
  <path d="M 0.00 365.89 L 452.24 365.89" />
  <path d="M 0.00 371.56 L 452.24 371.56" />
  <path d="M 0.00 382.90 L 452.24 382.90" />
  <path d="M 0.00 388.57 L 452.24 388.57" />
  <path d="M 0.00 394.24 L 452.24 394.24" />
  <path d="M 0.00 399.91 L 452.24 399.91" />
  <path d="M 0.00 405.58 L 452.24 405.58" />
  <path d="M 0.00 411.25 L 452.24 411.25" />
  <path d="M 0.00 416.92 L 452.24 416.92" />
  <path d="M 0.00 422.59 L 452.24 422.59" />
  <path d="M 0.00 428.26 L 452.24 428.26" />
  <path d="M 0.00 439.59 L 452.24 439.59" />
  <path d="M 0.00 445.26 L 452.24 445.26" />
  <path d="M 0.00 450.93 L 452.24 450.93" />
  <path d="M 0.00 456.60 L 452.24 456.60" />
  <path d="M 0.00 462.27 L 452.24 462.27" />
  <path d="M 0.00 467.94 L 452.24 467.94" />
  <path d="M 0.00 473.61 L 452.24 473.61" />
  <path d="M 0.00 479.28 L 452.24 479.28" />
  <path d="M 0.00 484.95 L 452.24 484.95" />
  <path d="M 0.00 496.29 L 452.24 496.29" />
  <path d="M 0.00 501.96 L 452.24 501.96" />
  <path d="M 0.00 507.63 L 452.24 507.63" />
  <path d="M 0.00 513.30 L 452.24 513.30" />
  <path d="M 0.00 518.96 L 452.24 518.96" />
  <path d="M 0.00 524.63 L 452.24 524.63" />
  <path d="M 0.00 530.30 L 452.24 530.30" />
  <path d="M 0.00 535.97 L 452.24 535.97" />
  <path d="M 0.00 541.64 L 452.24 541.64" />
  <path d="M 0.00 552.98 L 452.24 552.98" />
  <path d="M 0.00 558.65 L 452.24 558.65" />
  <path d="M 0.00 564.32 L 452.24 564.32" />
  <path d="M 0.00 569.99 L 452.24 569.99" />
  <path d="M 0.00 575.66 L 452.24 575.66" />
</g>
<g id="grid10"
 class="grid10" >
  <path d="M 52.55 0.00 L 52.55 579.09" />
  <path d="M 109.24 0.00 L 109.24 579.09" />
  <path d="M 222.63 0.00 L 222.63 579.09" />
  <path d="M 279.32 0.00 L 279.32 579.09" />
  <path d="M 336.01 0.00 L 336.01 579.09" />
  <path d="M 392.70 0.00 L 392.70 579.09" />
  <path d="M 449.40 0.00 L 449.40 579.09" />
  <path d="M 0.00 37.07 L 452.24 37.07" />
  <path d="M 0.00 93.77 L 452.24 93.77" />
  <path d="M 0.00 150.46 L 452.24 150.46" />
  <path d="M 0.00 207.15 L 452.24 207.15" />
  <path d="M 0.00 320.54 L 452.24 320.54" />
  <path d="M 0.00 377.23 L 452.24 377.23" />
  <path d="M 0.00 433.93 L 452.24 433.93" />
  <path d="M 0.00 490.62 L 452.24 490.62" />
  <path d="M 0.00 547.31 L 452.24 547.31" />
</g>
<g id="grid100"
 class="grid100" >
  <path d="M 165.93 0.00 L 165.93 579.09" />
  <path d="M 0.00 263.85 L 452.24 263.85" />
</g>
</g>
<g id="origin" class="origin"
  style="fill:none;stroke-opacity:0.8" >
  <path d="M 173.19 263.85 L 158.68 263.85M 165.93 271.10 L 165.93 256.59" />
</g>
<g id="centerline" class="centerline" inkscape:groupmode="layer" i:layer="yes" >
<g id="legs" class="legs" inkscape:groupmode="layer" i:layer="yes" >
  <path d="M 196.12 263.23 L 165.93 263.85" />
  <path d="M 244.06 263.38 L 196.12 263.23" />
  <path d="M 260.07 263.41 L 244.06 263.38" />
  <path d="M 284.27 263.70 L 260.07 263.41" />
  <path d="M 358.51 261.66 L 284.27 263.70" />
</g>
<g id="splays"
  class="splays"  inkscape:groupmode="layer" i:layer="yes" >
  <path id="splay_splays_1" d="M 358.51 261.66 L 372.82 258.95" />
  <path id="splay_splays_2" d="M 358.51 261.66 L 394.06 251.16" />
  <path id="splay_splays_3" d="M 358.51 261.66 L 317.80 255.22" />
  <path id="splay_splays_4" d="M 358.51 261.66 L 372.09 253.43" />
  <path id="splay_splays_5" d="M 358.51 261.66 L 387.78 179.13" />
  <path id="splay_splays_6" d="M 358.51 261.66 L 381.92 112.99" />
  <path id="splay_splays_7" d="M 358.51 261.66 L 355.53 83.94" />
  <path id="splay_splays_8" d="M 358.51 261.66 L 350.78 79.07" />
  <path id="splay_splays_9" d="M 358.51 261.66 L 306.53 172.81" />
  <path id="splay_splays_10" d="M 358.51 261.66 L 297.28 174.20" />
  <path id="splay_splays_11" d="M 284.27 263.70 L 301.21 264.25" />
  <path id="splay_splays_12" d="M 284.27 263.70 L 291.11 263.88" />
  <path id="splay_splays_13" d="M 284.27 263.70 L 291.51 248.68" />
  <path id="splay_splays_14" d="M 284.27 263.70 L 290.49 264.10" />
  <path id="splay_splays_15" d="M 284.27 263.70 L 276.79 263.46" />
  <path id="splay_splays_16" d="M 284.27 263.70 L 261.57 263.91" />
  <path id="splay_splays_17" d="M 284.27 263.70 L 276.50 263.83" />
  <path id="splay_splays_18" d="M 260.07 263.41 L 253.50 263.20" />
  <path id="splay_splays_19" d="M 260.07 263.41 L 270.92 263.48" />
  <path id="splay_splays_20" d="M 260.07 263.41 L 272.43 265.01" />
  <path id="splay_splays_21" d="M 260.07 263.41 L 270.77 263.68" />
  <path id="splay_splays_22" d="M 260.07 263.41 L 264.88 264.12" />
  <path id="splay_splays_23" d="M 260.07 263.41 L 265.50 235.27" />
  <path id="splay_splays_24" d="M 260.07 263.41 L 249.16 262.94" />
  <path id="splay_splays_25" d="M 260.07 263.41 L 246.50 263.80" />
  <path id="splay_splays_26" d="M 260.07 263.41 L 218.19 263.84" />
  <path id="splay_splays_27" d="M 244.06 263.38 L 250.65 262.57" />
  <path id="splay_splays_28" d="M 244.06 263.38 L 255.11 262.89" />
  <path id="splay_splays_29" d="M 244.06 263.38 L 262.79 262.87" />
  <path id="splay_splays_30" d="M 244.06 263.38 L 257.48 262.90" />
  <path id="splay_splays_31" d="M 244.06 263.38 L 229.26 263.33" />
  <path id="splay_splays_32" d="M 244.06 263.38 L 217.81 261.36" />
  <path id="splay_splays_33" d="M 244.06 263.38 L 197.35 262.34" />
  <path id="splay_splays_34" d="M 244.06 263.38 L 187.85 262.31" />
  <path id="splay_splays_35" d="M 244.06 263.38 L 178.36 262.39" />
  <path id="splay_splays_36" d="M 244.06 263.38 L 162.10 261.92" />
  <path id="splay_splays_37" d="M 244.06 263.38 L 165.07 258.21" />
  <path id="splay_splays_38" d="M 244.06 263.38 L 196.30 263.16" />
  <path id="splay_splays_39" d="M 196.12 263.23 L 238.99 263.94" />
  <path id="splay_splays_40" d="M 196.12 263.23 L 157.15 261.93" />
  <path id="splay_splays_41" d="M 196.12 263.23 L 163.12 262.37" />
  <path id="splay_splays_42" d="M 196.12 263.23 L 164.62 262.41" />
  <path id="splay_splays_43" d="M 196.12 263.23 L 231.86 103.41" />
  <path id="splay_splays_44" d="M 196.12 263.23 L 230.75 114.48" />
  <path id="splay_splays_45" d="M 196.12 263.23 L 232.88 103.50" />
  <path id="splay_splays_46" d="M 196.12 263.23 L 249.25 174.64" />
  <path id="splay_splays_47" d="M 196.12 263.23 L 202.08 145.92" />
  <path id="splay_splays_48" d="M 196.12 263.23 L 192.51 206.69" />
  <path id="splay_splays_49" d="M 196.12 263.23 L 159.65 259.85" />
  <path id="splay_splays_50" d="M 196.12 263.23 L 162.07 259.03" />
  <path id="splay_splays_51" d="M 165.93 263.85 L 155.64 118.93" />
</g>
<g id="stations" inkscape:groupmode="layer" i:layer="yes" >
<g id="station_6">
<text class="stations" fill="violet" id="s_6" x="165.93" y="268.10" >6</text>
  <path d="M 165.93 263.85 L 165.93 263.86" marker-start="url(#Station)" class="triangle" />
</g>
<g id="station_5">
<text class="stations" fill="violet" id="s_5" x="196.12" y="267.48" >5</text>
  <path d="M 196.12 263.23 L 196.12 263.24" marker-start="url(#Station)" class="triangle" />
</g>
<g id="station_3">
<text class="stations" fill="violet" id="s_3" x="244.06" y="267.63" >3</text>
  <path d="M 244.06 263.38 L 244.06 263.39" marker-start="url(#Station)" class="triangle" />
</g>
<g id="station_2">
<text class="stations" fill="violet" id="s_2" x="260.07" y="267.66" >2</text>
  <path d="M 260.07 263.41 L 260.07 263.42" marker-start="url(#Station)" class="triangle" />
</g>
<g id="station_1">
<text class="stations" fill="violet" id="s_1" x="284.27" y="267.95" >1</text>
  <path d="M 284.27 263.70 L 284.27 263.71" marker-start="url(#Station)" class="triangle" />
</g>
<g id="station_0">
<text class="stations" fill="violet" id="s_0" x="358.51" y="265.91" >0</text>
  <path d="M 358.51 261.66 L 358.51 261.67" marker-start="url(#Station)" class="triangle" />
</g>
</g>
</g>
<g id="scrap_0" inkscape:groupmode="layer" i:layer="yes" >
<g id="points_0" inkscape:groupmode="layer" i:layer="yes" >
<g id="points_water-flow_0" inkscape:groupmode="layer" i:layer="yes" >
<!-- point water-flow -->
<g class="point" style="stroke:#6699ff" >
<g transform="matrix(0.11,-7.20,7.20,0.11,329.27,269.91)" >
  <path d="M 0 0 L 0.10 0.00" marker-start="url(#water-flow)" />
</g>
</g>
<!-- point water-flow -->
<g class="point" style="stroke:#6699ff" >
<g transform="matrix(-7.20,0.00,-0.00,-7.20,362.87,118.80)" >
  <path d="M 0 0 L 0.10 0.00" marker-start="url(#water-flow)" />
</g>
</g>
</g>
<g id="points_label_0" inkscape:groupmode="layer" i:layer="yes" >
<!-- point label -->
<text x="0.00" y="0.00"  font-size="48.00" class="p_label" transform="matrix(1.00,0.00,-0.00,1.00,151.40,99.12)" >? Kamin</text>
<!-- point label -->
<text x="0.00" y="0.00"  font-size="48.00" class="p_label" transform="matrix(1.00,0.00,-0.00,1.00,234.37,66.83)" >? Kamin</text>
<!-- point label -->
<text x="0.00" y="0.00"  font-size="48.00" class="p_label" transform="matrix(1.00,0.00,-0.00,1.00,343.74,56.69)" >? Kamin</text>
</g>
<g id="points_blocks_0" inkscape:groupmode="layer" i:layer="yes" >
<!-- point blocks -->
<g class="point" style="stroke:#ffcc66" >
<g transform="matrix(10.00,0.00,-0.00,10.00,358.92,262.90)" >
  <path d="M 0 0 L 0.10 0.00" marker-start="url(#blocks)" />
</g>
</g>
<!-- point blocks -->
<g class="point" style="stroke:#ffcc66" >
<g transform="matrix(5.00,0.00,-0.00,5.00,365.45,261.81)" >
  <path d="M 0 0 L 0.10 0.00" marker-start="url(#blocks)" />
</g>
</g>
<!-- point blocks -->
<g class="point" style="stroke:#ffcc66" >
<g transform="matrix(5.00,0.00,-0.00,5.00,352.01,263.89)" >
  <path d="M 0 0 L 0.10 0.00" marker-start="url(#blocks)" />
</g>
</g>
</g>
</g>
<g id="lines_0" inkscape:groupmode="layer" i:layer="yes" >
<g id="lines_wall_0" inkscape:groupmode="layer" i:layer="yes" >
  <path class="l_wall" d="M 303.17 279.12 L 307.82 278.63 L 311.63 276.91 L 316.01 276.34 L 320.37 275.91 L 324.81 276.10 L 330.09 276.09 L 332.93 277.67 L 335.40 276.63 L 337.31 275.73 L 338.81 273.92 L 340.84 273.03 L 342.94 272.10 L 344.83 271.06 L 346.28 269.42 L 348.50 268.63 L 350.60 268.23 L 352.01 267.00 L 353.79 266.16 L 355.91 265.81 L 357.99 265.57 L 359.64 264.38 L 362.09 264.08 L 364.41 263.98 L 366.39 263.29 L 369.00 263.14 L 371.33 262.90 L 373.63 262.46 L 376.21 262.40 L 378.72 262.70 L 380.62 261.66 L 383.14 260.97 L 386.00 260.41 L 388.72 260.18 L 395.55 255.49 L 395.09 251.86 L 393.80 248.03 L 392.50 244.15 L 389.48 241.25 L 387.63 237.91 L 388.46 233.66 L 387.81 229.44 L 385.79 225.48 L 384.87 221.62 L 384.96 217.33 L 385.33 213.37 L 386.43 208.83 L 387.26 204.87 L 389.38 201.28 L 390.94 197.32 L 392.05 192.17 L 392.51 188.12 L 390.76 183.61 L 387.74 181.13 L 384.96 178.27 L 383.67 173.58 L 383.12 169.21 L 383.12 165.02 L 382.94 160.88 L 382.72 156.63 L 382.75 152.13 L 382.94 147.64 L 382.94 143.80 L 382.94 139.14 L 382.84 134.92 L 382.75 130.39 L 382.57 126.09 L 382.57 121.74 L 382.38 117.79 L 382.38 113.49 L 382.20 109.50 L 380.91 104.73 L 376.62 102.42 L 371.16 100.41 L 369.13 97.00 L 365.63 93.41 L 361.03 91.39 L 357.54 89.73 L 356.18 86.17 L 356.43 81.82 L 356.61 77.72 L 356.43 73.66 L 356.25 69.72 L 358.09 67.09" />
  <path class="l_wall" d="M 340.92 65.18 L 343.27 69.54 L 346.95 73.37 L 348.11 78.50 L 348.07 83.48 L 344.01 86.10 L 342.33 90.87 L 340.09 96.06 L 342.53 99.86 L 342.44 103.72 L 342.44 108.32 L 342.63 112.58 L 342.81 117.10 L 343.18 121.57 L 343.55 125.80 L 342.99 129.97 L 342.17 134.19 L 341.34 138.33 L 338.00 140.73 L 334.03 142.44 L 330.75 144.49 L 328.91 148.27 L 327.99 152.59 L 325.97 156.46 L 322.65 159.40 L 318.70 162.07 L 315.84 164.56 L 311.43 166.12 L 307.19 166.31 L 303.14 167.78 L 300.20 170.91 L 297.07 172.93 L 295.23 176.15 L 294.95 180.11 L 294.77 184.05" />
  <path class="l_wall" d="M 292.56 180.66 L 295.87 184.34 L 298.08 188.58 L 299.65 192.35 L 301.80 195.83 L 301.76 200.36 L 304.43 204.13 L 308.48 206.52 L 312.63 208.64 L 315.23 211.82 L 316.12 215.64 L 317.78 219.22 L 319.79 222.70 L 321.85 226.17 L 322.38 230.08 L 321.83 234.23 L 321.27 238.06 L 321.46 242.33 L 319.80 245.72 L 316.80 248.45 L 313.13 249.58 L 308.35 249.25 L 304.47 248.19 L 300.80 245.93 L 296.88 244.99 L 293.05 245.35 L 289.06 245.09 L 284.89 243.80 L 280.47 241.69 L 277.07 239.72 L 274.09 236.72 L 270.03 235.25 L 266.61 233.40 L 263.03 232.94 L 259.06 232.29" />
  <path class="l_wall" d="M 158.25 259.72 L 158.80 264.03 L 158.62 265.96" />
  <path class="l_wall" d="M 159.54 270.55 L 159.91 275.73 L 160.64 280.18 L 161.65 284.77 L 162.35 289.12 L 163.58 292.67" />
  <path class="l_wall" d="M 233.43 86.87 L 233.19 92.00 L 231.31 96.53 L 226.12 98.18 L 221.94 101.66 L 218.21 105.41 L 216.81 110.08 L 215.75 115.71 L 215.05 122.44 L 211.95 127.20 L 211.28 132.14 L 209.99 136.09 L 207.15 139.02 L 204.21 141.68 L 200.45 144.62 L 198.44 148.07 L 197.97 152.47 L 197.60 157.25 L 196.87 162.72 L 195.86 167.75 L 194.76 172.52 L 193.66 177.00 L 193.20 180.87 L 192.74 184.81 L 192.83 190.14 L 192.46 194.63 L 191.91 198.40 L 190.73 202.58 L 190.08 207.15 L 188.15 210.42 L 184.86 212.62 L 175.76 207.48 L 173.14 204.68 L 172.09 200.69 L 172.00 196.47 L 172.09 192.39" />
  <path class="l_wall" d="M 261.64 230.64 L 256.67 231.65 L 252.89 233.12 L 250.96 237.14 L 250.78 241.13 L 250.32 245.27 L 248.60 248.64 L 245.10 250.79 L 240.01 252.27 L 236.92 249.69 L 232.74 247.45 L 228.51 245.86 L 225.02 243.54 L 224.45 239.49 L 224.27 235.16 L 224.64 231.18 L 227.07 227.28 L 230.67 224.65 L 233.75 221.25 L 236.42 217.66 L 237.43 212.97 L 237.94 208.78 L 239.92 205.33 L 243.14 202.01 L 245.81 198.89 L 248.27 195.38 L 249.76 191.81 L 250.32 187.93 L 250.22 183.70 L 250.04 179.93 L 249.86 176.08 L 250.11 172.15 L 249.47 168.01 L 247.83 164.10 L 244.52 160.97 L 241.94 157.19 L 240.42 153.55 L 239.73 149.58 L 238.98 145.89 L 238.44 141.18 L 238.08 136.85 L 238.54 132.62 L 239.55 128.10 L 236.26 127.64 L 236.02 122.23 L 234.84 117.48 L 234.84 111.85 L 235.55 106.55 L 236.02 101.71 L 236.26 96.48 L 236.81 91.73 L 238.26 86.51 L 241.78 82.99 L 245.56 78.78 L 247.33 76.96" />
  <path class="l_wall" d="M 312.28 276.76 L 305.02 276.32 L 297.01 277.24 L 293.77 276.01" />
  <path class="l_wall" d="M 300.95 275.44 L 295.89 274.62 L 290.14 273.79 L 285.40 272.61 L 279.51 273.67 L 277.04 273.32" />
  <path class="l_wall" d="M 161.19 215.31 L 161.74 219.43 L 161.56 224.04 L 161.19 228.52 L 161.01 233.27 L 161.01 237.58 L 161.37 241.94 L 161.01 246.78 L 160.64 250.88 L 160.46 255.04 L 159.49 259.03 L 158.44 263.16" />
  <path class="l_wall" d="M 278.45 276.15 L 274.20 279.47" />
  <path class="l_wall" d="M 155.17 268.84 L 154.64 274.16 L 154.70 280.16 L 156.11 285.81 L 158.11 293.12 L 159.76 297.95 L 162.00 303.14 L 163.77 308.09 L 165.15 313.88 L 166.13 319.52" />
  <path class="l_wall" d="M 277.75 288.69 L 268.65 290.57 L 261.45 299.89 L 259.29 309.91 L 259.68 321.07 L 259.68 329.75 L 259.68 339.38 L 258.89 347.43 L 257.72 356.08 L 257.52 364.72 L 258.11 373.56 L 257.32 384.16 L 251.62 393.01 L 242.79 398.90 L 233.97 404.26 L 229.26 413.26 L 222.59 421.86 L 214.70 427.38 L 204.92 435.18 L 201.44 444.27 L 197.72 452.20 L 193.37 460.80 L 186.03 467.84 L 178.74 472.37 L 172.26 484.55 L 166.68 490.87" />
  <path class="l_wall" d="M 160.28 321.70 L 156.74 329.16" />
  <path class="l_wall" d="M 166.10 314.45 L 161.44 324.63 L 161.21 337.33 L 159.66 348.88 L 154.01 360.44 L 144.55 372.43 L 136.02 381.41 L 128.63 391.86 L 124.40 403.56 L 113.47 411.52 L 102.56 415.98 L 94.34 422.64 L 87.06 429.92 L 73.26 438.18 L 62.79 442.64 L 56.69 450.71" />
  <path class="l_wall" d="M 173.93 197.75 L 172.82 193.16" />
  <path class="l_wall" d="M 160.82 215.15 L 159.93 211.11 L 158.73 206.54 L 157.31 202.77 L 155.22 198.85 L 153.79 195.09 L 152.82 190.83 L 152.37 186.41 L 152.29 182.67 L 152.14 179.00 L 151.99 175.34 L 151.99 171.75 L 152.14 168.38 L 152.29 164.24 L 152.14 160.07 L 152.14 156.51 L 152.14 152.81 L 152.14 149.36 L 151.99 145.85 L 151.99 142.56 L 151.99 139.34 L 152.14 135.95 L 152.29 132.51 L 152.29 128.79 L 152.14 125.28 L 151.69 121.85 L 151.69 118.69" />
  <path class="l_wall" d="M 173.84 193.75 L 173.84 190.55 L 173.34 186.40 L 172.35 182.90 L 170.03 179.83 L 167.64 176.46 L 166.03 173.17 L 165.83 169.44 L 166.06 165.68 L 165.46 162.39 L 164.49 158.35 L 163.97 154.86 L 163.82 151.21 L 163.97 147.35 L 163.82 143.68 L 163.82 140.50 L 163.97 137.17 L 163.67 133.96 L 163.22 130.53 L 162.77 127.29 L 161.87 124.15 L 159.35 121.40 L 157.34 118.72 L 156.93 116.37" />
</g>
</g>
<g id="areas_0" inkscape:groupmode="layer" i:layer="yes" >
<g id="areas_water_0" inkscape:groupmode="layer" i:layer="yes" >
  <path class="a_water" d="M 345.65 264.86 L 339.95 265.08 L 335.08 264.53 L 330.59 264.86 L 326.06 265.80 L 320.18 265.73 L 315.46 265.52 L 310.45 264.97 L 305.98 265.08 L 300.75 265.08 L 295.47 265.18 L 288.79 265.18 L 284.18 266.06 L 278.79 266.61 L 274.08 266.39 L 269.11 266.61 L 264.55 266.39 L 259.76 266.50 L 254.22 266.61 L 249.19 266.82 L 242.98 266.39 L 237.86 266.82 L 233.28 266.39 L 227.72 265.62 L 222.56 265.52 L 217.25 266.28 L 209.38 267.29 L 204.11 268.66 L 198.18 269.55 L 193.23 269.34 L 187.50 268.13 L 181.28 267.04 L 175.83 265.95 L 170.60 265.95 L 165.15 267.15 L 160.14 269.11 L 158.98 273.65 L 158.61 278.25 L 159.28 283.07 L 161.63 288.34 L 165.50 293.85 L 169.23 300.05 L 171.01 305.65 L 172.35 311.51 L 268.70 280.88 L 270.44 275.98 L 275.35 273.36 L 279.71 271.29 L 284.18 272.16 L 290.32 273.63 L 294.79 274.33 L 300.20 274.02 L 305.43 274.67 L 310.56 275.22 L 315.98 273.50 L 320.98 273.08 L 327.08 272.27 L 331.91 272.06 L 337.22 271.40 L 342.51 270.70 L 345.93 267.58 Z " />
  <path class="a_water" d="M 265.18 285.16 L 262.43 293.02 L 259.48 301.27 Z " />
  <path class="a_water" d="M 261.63 286.45 L 252.30 297.78 L 250.97 309.11 L 250.97 320.22 L 250.52 330.62 L 250.52 340.66 L 250.52 351.10 L 250.08 361.61 L 248.11 370.82 L 245.86 381.76 L 240.30 391.54 L 231.99 399.00 L 222.94 405.57 L 217.20 413.76 L 211.17 422.67 L 201.50 429.33 L 193.20 435.31 L 187.65 445.97 L 182.98 455.97 L 175.43 466.41 L 166.61 472.88 L 158.94 482.52 L 154.77 493.07 L 150.99 501.96 L 139.47 510.21 L 127.37 514.56 L 116.53 519.85 L 101.23 522.40 L 90.78 520.84 L 79.68 519.06 L 69.23 515.95 L 60.76 510.32 L 60.35 500.46 L 62.33 489.23 L 62.39 477.77 L 64.38 466.68 L 71.23 457.97 L 81.90 455.30 L 90.36 448.84 L 95.59 440.10 L 105.22 433.75 L 113.27 428.17 L 121.00 420.20 L 125.00 410.42 L 133.88 402.42 L 142.55 395.98 L 149.88 387.76 L 154.29 379.47 L 157.08 367.44 L 161.71 357.33 L 166.23 347.36 L 167.43 337.53 L 168.99 326.44 L 175.43 319.78 L 174.54 310.19 L 173.65 300.89 L 182.09 294.01 L 192.94 289.03 L 208.98 283.34 L 220.09 275.34 L 229.93 272.23 L 243.64 275.46 L 250.97 280.64 L 251.86 291.46 L 256.08 296.45 L 264.28 289.80 Z " />
</g>
<g id="areas_sand_0" inkscape:groupmode="layer" i:layer="yes" >
  <path class="a_sand" d="M 370.18 264.03 L 372.25 263.79 L 374.59 263.56 L 376.10 263.09 L 378.31 262.70 L 380.35 262.54 L 381.84 262.05 L 383.93 260.90 L 386.16 260.55 L 387.76 259.73 L 389.72 259.03 L 391.72 258.38 L 392.92 257.20 L 391.75 256.06 L 388.94 256.25 L 387.07 256.53 L 384.52 257.03 L 382.41 257.54 L 380.92 258.71 L 378.97 259.59 L 377.10 260.11 L 375.95 261.39 L 374.36 262.11 L 372.05 262.58 L 370.33 263.13 L 368.46 263.56 L 366.11 263.75 L 365.33 264.11 Z " />
</g>
</g>
</g>
</svg>
