0
SECTION
2
HEADER
9
$ACADVER
1
AC1002
9
$INSUNITS
70
4
0
ENDSEC
0
SECTION
2
TABLES
0
TABLE
2
LTYPE
70
1
0
LTYPE
2
DASH
70
0
3
---
72
65
73
2
40
0.6
49
0.3
49
-0.3
0
ENDTAB
0
ENDSEC
0
SECTION
2
ENTITIES
0
POLYLINE
66
1
8
Sketch
62
30
0
VERTEX
8
Sketch
10
20.43
20
32.47
0
VERTEX
8
Sketch
10
19.73
20
31.47
0
VERTEX
8
Sketch
10
19.73
20
31.27
0
VERTEX
8
Sketch
10
20.03
20
31.07
0
VERTEX
8
Sketch
10
20.73
20
31.17
0
VERTEX
8
Sketch
10
21.13
20
31.37
0
VERTEX
8
Sketch
10
21.63
20
31.97
0
VERTEX
8
Sketch
10
21.43
20
32.57
0
VERTEX
8
Sketch
10
20.93
20
32.97
0
VERTEX
8
Sketch
10
20.73
20
32.97
0
VERTEX
8
Sketch
10
20.43
20
32.77
0
VERTEX
8
Sketch
10
20.23
20
32.77
0
SEQEND
0
POLYLINE
66
1
8
Sketch
62
30
0
VERTEX
8
Sketch
10
17.73
20
33.07
0
VERTEX
8
Sketch
10
18.13
20
32.57
0
VERTEX
8
Sketch
10
18.63
20
32.47
0
VERTEX
8
Sketch
10
19.43
20
32.67
0
SEQEND
0
POLYLINE
66
1
8
Sketch
62
30
0
VERTEX
8
Sketch
10
18.83
20
32.57
0
VERTEX
8
Sketch
10
18.63
20
31.97
0
VERTEX
8
Sketch
10
18.63
20
30.87
0
SEQEND
0
POLYLINE
66
1
8
Sketch
62
30
0
VERTEX
8
Sketch
10
16.23
20
31.67
0
VERTEX
8
Sketch
10
16.83
20
31.77
0
VERTEX
8
Sketch
10
17.03
20
31.87
0
VERTEX
8
Sketch
10
17.53
20
31.87
0
VERTEX
8
Sketch
10
17.73
20
31.97
0
SEQEND
0
POLYLINE
66
1
8
Sketch
62
30
0
VERTEX
8
Sketch
10
16.43
20
32.57
0
VERTEX
8
Sketch
10
16.03
20
31.47
0
VERTEX
8
Sketch
10
16.03
20
31.27
0
VERTEX
8
Sketch
10
16.33
20
31.67
0
VERTEX
8
Sketch
10
16.73
20
32.87
0
VERTEX
8
Sketch
10
16.83
20
33.07
0
VERTEX
8
Sketch
10
16.73
20
32.77
0
VERTEX
8
Sketch
10
16.93
20
31.77
0
VERTEX
8
Sketch
10
17.43
20
30.97
0
SEQEND
0
POLYLINE
66
1
8
Sketch
62
30
0
VERTEX
8
Sketch
10
14.63
20
32.47
0
VERTEX
8
Sketch
10
14.73
20
31.87
0
VERTEX
8
Sketch
10
14.63
20
31.37
0
VERTEX
8
Sketch
10
14.63
20
30.97
0
VERTEX
8
Sketch
10
14.53
20
30.77
0
VERTEX
8
Sketch
10
14.93
20
31.07
0
VERTEX
8
Sketch
10
15.23
20
31.07
0
VERTEX
8
Sketch
10
15.33
20
30.87
0
VERTEX
8
Sketch
10
15.53
20
30.87
0
SEQEND
0
POLYLINE
66
1
8
Sketch
62
30
0
VERTEX
8
Sketch
10
11.83
20
32.67
0
VERTEX
8
Sketch
10
12.63
20
33.07
0
VERTEX
8
Sketch
10
13.03
20
33.07
0
VERTEX
8
Sketch
10
13.33
20
32.97
0
VERTEX
8
Sketch
10
13.53
20
32.67
0
VERTEX
8
Sketch
10
13.13
20
31.97
0
VERTEX
8
Sketch
10
13.73
20
31.97
0
VERTEX
8
Sketch
10
14.13
20
31.67
0
VERTEX
8
Sketch
10
13.93
20
31.07
0
VERTEX
8
Sketch
10
13.23
20
30.77
0
VERTEX
8
Sketch
10
12.23
20
30.97
0
VERTEX
8
Sketch
10
12.03
20
31.17
0
VERTEX
8
Sketch
10
12.13
20
31.37
0
SEQEND
0
POLYLINE
66
1
8
Sketch
62
30
0
VERTEX
8
Sketch
10
12.73
20
32.57
0
VERTEX
8
Sketch
10
12.53
20
31.97
0
VERTEX
8
Sketch
10
12.53
20
30.97
0
SEQEND
0
POLYLINE
66
1
8
Sketch
62
30
0
VERTEX
8
Sketch
10
8.63
20
31.77
0
VERTEX
8
Sketch
10
9.13
20
31.97
0
VERTEX
8
Sketch
10
9.73
20
31.97
0
VERTEX
8
Sketch
10
10.23
20
32.07
0
VERTEX
8
Sketch
10
10.43
20
32.27
0
VERTEX
8
Sketch
10
10.23
20
31.97
0
VERTEX
8
Sketch
10
9.63
20
31.77
0
VERTEX
8
Sketch
10
8.43
20
31.57
0
VERTEX
8
Sketch
10
8.63
20
31.67
0
SEQEND
0
POLYLINE
66
1
8
Sketch
62
30
0
VERTEX
8
Sketch
10
8.13
20
31.87
0
VERTEX
8
Sketch
10
8.43
20
31.37
0
VERTEX
8
Sketch
10
8.73
20
31.17
0
SEQEND
0
POLYLINE
66
1
8
Sketch
62
5
0
VERTEX
8
Sketch
10
19.13
20
34.27
0
VERTEX
8
Sketch
10
19.33
20
34.07
0
VERTEX
8
Sketch
10
19.93
20
34.17
0
SEQEND
0
POLYLINE
66
1
8
Sketch
62
5
0
VERTEX
8
Sketch
10
18.83
20
35.27
0
VERTEX
8
Sketch
10
18.53
20
33.77
0
VERTEX
8
Sketch
10
19.03
20
34.57
0
VERTEX
8
Sketch
10
19.33
20
35.47
0
VERTEX
8
Sketch
10
19.63
20
34.47
0
VERTEX
8
Sketch
10
19.73
20
33.77
0
VERTEX
8
Sketch
10
19.93
20
33.47
0
SEQEND
0
POLYLINE
66
1
8
Sketch
62
5
0
VERTEX
8
Sketch
10
16.13
20
35.47
0
VERTEX
8
Sketch
10
16.43
20
34.97
0
VERTEX
8
Sketch
10
17.63
20
34.27
0
VERTEX
8
Sketch
10
17.73
20
34.07
0
VERTEX
8
Sketch
10
17.33
20
33.97
0
VERTEX
8
Sketch
10
17.13
20
33.77
0
VERTEX
8
Sketch
10
16.73
20
33.77
0
SEQEND
0
POLYLINE
66
1
8
Sketch
62
5
0
VERTEX
8
Sketch
10
16.73
20
34.67
0
VERTEX
8
Sketch
10
16.73
20
34.07
0
VERTEX
8
Sketch
10
16.83
20
33.57
0
SEQEND
0
POLYLINE
66
1
8
Sketch
62
5
0
VERTEX
8
Sketch
10
14.73
20
34.57
0
VERTEX
8
Sketch
10
14.33
20
34.27
0
VERTEX
8
Sketch
10
14.43
20
33.87
0
VERTEX
8
Sketch
10
14.83
20
33.57
0
VERTEX
8
Sketch
10
15.43
20
33.57
0
VERTEX
8
Sketch
10
15.73
20
33.87
0
VERTEX
8
Sketch
10
15.83
20
34.27
0
VERTEX
8
Sketch
10
15.63
20
34.87
0
VERTEX
8
Sketch
10
15.43
20
35.07
0
VERTEX
8
Sketch
10
15.23
20
34.87
0
SEQEND
0
POLYLINE
66
1
8
Sketch
62
5
0
VERTEX
8
Sketch
10
12.53
20
34.77
0
VERTEX
8
Sketch
10
12.63
20
34.17
0
VERTEX
8
Sketch
10
12.83
20
33.47
0
VERTEX
8
Sketch
10
13.33
20
33.37
0
VERTEX
8
Sketch
10
13.63
20
33.87
0
VERTEX
8
Sketch
10
13.83
20
34.67
0
SEQEND
0
POLYLINE
66
1
8
Sketch
62
5
0
VERTEX
8
Sketch
10
7.53
20
33.57
0
VERTEX
8
Sketch
10
7.63
20
33.77
0
VERTEX
8
Sketch
10
8.53
20
34.27
0
VERTEX
8
Sketch
10
9.53
20
34.17
0
VERTEX
8
Sketch
10
9.93
20
34.17
0
VERTEX
8
Sketch
10
10.23
20
34.37
0
SEQEND
0
POLYLINE
66
1
8
Sketch
62
0
0
VERTEX
8
Sketch
10
20.93
20
37.17
0
VERTEX
8
Sketch
10
21.53
20
36.97
0
SEQEND
0
POLYLINE
66
1
8
Sketch
62
0
0
VERTEX
8
Sketch
10
20.63
20
38.07
0
VERTEX
8
Sketch
10
20.63
20
37.57
0
VERTEX
8
Sketch
10
20.43
20
37.07
0
VERTEX
8
Sketch
10
20.43
20
37.07
0
VERTEX
8
Sketch
10
20.93
20
38.57
0
VERTEX
8
Sketch
10
21.13
20
38.17
0
VERTEX
8
Sketch
10
21.23
20
37.37
0
VERTEX
8
Sketch
10
21.83
20
36.07
0
SEQEND
0
POLYLINE
66
1
8
Sketch
62
0
0
VERTEX
8
Sketch
10
17.83
20
37.67
0
VERTEX
8
Sketch
10
18.13
20
36.77
0
VERTEX
8
Sketch
10
18.73
20
36.57
0
VERTEX
8
Sketch
10
19.13
20
36.67
0
VERTEX
8
Sketch
10
19.83
20
37.57
0
VERTEX
8
Sketch
10
19.93
20
37.97
0
VERTEX
8
Sketch
10
19.93
20
38.17
0
VERTEX
8
Sketch
10
19.63
20
38.07
0
SEQEND
0
POLYLINE
66
1
8
Sketch
62
0
0
VERTEX
8
Sketch
10
18.03
20
37.87
0
VERTEX
8
Sketch
10
17.53
20
36.47
0
VERTEX
8
Sketch
10
17.43
20
36.27
0
SEQEND
0
POLYLINE
66
1
8
Sketch
62
0
0
VERTEX
8
Sketch
10
15.93
20
38.17
0
VERTEX
8
Sketch
10
16.03
20
37.87
0
VERTEX
8
Sketch
10
16.53
20
38.07
0
VERTEX
8
Sketch
10
16.93
20
38.07
0
SEQEND
0
POLYLINE
66
1
8
Sketch
62
0
0
VERTEX
8
Sketch
10
16.03
20
37.17
0
VERTEX
8
Sketch
10
16.03
20
37.37
0
VERTEX
8
Sketch
10
16.33
20
37.47
0
VERTEX
8
Sketch
10
16.83
20
37.37
0
VERTEX
8
Sketch
10
17.03
20
37.17
0
SEQEND
0
POLYLINE
66
1
8
Sketch
62
0
0
VERTEX
8
Sketch
10
15.93
20
37.67
0
VERTEX
8
Sketch
10
15.93
20
36.87
0
VERTEX
8
Sketch
10
15.83
20
36.17
0
VERTEX
8
Sketch
10
16.03
20
36.27
0
VERTEX
8
Sketch
10
16.23
20
36.17
0
VERTEX
8
Sketch
10
16.43
20
36.27
0
SEQEND
0
POLYLINE
66
1
8
Sketch
62
0
0
VERTEX
8
Sketch
10
13.63
20
37.77
0
VERTEX
8
Sketch
10
14.13
20
38.07
0
VERTEX
8
Sketch
10
14.63
20
38.17
0
VERTEX
8
Sketch
10
15.13
20
38.17
0
VERTEX
8
Sketch
10
15.43
20
38.27
0
SEQEND
0
POLYLINE
66
1
8
Sketch
62
0
0
VERTEX
8
Sketch
10
14.63
20
37.77
0
VERTEX
8
Sketch
10
14.53
20
37.17
0
VERTEX
8
Sketch
10
14.53
20
36.37
0
SEQEND
0
POLYLINE
66
1
8
Sketch
62
0
0
VERTEX
8
Sketch
10
13.73
20
37.77
0
VERTEX
8
Sketch
10
13.53
20
37.97
0
VERTEX
8
Sketch
10
13.13
20
37.97
0
VERTEX
8
Sketch
10
12.53
20
37.67
0
VERTEX
8
Sketch
10
12.23
20
37.17
0
VERTEX
8
Sketch
10
13.33
20
36.77
0
VERTEX
8
Sketch
10
13.53
20
36.47
0
VERTEX
8
Sketch
10
13.13
20
36.07
0
VERTEX
8
Sketch
10
12.83
20
36.07
0
VERTEX
8
Sketch
10
12.63
20
35.97
0
VERTEX
8
Sketch
10
12.43
20
36.07
0
SEQEND
0
POLYLINE
66
1
8
Sketch
62
0
0
VERTEX
8
Sketch
10
7.23
20
36.67
0
VERTEX
8
Sketch
10
8.33
20
36.67
0
VERTEX
8
Sketch
10
8.53
20
36.87
0
VERTEX
8
Sketch
10
9.23
20
36.67
0
VERTEX
8
Sketch
10
9.63
20
36.77
0
VERTEX
8
Sketch
10
10.13
20
36.87
0
VERTEX
8
Sketch
10
10.53
20
36.97
0
SEQEND
0
POLYLINE
66
1
8
Sketch
62
0
0
VERTEX
8
Sketch
10
5.05
20
6.28
0
VERTEX
8
Sketch
10
5.14
20
6.19
0
SEQEND
0
POLYLINE
66
1
8
Sketch
62
0
0
VERTEX
8
Sketch
10
8.62
20
-2.87
0
VERTEX
8
Sketch
10
8.53
20
-2.63
0
VERTEX
8
Sketch
10
8.56
20
-2.57
0
VERTEX
8
Sketch
10
8.5
20
-2.36
0
VERTEX
8
Sketch
10
8.5
20
-2.27
0
VERTEX
8
Sketch
10
8.47
20
-2.15
0
VERTEX
8
Sketch
10
8.47
20
-1.97
0
VERTEX
8
Sketch
10
8.62
20
-1.79
0
VERTEX
8
Sketch
10
8.8
20
-1.64
0
VERTEX
8
Sketch
10
8.86
20
-1.55
0
VERTEX
8
Sketch
10
9.01
20
-1.43
0
VERTEX
8
Sketch
10
9.04
20
-1.37
0
VERTEX
8
Sketch
10
9.25
20
-1.22
0
VERTEX
8
Sketch
10
9.28
20
-1.16
0
VERTEX
8
Sketch
10
9.43
20
-1.1
0
VERTEX
8
Sketch
10
9.46
20
-1.04
0
VERTEX
8
Sketch
10
9.73
20
-0.92
0
VERTEX
8
Sketch
10
9.82
20
-0.92
0
VERTEX
8
Sketch
10
9.94
20
-0.98
0
VERTEX
8
Sketch
10
10
20
-0.95
0
VERTEX
8
Sketch
10
10.06
20
-1.01
0
VERTEX
8
Sketch
10
10.45
20
-1.01
0
VERTEX
8
Sketch
10
10.57
20
-1.1
0
VERTEX
8
Sketch
10
10.96
20
-1.22
0
VERTEX
8
Sketch
10
11.02
20
-1.25
0
VERTEX
8
Sketch
10
11.23
20
-1.25
0
VERTEX
8
Sketch
10
11.35
20
-1.28
0
VERTEX
8
Sketch
10
11.41
20
-1.34
0
VERTEX
8
Sketch
10
11.74
20
-1.43
0
VERTEX
8
Sketch
10
11.98
20
-1.52
0
VERTEX
8
Sketch
10
12.16
20
-1.52
0
VERTEX
8
Sketch
10
12.31
20
-1.64
0
VERTEX
8
Sketch
10
12.34
20
-1.73
0
VERTEX
8
Sketch
10
12.52
20
-1.91
0
VERTEX
8
Sketch
10
12.55
20
-2
0
VERTEX
8
Sketch
10
12.61
20
-2.06
0
VERTEX
8
Sketch
10
12.67
20
-2.06
0
VERTEX
8
Sketch
10
12.79
20
-2.12
0
VERTEX
8
Sketch
10
12.85
20
-2.12
0
VERTEX
8
Sketch
10
12.91
20
-2.15
0
VERTEX
8
Sketch
10
13.06
20
-2.15
0
VERTEX
8
Sketch
10
13.12
20
-2.18
0
VERTEX
8
Sketch
10
13.21
20
-2.33
0
VERTEX
8
Sketch
10
13.33
20
-2.42
0
VERTEX
8
Sketch
10
13.39
20
-2.51
0
VERTEX
8
Sketch
10
13.51
20
-2.51
0
VERTEX
8
Sketch
10
13.66
20
-2.75
0
VERTEX
8
Sketch
10
13.66
20
-2.9
0
VERTEX
8
Sketch
10
13.27
20
-2.96
0
VERTEX
8
Sketch
10
13.03
20
-2.96
0
VERTEX
8
Sketch
10
12.97
20
-2.99
0
VERTEX
8
Sketch
10
12.91
20
-2.96
0
VERTEX
8
Sketch
10
12.82
20
-2.96
0
VERTEX
8
Sketch
10
12.73
20
-2.99
0
VERTEX
8
Sketch
10
12.67
20
-2.93
0
VERTEX
8
Sketch
10
12.4
20
-2.93
0
VERTEX
8
Sketch
10
12.07
20
-2.99
0
VERTEX
8
Sketch
10
11.98
20
-2.99
0
VERTEX
8
Sketch
10
11.8
20
-3.11
0
VERTEX
8
Sketch
10
11.59
20
-3.11
0
VERTEX
8
Sketch
10
11.53
20
-3.14
0
VERTEX
8
Sketch
10
11.44
20
-3.14
0
VERTEX
8
Sketch
10
11.32
20
-3.05
0
VERTEX
8
Sketch
10
11.17
20
-3.05
0
VERTEX
8
Sketch
10
11.11
20
-3.02
0
VERTEX
8
Sketch
10
11.02
20
-3.02
0
VERTEX
8
Sketch
10
10.9
20
-2.99
0
VERTEX
8
Sketch
10
10.81
20
-2.93
0
VERTEX
8
Sketch
10
10.75
20
-2.93
0
VERTEX
8
Sketch
10
10.69
20
-2.9
0
VERTEX
8
Sketch
10
10.48
20
-2.9
0
VERTEX
8
Sketch
10
10.27
20
-2.96
0
VERTEX
8
Sketch
10
10.18
20
-2.96
0
VERTEX
8
Sketch
10
10.12
20
-3.02
0
VERTEX
8
Sketch
10
9.97
20
-3.05
0
VERTEX
8
Sketch
10
9.91
20
-2.99
0
VERTEX
8
Sketch
10
9.82
20
-2.99
0
VERTEX
8
Sketch
10
9.67
20
-3.02
0
VERTEX
8
Sketch
10
9.52
20
-2.99
0
VERTEX
8
Sketch
10
9.46
20
-2.96
0
VERTEX
8
Sketch
10
9.4
20
-3.02
0
VERTEX
8
Sketch
10
9.31
20
-3.02
0
VERTEX
8
Sketch
10
9.25
20
-2.99
0
VERTEX
8
Sketch
10
9.04
20
-3.05
0
VERTEX
8
Sketch
10
8.65
20
-2.9
0
VERTEX
8
Sketch
10
8.59
20
-2.84
0
SEQEND
0
POLYLINE
66
1
8
Sketch
62
0
0
VERTEX
8
Sketch
10
3.64
20
-5.93
0
VERTEX
8
Sketch
10
3.67
20
-5.87
0
VERTEX
8
Sketch
10
4
20
-5.66
0
VERTEX
8
Sketch
10
4.06
20
-5.6
0
VERTEX
8
Sketch
10
4.15
20
-5.57
0
VERTEX
8
Sketch
10
4.45
20
-5.24
0
VERTEX
8
Sketch
10
4.48
20
-5.18
0
VERTEX
8
Sketch
10
4.54
20
-5.15
0
VERTEX
8
Sketch
10
4.54
20
-5.09
0
VERTEX
8
Sketch
10
4.57
20
-5.03
0
VERTEX
8
Sketch
10
4.57
20
-4.94
0
VERTEX
8
Sketch
10
4.6
20
-4.82
0
VERTEX
8
Sketch
10
4.42
20
-4.46
0
VERTEX
8
Sketch
10
3.88
20
-3.77
0
VERTEX
8
Sketch
10
3.67
20
-3.71
0
VERTEX
8
Sketch
10
3.52
20
-3.71
0
VERTEX
8
Sketch
10
3.34
20
-3.59
0
VERTEX
8
Sketch
10
3.25
20
-3.47
0
VERTEX
8
Sketch
10
3.13
20
-3.38
0
VERTEX
8
Sketch
10
3.13
20
-3.32
0
VERTEX
8
Sketch
10
3.04
20
-3.17
0
VERTEX
8
Sketch
10
3.04
20
-3.11
0
VERTEX
8
Sketch
10
2.68
20
-2.39
0
VERTEX
8
Sketch
10
2.68
20
-2.27
0
VERTEX
8
Sketch
10
2.65
20
-2.21
0
VERTEX
8
Sketch
10
2.65
20
-2.12
0
VERTEX
8
Sketch
10
2.62
20
-2
0
VERTEX
8
Sketch
10
2.62
20
-1.94
0
VERTEX
8
Sketch
10
2.53
20
-1.73
0
VERTEX
8
Sketch
10
2.53
20
-1.67
0
VERTEX
8
Sketch
10
2.47
20
-1.43
0
VERTEX
8
Sketch
10
2.44
20
-1.16
0
VERTEX
8
Sketch
10
2.44
20
-1.01
0
VERTEX
8
Sketch
10
2.41
20
-0.92
0
VERTEX
8
Sketch
10
2.53
20
-0.71
0
SEQEND
0
POLYLINE
66
1
8
Sketch
62
0
0
VERTEX
8
Sketch
10
0.22
20
-0.8
0
VERTEX
8
Sketch
10
0.22
20
-0.74
0
VERTEX
8
Sketch
10
0.25
20
-0.68
0
VERTEX
8
Sketch
10
0.37
20
-0.74
0
VERTEX
8
Sketch
10
0.64
20
-0.74
0
VERTEX
8
Sketch
10
0.7
20
-0.71
0
VERTEX
8
Sketch
10
0.82
20
-0.74
0
VERTEX
8
Sketch
10
1.03
20
-0.74
0
VERTEX
8
Sketch
10
1.18
20
-0.98
0
VERTEX
8
Sketch
10
1.36
20
-1.19
0
VERTEX
8
Sketch
10
1.42
20
-1.19
0
VERTEX
8
Sketch
10
1.54
20
-1.28
0
VERTEX
8
Sketch
10
1.66
20
-1.28
0
VERTEX
8
Sketch
10
1.78
20
-1.34
0
VERTEX
8
Sketch
10
1.78
20
-1.43
0
VERTEX
8
Sketch
10
1.81
20
-1.49
0
VERTEX
8
Sketch
10
1.75
20
-1.52
0
VERTEX
8
Sketch
10
1.6
20
-1.7
0
VERTEX
8
Sketch
10
1.54
20
-1.85
0
VERTEX
8
Sketch
10
1.48
20
-1.91
0
VERTEX
8
Sketch
10
1.45
20
-2
0
VERTEX
8
Sketch
10
1.39
20
-2.06
0
VERTEX
8
Sketch
10
1.18
20
-2.51
0
VERTEX
8
Sketch
10
1
20
-2.72
0
VERTEX
8
Sketch
10
0.88
20
-2.96
0
VERTEX
8
Sketch
10
0.76
20
-3.14
0
VERTEX
8
Sketch
10
0.73
20
-3.29
0
VERTEX
8
Sketch
10
0.58
20
-3.59
0
VERTEX
8
Sketch
10
0.58
20
-3.68
0
VERTEX
8
Sketch
10
0.46
20
-4.07
0
VERTEX
8
Sketch
10
0.49
20
-4.13
0
VERTEX
8
Sketch
10
0.49
20
-4.28
0
VERTEX
8
Sketch
10
0.46
20
-4.43
0
VERTEX
8
Sketch
10
0.46
20
-4.64
0
VERTEX
8
Sketch
10
0.34
20
-4.88
0
VERTEX
8
Sketch
10
0.34
20
-4.97
0
VERTEX
8
Sketch
10
0.28
20
-5.18
0
VERTEX
8
Sketch
10
0.28
20
-5.36
0
VERTEX
8
Sketch
10
0.37
20
-5.54
0
VERTEX
8
Sketch
10
0.37
20
-5.6
0
VERTEX
8
Sketch
10
0.61
20
-6.02
0
VERTEX
8
Sketch
10
0.67
20
-6.2
0
VERTEX
8
Sketch
10
0.73
20
-6.26
0
VERTEX
8
Sketch
10
0.76
20
-6.35
0
VERTEX
8
Sketch
10
0.85
20
-6.47
0
VERTEX
8
Sketch
10
1
20
-6.56
0
VERTEX
8
Sketch
10
1.09
20
-6.53
0
VERTEX
8
Sketch
10
1.15
20
-6.56
0
VERTEX
8
Sketch
10
1.3
20
-6.56
0
VERTEX
8
Sketch
10
1.42
20
-6.53
0
VERTEX
8
Sketch
10
1.48
20
-6.53
0
VERTEX
8
Sketch
10
1.54
20
-6.56
0
VERTEX
8
Sketch
10
1.72
20
-6.47
0
VERTEX
8
Sketch
10
1.87
20
-6.44
0
VERTEX
8
Sketch
10
1.93
20
-6.41
0
VERTEX
8
Sketch
10
2.02
20
-6.41
0
VERTEX
8
Sketch
10
2.08
20
-6.35
0
VERTEX
8
Sketch
10
2.14
20
-6.35
0
VERTEX
8
Sketch
10
2.23
20
-6.29
0
VERTEX
8
Sketch
10
2.47
20
-6.29
0
VERTEX
8
Sketch
10
2.53
20
-6.26
0
VERTEX
8
Sketch
10
2.62
20
-6.26
0
VERTEX
8
Sketch
10
2.68
20
-6.2
0
VERTEX
8
Sketch
10
2.95
20
-6.2
0
VERTEX
8
Sketch
10
3.07
20
-6.14
0
VERTEX
8
Sketch
10
3.22
20
-6.14
0
VERTEX
8
Sketch
10
3.58
20
-5.99
0
VERTEX
8
Sketch
10
3.67
20
-5.93
0
SEQEND
0
LINE
8
Sketch
62
255
6
DASH
10
8.71
20
-2.99
11
1.886
21
-1.332
0
CIRCLE
8
Shots
62
1
10
8.71
20
-2.99
40
0.1
0
LINE
8
XSect
62
1
10
8.71
20
-2.99
11
13.592
21
-2.658
0
LINE
8
XSect
62
1
10
8.71
20
-2.99
11
11.762
21
-2.758
0
LINE
8
XSect
62
1
10
8.71
20
-2.99
11
13.598
21
-2.876
0
LINE
8
XSect
62
1
10
8.71
20
-2.99
11
10.212
21
-1.108
0
TEXT
8
Label
40
1
1
1.1
10
8.71
20
-2.99
0
POLYLINE
66
1
8
Sketch
62
5
0
VERTEX
8
Sketch
10
-6.06
20
48.99
0
VERTEX
8
Sketch
10
-5.98
20
48.95
0
SEQEND
0
POLYLINE
66
1
8
Sketch
62
0
0
VERTEX
8
Sketch
10
2.95
20
22.34
0
VERTEX
8
Sketch
10
2.89
20
22.34
0
VERTEX
8
Sketch
10
2.68
20
22.58
0
VERTEX
8
Sketch
10
2.65
20
22.64
0
VERTEX
8
Sketch
10
2.44
20
22.67
0
VERTEX
8
Sketch
10
2.41
20
22.73
0
VERTEX
8
Sketch
10
2.41
20
22.67
0
VERTEX
8
Sketch
10
2.5
20
22.64
0
VERTEX
8
Sketch
10
2.68
20
22.43
0
VERTEX
8
Sketch
10
2.71
20
22.34
0
VERTEX
8
Sketch
10
2.95
20
22.07
0
SEQEND
0
POLYLINE
66
1
8
Sketch
62
0
0
VERTEX
8
Sketch
10
-3.77
20
31.76
0
VERTEX
8
Sketch
10
-3.74
20
31.64
0
VERTEX
8
Sketch
10
-3.74
20
31.55
0
VERTEX
8
Sketch
10
-3.68
20
31.31
0
VERTEX
8
Sketch
10
-3.44
20
30.62
0
VERTEX
8
Sketch
10
-3.23
20
30.08
0
VERTEX
8
Sketch
10
-3.11
20
29.93
0
VERTEX
8
Sketch
10
-3.05
20
29.78
0
VERTEX
8
Sketch
10
-2.96
20
29.72
0
VERTEX
8
Sketch
10
-2.87
20
29.51
0
VERTEX
8
Sketch
10
-2.63
20
29.27
0
VERTEX
8
Sketch
10
-2.57
20
29.12
0
VERTEX
8
Sketch
10
-2.48
20
29.06
0
VERTEX
8
Sketch
10
-2.36
20
28.88
0
VERTEX
8
Sketch
10
-2.12
20
28.55
0
VERTEX
8
Sketch
10
-2.03
20
28.49
0
VERTEX
8
Sketch
10
-1.88
20
28.22
0
VERTEX
8
Sketch
10
-1.49
20
27.8
0
VERTEX
8
Sketch
10
-1.34
20
27.59
0
VERTEX
8
Sketch
10
-1.28
20
27.56
0
VERTEX
8
Sketch
10
-1.22
20
27.47
0
VERTEX
8
Sketch
10
-1.13
20
27.41
0
VERTEX
8
Sketch
10
-1.04
20
27.29
0
VERTEX
8
Sketch
10
-0.95
20
27.23
0
VERTEX
8
Sketch
10
-0.77
20
26.9
0
VERTEX
8
Sketch
10
-0.59
20
26.69
0
VERTEX
8
Sketch
10
-0.47
20
26.6
0
VERTEX
8
Sketch
10
-0.2
20
26.18
0
VERTEX
8
Sketch
10
-0.11
20
26.06
0
VERTEX
8
Sketch
10
-0.02
20
26
0
VERTEX
8
Sketch
10
0.28
20
25.43
0
VERTEX
8
Sketch
10
0.52
20
25.22
0
VERTEX
8
Sketch
10
0.55
20
25.13
0
VERTEX
8
Sketch
10
0.7
20
24.89
0
VERTEX
8
Sketch
10
0.73
20
24.74
0
VERTEX
8
Sketch
10
0.91
20
24.41
0
VERTEX
8
Sketch
10
0.94
20
24.26
0
VERTEX
8
Sketch
10
1
20
24.11
0
VERTEX
8
Sketch
10
1.06
20
24.05
0
VERTEX
8
Sketch
10
1.09
20
23.78
0
VERTEX
8
Sketch
10
1.06
20
23.63
0
VERTEX
8
Sketch
10
1.03
20
23.48
0
VERTEX
8
Sketch
10
1.03
20
23.33
0
VERTEX
8
Sketch
10
1.09
20
23.27
0
VERTEX
8
Sketch
10
1.09
20
23.21
0
VERTEX
8
Sketch
10
1.21
20
23.12
0
SEQEND
0
POLYLINE
66
1
8
Sketch
62
0
0
VERTEX
8
Sketch
10
-11.42
20
36.92
0
VERTEX
8
Sketch
10
-11.33
20
36.98
0
VERTEX
8
Sketch
10
-11.15
20
37.19
0
VERTEX
8
Sketch
10
-11.12
20
37.28
0
VERTEX
8
Sketch
10
-10.88
20
37.43
0
VERTEX
8
Sketch
10
-10.7
20
37.79
0
VERTEX
8
Sketch
10
-10.49
20
38.12
0
VERTEX
8
Sketch
10
-10.34
20
38.33
0
VERTEX
8
Sketch
10
-10.22
20
38.48
0
VERTEX
8
Sketch
10
-10.07
20
38.48
0
VERTEX
8
Sketch
10
-10.01
20
38.54
0
VERTEX
8
Sketch
10
-9.86
20
38.54
0
VERTEX
8
Sketch
10
-9.74
20
38.48
0
VERTEX
8
Sketch
10
-9.56
20
38.48
0
VERTEX
8
Sketch
10
-9.41
20
38.51
0
VERTEX
8
Sketch
10
-9.26
20
38.51
0
VERTEX
8
Sketch
10
-9.2
20
38.48
0
VERTEX
8
Sketch
10
-9.14
20
38.51
0
VERTEX
8
Sketch
10
-8.93
20
38.48
0
VERTEX
8
Sketch
10
-8.72
20
38.45
0
VERTEX
8
Sketch
10
-8.36
20
38.27
0
VERTEX
8
Sketch
10
-8.15
20
38.24
0
VERTEX
8
Sketch
10
-8.06
20
38.27
0
VERTEX
8
Sketch
10
-7.64
20
38.06
0
VERTEX
8
Sketch
10
-7.46
20
38.09
0
VERTEX
8
Sketch
10
-7.28
20
37.82
0
VERTEX
8
Sketch
10
-7.13
20
37.82
0
VERTEX
8
Sketch
10
-7.07
20
37.79
0
VERTEX
8
Sketch
10
-6.98
20
37.79
0
VERTEX
8
Sketch
10
-6.92
20
37.73
0
VERTEX
8
Sketch
10
-6.86
20
37.73
0
VERTEX
8
Sketch
10
-6.77
20
37.67
0
VERTEX
8
Sketch
10
-6.68
20
37.55
0
VERTEX
8
Sketch
10
-6.35
20
37.34
0
VERTEX
8
Sketch
10
-6.29
20
37.28
0
VERTEX
8
Sketch
10
-6.17
20
37.28
0
VERTEX
8
Sketch
10
-6.08
20
37.22
0
VERTEX
8
Sketch
10
-6.02
20
37.22
0
VERTEX
8
Sketch
10
-5.96
20
37.16
0
VERTEX
8
Sketch
10
-5.9
20
37.16
0
VERTEX
8
Sketch
10
-5.84
20
37.1
0
VERTEX
8
Sketch
10
-5.69
20
37.07
0
VERTEX
8
Sketch
10
-5.63
20
37.04
0
VERTEX
8
Sketch
10
-5.54
20
37.07
0
VERTEX
8
Sketch
10
-5.51
20
37.01
0
VERTEX
8
Sketch
10
-5.15
20
36.71
0
VERTEX
8
Sketch
10
-5.03
20
36.71
0
VERTEX
8
Sketch
10
-4.91
20
36.62
0
VERTEX
8
Sketch
10
-4.88
20
36.56
0
VERTEX
8
Sketch
10
-4.73
20
36.44
0
VERTEX
8
Sketch
10
-4.67
20
36.2
0
VERTEX
8
Sketch
10
-4.58
20
36.08
0
VERTEX
8
Sketch
10
-4.58
20
35.87
0
VERTEX
8
Sketch
10
-4.52
20
35.75
0
VERTEX
8
Sketch
10
-4.46
20
35.48
0
VERTEX
8
Sketch
10
-4.37
20
35.3
0
VERTEX
8
Sketch
10
-4.31
20
34.85
0
VERTEX
8
Sketch
10
-4.28
20
34.58
0
VERTEX
8
Sketch
10
-4.28
20
34.37
0
VERTEX
8
Sketch
10
-4.31
20
34.22
0
VERTEX
8
Sketch
10
-4.31
20
33.83
0
VERTEX
8
Sketch
10
-4.37
20
33.62
0
VERTEX
8
Sketch
10
-4.37
20
33.44
0
VERTEX
8
Sketch
10
-4.4
20
33.32
0
VERTEX
8
Sketch
10
-4.4
20
33.14
0
VERTEX
8
Sketch
10
-4.43
20
33.02
0
VERTEX
8
Sketch
10
-4.37
20
32.81
0
VERTEX
8
Sketch
10
-4.37
20
32.72
0
VERTEX
8
Sketch
10
-4.19
20
32.36
0
VERTEX
8
Sketch
10
-4.01
20
32.12
0
VERTEX
8
Sketch
10
-3.92
20
31.91
0
VERTEX
8
Sketch
10
-3.92
20
31.82
0
VERTEX
8
Sketch
10
-3.8
20
31.55
0
VERTEX
8
Sketch
10
-3.8
20
31.49
0
VERTEX
8
Sketch
10
-3.77
20
31.37
0
SEQEND
0
POLYLINE
66
1
8
Sketch
62
0
0
VERTEX
8
Sketch
10
-13.94
20
33.59
0
VERTEX
8
Sketch
10
-13.88
20
33.77
0
VERTEX
8
Sketch
10
-13.88
20
33.92
0
VERTEX
8
Sketch
10
-13.82
20
33.98
0
VERTEX
8
Sketch
10
-13.85
20
34.07
0
VERTEX
8
Sketch
10
-13.79
20
34.13
0
VERTEX
8
Sketch
10
-13.79
20
34.22
0
VERTEX
8
Sketch
10
-13.76
20
34.31
0
VERTEX
8
Sketch
10
-13.67
20
34.37
0
VERTEX
8
Sketch
10
-13.49
20
34.61
0
VERTEX
8
Sketch
10
-13.28
20
34.67
0
VERTEX
8
Sketch
10
-13.19
20
34.67
0
VERTEX
8
Sketch
10
-13.13
20
34.64
0
VERTEX
8
Sketch
10
-12.83
20
34.64
0
VERTEX
8
Sketch
10
-12.65
20
34.61
0
VERTEX
8
Sketch
10
-12.59
20
34.64
0
VERTEX
8
Sketch
10
-12.47
20
34.61
0
VERTEX
8
Sketch
10
-12.44
20
34.55
0
VERTEX
8
Sketch
10
-12.26
20
34.49
0
VERTEX
8
Sketch
10
-11.99
20
34.55
0
VERTEX
8
Sketch
10
-11.78
20
34.49
0
VERTEX
8
Sketch
10
-11.69
20
34.49
0
VERTEX
8
Sketch
10
-11.57
20
34.4
0
VERTEX
8
Sketch
10
-11.39
20
34.52
0
VERTEX
8
Sketch
10
-11.36
20
34.58
0
VERTEX
8
Sketch
10
-11.36
20
34.82
0
VERTEX
8
Sketch
10
-11.54
20
35.3
0
VERTEX
8
Sketch
10
-11.72
20
35.57
0
VERTEX
8
Sketch
10
-11.81
20
35.6
0
VERTEX
8
Sketch
10
-11.87
20
35.81
0
VERTEX
8
Sketch
10
-11.87
20
35.93
0
VERTEX
8
Sketch
10
-11.84
20
36.02
0
VERTEX
8
Sketch
10
-11.69
20
36.26
0
VERTEX
8
Sketch
10
-11.69
20
36.35
0
VERTEX
8
Sketch
10
-11.66
20
36.47
0
VERTEX
8
Sketch
10
-11.57
20
36.53
0
VERTEX
8
Sketch
10
-11.54
20
36.59
0
VERTEX
8
Sketch
10
-11.33
20
36.74
0
VERTEX
8
Sketch
10
-11.27
20
36.89
0
SEQEND
0
POINT
8
Sketch
62
0
10
-4.16
20
38.45
0
POLYLINE
66
1
8
Sketch
62
30
0
VERTEX
8
Sketch
10
-4.34
20
28.58
0
VERTEX
8
Sketch
10
-4.34
20
28.49
0
VERTEX
8
Sketch
10
-4.25
20
28.43
0
VERTEX
8
Sketch
10
-3.95
20
28.07
0
VERTEX
8
Sketch
10
-3.47
20
27.62
0
VERTEX
8
Sketch
10
-3.26
20
27.32
0
VERTEX
8
Sketch
10
-3.14
20
27.23
0
VERTEX
8
Sketch
10
-2.99
20
27.02
0
VERTEX
8
Sketch
10
-2.93
20
26.99
0
VERTEX
8
Sketch
10
-2.78
20
26.81
0
VERTEX
8
Sketch
10
-2.51
20
26.21
0
VERTEX
8
Sketch
10
-2.36
20
25.97
0
VERTEX
8
Sketch
10
-2.24
20
25.82
0
VERTEX
8
Sketch
10
-2.15
20
25.61
0
VERTEX
8
Sketch
10
-1.97
20
25.34
0
VERTEX
8
Sketch
10
-1.94
20
25.25
0
VERTEX
8
Sketch
10
-1.76
20
25.13
0
VERTEX
8
Sketch
10
-1.7
20
25.13
0
VERTEX
8
Sketch
10
-1.61
20
25.04
0
VERTEX
8
Sketch
10
-1.55
20
25.07
0
VERTEX
8
Sketch
10
-1.37
20
25.07
0
VERTEX
8
Sketch
10
-1.19
20
25.1
0
VERTEX
8
Sketch
10
-1.1
20
25.1
0
VERTEX
8
Sketch
10
-1.01
20
25.16
0
VERTEX
8
Sketch
10
-0.95
20
25.16
0
VERTEX
8
Sketch
10
-0.83
20
25.25
0
VERTEX
8
Sketch
10
-0.77
20
25.34
0
VERTEX
8
Sketch
10
-0.74
20
25.46
0
VERTEX
8
Sketch
10
-0.68
20
25.52
0
VERTEX
8
Sketch
10
-0.62
20
26.09
0
VERTEX
8
Sketch
10
-0.65
20
26.27
0
VERTEX
8
Sketch
10
-0.65
20
26.39
0
VERTEX
8
Sketch
10
-0.89
20
26.93
0
VERTEX
8
Sketch
10
-1.28
20
27.38
0
VERTEX
8
Sketch
10
-1.34
20
27.41
0
VERTEX
8
Sketch
10
-1.4
20
27.5
0
VERTEX
8
Sketch
10
-1.55
20
27.59
0
VERTEX
8
Sketch
10
-1.64
20
27.71
0
VERTEX
8
Sketch
10
-2.03
20
28.04
0
VERTEX
8
Sketch
10
-2.18
20
28.22
0
VERTEX
8
Sketch
10
-2.3
20
28.31
0
VERTEX
8
Sketch
10
-2.51
20
28.61
0
VERTEX
8
Sketch
10
-2.57
20
28.76
0
VERTEX
8
Sketch
10
-2.66
20
28.82
0
VERTEX
8
Sketch
10
-3.14
20
29.81
0
VERTEX
8
Sketch
10
-3.29
20
30.17
0
VERTEX
8
Sketch
10
-3.38
20
30.32
0
VERTEX
8
Sketch
10
-3.44
20
30.53
0
VERTEX
8
Sketch
10
-3.62
20
30.77
0
VERTEX
8
Sketch
10
-3.62
20
30.83
0
VERTEX
8
Sketch
10
-4.04
20
31.46
0
VERTEX
8
Sketch
10
-4.16
20
31.79
0
VERTEX
8
Sketch
10
-4.34
20
32.15
0
VERTEX
8
Sketch
10
-4.55
20
32.54
0
VERTEX
8
Sketch
10
-4.85
20
32.99
0
VERTEX
8
Sketch
10
-4.94
20
33.05
0
VERTEX
8
Sketch
10
-4.97
20
33.14
0
VERTEX
8
Sketch
10
-5.03
20
33.2
0
VERTEX
8
Sketch
10
-5.18
20
33.2
0
VERTEX
8
Sketch
10
-5.36
20
33.29
0
VERTEX
8
Sketch
10
-5.42
20
33.29
0
VERTEX
8
Sketch
10
-5.63
20
33.2
0
VERTEX
8
Sketch
10
-5.87
20
33.02
0
VERTEX
8
Sketch
10
-5.9
20
32.93
0
VERTEX
8
Sketch
10
-6.11
20
32.66
0
VERTEX
8
Sketch
10
-6.11
20
32.57
0
VERTEX
8
Sketch
10
-6.2
20
32.45
0
VERTEX
8
Sketch
10
-6.2
20
32.36
0
VERTEX
8
Sketch
10
-6.35
20
32.12
0
VERTEX
8
Sketch
10
-6.44
20
32.06
0
VERTEX
8
Sketch
10
-6.71
20
31.73
0
VERTEX
8
Sketch
10
-6.89
20
31.52
0
VERTEX
8
Sketch
10
-6.98
20
31.46
0
VERTEX
8
Sketch
10
-7.13
20
31.22
0
VERTEX
8
Sketch
10
-7.1
20
31.16
0
VERTEX
8
Sketch
10
-7.13
20
31.07
0
VERTEX
8
Sketch
10
-7.1
20
31.01
0
VERTEX
8
Sketch
10
-7.1
20
30.86
0
VERTEX
8
Sketch
10
-7.07
20
30.8
0
VERTEX
8
Sketch
10
-7.1
20
30.65
0
VERTEX
8
Sketch
10
-7.07
20
30.5
0
VERTEX
8
Sketch
10
-6.59
20
29.9
0
VERTEX
8
Sketch
10
-6.53
20
29.84
0
VERTEX
8
Sketch
10
-6.47
20
29.84
0
VERTEX
8
Sketch
10
-6.29
20
29.72
0
VERTEX
8
Sketch
10
-6.14
20
29.69
0
VERTEX
8
Sketch
10
-6.11
20
29.6
0
VERTEX
8
Sketch
10
-5.75
20
29.33
0
VERTEX
8
Sketch
10
-5.72
20
29.24
0
VERTEX
8
Sketch
10
-5.42
20
28.91
0
VERTEX
8
Sketch
10
-5.33
20
28.85
0
VERTEX
8
Sketch
10
-5.18
20
28.67
0
VERTEX
8
Sketch
10
-5.03
20
28.67
0
VERTEX
8
Sketch
10
-4.76
20
28.49
0
VERTEX
8
Sketch
10
-4.67
20
28.49
0
VERTEX
8
Sketch
10
-4.46
20
28.22
0
VERTEX
8
Sketch
10
-4.4
20
28.07
0
VERTEX
8
Sketch
10
-4.31
20
27.95
0
VERTEX
8
Sketch
10
-4.22
20
27.92
0
VERTEX
8
Sketch
10
-4.19
20
27.83
0
VERTEX
8
Sketch
10
-4.13
20
27.77
0
VERTEX
8
Sketch
10
-4.04
20
27.77
0
VERTEX
8
Sketch
10
-3.74
20
27.62
0
VERTEX
8
Sketch
10
-3.59
20
27.62
0
VERTEX
8
Sketch
10
-3.47
20
27.56
0
VERTEX
8
Sketch
10
-3.41
20
27.56
0
VERTEX
8
Sketch
10
-3.29
20
27.5
0
VERTEX
8
Sketch
10
-3.2
20
27.5
0
SEQEND
0
POLYLINE
66
1
8
Sketch
62
0
0
VERTEX
8
Sketch
10
-5.45
20
32.06
0
VERTEX
8
Sketch
10
-5.51
20
32.06
0
VERTEX
8
Sketch
10
-5.63
20
31.88
0
VERTEX
8
Sketch
10
-5.66
20
31.73
0
VERTEX
8
Sketch
10
-5.84
20
31.37
0
VERTEX
8
Sketch
10
-5.84
20
31.31
0
VERTEX
8
Sketch
10
-5.9
20
31.25
0
VERTEX
8
Sketch
10
-5.96
20
30.92
0
VERTEX
8
Sketch
10
-5.96
20
30.83
0
VERTEX
8
Sketch
10
-5.99
20
30.77
0
VERTEX
8
Sketch
10
-5.78
20
30.77
0
VERTEX
8
Sketch
10
-5.6
20
30.92
0
VERTEX
8
Sketch
10
-5.39
20
31.4
0
VERTEX
8
Sketch
10
-5.39
20
31.49
0
VERTEX
8
Sketch
10
-5.3
20
31.82
0
VERTEX
8
Sketch
10
-5.3
20
31.91
0
VERTEX
8
Sketch
10
-5.27
20
31.97
0
VERTEX
8
Sketch
10
-5.33
20
32.09
0
VERTEX
8
Sketch
10
-5.33
20
32.15
0
VERTEX
8
Sketch
10
-5.48
20
32.12
0
VERTEX
8
Sketch
10
-5.6
20
32
0
VERTEX
8
Sketch
10
-5.63
20
31.88
0
VERTEX
8
Sketch
10
-5.69
20
31.82
0
VERTEX
8
Sketch
10
-5.81
20
31.55
0
VERTEX
8
Sketch
10
-5.81
20
31.49
0
VERTEX
8
Sketch
10
-5.87
20
31.43
0
VERTEX
8
Sketch
10
-5.96
20
31.04
0
VERTEX
8
Sketch
10
-5.96
20
30.83
0
VERTEX
8
Sketch
10
-5.9
20
30.71
0
VERTEX
8
Sketch
10
-5.9
20
30.59
0
VERTEX
8
Sketch
10
-5.75
20
30.77
0
VERTEX
8
Sketch
10
-5.63
20
31.04
0
VERTEX
8
Sketch
10
-5.63
20
31.19
0
VERTEX
8
Sketch
10
-5.57
20
31.25
0
VERTEX
8
Sketch
10
-5.51
20
31.43
0
VERTEX
8
Sketch
10
-5.39
20
31.64
0
VERTEX
8
Sketch
10
-5.33
20
32
0
VERTEX
8
Sketch
10
-5.3
20
32.09
0
VERTEX
8
Sketch
10
-5.39
20
32.09
0
VERTEX
8
Sketch
10
-5.48
20
32.06
0
SEQEND
0
POLYLINE
66
1
8
Sketch
62
5
0
VERTEX
8
Sketch
10
6.4
20
20.3
0
VERTEX
8
Sketch
10
6.4
20
20.21
0
VERTEX
8
Sketch
10
6.43
20
20.12
0
VERTEX
8
Sketch
10
6.49
20
20.06
0
VERTEX
8
Sketch
10
6.55
20
20.12
0
VERTEX
8
Sketch
10
6.58
20
20.27
0
VERTEX
8
Sketch
10
6.52
20
20.06
0
VERTEX
8
Sketch
10
6.58
20
20
0
VERTEX
8
Sketch
10
6.67
20
20.06
0
VERTEX
8
Sketch
10
6.73
20
20.18
0
VERTEX
8
Sketch
10
6.76
20
20.12
0
VERTEX
8
Sketch
10
6.73
20
20.06
0
VERTEX
8
Sketch
10
6.76
20
20
0
VERTEX
8
Sketch
10
6.82
20
20
0
VERTEX
8
Sketch
10
6.91
20
20.06
0
VERTEX
8
Sketch
10
6.97
20
20.06
0
VERTEX
8
Sketch
10
7.03
20
20.03
0
VERTEX
8
Sketch
10
7.12
20
20.06
0
VERTEX
8
Sketch
10
7.18
20
20.12
0
VERTEX
8
Sketch
10
7.18
20
20.18
0
VERTEX
8
Sketch
10
7.12
20
20.18
0
VERTEX
8
Sketch
10
7.06
20
20.12
0
VERTEX
8
Sketch
10
6.91
20
20.12
0
VERTEX
8
Sketch
10
6.64
20
20.03
0
VERTEX
8
Sketch
10
6.55
20
19.97
0
VERTEX
8
Sketch
10
6.52
20
19.91
0
SEQEND
0
POLYLINE
66
1
8
Sketch
62
5
0
VERTEX
8
Sketch
10
6.16
20
20.27
0
VERTEX
8
Sketch
10
6.46
20
20.27
0
VERTEX
8
Sketch
10
6.52
20
20.3
0
VERTEX
8
Sketch
10
6.58
20
20.27
0
VERTEX
8
Sketch
10
6.64
20
20.3
0
VERTEX
8
Sketch
10
6.85
20
20.24
0
VERTEX
8
Sketch
10
6.97
20
20.21
0
VERTEX
8
Sketch
10
7.12
20
20.21
0
VERTEX
8
Sketch
10
7.18
20
20.27
0
VERTEX
8
Sketch
10
7.33
20
20.21
0
VERTEX
8
Sketch
10
7.45
20
20.24
0
VERTEX
8
Sketch
10
7.51
20
20.21
0
VERTEX
8
Sketch
10
7.57
20
20.24
0
VERTEX
8
Sketch
10
7.63
20
20.18
0
SEQEND
0
POLYLINE
66
1
8
Sketch
62
0
0
VERTEX
8
Sketch
10
10.54
20
22.79
0
VERTEX
8
Sketch
10
10.6
20
22.94
0
VERTEX
8
Sketch
10
10.66
20
23
0
VERTEX
8
Sketch
10
10.66
20
23.06
0
VERTEX
8
Sketch
10
10.9
20
23.24
0
VERTEX
8
Sketch
10
10.96
20
23.24
0
VERTEX
8
Sketch
10
11.08
20
23.3
0
VERTEX
8
Sketch
10
11.17
20
23.3
0
VERTEX
8
Sketch
10
11.41
20
23.45
0
VERTEX
8
Sketch
10
11.59
20
23.6
0
VERTEX
8
Sketch
10
11.8
20
23.72
0
VERTEX
8
Sketch
10
11.92
20
23.93
0
VERTEX
8
Sketch
10
12.01
20
23.99
0
VERTEX
8
Sketch
10
12.13
20
24.17
0
VERTEX
8
Sketch
10
12.13
20
24.23
0
VERTEX
8
Sketch
10
11.92
20
24.35
0
VERTEX
8
Sketch
10
11.86
20
24.35
0
VERTEX
8
Sketch
10
11.8
20
24.44
0
VERTEX
8
Sketch
10
11.65
20
24.47
0
VERTEX
8
Sketch
10
11.59
20
24.5
0
VERTEX
8
Sketch
10
11.35
20
24.35
0
VERTEX
8
Sketch
10
11.08
20
24.26
0
VERTEX
8
Sketch
10
11.02
20
24.26
0
VERTEX
8
Sketch
10
10.81
20
24.17
0
VERTEX
8
Sketch
10
10.69
20
24.17
0
VERTEX
8
Sketch
10
10.48
20
24.08
0
VERTEX
8
Sketch
10
10.42
20
24.08
0
VERTEX
8
Sketch
10
10.06
20
23.9
0
VERTEX
8
Sketch
10
9.64
20
23.75
0
VERTEX
8
Sketch
10
9.58
20
23.75
0
VERTEX
8
Sketch
10
9.28
20
23.42
0
VERTEX
8
Sketch
10
8.95
20
23.24
0
VERTEX
8
Sketch
10
8.89
20
23.18
0
VERTEX
8
Sketch
10
8.62
20
23.09
0
VERTEX
8
Sketch
10
8.56
20
23.03
0
VERTEX
8
Sketch
10
8.35
20
22.94
0
VERTEX
8
Sketch
10
8.17
20
22.7
0
VERTEX
8
Sketch
10
8.08
20
22.64
0
VERTEX
8
Sketch
10
8.02
20
22.55
0
VERTEX
8
Sketch
10
7.84
20
22.43
0
VERTEX
8
Sketch
10
7.78
20
22.34
0
VERTEX
8
Sketch
10
7.21
20
21.86
0
VERTEX
8
Sketch
10
7.15
20
21.65
0
VERTEX
8
Sketch
10
7.15
20
21.59
0
VERTEX
8
Sketch
10
7
20
21.41
0
VERTEX
8
Sketch
10
6.79
20
21.23
0
VERTEX
8
Sketch
10
6.64
20
21.02
0
VERTEX
8
Sketch
10
6.52
20
20.93
0
VERTEX
8
Sketch
10
6.37
20
20.72
0
VERTEX
8
Sketch
10
6.31
20
20.66
0
VERTEX
8
Sketch
10
6.37
20
20.48
0
VERTEX
8
Sketch
10
6.25
20
20.21
0
VERTEX
8
Sketch
10
6.19
20
20.15
0
VERTEX
8
Sketch
10
6.19
20
20
0
VERTEX
8
Sketch
10
6.28
20
20
0
VERTEX
8
Sketch
10
6.34
20
19.94
0
VERTEX
8
Sketch
10
6.34
20
19.88
0
VERTEX
8
Sketch
10
6.37
20
19.82
0
VERTEX
8
Sketch
10
6.49
20
19.79
0
VERTEX
8
Sketch
10
6.55
20
19.79
0
VERTEX
8
Sketch
10
6.61
20
19.76
0
VERTEX
8
Sketch
10
6.82
20
19.85
0
VERTEX
8
Sketch
10
6.88
20
19.85
0
VERTEX
8
Sketch
10
6.91
20
19.91
0
VERTEX
8
Sketch
10
6.97
20
19.91
0
VERTEX
8
Sketch
10
7.21
20
20.12
0
VERTEX
8
Sketch
10
7.36
20
20.18
0
VERTEX
8
Sketch
10
7.42
20
20.15
0
VERTEX
8
Sketch
10
7.54
20
20.18
0
VERTEX
8
Sketch
10
7.63
20
20.24
0
VERTEX
8
Sketch
10
7.81
20
20.24
0
VERTEX
8
Sketch
10
7.9
20
20.21
0
VERTEX
8
Sketch
10
8.05
20
20.27
0
VERTEX
8
Sketch
10
8.11
20
20.33
0
VERTEX
8
Sketch
10
8.17
20
20.33
0
VERTEX
8
Sketch
10
8.23
20
20.3
0
VERTEX
8
Sketch
10
8.38
20
20.42
0
VERTEX
8
Sketch
10
8.44
20
20.45
0
VERTEX
8
Sketch
10
8.53
20
20.42
0
VERTEX
8
Sketch
10
8.65
20
20.48
0
VERTEX
8
Sketch
10
8.86
20
20.42
0
VERTEX
8
Sketch
10
9.19
20
20.57
0
VERTEX
8
Sketch
10
9.31
20
20.72
0
VERTEX
8
Sketch
10
9.43
20
20.78
0
VERTEX
8
Sketch
10
9.58
20
20.99
0
VERTEX
8
Sketch
10
10
20
21.5
0
VERTEX
8
Sketch
10
10
20
21.59
0
VERTEX
8
Sketch
10
10.03
20
21.71
0
VERTEX
8
Sketch
10
10.09
20
21.98
0
VERTEX
8
Sketch
10
10.15
20
22.04
0
VERTEX
8
Sketch
10
10.24
20
22.22
0
VERTEX
8
Sketch
10
10.42
20
22.46
0
VERTEX
8
Sketch
10
10.48
20
22.49
0
VERTEX
8
Sketch
10
10.51
20
22.58
0
VERTEX
8
Sketch
10
10.81
20
22.85
0
VERTEX
8
Sketch
10
10.87
20
23.06
0
VERTEX
8
Sketch
10
10.87
20
23.21
0
SEQEND
0
LINE
8
Sketch
62
255
6
DASH
10
10.06
20
23.12
11
0.178
21
20.704
0
CIRCLE
8
Shots
62
1
10
10.06
20
23.12
40
0.1
0
LINE
8
XSect
62
1
10
10.06
20
23.12
11
9.13
21
20.456
0
LINE
8
XSect
62
1
10
10.06
20
23.12
11
7.276
21
21.696
0
LINE
8
XSect
62
1
10
10.06
20
23.12
11
11.326
21
24.346
0
LINE
8
XSect
62
1
6
DASH
10
10.06
20
23.12
11
12.048
21
24.192
0
LINE
8
XSect
62
1
6
DASH
10
10.06
20
23.12
11
11.468
21
23.576
0
LINE
8
XSect
62
1
6
DASH
10
10.06
20
23.12
11
10.548
21
22.858
0
LINE
8
XSect
62
1
6
DASH
10
10.06
20
23.12
11
7.128
21
21.682
0
LINE
8
XSect
62
1
6
DASH
10
10.06
20
23.12
11
6.27
21
20.15
0
LINE
8
XSect
62
1
6
DASH
10
10.06
20
23.12
11
7.07
21
21.494
0
LINE
8
XSect
62
1
6
DASH
10
10.06
20
23.12
11
7.976
21
22.482
0
TEXT
8
Label
40
1
1
1.3
10
10.06
20
23.12
0
POLYLINE
66
1
8
Sketch
62
0
0
VERTEX
8
Sketch
10
7.96
20
2.42
0
VERTEX
8
Sketch
10
7.9
20
2.3
0
VERTEX
8
Sketch
10
8.26
20
2.18
0
VERTEX
8
Sketch
10
8.44
20
2.18
0
VERTEX
8
Sketch
10
8.68
20
2.24
0
VERTEX
8
Sketch
10
8.92
20
2.3
0
VERTEX
8
Sketch
10
9.34
20
2.54
0
VERTEX
8
Sketch
10
9.82
20
3.02
0
VERTEX
8
Sketch
10
10.72
20
3.44
0
VERTEX
8
Sketch
10
10.84
20
3.44
0
VERTEX
8
Sketch
10
11.74
20
4.16
0
VERTEX
8
Sketch
10
11.86
20
4.46
0
VERTEX
8
Sketch
10
12.22
20
4.7
0
VERTEX
8
Sketch
10
12.52
20
4.7
0
VERTEX
8
Sketch
10
12.64
20
4.64
0
VERTEX
8
Sketch
10
13
20
4.88
0
VERTEX
8
Sketch
10
13.18
20
5.3
0
VERTEX
8
Sketch
10
13.42
20
5.54
0
VERTEX
8
Sketch
10
13.54
20
5.9
0
VERTEX
8
Sketch
10
13.84
20
6.26
0
VERTEX
8
Sketch
10
14.02
20
6.56
0
VERTEX
8
Sketch
10
14.2
20
6.8
0
VERTEX
8
Sketch
10
14.2
20
7.4
0
VERTEX
8
Sketch
10
14.08
20
7.52
0
VERTEX
8
Sketch
10
13.84
20
7.52
0
VERTEX
8
Sketch
10
12.82
20
6.98
0
VERTEX
8
Sketch
10
12.64
20
7.04
0
VERTEX
8
Sketch
10
12.16
20
6.68
0
VERTEX
8
Sketch
10
11.62
20
6.08
0
VERTEX
8
Sketch
10
11.38
20
6.02
0
VERTEX
8
Sketch
10
10.96
20
5.84
0
VERTEX
8
Sketch
10
10.72
20
5.6
0
VERTEX
8
Sketch
10
10.48
20
5.54
0
VERTEX
8
Sketch
10
10.18
20
5.48
0
VERTEX
8
Sketch
10
10.06
20
5.48
0
VERTEX
8
Sketch
10
9.52
20
4.82
0
VERTEX
8
Sketch
10
9.04
20
4.4
0
VERTEX
8
Sketch
10
8.86
20
3.92
0
VERTEX
8
Sketch
10
8.14
20
3.32
0
VERTEX
8
Sketch
10
7.78
20
2.72
0
VERTEX
8
Sketch
10
7.84
20
2.6
0
VERTEX
8
Sketch
10
8.02
20
2.6
0
VERTEX
8
Sketch
10
8.14
20
2.48
0
VERTEX
8
Sketch
10
8.44
20
2.54
0
SEQEND
0
LINE
8
Sketch
62
255
6
DASH
10
12.04
20
4.7
11
3.15
21
4.784
0
CIRCLE
8
Shots
62
1
10
12.04
20
4.7
40
0.1
0
LINE
8
XSect
62
1
10
12.04
20
4.7
11
9.522
21
4.538
0
LINE
8
XSect
62
1
10
12.04
20
4.7
11
8.106
21
2.144
0
LINE
8
XSect
62
1
10
12.04
20
4.7
11
13.784
21
7.264
0
LINE
8
XSect
62
1
10
12.04
20
4.7
11
13.13
21
5.248
0
LINE
8
XSect
62
1
6
DASH
10
12.04
20
4.7
11
9.076
21
3.778
0
LINE
8
XSect
62
1
6
DASH
10
12.04
20
4.7
11
9.096
21
3.972
0
LINE
8
XSect
62
1
6
DASH
10
12.04
20
4.7
11
9.102
21
4.162
0
LINE
8
XSect
62
1
6
DASH
10
12.04
20
4.7
11
8.886
21
3.968
0
LINE
8
XSect
62
1
6
DASH
10
12.04
20
4.7
11
12.882
21
5.07
0
LINE
8
XSect
62
1
6
DASH
10
12.04
20
4.7
11
12.346
21
4.884
0
LINE
8
XSect
62
1
6
DASH
10
12.04
20
4.7
11
11.598
21
4.784
0
LINE
8
XSect
62
1
6
DASH
10
12.04
20
4.7
11
10.934
21
3.734
0
LINE
8
XSect
62
1
6
DASH
10
12.04
20
4.7
11
11.57
21
5.964
0
LINE
8
XSect
62
1
6
DASH
10
12.04
20
4.7
11
10.046
21
3.942
0
LINE
8
XSect
62
1
6
DASH
10
12.04
20
4.7
11
10.03
21
3.936
0
LINE
8
XSect
62
1
6
DASH
10
12.04
20
4.7
11
10.05
21
3.866
0
LINE
8
XSect
62
1
6
DASH
10
12.04
20
4.7
11
10.178
21
4.112
0
LINE
8
XSect
62
1
6
DASH
10
12.04
20
4.7
11
8.98
21
4.122
0
TEXT
8
Label
40
1
1
1.2
10
12.04
20
4.7
0
POLYLINE
66
1
8
Sketch
62
5
0
VERTEX
8
Sketch
10
1.36
20
14.42
0
VERTEX
8
Sketch
10
1.06
20
14.36
0
VERTEX
8
Sketch
10
0.94
20
14.06
0
SEQEND
0
POLYLINE
66
1
8
Sketch
62
5
0
VERTEX
8
Sketch
10
1
20
14.24
0
VERTEX
8
Sketch
10
0.88
20
13.94
0
VERTEX
8
Sketch
10
0.88
20
13.76
0
VERTEX
8
Sketch
10
0.82
20
13.52
0
VERTEX
8
Sketch
10
0.82
20
13.22
0
VERTEX
8
Sketch
10
0.88
20
12.92
0
VERTEX
8
Sketch
10
0.88
20
12.08
0
VERTEX
8
Sketch
10
0.94
20
11.84
0
VERTEX
8
Sketch
10
0.94
20
11.66
0
VERTEX
8
Sketch
10
1.06
20
11.18
0
VERTEX
8
Sketch
10
1.12
20
10.7
0
VERTEX
8
Sketch
10
1.36
20
10.16
0
VERTEX
8
Sketch
10
1.54
20
10.46
0
VERTEX
8
Sketch
10
1.6
20
10.7
0
VERTEX
8
Sketch
10
1.6
20
10.88
0
VERTEX
8
Sketch
10
1.66
20
11.18
0
VERTEX
8
Sketch
10
1.6
20
11.42
0
VERTEX
8
Sketch
10
1.6
20
11.72
0
VERTEX
8
Sketch
10
1.54
20
11.84
0
VERTEX
8
Sketch
10
1.6
20
12.08
0
VERTEX
8
Sketch
10
1.54
20
12.32
0
VERTEX
8
Sketch
10
1.6
20
12.44
0
VERTEX
8
Sketch
10
1.54
20
12.62
0
VERTEX
8
Sketch
10
1.6
20
12.98
0
VERTEX
8
Sketch
10
1.24
20
14.24
0
VERTEX
8
Sketch
10
1.18
20
14.36
0
SEQEND
0
POLYLINE
66
1
8
Sketch
62
5
0
VERTEX
8
Sketch
10
2.8
20
-4.72
0
VERTEX
8
Sketch
10
2.56
20
-4.36
0
VERTEX
8
Sketch
10
2.26
20
-4.42
0
VERTEX
8
Sketch
10
2.14
20
-4.3
0
VERTEX
8
Sketch
10
1.3
20
-4.42
0
VERTEX
8
Sketch
10
1.06
20
-4.84
0
VERTEX
8
Sketch
10
1
20
-5.5
0
VERTEX
8
Sketch
10
1.42
20
-5.62
0
VERTEX
8
Sketch
10
1.54
20
-5.56
0
VERTEX
8
Sketch
10
1.78
20
-5.68
0
VERTEX
8
Sketch
10
2.2
20
-5.5
0
VERTEX
8
Sketch
10
2.38
20
-5.32
0
VERTEX
8
Sketch
10
2.56
20
-5.26
0
VERTEX
8
Sketch
10
2.74
20
-4.72
0
VERTEX
8
Sketch
10
2.68
20
-4.42
0
VERTEX
8
Sketch
10
2.56
20
-4.42
0
VERTEX
8
Sketch
10
2.44
20
-4.12
0
VERTEX
8
Sketch
10
2.26
20
-4.12
0
VERTEX
8
Sketch
10
2.14
20
-4
0
SEQEND
0
POLYLINE
66
1
8
Sketch
62
0
0
VERTEX
8
Sketch
10
0.1
20
-0.76
0
VERTEX
8
Sketch
10
-0.14
20
-1.18
0
VERTEX
8
Sketch
10
-0.14
20
-1.48
0
VERTEX
8
Sketch
10
-0.26
20
-1.78
0
VERTEX
8
Sketch
10
-0.2
20
-2.02
0
VERTEX
8
Sketch
10
-0.44
20
-2.68
0
VERTEX
8
Sketch
10
-0.5
20
-2.92
0
VERTEX
8
Sketch
10
-0.62
20
-3.1
0
VERTEX
8
Sketch
10
-0.68
20
-3.34
0
VERTEX
8
Sketch
10
-0.86
20
-4.06
0
VERTEX
8
Sketch
10
-0.86
20
-4.18
0
VERTEX
8
Sketch
10
-1.22
20
-4.72
0
VERTEX
8
Sketch
10
-1.28
20
-4.96
0
VERTEX
8
Sketch
10
-2
20
-5.74
0
VERTEX
8
Sketch
10
-2.24
20
-6.16
0
VERTEX
8
Sketch
10
-2.12
20
-6.46
0
VERTEX
8
Sketch
10
-2.18
20
-6.88
0
VERTEX
8
Sketch
10
-2.18
20
-7.06
0
VERTEX
8
Sketch
10
-2.48
20
-7.66
0
VERTEX
8
Sketch
10
-2.66
20
-7.9
0
VERTEX
8
Sketch
10
-2.66
20
-8.08
0
VERTEX
8
Sketch
10
-3.02
20
-8.44
0
VERTEX
8
Sketch
10
-3.2
20
-8.8
0
VERTEX
8
Sketch
10
-3.2
20
-9.1
0
VERTEX
8
Sketch
10
-3.62
20
-10.06
0
VERTEX
8
Sketch
10
-3.68
20
-10.3
0
VERTEX
8
Sketch
10
-3.98
20
-11.2
0
VERTEX
8
Sketch
10
-4.82
20
-12.28
0
VERTEX
8
Sketch
10
-5.06
20
-12.82
0
VERTEX
8
Sketch
10
-5.12
20
-13.06
0
VERTEX
8
Sketch
10
-5.24
20
-13.36
0
VERTEX
8
Sketch
10
-5.24
20
-13.54
0
VERTEX
8
Sketch
10
-5.3
20
-13.66
0
VERTEX
8
Sketch
10
-5.18
20
-13.78
0
VERTEX
8
Sketch
10
-5.24
20
-14.08
0
VERTEX
8
Sketch
10
-5
20
-14.56
0
VERTEX
8
Sketch
10
-4.94
20
-14.8
0
VERTEX
8
Sketch
10
-4.88
20
-15.22
0
VERTEX
8
Sketch
10
-5.06
20
-15.52
0
VERTEX
8
Sketch
10
-5.42
20
-15.7
0
VERTEX
8
Sketch
10
-5.6
20
-15.7
0
VERTEX
8
Sketch
10
-5.72
20
-15.82
0
VERTEX
8
Sketch
10
-6.08
20
-15.88
0
VERTEX
8
Sketch
10
-6.5
20
-15.7
0
VERTEX
8
Sketch
10
-6.92
20
-15.52
0
VERTEX
8
Sketch
10
-7.04
20
-15.58
0
VERTEX
8
Sketch
10
-7.46
20
-15.46
0
VERTEX
8
Sketch
10
-8
20
-15.34
0
VERTEX
8
Sketch
10
-8.3
20
-15.22
0
VERTEX
8
Sketch
10
-8.48
20
-14.98
0
VERTEX
8
Sketch
10
-8.78
20
-14.86
0
VERTEX
8
Sketch
10
-9.26
20
-14.44
0
VERTEX
8
Sketch
10
-9.26
20
-14.14
0
VERTEX
8
Sketch
10
-8.96
20
-13.84
0
VERTEX
8
Sketch
10
-8.72
20
-13.84
0
VERTEX
8
Sketch
10
-8.42
20
-13.78
0
VERTEX
8
Sketch
10
-7.94
20
-13.78
0
VERTEX
8
Sketch
10
-7.64
20
-13.48
0
VERTEX
8
Sketch
10
-7.4
20
-13.06
0
VERTEX
8
Sketch
10
-7.4
20
-12.94
0
VERTEX
8
Sketch
10
-6.8
20
-12.34
0
VERTEX
8
Sketch
10
-6.38
20
-11.92
0
VERTEX
8
Sketch
10
-6.08
20
-11.32
0
VERTEX
8
Sketch
10
-5.66
20
-10.78
0
VERTEX
8
Sketch
10
-5.48
20
-10.36
0
VERTEX
8
Sketch
10
-5.48
20
-10.06
0
VERTEX
8
Sketch
10
-5.42
20
-9.76
0
VERTEX
8
Sketch
10
-5
20
-9.16
0
VERTEX
8
Sketch
10
-4.82
20
-8.92
0
VERTEX
8
Sketch
10
-4.52
20
-8.2
0
VERTEX
8
Sketch
10
-4.52
20
-8.02
0
VERTEX
8
Sketch
10
-4.28
20
-7.3
0
VERTEX
8
Sketch
10
-4.16
20
-7.18
0
VERTEX
8
Sketch
10
-4.28
20
-6.76
0
VERTEX
8
Sketch
10
-4.22
20
-6.4
0
VERTEX
8
Sketch
10
-4.28
20
-6.16
0
VERTEX
8
Sketch
10
-4.1
20
-5.86
0
VERTEX
8
Sketch
10
-3.68
20
-5.26
0
VERTEX
8
Sketch
10
-3.38
20
-4.6
0
VERTEX
8
Sketch
10
-2.12
20
-3.28
0
VERTEX
8
Sketch
10
-2.06
20
-3.04
0
VERTEX
8
Sketch
10
-1.64
20
-1.96
0
VERTEX
8
Sketch
10
-1.58
20
-1.72
0
VERTEX
8
Sketch
10
-1.22
20
-1.18
0
VERTEX
8
Sketch
10
-1.16
20
-1
0
VERTEX
8
Sketch
10
-0.38
20
-0.34
0
VERTEX
8
Sketch
10
-0.08
20
-0.16
0
VERTEX
8
Sketch
10
0.04
20
-0.04
0
VERTEX
8
Sketch
10
0.1
20
0.2
0
VERTEX
8
Sketch
10
0.22
20
0.32
0
VERTEX
8
Sketch
10
0.22
20
0.44
0
SEQEND
0
POLYLINE
66
1
8
Sketch
62
5
0
VERTEX
8
Sketch
10
-0.2
20
20.48
0
VERTEX
8
Sketch
10
-0.32
20
20.48
0
VERTEX
8
Sketch
10
-0.68
20
20.12
0
SEQEND
0
POLYLINE
66
1
8
Sketch
62
5
0
VERTEX
8
Sketch
10
-0.68
20
20.24
0
VERTEX
8
Sketch
10
-0.26
20
19.52
0
VERTEX
8
Sketch
10
-0.02
20
19.16
0
VERTEX
8
Sketch
10
0.1
20
19.04
0
VERTEX
8
Sketch
10
0.34
20
18.2
0
VERTEX
8
Sketch
10
0.34
20
17.96
0
VERTEX
8
Sketch
10
0.52
20
17.3
0
VERTEX
8
Sketch
10
0.64
20
16.58
0
VERTEX
8
Sketch
10
0.7
20
16.16
0
VERTEX
8
Sketch
10
0.88
20
16.04
0
VERTEX
8
Sketch
10
1.12
20
16.22
0
VERTEX
8
Sketch
10
1.18
20
16.64
0
VERTEX
8
Sketch
10
1.06
20
17
0
VERTEX
8
Sketch
10
1
20
17.72
0
VERTEX
8
Sketch
10
0.88
20
18.26
0
VERTEX
8
Sketch
10
0.88
20
18.5
0
VERTEX
8
Sketch
10
0.76
20
18.74
0
VERTEX
8
Sketch
10
0.76
20
18.92
0
VERTEX
8
Sketch
10
0.58
20
19.22
0
VERTEX
8
Sketch
10
0.52
20
19.46
0
VERTEX
8
Sketch
10
-0.08
20
20.18
0
VERTEX
8
Sketch
10
-0.08
20
20.3
0
VERTEX
8
Sketch
10
-0.26
20
20.42
0
VERTEX
8
Sketch
10
-0.38
20
20.42
0
VERTEX
8
Sketch
10
-0.56
20
20.18
0
SEQEND
0
POLYLINE
66
1
8
Sketch
62
5
0
VERTEX
8
Sketch
10
-5.6
20
30.26
0
VERTEX
8
Sketch
10
-5.54
20
30.02
0
VERTEX
8
Sketch
10
-5.42
20
29.6
0
VERTEX
8
Sketch
10
-5.36
20
29.3
0
VERTEX
8
Sketch
10
-4.82
20
28.82
0
VERTEX
8
Sketch
10
-4.7
20
28.76
0
VERTEX
8
Sketch
10
-4.52
20
28.94
0
VERTEX
8
Sketch
10
-4.64
20
29.48
0
VERTEX
8
Sketch
10
-5
20
30.14
0
VERTEX
8
Sketch
10
-5.42
20
30.44
0
VERTEX
8
Sketch
10
-5.48
20
30.56
0
VERTEX
8
Sketch
10
-5.66
20
30.56
0
VERTEX
8
Sketch
10
-5.78
20
30.44
0
VERTEX
8
Sketch
10
-5.36
20
29.12
0
VERTEX
8
Sketch
10
-5.18
20
29.12
0
SEQEND
0
POLYLINE
66
1
8
Sketch
62
5
0
VERTEX
8
Sketch
10
-5.6
20
30.2
0
VERTEX
8
Sketch
10
-5.42
20
29.84
0
VERTEX
8
Sketch
10
-5.24
20
29.54
0
VERTEX
8
Sketch
10
-4.82
20
28.88
0
VERTEX
8
Sketch
10
-4.46
20
28.64
0
VERTEX
8
Sketch
10
-4.34
20
28.82
0
VERTEX
8
Sketch
10
-4.4
20
29.12
0
VERTEX
8
Sketch
10
-4.52
20
29.36
0
SEQEND
0
POLYLINE
66
1
8
Sketch
62
5
0
VERTEX
8
Sketch
10
-8.78
20
31.1
0
VERTEX
8
Sketch
10
-8.54
20
31.16
0
VERTEX
8
Sketch
10
-8
20
31.58
0
VERTEX
8
Sketch
10
-7.7
20
31.76
0
VERTEX
8
Sketch
10
-7.46
20
31.82
0
VERTEX
8
Sketch
10
-6.8
20
32.24
0
VERTEX
8
Sketch
10
-6.62
20
32.3
0
VERTEX
8
Sketch
10
-6.38
20
32.84
0
VERTEX
8
Sketch
10
-5.9
20
33.62
0
VERTEX
8
Sketch
10
-5.72
20
33.68
0
VERTEX
8
Sketch
10
-5.72
20
33.8
0
VERTEX
8
Sketch
10
-5.3
20
34.28
0
VERTEX
8
Sketch
10
-4.94
20
35.06
0
VERTEX
8
Sketch
10
-4.88
20
35.42
0
VERTEX
8
Sketch
10
-5.12
20
36.2
0
VERTEX
8
Sketch
10
-5.54
20
36.74
0
VERTEX
8
Sketch
10
-6.02
20
37.04
0
VERTEX
8
Sketch
10
-6.26
20
37.1
0
VERTEX
8
Sketch
10
-6.56
20
37.22
0
VERTEX
8
Sketch
10
-6.98
20
37.52
0
VERTEX
8
Sketch
10
-7.52
20
37.58
0
VERTEX
8
Sketch
10
-8.24
20
37.88
0
VERTEX
8
Sketch
10
-8.36
20
38
0
VERTEX
8
Sketch
10
-8.66
20
38.06
0
VERTEX
8
Sketch
10
-9.02
20
38.3
0
VERTEX
8
Sketch
10
-9.26
20
38.36
0
VERTEX
8
Sketch
10
-9.56
20
38.42
0
VERTEX
8
Sketch
10
-9.86
20
38.3
0
VERTEX
8
Sketch
10
-10.04
20
38.06
0
VERTEX
8
Sketch
10
-10.16
20
38.06
0
VERTEX
8
Sketch
10
-10.4
20
37.82
0
VERTEX
8
Sketch
10
-10.58
20
37.22
0
VERTEX
8
Sketch
10
-10.58
20
37.04
0
VERTEX
8
Sketch
10
-10.88
20
36.38
0
VERTEX
8
Sketch
10
-11.24
20
35.78
0
VERTEX
8
Sketch
10
-11.3
20
35.48
0
VERTEX
8
Sketch
10
-11.24
20
35.36
0
VERTEX
8
Sketch
10
-11.36
20
35.06
0
VERTEX
8
Sketch
10
-11.6
20
34.88
0
VERTEX
8
Sketch
10
-11.9
20
34.88
0
VERTEX
8
Sketch
10
-12.14
20
34.82
0
VERTEX
8
Sketch
10
-12.38
20
34.82
0
VERTEX
8
Sketch
10
-12.5
20
34.88
0
VERTEX
8
Sketch
10
-12.8
20
34.82
0
VERTEX
8
Sketch
10
-12.92
20
34.7
0
VERTEX
8
Sketch
10
-12.92
20
34.58
0
VERTEX
8
Sketch
10
-13.28
20
33.98
0
VERTEX
8
Sketch
10
-13.4
20
33.86
0
VERTEX
8
Sketch
10
-13.4
20
33.74
0
VERTEX
8
Sketch
10
-13.52
20
33.62
0
VERTEX
8
Sketch
10
-13.52
20
33.5
0
VERTEX
8
Sketch
10
-13.64
20
33.32
0
VERTEX
8
Sketch
10
-13.58
20
33.08
0
VERTEX
8
Sketch
10
-13.58
20
32.54
0
VERTEX
8
Sketch
10
-13.34
20
32.3
0
VERTEX
8
Sketch
10
-12.98
20
32.18
0
VERTEX
8
Sketch
10
-12.74
20
32
0
VERTEX
8
Sketch
10
-12.44
20
32
0
VERTEX
8
Sketch
10
-11.96
20
31.82
0
VERTEX
8
Sketch
10
-11.66
20
31.76
0
VERTEX
8
Sketch
10
-11.42
20
31.7
0
VERTEX
8
Sketch
10
-11
20
31.7
0
VERTEX
8
Sketch
10
-10.88
20
31.28
0
VERTEX
8
Sketch
10
-10.64
20
31.1
0
VERTEX
8
Sketch
10
-9.74
20
31.1
0
VERTEX
8
Sketch
10
-9.44
20
31.04
0
VERTEX
8
Sketch
10
-9.08
20
31.04
0
VERTEX
8
Sketch
10
-8.84
20
30.92
0
VERTEX
8
Sketch
10
-8.66
20
30.92
0
VERTEX
8
Sketch
10
-8.54
20
30.8
0
VERTEX
8
Sketch
10
-8.42
20
30.8
0
VERTEX
8
Sketch
10
-8.12
20
31.22
0
VERTEX
8
Sketch
10
-8.06
20
31.58
0
VERTEX
8
Sketch
10
-8
20
31.7
0
SEQEND
0
POLYLINE
66
1
8
Sketch
62
5
0
VERTEX
8
Sketch
10
-4.16
20
27.14
0
VERTEX
8
Sketch
10
-3.44
20
25.04
0
VERTEX
8
Sketch
10
-3.02
20
23.6
0
VERTEX
8
Sketch
10
-2.84
20
23.3
0
VERTEX
8
Sketch
10
-2.84
20
23.12
0
VERTEX
8
Sketch
10
-2.78
20
22.88
0
VERTEX
8
Sketch
10
-2.78
20
22.58
0
VERTEX
8
Sketch
10
-2.66
20
22.1
0
VERTEX
8
Sketch
10
-2.24
20
21.86
0
VERTEX
8
Sketch
10
-2
20
21.92
0
VERTEX
8
Sketch
10
-1.7
20
22.28
0
VERTEX
8
Sketch
10
-1.64
20
22.7
0
VERTEX
8
Sketch
10
-1.7
20
23.24
0
VERTEX
8
Sketch
10
-1.82
20
23.6
0
VERTEX
8
Sketch
10
-1.82
20
23.78
0
VERTEX
8
Sketch
10
-1.88
20
24.02
0
VERTEX
8
Sketch
10
-1.88
20
24.44
0
VERTEX
8
Sketch
10
-2.06
20
24.86
0
VERTEX
8
Sketch
10
-2.6
20
25.88
0
VERTEX
8
Sketch
10
-2.66
20
26.18
0
VERTEX
8
Sketch
10
-2.84
20
26.48
0
VERTEX
8
Sketch
10
-2.96
20
26.48
0
VERTEX
8
Sketch
10
-3.14
20
26.78
0
VERTEX
8
Sketch
10
-3.26
20
26.78
0
VERTEX
8
Sketch
10
-3.62
20
27.08
0
VERTEX
8
Sketch
10
-4.1
20
27.08
0
SEQEND
0
POLYLINE
66
1
8
Sketch
62
0
0
VERTEX
8
Sketch
10
-8
20
30.2
0
VERTEX
8
Sketch
10
-8.06
20
29.9
0
VERTEX
8
Sketch
10
-7.94
20
29.9
0
VERTEX
8
Sketch
10
-7.52
20
29.6
0
VERTEX
8
Sketch
10
-7.22
20
29.6
0
VERTEX
8
Sketch
10
-6.68
20
29.24
0
VERTEX
8
Sketch
10
-6.26
20
29.06
0
VERTEX
8
Sketch
10
-6.08
20
29.06
0
VERTEX
8
Sketch
10
-5.84
20
28.88
0
VERTEX
8
Sketch
10
-5.6
20
28.82
0
VERTEX
8
Sketch
10
-5.36
20
28.7
0
VERTEX
8
Sketch
10
-5.18
20
28.4
0
VERTEX
8
Sketch
10
-4.76
20
28.22
0
VERTEX
8
Sketch
10
-4.82
20
27.98
0
VERTEX
8
Sketch
10
-4.94
20
27.86
0
VERTEX
8
Sketch
10
-5.36
20
27.86
0
VERTEX
8
Sketch
10
-5.84
20
27.68
0
VERTEX
8
Sketch
10
-5.96
20
27.68
0
VERTEX
8
Sketch
10
-6.5
20
27.2
0
VERTEX
8
Sketch
10
-6.44
20
26.96
0
VERTEX
8
Sketch
10
-6.32
20
26.84
0
VERTEX
8
Sketch
10
-6.32
20
26.66
0
VERTEX
8
Sketch
10
-5.96
20
26.36
0
VERTEX
8
Sketch
10
-5.66
20
25.82
0
VERTEX
8
Sketch
10
-5.66
20
25.64
0
VERTEX
8
Sketch
10
-5.48
20
25.22
0
VERTEX
8
Sketch
10
-5
20
24.62
0
VERTEX
8
Sketch
10
-4.88
20
24.5
0
VERTEX
8
Sketch
10
-4.76
20
24.5
0
VERTEX
8
Sketch
10
-4.22
20
23.9
0
VERTEX
8
Sketch
10
-4.16
20
23.72
0
VERTEX
8
Sketch
10
-3.74
20
23.48
0
VERTEX
8
Sketch
10
-3.62
20
23.18
0
VERTEX
8
Sketch
10
-3.62
20
23
0
VERTEX
8
Sketch
10
-2.9
20
22.16
0
VERTEX
8
Sketch
10
-2.84
20
21.86
0
VERTEX
8
Sketch
10
-2.54
20
21.14
0
VERTEX
8
Sketch
10
-2.54
20
20.96
0
VERTEX
8
Sketch
10
-2.18
20
20.18
0
VERTEX
8
Sketch
10
-2
20
20.3
0
SEQEND
0
POLYLINE
66
1
8
Sketch
62
0
0
VERTEX
8
Sketch
10
-14
20
33.56
0
VERTEX
8
Sketch
10
-13.94
20
33.32
0
VERTEX
8
Sketch
10
-14.12
20
32.66
0
VERTEX
8
Sketch
10
-14.12
20
32.48
0
VERTEX
8
Sketch
10
-14.06
20
32.18
0
VERTEX
8
Sketch
10
-14.18
20
31.64
0
VERTEX
8
Sketch
10
-13.88
20
31.46
0
VERTEX
8
Sketch
10
-13.34
20
31.34
0
VERTEX
8
Sketch
10
-12.8
20
31.28
0
VERTEX
8
Sketch
10
-12.68
20
31.22
0
VERTEX
8
Sketch
10
-12.56
20
31.28
0
VERTEX
8
Sketch
10
-11.96
20
31.16
0
VERTEX
8
Sketch
10
-11.72
20
31.1
0
VERTEX
8
Sketch
10
-11.36
20
30.86
0
VERTEX
8
Sketch
10
-10.82
20
30.68
0
VERTEX
8
Sketch
10
-10.58
20
30.68
0
VERTEX
8
Sketch
10
-10.28
20
30.74
0
VERTEX
8
Sketch
10
-10.04
20
30.74
0
VERTEX
8
Sketch
10
-9.8
20
30.68
0
VERTEX
8
Sketch
10
-9.5
20
30.68
0
VERTEX
8
Sketch
10
-9.44
20
30.5
0
VERTEX
8
Sketch
10
-9.32
20
30.5
0
VERTEX
8
Sketch
10
-8.9
20
30.2
0
VERTEX
8
Sketch
10
-8.54
20
30.2
0
VERTEX
8
Sketch
10
-7.88
20
30.02
0
VERTEX
8
Sketch
10
-7.76
20
30.02
0
SEQEND
0
POLYLINE
66
1
8
Sketch
62
0
0
VERTEX
8
Sketch
10
-0.26
20
0.26
0
VERTEX
8
Sketch
10
-0.08
20
0.26
0
VERTEX
8
Sketch
10
0.34
20
0.56
0
VERTEX
8
Sketch
10
0.94
20
1.46
0
VERTEX
8
Sketch
10
1
20
1.7
0
VERTEX
8
Sketch
10
1
20
2.12
0
VERTEX
8
Sketch
10
0.94
20
2.36
0
VERTEX
8
Sketch
10
0.7
20
2.72
0
VERTEX
8
Sketch
10
0.4
20
3.32
0
VERTEX
8
Sketch
10
0.28
20
3.44
0
VERTEX
8
Sketch
10
0.16
20
3.44
0
VERTEX
8
Sketch
10
-0.14
20
3.86
0
VERTEX
8
Sketch
10
-0.38
20
4.04
0
VERTEX
8
Sketch
10
-0.5
20
4.04
0
VERTEX
8
Sketch
10
-0.74
20
4.28
0
VERTEX
8
Sketch
10
-0.74
20
4.64
0
VERTEX
8
Sketch
10
-0.5
20
4.94
0
VERTEX
8
Sketch
10
0.16
20
5.06
0
VERTEX
8
Sketch
10
0.28
20
5.18
0
VERTEX
8
Sketch
10
0.58
20
5.24
0
VERTEX
8
Sketch
10
0.94
20
5.48
0
VERTEX
8
Sketch
10
1.24
20
6.02
0
VERTEX
8
Sketch
10
1.24
20
6.26
0
VERTEX
8
Sketch
10
1
20
6.8
0
VERTEX
8
Sketch
10
0.82
20
7.04
0
VERTEX
8
Sketch
10
0.82
20
7.22
0
VERTEX
8
Sketch
10
0.7
20
7.34
0
VERTEX
8
Sketch
10
0.58
20
7.88
0
VERTEX
8
Sketch
10
0.46
20
8.24
0
VERTEX
8
Sketch
10
0.46
20
8.42
0
VERTEX
8
Sketch
10
0.34
20
8.78
0
VERTEX
8
Sketch
10
0.34
20
9.08
0
VERTEX
8
Sketch
10
0.4
20
9.32
0
VERTEX
8
Sketch
10
0.52
20
9.98
0
VERTEX
8
Sketch
10
0.52
20
10.52
0
VERTEX
8
Sketch
10
0.4
20
10.82
0
VERTEX
8
Sketch
10
0.4
20
11
0
VERTEX
8
Sketch
10
0.34
20
11.24
0
VERTEX
8
Sketch
10
0.34
20
12.08
0
VERTEX
8
Sketch
10
0.4
20
12.32
0
VERTEX
8
Sketch
10
0.34
20
12.62
0
VERTEX
8
Sketch
10
0.34
20
13.04
0
VERTEX
8
Sketch
10
0.28
20
13.34
0
VERTEX
8
Sketch
10
0.34
20
13.64
0
VERTEX
8
Sketch
10
0.34
20
14.18
0
VERTEX
8
Sketch
10
0.22
20
14.72
0
VERTEX
8
Sketch
10
0.22
20
15.02
0
VERTEX
8
Sketch
10
0.28
20
15.26
0
VERTEX
8
Sketch
10
0.28
20
16.04
0
VERTEX
8
Sketch
10
0.04
20
17.12
0
VERTEX
8
Sketch
10
-0.02
20
17.48
0
VERTEX
8
Sketch
10
-0.32
20
18.08
0
VERTEX
8
Sketch
10
-0.56
20
18.32
0
VERTEX
8
Sketch
10
-0.8
20
18.74
0
VERTEX
8
Sketch
10
-1.88
20
19.82
0
VERTEX
8
Sketch
10
-2
20
19.82
0
VERTEX
8
Sketch
10
-2.24
20
20
0
VERTEX
8
Sketch
10
-2.42
20
20.06
0
SEQEND
0
POLYLINE
66
1
8
Sketch
62
0
0
VERTEX
8
Sketch
10
2.68
20
22.46
0
VERTEX
8
Sketch
10
2.02
20
22.46
0
VERTEX
8
Sketch
10
1.48
20
22.64
0
VERTEX
8
Sketch
10
1.36
20
22.64
0
VERTEX
8
Sketch
10
1.24
20
22.76
0
VERTEX
8
Sketch
10
1.18
20
23
0
VERTEX
8
Sketch
10
1
20
23.3
0
VERTEX
8
Sketch
10
1
20
23.54
0
VERTEX
8
Sketch
10
0.88
20
23.78
0
VERTEX
8
Sketch
10
0.88
20
23.96
0
SEQEND
0
POLYLINE
66
1
8
Sketch
62
0
0
VERTEX
8
Sketch
10
3.52
20
19.16
0
VERTEX
8
Sketch
10
3.64
20
19.4
0
VERTEX
8
Sketch
10
3.52
20
20.24
0
VERTEX
8
Sketch
10
3.52
20
20.48
0
VERTEX
8
Sketch
10
3.58
20
20.6
0
VERTEX
8
Sketch
10
3.52
20
20.72
0
VERTEX
8
Sketch
10
3.58
20
20.84
0
VERTEX
8
Sketch
10
3.46
20
21.14
0
VERTEX
8
Sketch
10
3.46
20
21.32
0
VERTEX
8
Sketch
10
3.22
20
22.04
0
VERTEX
8
Sketch
10
3.1
20
22.16
0
VERTEX
8
Sketch
10
2.68
20
22.16
0
VERTEX
8
Sketch
10
2.56
20
22.22
0
SEQEND
0
POLYLINE
66
1
8
Sketch
62
0
0
VERTEX
8
Sketch
10
4.06
20
13.88
0
VERTEX
8
Sketch
10
4.12
20
14.12
0
VERTEX
8
Sketch
10
4.12
20
14.3
0
VERTEX
8
Sketch
10
4
20
14.66
0
VERTEX
8
Sketch
10
4
20
14.78
0
VERTEX
8
Sketch
10
3.88
20
14.96
0
VERTEX
8
Sketch
10
3.88
20
15.5
0
VERTEX
8
Sketch
10
3.82
20
15.74
0
VERTEX
8
Sketch
10
3.82
20
16.16
0
VERTEX
8
Sketch
10
3.7
20
16.7
0
VERTEX
8
Sketch
10
3.7
20
17.66
0
VERTEX
8
Sketch
10
3.64
20
17.9
0
VERTEX
8
Sketch
10
3.64
20
18.14
0
VERTEX
8
Sketch
10
3.4
20
18.92
0
VERTEX
8
Sketch
10
3.46
20
19.04
0
VERTEX
8
Sketch
10
3.4
20
19.28
0
SEQEND
0
POLYLINE
66
1
8
Sketch
62
0
0
VERTEX
8
Sketch
10
2.62
20
-1.36
0
VERTEX
8
Sketch
10
2.5
20
-1.24
0
VERTEX
8
Sketch
10
2.5
20
-1
0
VERTEX
8
Sketch
10
2.8
20
-0.64
0
VERTEX
8
Sketch
10
3.1
20
-0.46
0
VERTEX
8
Sketch
10
3.94
20
0.62
0
VERTEX
8
Sketch
10
4.18
20
0.98
0
VERTEX
8
Sketch
10
4.18
20
1.76
0
VERTEX
8
Sketch
10
3.88
20
2.66
0
VERTEX
8
Sketch
10
3.76
20
3.08
0
VERTEX
8
Sketch
10
4.06
20
3.68
0
VERTEX
8
Sketch
10
4.12
20
3.92
0
VERTEX
8
Sketch
10
4.24
20
4.22
0
VERTEX
8
Sketch
10
4.42
20
4.22
0
VERTEX
8
Sketch
10
4.6
20
4.46
0
VERTEX
8
Sketch
10
4.9
20
4.64
0
VERTEX
8
Sketch
10
5.02
20
5
0
VERTEX
8
Sketch
10
5.08
20
5.24
0
VERTEX
8
Sketch
10
5.02
20
5.54
0
VERTEX
8
Sketch
10
4.84
20
6.26
0
VERTEX
8
Sketch
10
4.24
20
7.46
0
VERTEX
8
Sketch
10
4.12
20
7.58
0
VERTEX
8
Sketch
10
4.06
20
7.82
0
VERTEX
8
Sketch
10
3.94
20
8.24
0
VERTEX
8
Sketch
10
3.94
20
9.14
0
VERTEX
8
Sketch
10
3.88
20
9.38
0
VERTEX
8
Sketch
10
3.88
20
10.46
0
VERTEX
8
Sketch
10
3.82
20
10.76
0
VERTEX
8
Sketch
10
3.82
20
11.66
0
VERTEX
8
Sketch
10
3.76
20
11.9
0
VERTEX
8
Sketch
10
3.7
20
12.5
0
VERTEX
8
Sketch
10
3.76
20
12.74
0
VERTEX
8
Sketch
10
3.76
20
12.98
0
VERTEX
8
Sketch
10
3.82
20
13.28
0
VERTEX
8
Sketch
10
3.82
20
13.52
0
VERTEX
8
Sketch
10
3.94
20
13.76
0
SEQEND
0
POLYLINE
66
1
8
Sketch
62
1
0
VERTEX
8
Sketch
10
-9.06
20
-15.86
0
VERTEX
8
Sketch
10
-9.06
20
-16.06
0
SEQEND
0
POLYLINE
66
1
8
Sketch
62
1
0
VERTEX
8
Sketch
10
-10.26
20
-15.06
0
VERTEX
8
Sketch
10
-10.26
20
-14.66
0
VERTEX
8
Sketch
10
-9.66
20
-14.16
0
VERTEX
8
Sketch
10
-9.56
20
-14.56
0
VERTEX
8
Sketch
10
-9.66
20
-15.16
0
VERTEX
8
Sketch
10
-9.56
20
-15.36
0
VERTEX
8
Sketch
10
-9.36
20
-15.36
0
VERTEX
8
Sketch
10
-9.16
20
-15.16
0
SEQEND
0
POLYLINE
66
1
8
Sketch
62
1
0
VERTEX
8
Sketch
10
-9.66
20
-15.06
0
VERTEX
8
Sketch
10
-9.56
20
-14.66
0
VERTEX
8
Sketch
10
-9.66
20
-15.06
0
VERTEX
8
Sketch
10
-9.86
20
-15.56
0
VERTEX
8
Sketch
10
-9.46
20
-15.86
0
VERTEX
8
Sketch
10
-9.26
20
-15.66
0
VERTEX
8
Sketch
10
-8.86
20
-15.66
0
SEQEND
0
LINE
8
Shots
62
1
10
-5.86
20
30.44
11
-9.682
21
36.18
0
CIRCLE
8
Shots
62
1
10
-9.682
20
36.18
40
0.1
0
TEXT
8
Label
40
1
1
1.5
10
-9.682
20
36.18
0
LINE
8
Shots
62
1
10
0.178
20
20.704
11
-5.86
21
30.44
0
CIRCLE
8
Shots
62
1
10
-5.86
20
30.44
40
0.1
0
TEXT
8
Label
40
1
1
1.4
10
-5.86
20
30.44
0
LINE
8
XSect
62
1
10
-5.86
20
30.44
11
-3.92
21
31.438
0
LINE
8
XSect
62
1
10
-5.86
20
30.44
11
-8.068
21
29.966
0
LINE
8
XSect
62
1
10
-5.86
20
30.44
11
-9.83
21
30.67
0
LINE
8
XSect
62
1
10
-5.86
20
30.44
11
-14.172
21
33.182
0
LINE
8
XSect
62
1
10
-5.86
20
30.44
11
-13.298
21
34.468
0
LINE
8
XSect
62
1
10
-5.86
20
30.44
11
-11.766
21
35.604
0
LINE
8
XSect
62
1
10
-5.86
20
30.44
11
-10.272
21
38.208
0
LINE
8
XSect
62
1
10
-5.86
20
30.44
11
-6.48
21
37.164
0
LINE
8
XSect
62
1
10
-5.86
20
30.44
11
-4.84
21
36.638
0
LINE
8
XSect
62
1
10
-5.86
20
30.44
11
-10.528
21
34.636
0
LINE
8
XSect
62
1
10
-5.86
20
30.44
11
-11.526
21
34.226
0
LINE
8
Shots
62
1
10
3.15
20
4.784
11
0.178
21
20.704
0
CIRCLE
8
Shots
62
1
10
0.178
20
20.704
40
0.1
0
TEXT
8
Label
40
1
1
1.3
10
0.178
20
20.704
0
LINE
8
XSect
62
1
6
DASH
10
0.178
20
20.704
11
-0.864
21
20.822
0
LINE
8
XSect
62
1
10
0.178
20
20.704
11
-2.546
21
20.028
0
LINE
8
XSect
62
1
10
0.178
20
20.704
11
0.786
21
22.65
0
LINE
8
XSect
62
1
10
0.178
20
20.704
11
0.786
21
24.662
0
LINE
8
XSect
62
1
10
0.178
20
20.704
11
-0.66
21
26.8
0
LINE
8
XSect
62
1
10
0.178
20
20.704
11
-2.398
21
28.756
0
LINE
8
XSect
62
1
10
0.178
20
20.704
11
-4.03
21
23.478
0
LINE
8
XSect
62
1
10
0.178
20
20.704
11
-6.414
21
27.276
0
LINE
8
XSect
62
1
10
0.178
20
20.704
11
-5.518
21
27.176
0
LINE
8
XSect
62
1
10
0.178
20
20.704
11
-4.864
21
28
0
LINE
8
Shots
62
1
10
1.886
20
-1.332
11
3.15
21
4.784
0
CIRCLE
8
Shots
62
1
10
3.15
20
4.784
40
0.1
0
TEXT
8
Label
40
1
1
1.2
10
3.15
20
4.784
0
LINE
8
XSect
62
1
10
3.15
20
4.784
11
0.636
21
5.172
0
LINE
8
XSect
62
1
10
3.15
20
4.784
11
-0.788
21
4.492
0
LINE
8
XSect
62
1
6
DASH
10
3.15
20
4.784
11
4.896
21
4.828
0
LINE
8
XSect
62
1
10
3.15
20
4.784
11
4.24
21
4.68
0
LINE
8
XSect
62
1
10
3.15
20
4.784
11
0.226
21
8.312
0
LINE
8
XSect
62
1
10
3.15
20
4.784
11
0.27
21
10.3
0
LINE
8
XSect
62
1
10
3.15
20
4.784
11
0.308
21
13.2
0
LINE
8
XSect
62
1
10
3.15
20
4.784
11
0.13
21
16.434
0
LINE
8
XSect
62
1
10
3.15
20
4.784
11
4.022
21
7.39
0
LINE
8
XSect
62
1
10
3.15
20
4.784
11
3.522
21
10.418
0
LINE
8
XSect
62
1
10
3.15
20
4.784
11
2.814
21
14.036
0
LINE
8
XSect
62
1
10
3.15
20
4.784
11
2.208
21
19.074
0
LINE
8
XSect
62
1
10
3.15
20
4.784
11
2.876
21
21.954
0
LINE
8
XSect
62
1
10
3.15
20
4.784
11
1.342
21
20.92
0
LINE
8
XSect
62
1
10
3.15
20
4.784
11
1.326
21
20.868
0
LINE
8
XSect
62
1
10
3.15
20
4.784
11
1.346
21
20.98
0
LINE
8
XSect
62
1
10
3.15
20
4.784
11
1.47
21
20.682
0
LINE
8
XSect
62
1
10
3.15
20
4.784
11
0.27
21
20.584
0
LINE
8
Shots
62
1
10
0
20
0
11
1.886
21
-1.332
0
CIRCLE
8
Shots
62
1
10
1.886
20
-1.332
40
0.1
0
TEXT
8
Label
40
1
1
1.1
10
1.886
20
-1.332
0
LINE
8
XSect
62
1
10
1.886
20
-1.332
11
1.388
21
-6.774
0
LINE
8
XSect
62
1
10
1.886
20
-1.332
11
0.272
21
-5.244
0
LINE
8
XSect
62
1
10
1.886
20
-1.332
11
2.49
21
-6.346
0
LINE
8
XSect
62
1
10
1.886
20
-1.332
11
1.152
21
-3.234
0
ENDSEC
0
EOF
