0
SECTION
2
HEADER
9
$ACADVER
1
AC1002
9
$INSUNITS
70
4
0
ENDSEC
0
SECTION
2
TABLES
0
TABLE
2
LTYPE
70
1
0
LTYPE
2
DASH
70
0
3
---
72
65
73
2
40
0.6
49
0.3
49
-0.3
0
ENDTAB
0
ENDSEC
0
SECTION
2
ENTITIES
0
POLYLINE
66
1
8
Blue
62
5
0
VERTEX
8
Blue
10
-9.34
20
-28.78
0
VERTEX
8
Blue
10
-9.74
20
-28.68
0
VERTEX
8
Blue
10
-9.94
20
-28.78
0
VERTEX
8
Blue
10
-9.54
20
-28.08
0
VERTEX
8
Blue
10
-9.14
20
-27.98
0
VERTEX
8
Blue
10
-8.64
20
-27.88
0
VERTEX
8
Blue
10
-7.44
20
-27.88
0
VERTEX
8
Blue
10
-6.54
20
-28.08
0
VERTEX
8
Blue
10
-6.24
20
-28.08
0
VERTEX
8
Blue
10
-6.04
20
-28.18
0
VERTEX
8
Blue
10
-6.44
20
-27.88
0
VERTEX
8
Blue
10
-6.64
20
-27.88
0
VERTEX
8
Blue
10
-6.94
20
-27.68
0
VERTEX
8
Blue
10
-8.44
20
-27.58
0
VERTEX
8
Blue
10
-8.84
20
-27.68
0
VERTEX
8
Blue
10
-10.14
20
-28.88
0
VERTEX
8
Blue
10
-10.24
20
-29.68
0
VERTEX
8
Blue
10
-10.34
20
-29.88
0
VERTEX
8
Blue
10
-9.74
20
-28.78
0
VERTEX
8
Blue
10
-8.64
20
-27.68
0
VERTEX
8
Blue
10
-8.14
20
-27.68
0
VERTEX
8
Blue
10
-6.64
20
-28.48
0
VERTEX
8
Blue
10
-6.34
20
-28.58
0
VERTEX
8
Blue
10
-5.74
20
-29.68
0
SEQEND
0
POLYLINE
66
1
8
Blue
62
5
0
VERTEX
8
Blue
10
-12.14
20
-35.78
0
VERTEX
8
Blue
10
-12.54
20
-35.78
0
VERTEX
8
Blue
10
-11.94
20
-35.28
0
VERTEX
8
Blue
10
-11.64
20
-35.18
0
VERTEX
8
Blue
10
-10.94
20
-33.98
0
VERTEX
8
Blue
10
-11.04
20
-33.68
0
VERTEX
8
Blue
10
-10.94
20
-33.08
0
VERTEX
8
Blue
10
-10.94
20
-31.98
0
VERTEX
8
Blue
10
-10.74
20
-31.28
0
VERTEX
8
Blue
10
-10.84
20
-30.48
0
VERTEX
8
Blue
10
-10.74
20
-29.78
0
VERTEX
8
Blue
10
-10.94
20
-28.88
0
VERTEX
8
Blue
10
-11.04
20
-27.58
0
VERTEX
8
Blue
10
-11.14
20
-26.88
0
VERTEX
8
Blue
10
-11.04
20
-26.28
0
VERTEX
8
Blue
10
-11.14
20
-25.98
0
VERTEX
8
Blue
10
-10.64
20
-23.98
0
VERTEX
8
Blue
10
-10.64
20
-23.68
0
VERTEX
8
Blue
10
-10.24
20
-22.78
0
VERTEX
8
Blue
10
-9.34
20
-21.78
0
VERTEX
8
Blue
10
-9.14
20
-21.38
0
VERTEX
8
Blue
10
-8.84
20
-21.18
0
VERTEX
8
Blue
10
-8.84
20
-20.98
0
VERTEX
8
Blue
10
-8.04
20
-19.98
0
VERTEX
8
Blue
10
-7.04
20
-19.28
0
VERTEX
8
Blue
10
-6.54
20
-19.18
0
SEQEND
0
POLYLINE
66
1
8
Blue
62
5
0
VERTEX
8
Blue
10
-4.94
20
-31.78
0
VERTEX
8
Blue
10
-5.44
20
-30.88
0
VERTEX
8
Blue
10
-5.34
20
-30.48
0
VERTEX
8
Blue
10
-5.74
20
-29.28
0
VERTEX
8
Blue
10
-5.74
20
-28.98
0
VERTEX
8
Blue
10
-5.84
20
-28.58
0
VERTEX
8
Blue
10
-5.84
20
-28.28
0
VERTEX
8
Blue
10
-6.04
20
-28.08
0
VERTEX
8
Blue
10
-6.04
20
-27.68
0
VERTEX
8
Blue
10
-6.64
20
-26.48
0
VERTEX
8
Blue
10
-6.64
20
-25.78
0
VERTEX
8
Blue
10
-6.24
20
-24.38
0
VERTEX
8
Blue
10
-6.14
20
-23.48
0
VERTEX
8
Blue
10
-6.04
20
-23.28
0
VERTEX
8
Blue
10
-6.24
20
-22.28
0
VERTEX
8
Blue
10
-6.04
20
-21.28
0
VERTEX
8
Blue
10
-5.84
20
-20.78
0
SEQEND
0
POLYLINE
66
1
8
Blue
62
5
0
VERTEX
8
Blue
10
-7.74
20
-46.38
0
VERTEX
8
Blue
10
-7.94
20
-46.48
0
VERTEX
8
Blue
10
-7.74
20
-45.68
0
VERTEX
8
Blue
10
-7.44
20
-45.18
0
VERTEX
8
Blue
10
-7.44
20
-44.88
0
VERTEX
8
Blue
10
-7.14
20
-43.88
0
VERTEX
8
Blue
10
-6.94
20
-42.88
0
VERTEX
8
Blue
10
-6.94
20
-39.88
0
VERTEX
8
Blue
10
-6.64
20
-38.68
0
VERTEX
8
Blue
10
-6.54
20
-38.18
0
VERTEX
8
Blue
10
-6.34
20
-37.88
0
VERTEX
8
Blue
10
-6.34
20
-36.98
0
VERTEX
8
Blue
10
-5.84
20
-35.18
0
VERTEX
8
Blue
10
-5.24
20
-33.48
0
VERTEX
8
Blue
10
-5.24
20
-33.18
0
VERTEX
8
Blue
10
-5.14
20
-32.78
0
VERTEX
8
Blue
10
-4.74
20
-31.08
0
VERTEX
8
Blue
10
-4.94
20
-31.38
0
SEQEND
0
POINT
8
Blue
62
5
10
-34.24
20
-39.38
0
POLYLINE
66
1
8
Blue
62
5
0
VERTEX
8
Blue
10
-14.54
20
-49.88
0
VERTEX
8
Blue
10
-14.84
20
-50.38
0
VERTEX
8
Blue
10
-14.84
20
-51.08
0
VERTEX
8
Blue
10
-14.94
20
-51.78
0
VERTEX
8
Blue
10
-14.74
20
-52.88
0
VERTEX
8
Blue
10
-14.74
20
-53.28
0
VERTEX
8
Blue
10
-14.44
20
-53.48
0
VERTEX
8
Blue
10
-14.04
20
-53.48
0
VERTEX
8
Blue
10
-13.74
20
-53.38
0
VERTEX
8
Blue
10
-13.04
20
-52.38
0
VERTEX
8
Blue
10
-12.84
20
-51.88
0
VERTEX
8
Blue
10
-11.74
20
-50.68
0
VERTEX
8
Blue
10
-11.24
20
-50.38
0
VERTEX
8
Blue
10
-9.54
20
-47.98
0
VERTEX
8
Blue
10
-9.04
20
-47.78
0
VERTEX
8
Blue
10
-7.04
20
-45.98
0
VERTEX
8
Blue
10
-6.94
20
-45.78
0
SEQEND
0
POLYLINE
66
1
8
Blue
62
5
0
VERTEX
8
Blue
10
-11.84
20
-36.08
0
VERTEX
8
Blue
10
-13.44
20
-36.08
0
VERTEX
8
Blue
10
-13.94
20
-35.88
0
VERTEX
8
Blue
10
-14.04
20
-36.08
0
VERTEX
8
Blue
10
-15.14
20
-36.58
0
VERTEX
8
Blue
10
-15.54
20
-36.98
0
VERTEX
8
Blue
10
-15.64
20
-37.58
0
VERTEX
8
Blue
10
-15.54
20
-37.88
0
VERTEX
8
Blue
10
-15.64
20
-38.08
0
VERTEX
8
Blue
10
-15.24
20
-39.28
0
VERTEX
8
Blue
10
-15.64
20
-39.78
0
VERTEX
8
Blue
10
-15.64
20
-40.18
0
VERTEX
8
Blue
10
-15.54
20
-40.48
0
VERTEX
8
Blue
10
-15.64
20
-40.88
0
VERTEX
8
Blue
10
-15.64
20
-41.88
0
VERTEX
8
Blue
10
-15.34
20
-42.58
0
VERTEX
8
Blue
10
-15.04
20
-42.68
0
VERTEX
8
Blue
10
-15.14
20
-43.08
0
VERTEX
8
Blue
10
-15.44
20
-43.28
0
VERTEX
8
Blue
10
-15.44
20
-43.98
0
VERTEX
8
Blue
10
-15.24
20
-45.08
0
VERTEX
8
Blue
10
-15.24
20
-45.78
0
VERTEX
8
Blue
10
-15.14
20
-46.28
0
VERTEX
8
Blue
10
-15.14
20
-47.28
0
VERTEX
8
Blue
10
-14.94
20
-48.28
0
VERTEX
8
Blue
10
-14.94
20
-48.58
0
VERTEX
8
Blue
10
-14.84
20
-49.08
0
VERTEX
8
Blue
10
-14.84
20
-50.88
0
VERTEX
8
Blue
10
-14.94
20
-51.58
0
VERTEX
8
Blue
10
-14.94
20
-51.88
0
VERTEX
8
Blue
10
-15.04
20
-52.28
0
VERTEX
8
Blue
10
-15.04
20
-52.98
0
VERTEX
8
Blue
10
-14.94
20
-53.38
0
VERTEX
8
Blue
10
-14.94
20
-54.08
0
VERTEX
8
Blue
10
-14.84
20
-54.48
0
VERTEX
8
Blue
10
-14.84
20
-55.38
0
SEQEND
0
POLYLINE
66
1
8
Black
62
0
0
VERTEX
8
Black
10
-15.64
20
-50.28
0
VERTEX
8
Black
10
-15.44
20
-49.28
0
VERTEX
8
Black
10
-15.34
20
-48.28
0
VERTEX
8
Black
10
-15.34
20
-47.68
0
VERTEX
8
Black
10
-15.44
20
-47.18
0
VERTEX
8
Black
10
-15.44
20
-46.88
0
VERTEX
8
Black
10
-15.54
20
-46.48
0
VERTEX
8
Black
10
-15.74
20
-44.48
0
VERTEX
8
Black
10
-15.74
20
-43.58
0
VERTEX
8
Black
10
-15.34
20
-42.38
0
VERTEX
8
Black
10
-15.54
20
-42.28
0
VERTEX
8
Black
10
-15.64
20
-41.58
0
VERTEX
8
Black
10
-15.74
20
-41.18
0
VERTEX
8
Black
10
-16.04
20
-41.08
0
VERTEX
8
Black
10
-16.34
20
-40.28
0
VERTEX
8
Black
10
-16.34
20
-38.78
0
VERTEX
8
Black
10
-16.24
20
-38.28
0
VERTEX
8
Black
10
-16.24
20
-37.98
0
VERTEX
8
Black
10
-15.94
20
-36.68
0
VERTEX
8
Black
10
-15.64
20
-36.28
0
VERTEX
8
Black
10
-14.84
20
-35.78
0
VERTEX
8
Black
10
-14.44
20
-35.48
0
VERTEX
8
Black
10
-14.54
20
-35.18
0
VERTEX
8
Black
10
-14.24
20
-34.48
0
VERTEX
8
Black
10
-13.94
20
-34.18
0
VERTEX
8
Black
10
-13.44
20
-32.48
0
VERTEX
8
Black
10
-13.44
20
-31.58
0
VERTEX
8
Black
10
-13.14
20
-30.98
0
VERTEX
8
Black
10
-13.24
20
-30.58
0
VERTEX
8
Black
10
-12.94
20
-29.38
0
VERTEX
8
Black
10
-12.94
20
-28.98
0
VERTEX
8
Black
10
-12.84
20
-28.38
0
VERTEX
8
Black
10
-13.04
20
-27.38
0
VERTEX
8
Black
10
-13.24
20
-27.18
0
VERTEX
8
Black
10
-13.34
20
-26.78
0
VERTEX
8
Black
10
-13.74
20
-25.78
0
VERTEX
8
Black
10
-13.74
20
-25.48
0
VERTEX
8
Black
10
-14.54
20
-23.98
0
VERTEX
8
Black
10
-15.04
20
-23.68
0
VERTEX
8
Black
10
-16.74
20
-22.48
0
VERTEX
8
Black
10
-16.94
20
-22.08
0
VERTEX
8
Black
10
-16.84
20
-20.98
0
VERTEX
8
Black
10
-16.74
20
-20.78
0
SEQEND
0
POLYLINE
66
1
8
Black
62
0
0
VERTEX
8
Black
10
-17.64
20
-77.28
0
VERTEX
8
Black
10
-17.34
20
-76.48
0
VERTEX
8
Black
10
-17.34
20
-76.18
0
VERTEX
8
Black
10
-16.94
20
-75.28
0
VERTEX
8
Black
10
-16.94
20
-74.48
0
VERTEX
8
Black
10
-16.44
20
-73.48
0
VERTEX
8
Black
10
-16.64
20
-72.28
0
VERTEX
8
Black
10
-16.94
20
-70.78
0
VERTEX
8
Black
10
-17.14
20
-69.38
0
VERTEX
8
Black
10
-17.34
20
-68.28
0
VERTEX
8
Black
10
-17.34
20
-67.58
0
VERTEX
8
Black
10
-17.44
20
-67.28
0
VERTEX
8
Black
10
-17.24
20
-66.38
0
VERTEX
8
Black
10
-17.14
20
-65.98
0
VERTEX
8
Black
10
-16.94
20
-65.18
0
VERTEX
8
Black
10
-16.84
20
-64.78
0
VERTEX
8
Black
10
-16.64
20
-63.88
0
VERTEX
8
Black
10
-15.94
20
-62.08
0
VERTEX
8
Black
10
-15.84
20
-61.68
0
VERTEX
8
Black
10
-15.64
20
-60.78
0
VERTEX
8
Black
10
-15.54
20
-60.08
0
VERTEX
8
Black
10
-15.54
20
-59.38
0
VERTEX
8
Black
10
-15.44
20
-58.98
0
VERTEX
8
Black
10
-15.54
20
-57.48
0
VERTEX
8
Black
10
-15.54
20
-56.78
0
VERTEX
8
Black
10
-15.64
20
-56.18
0
VERTEX
8
Black
10
-15.64
20
-55.08
0
VERTEX
8
Black
10
-15.74
20
-54.58
0
VERTEX
8
Black
10
-15.74
20
-52.98
0
VERTEX
8
Black
10
-15.54
20
-52.18
0
VERTEX
8
Black
10
-15.24
20
-50.68
0
VERTEX
8
Black
10
-15.14
20
-49.58
0
VERTEX
8
Black
10
-14.94
20
-48.78
0
SEQEND
0
POINT
8
Black
62
0
10
19.66
20
-11.08
0
POINT
8
Blue
62
5
10
-17.34
20
-60.48
0
POINT
8
Blue
62
5
10
-18.14
20
-62.68
0
POINT
8
Blue
62
5
10
-18.34
20
-58.88
0
POLYLINE
66
1
8
Blue
62
5
0
VERTEX
8
Blue
10
13.26
20
-6.68
0
VERTEX
8
Blue
10
13.46
20
-7.88
0
VERTEX
8
Blue
10
15.06
20
-9.28
0
SEQEND
0
POLYLINE
66
1
8
Black
62
0
0
VERTEX
8
Black
10
-17.14
20
-21.88
0
VERTEX
8
Black
10
-17.14
20
-21.48
0
VERTEX
8
Black
10
-15.14
20
-16.88
0
VERTEX
8
Black
10
-15.14
20
-15.08
0
SEQEND
0
POLYLINE
66
1
8
Black
62
0
0
VERTEX
8
Black
10
-2.74
20
-20.48
0
VERTEX
8
Black
10
-3.14
20
-20.08
0
VERTEX
8
Black
10
-4.14
20
-20.28
0
VERTEX
8
Black
10
-4.54
20
-21.48
0
VERTEX
8
Black
10
-4.34
20
-22.48
0
VERTEX
8
Black
10
-4.14
20
-23.48
0
VERTEX
8
Black
10
-3.94
20
-25.28
0
VERTEX
8
Black
10
-3.94
20
-27.08
0
VERTEX
8
Black
10
-3.54
20
-28.08
0
VERTEX
8
Black
10
-3.54
20
-28.68
0
VERTEX
8
Black
10
-4.34
20
-31.28
0
VERTEX
8
Black
10
-4.54
20
-32.28
0
VERTEX
8
Black
10
-5.14
20
-33.48
0
VERTEX
8
Black
10
-5.14
20
-34.48
0
VERTEX
8
Black
10
-5.34
20
-35.28
0
VERTEX
8
Black
10
-5.74
20
-38.28
0
VERTEX
8
Black
10
-6.14
20
-39.08
0
VERTEX
8
Black
10
-6.14
20
-39.68
0
VERTEX
8
Black
10
-6.34
20
-40.48
0
VERTEX
8
Black
10
-6.54
20
-42.08
0
VERTEX
8
Black
10
-6.54
20
-44.48
0
VERTEX
8
Black
10
-6.74
20
-45.28
0
VERTEX
8
Black
10
-6.74
20
-46.68
0
VERTEX
8
Black
10
-7.74
20
-50.08
0
VERTEX
8
Black
10
-8.14
20
-52.28
0
VERTEX
8
Black
10
-8.14
20
-52.68
0
VERTEX
8
Black
10
-8.54
20
-53.28
0
VERTEX
8
Black
10
-8.54
20
-54.68
0
VERTEX
8
Black
10
-8.74
20
-55.48
0
VERTEX
8
Black
10
-8.74
20
-56.88
0
VERTEX
8
Black
10
-8.94
20
-57.48
0
VERTEX
8
Black
10
-8.74
20
-58.48
0
VERTEX
8
Black
10
-8.94
20
-59.28
0
VERTEX
8
Black
10
-8.94
20
-60.48
0
VERTEX
8
Black
10
-7.74
20
-63.68
0
VERTEX
8
Black
10
-7.14
20
-65.68
0
VERTEX
8
Black
10
-7.14
20
-67.08
0
VERTEX
8
Black
10
-6.74
20
-68.28
0
VERTEX
8
Black
10
-6.74
20
-71.88
0
VERTEX
8
Black
10
-7.14
20
-72.28
0
VERTEX
8
Black
10
-7.14
20
-72.88
0
VERTEX
8
Black
10
-7.74
20
-73.48
0
VERTEX
8
Black
10
-8.94
20
-73.08
0
VERTEX
8
Black
10
-9.94
20
-73.28
0
VERTEX
8
Black
10
-10.54
20
-74.28
0
VERTEX
8
Black
10
-11.14
20
-74.48
0
VERTEX
8
Black
10
-11.34
20
-75.48
0
VERTEX
8
Black
10
-11.94
20
-76.48
0
VERTEX
8
Black
10
-12.94
20
-77.08
0
VERTEX
8
Black
10
-13.74
20
-78.48
0
SEQEND
0
POLYLINE
66
1
8
Black
62
0
0
VERTEX
8
Black
10
-8.14
20
-14.42
0
VERTEX
8
Black
10
-8.26
20
-14.54
0
VERTEX
8
Black
10
-8.32
20
-15.2
0
VERTEX
8
Black
10
-8.32
20
-15.68
0
VERTEX
8
Black
10
-8.26
20
-15.98
0
VERTEX
8
Black
10
-8.32
20
-16.22
0
VERTEX
8
Black
10
-8.32
20
-16.7
0
VERTEX
8
Black
10
-8.38
20
-16.94
0
VERTEX
8
Black
10
-8.38
20
-17.78
0
VERTEX
8
Black
10
-8.14
20
-18.38
0
VERTEX
8
Black
10
-8.02
20
-18.5
0
VERTEX
8
Black
10
-7.9
20
-18.5
0
VERTEX
8
Black
10
-7.72
20
-18.62
0
VERTEX
8
Black
10
-7.48
20
-18.62
0
VERTEX
8
Black
10
-7.24
20
-18.5
0
VERTEX
8
Black
10
-7.18
20
-18.2
0
VERTEX
8
Black
10
-7.3
20
-17.72
0
VERTEX
8
Black
10
-7.24
20
-17.18
0
VERTEX
8
Black
10
-7.24
20
-16.4
0
VERTEX
8
Black
10
-7.36
20
-15.8
0
VERTEX
8
Black
10
-7.36
20
-15.44
0
VERTEX
8
Black
10
-7.42
20
-15.26
0
VERTEX
8
Black
10
-7.36
20
-15.14
0
VERTEX
8
Black
10
-7.36
20
-14.9
0
VERTEX
8
Black
10
-7.42
20
-14.54
0
VERTEX
8
Black
10
-7.42
20
-14.3
0
VERTEX
8
Black
10
-7.54
20
-14.12
0
VERTEX
8
Black
10
-7.54
20
-13.88
0
VERTEX
8
Black
10
-7.6
20
-13.7
0
VERTEX
8
Black
10
-7.9
20
-13.7
0
VERTEX
8
Black
10
-8.02
20
-14.18
0
SEQEND
0
POLYLINE
66
1
8
Black
62
0
0
VERTEX
8
Black
10
5.96
20
3.64
0
VERTEX
8
Black
10
5.12
20
2.08
0
VERTEX
8
Black
10
4.94
20
1.78
0
VERTEX
8
Black
10
4.82
20
1.36
0
VERTEX
8
Black
10
4.82
20
0.52
0
VERTEX
8
Black
10
4.76
20
0.28
0
VERTEX
8
Black
10
4.76
20
0.16
0
VERTEX
8
Black
10
4.16
20
-1.58
0
VERTEX
8
Black
10
3.74
20
-2.96
0
VERTEX
8
Black
10
3.44
20
-3.56
0
VERTEX
8
Black
10
3.38
20
-3.98
0
VERTEX
8
Black
10
2.9
20
-5.36
0
VERTEX
8
Black
10
2.78
20
-6.32
0
VERTEX
8
Black
10
2.78
20
-6.86
0
VERTEX
8
Black
10
2.72
20
-7.16
0
VERTEX
8
Black
10
2.6
20
-7.34
0
VERTEX
8
Black
10
2.48
20
-7.88
0
VERTEX
8
Black
10
2.36
20
-8.18
0
VERTEX
8
Black
10
2.24
20
-8.3
0
VERTEX
8
Black
10
2.18
20
-8.6
0
VERTEX
8
Black
10
1.82
20
-9.14
0
VERTEX
8
Black
10
1.46
20
-9.5
0
VERTEX
8
Black
10
1.4
20
-9.68
0
VERTEX
8
Black
10
0.92
20
-10.16
0
VERTEX
8
Black
10
0.56
20
-10.7
0
VERTEX
8
Black
10
0.38
20
-10.88
0
VERTEX
8
Black
10
0.14
20
-11.3
0
VERTEX
8
Black
10
-0.34
20
-11.96
0
VERTEX
8
Black
10
-0.7
20
-12.44
0
VERTEX
8
Black
10
-1.66
20
-14.48
0
VERTEX
8
Black
10
-2.14
20
-15.5
0
VERTEX
8
Black
10
-2.32
20
-15.74
0
VERTEX
8
Black
10
-2.8
20
-17.12
0
VERTEX
8
Black
10
-3.16
20
-17.6
0
VERTEX
8
Black
10
-3.4
20
-18.32
0
VERTEX
8
Black
10
-3.64
20
-18.68
0
VERTEX
8
Black
10
-3.88
20
-18.74
0
VERTEX
8
Black
10
-4.42
20
-18.98
0
VERTEX
8
Black
10
-4.42
20
-19.1
0
VERTEX
8
Black
10
-4.66
20
-19.34
0
VERTEX
8
Black
10
-4.78
20
-19.7
0
VERTEX
8
Black
10
-5.26
20
-20.48
0
VERTEX
8
Black
10
-5.44
20
-20.54
0
VERTEX
8
Black
10
-5.56
20
-20.72
0
VERTEX
8
Black
10
-5.74
20
-20.78
0
VERTEX
8
Black
10
-6.1
20
-21.14
0
SEQEND
0
POINT
8
Black
62
0
10
-3.82
20
-23.12
0
POLYLINE
66
1
8
Black
62
0
0
VERTEX
8
Black
10
-15.58
20
-15.44
0
VERTEX
8
Black
10
-15.52
20
-15.68
0
VERTEX
8
Black
10
-15.58
20
-15.92
0
VERTEX
8
Black
10
-15.58
20
-16.1
0
VERTEX
8
Black
10
-15.64
20
-16.4
0
VERTEX
8
Black
10
-15.64
20
-17
0
VERTEX
8
Black
10
-15.58
20
-17.24
0
VERTEX
8
Black
10
-15.58
20
-18.26
0
VERTEX
8
Black
10
-15.64
20
-18.68
0
VERTEX
8
Black
10
-15.64
20
-19.1
0
VERTEX
8
Black
10
-15.82
20
-20
0
VERTEX
8
Black
10
-16.12
20
-20.72
0
VERTEX
8
Black
10
-16.12
20
-20.9
0
VERTEX
8
Black
10
-16.24
20
-21.26
0
VERTEX
8
Black
10
-16.24
20
-21.56
0
VERTEX
8
Black
10
-16.3
20
-21.98
0
SEQEND
0
POLYLINE
66
1
8
Black
62
0
0
VERTEX
8
Black
10
-9
20
-6.02
0
VERTEX
8
Black
10
-9.2
20
-6.02
0
VERTEX
8
Black
10
-9.28
20
-6.06
0
VERTEX
8
Black
10
-9.52
20
-6.54
0
VERTEX
8
Black
10
-9.76
20
-7.74
0
VERTEX
8
Black
10
-9.92
20
-8.02
0
VERTEX
8
Black
10
-10.16
20
-8.22
0
VERTEX
8
Black
10
-10.88
20
-8.46
0
VERTEX
8
Black
10
-11.48
20
-8.98
0
VERTEX
8
Black
10
-11.72
20
-9.1
0
VERTEX
8
Black
10
-12.04
20
-9.18
0
VERTEX
8
Black
10
-12.36
20
-9.34
0
VERTEX
8
Black
10
-12.44
20
-9.34
0
VERTEX
8
Black
10
-12.72
20
-9.46
0
VERTEX
8
Black
10
-12.8
20
-9.46
0
VERTEX
8
Black
10
-13
20
-9.62
0
VERTEX
8
Black
10
-13.08
20
-9.62
0
VERTEX
8
Black
10
-13.64
20
-10.02
0
VERTEX
8
Black
10
-14.16
20
-10.62
0
VERTEX
8
Black
10
-14.56
20
-11.3
0
VERTEX
8
Black
10
-14.64
20
-11.58
0
VERTEX
8
Black
10
-14.72
20
-11.7
0
VERTEX
8
Black
10
-14.72
20
-11.82
0
VERTEX
8
Black
10
-14.8
20
-11.94
0
VERTEX
8
Black
10
-14.8
20
-12.06
0
VERTEX
8
Black
10
-14.88
20
-12.42
0
VERTEX
8
Black
10
-15.08
20
-12.98
0
VERTEX
8
Black
10
-15.12
20
-13.38
0
VERTEX
8
Black
10
-15.2
20
-13.5
0
VERTEX
8
Black
10
-15.2
20
-13.62
0
VERTEX
8
Black
10
-15.24
20
-13.7
0
VERTEX
8
Black
10
-15.28
20
-14.3
0
VERTEX
8
Black
10
-15.28
20
-14.74
0
VERTEX
8
Black
10
-15.32
20
-15.22
0
VERTEX
8
Black
10
-15.4
20
-15.38
0
VERTEX
8
Black
10
-15.36
20
-15.58
0
VERTEX
8
Black
10
-15.4
20
-15.86
0
VERTEX
8
Black
10
-15.44
20
-16.02
0
VERTEX
8
Black
10
-15.4
20
-16.26
0
VERTEX
8
Black
10
-15.4
20
-16.42
0
VERTEX
8
Black
10
-15.32
20
-16.5
0
VERTEX
8
Black
10
-15.32
20
-16.66
0
VERTEX
8
Black
10
-15.28
20
-16.86
0
SEQEND
0
POLYLINE
66
1
8
Black
62
0
0
VERTEX
8
Black
10
-7.52
20
-15.14
0
VERTEX
8
Black
10
-7.6
20
-15.08
0
VERTEX
8
Black
10
-7.8
20
-15.08
0
VERTEX
8
Black
10
-7.8
20
-14.98
0
VERTEX
8
Black
10
-7.84
20
-14.9
0
VERTEX
8
Black
10
-7.84
20
-14.7
0
VERTEX
8
Black
10
-7.8
20
-14.62
0
VERTEX
8
Black
10
-7.8
20
-14.48
0
VERTEX
8
Black
10
-7.76
20
-14.34
0
VERTEX
8
Black
10
-7.76
20
-14
0
VERTEX
8
Black
10
-7.74
20
-13.92
0
VERTEX
8
Black
10
-7.8
20
-13.74
0
VERTEX
8
Black
10
-7.86
20
-13.72
0
VERTEX
8
Black
10
-7.98
20
-13.86
0
VERTEX
8
Black
10
-8.04
20
-13.98
0
VERTEX
8
Black
10
-8.06
20
-14.06
0
VERTEX
8
Black
10
-8.1
20
-14.16
0
VERTEX
8
Black
10
-8.16
20
-14.24
0
VERTEX
8
Black
10
-8.24
20
-14.28
0
VERTEX
8
Black
10
-8.42
20
-14.54
0
VERTEX
8
Black
10
-8.44
20
-14.74
0
VERTEX
8
Black
10
-8.44
20
-15.06
0
VERTEX
8
Black
10
-8.46
20
-15.16
0
VERTEX
8
Black
10
-8.46
20
-15.2
0
VERTEX
8
Black
10
-8.32
20
-15.22
0
VERTEX
8
Black
10
-8.12
20
-15.24
0
VERTEX
8
Black
10
-8.02
20
-15.26
0
VERTEX
8
Black
10
-7.9
20
-15.26
0
VERTEX
8
Black
10
-7.86
20
-15.24
0
VERTEX
8
Black
10
-7.78
20
-15.06
0
VERTEX
8
Black
10
-7.8
20
-14.98
0
VERTEX
8
Black
10
-7.84
20
-14.94
0
VERTEX
8
Black
10
-7.8
20
-14.74
0
VERTEX
8
Black
10
-7.8
20
-14.44
0
VERTEX
8
Black
10
-7.76
20
-14.3
0
VERTEX
8
Black
10
-7.76
20
-14.1
0
VERTEX
8
Black
10
-7.72
20
-14
0
SEQEND
0
POLYLINE
66
1
8
Black
62
0
0
VERTEX
8
Black
10
-7.14
20
-15.18
0
VERTEX
8
Black
10
-7.38
20
-15.12
0
VERTEX
8
Black
10
-7.26
20
-15.18
0
SEQEND
0
POINT
8
Black
62
0
10
0.66
20
-2.76
0
POLYLINE
66
1
8
Black
62
0
0
VERTEX
8
Black
10
-5.88
20
-10.02
0
VERTEX
8
Black
10
-6.3
20
-9.9
0
VERTEX
8
Black
10
-6.3
20
-10.08
0
SEQEND
0
POLYLINE
66
1
8
Orange
62
30
0
VERTEX
8
Orange
10
0.96
20
26.88
0
VERTEX
8
Orange
10
0.84
20
26.88
0
VERTEX
8
Orange
10
0.6
20
26.46
0
VERTEX
8
Orange
10
0.54
20
26.1
0
VERTEX
8
Orange
10
0.6
20
25.86
0
VERTEX
8
Orange
10
0.78
20
25.98
0
VERTEX
8
Orange
10
1.08
20
26.58
0
VERTEX
8
Orange
10
1.14
20
27.66
0
VERTEX
8
Orange
10
1.5
20
26.58
0
VERTEX
8
Orange
10
1.62
20
26.46
0
SEQEND
0
POLYLINE
66
1
8
Orange
62
30
0
VERTEX
8
Orange
10
-0.54
20
26.82
0
VERTEX
8
Orange
10
-0.84
20
26.94
0
VERTEX
8
Orange
10
-1.08
20
26.64
0
VERTEX
8
Orange
10
-1.2
20
26.28
0
VERTEX
8
Orange
10
-1.2
20
25.98
0
VERTEX
8
Orange
10
-1.08
20
25.74
0
VERTEX
8
Orange
10
-0.72
20
26.1
0
VERTEX
8
Orange
10
-0.54
20
26.64
0
VERTEX
8
Orange
10
-0.54
20
27.12
0
VERTEX
8
Orange
10
-0.6
20
27.3
0
VERTEX
8
Orange
10
-0.6
20
27.06
0
VERTEX
8
Orange
10
-0.18
20
25.68
0
VERTEX
8
Orange
10
0.12
20
25.2
0
VERTEX
8
Orange
10
0.18
20
24.9
0
VERTEX
8
Orange
10
0.06
20
24.54
0
VERTEX
8
Orange
10
-0.66
20
24.24
0
SEQEND
0
POLYLINE
66
1
8
Orange
62
30
0
VERTEX
8
Orange
10
-2.04
20
28.08
0
VERTEX
8
Orange
10
-1.92
20
28.2
0
VERTEX
8
Orange
10
-1.8
20
28.2
0
SEQEND
0
POLYLINE
66
1
8
Orange
62
30
0
VERTEX
8
Orange
10
-1.62
20
26.64
0
VERTEX
8
Orange
10
-1.62
20
26.28
0
VERTEX
8
Orange
10
-1.56
20
26.04
0
VERTEX
8
Orange
10
-1.5
20
25.56
0
VERTEX
8
Orange
10
-1.38
20
25.38
0
SEQEND
0
POLYLINE
66
1
8
Orange
62
30
0
VERTEX
8
Orange
10
-3.3
20
26.94
0
VERTEX
8
Orange
10
-3.42
20
26.94
0
VERTEX
8
Orange
10
-3.9
20
26.64
0
VERTEX
8
Orange
10
-4.08
20
26.34
0
VERTEX
8
Orange
10
-4.14
20
26.04
0
VERTEX
8
Orange
10
-4.02
20
25.92
0
VERTEX
8
Orange
10
-3.12
20
26.4
0
VERTEX
8
Orange
10
-3
20
26.4
0
VERTEX
8
Orange
10
-2.94
20
26.1
0
VERTEX
8
Orange
10
-3.06
20
25.8
0
VERTEX
8
Orange
10
-3.12
20
25.38
0
VERTEX
8
Orange
10
-1.26
20
24.18
0
VERTEX
8
Orange
10
1.38
20
23.16
0
VERTEX
8
Orange
10
1.44
20
23.04
0
VERTEX
8
Orange
10
-0.18
20
23.7
0
VERTEX
8
Orange
10
-3.78
20
24.96
0
VERTEX
8
Orange
10
-3.9
20
25.14
0
SEQEND
0
POLYLINE
66
1
8
Orange
62
30
0
VERTEX
8
Orange
10
-5.88
20
22.8
0
VERTEX
8
Orange
10
-5.4
20
22.98
0
VERTEX
8
Orange
10
-4.14
20
23.16
0
VERTEX
8
Orange
10
-3.72
20
23.28
0
VERTEX
8
Orange
10
-3.3
20
23.28
0
VERTEX
8
Orange
10
-2.52
20
23.46
0
VERTEX
8
Orange
10
-1.68
20
23.58
0
VERTEX
8
Orange
10
-2.4
20
23.4
0
VERTEX
8
Orange
10
-3.6
20
23.28
0
VERTEX
8
Orange
10
-4.14
20
23.28
0
VERTEX
8
Orange
10
-5.22
20
23.52
0
VERTEX
8
Orange
10
-6.12
20
23.52
0
VERTEX
8
Orange
10
-4.98
20
23.76
0
VERTEX
8
Orange
10
-4.44
20
23.82
0
VERTEX
8
Orange
10
-3.54
20
24.06
0
VERTEX
8
Orange
10
-3.36
20
24
0
VERTEX
8
Orange
10
-3.84
20
23.7
0
VERTEX
8
Orange
10
-4.98
20
23.28
0
SEQEND
0
POLYLINE
66
1
8
Orange
62
30
0
VERTEX
8
Orange
10
6.78
20
22.2
0
VERTEX
8
Orange
10
6.54
20
22.26
0
VERTEX
8
Orange
10
6.42
20
22.26
0
VERTEX
8
Orange
10
6.3
20
22.14
0
VERTEX
8
Orange
10
6.3
20
21.54
0
VERTEX
8
Orange
10
6.24
20
21.42
0
VERTEX
8
Orange
10
6.3
20
21.12
0
VERTEX
8
Orange
10
6.24
20
20.88
0
VERTEX
8
Orange
10
6.3
20
20.7
0
VERTEX
8
Orange
10
6.24
20
20.4
0
VERTEX
8
Orange
10
6.18
20
20.1
0
VERTEX
8
Orange
10
5.52
20
19.44
0
VERTEX
8
Orange
10
4.86
20
18.96
0
VERTEX
8
Orange
10
4.56
20
18.42
0
VERTEX
8
Orange
10
4.2
20
17.82
0
VERTEX
8
Orange
10
3.72
20
17.28
0
VERTEX
8
Orange
10
2.88
20
16.32
0
VERTEX
8
Orange
10
2.58
20
16.44
0
VERTEX
8
Orange
10
2.76
20
16.74
0
VERTEX
8
Orange
10
3.72
20
17.58
0
VERTEX
8
Orange
10
3.9
20
17.88
0
VERTEX
8
Orange
10
4.08
20
18.18
0
VERTEX
8
Orange
10
4.44
20
18.72
0
VERTEX
8
Orange
10
4.62
20
18.84
0
VERTEX
8
Orange
10
4.8
20
19.14
0
VERTEX
8
Orange
10
5.34
20
19.38
0
VERTEX
8
Orange
10
5.94
20
19.98
0
VERTEX
8
Orange
10
6.18
20
20.46
0
VERTEX
8
Orange
10
6.24
20
21.06
0
VERTEX
8
Orange
10
6.36
20
21.18
0
VERTEX
8
Orange
10
6.36
20
21.3
0
VERTEX
8
Orange
10
5.82
20
19.92
0
VERTEX
8
Orange
10
4.68
20
19.02
0
VERTEX
8
Orange
10
3.72
20
17.88
0
VERTEX
8
Orange
10
4.02
20
18.42
0
VERTEX
8
Orange
10
4.38
20
18.84
0
VERTEX
8
Orange
10
5.58
20
19.86
0
VERTEX
8
Orange
10
6.06
20
20.58
0
VERTEX
8
Orange
10
6.12
20
21
0
VERTEX
8
Orange
10
6
20
20.7
0
VERTEX
8
Orange
10
3.84
20
18.3
0
VERTEX
8
Orange
10
3.6
20
17.7
0
VERTEX
8
Orange
10
3.42
20
17.46
0
VERTEX
8
Orange
10
3.66
20
17.76
0
VERTEX
8
Orange
10
4.86
20
19.86
0
VERTEX
8
Orange
10
5.64
20
20.7
0
VERTEX
8
Orange
10
5.52
20
20.7
0
VERTEX
8
Orange
10
4.5
20
19.86
0
VERTEX
8
Orange
10
3.72
20
18.54
0
VERTEX
8
Orange
10
3.66
20
18.3
0
VERTEX
8
Orange
10
4.62
20
20.1
0
VERTEX
8
Orange
10
4.86
20
20.4
0
VERTEX
8
Orange
10
4.74
20
20.34
0
VERTEX
8
Orange
10
3.96
20
18.96
0
VERTEX
8
Orange
10
3.78
20
18.6
0
VERTEX
8
Orange
10
4.08
20
18.9
0
VERTEX
8
Orange
10
4.44
20
19.44
0
VERTEX
8
Orange
10
5.16
20
20.28
0
VERTEX
8
Orange
10
5.88
20
20.82
0
VERTEX
8
Orange
10
5.94
20
21
0
VERTEX
8
Orange
10
6
20
20.88
0
VERTEX
8
Orange
10
5.82
20
20.4
0
VERTEX
8
Orange
10
4.98
20
19.74
0
VERTEX
8
Orange
10
4.02
20
18.72
0
VERTEX
8
Orange
10
4.2
20
19.02
0
VERTEX
8
Orange
10
4.68
20
19.5
0
VERTEX
8
Orange
10
5.64
20
20.16
0
VERTEX
8
Orange
10
6.06
20
20.58
0
VERTEX
8
Orange
10
6.24
20
20.58
0
SEQEND
0
POLYLINE
66
1
8
Orange
62
30
0
VERTEX
8
Orange
10
6.42
20
25.5
0
VERTEX
8
Orange
10
6.12
20
25.56
0
VERTEX
8
Orange
10
6.06
20
25.02
0
VERTEX
8
Orange
10
6.06
20
24.72
0
VERTEX
8
Orange
10
6.18
20
24.42
0
VERTEX
8
Orange
10
6.42
20
24.6
0
VERTEX
8
Orange
10
6.54
20
25.02
0
VERTEX
8
Orange
10
6.54
20
25.2
0
VERTEX
8
Orange
10
6.6
20
25.44
0
VERTEX
8
Orange
10
6.54
20
26.22
0
VERTEX
8
Orange
10
6.42
20
26.28
0
VERTEX
8
Orange
10
6.06
20
25.74
0
VERTEX
8
Orange
10
6.06
20
24.72
0
VERTEX
8
Orange
10
6.12
20
24.36
0
VERTEX
8
Orange
10
6.48
20
25.38
0
VERTEX
8
Orange
10
6.54
20
25.92
0
VERTEX
8
Orange
10
6.48
20
26.22
0
VERTEX
8
Orange
10
6.3
20
26.1
0
VERTEX
8
Orange
10
5.94
20
25.08
0
VERTEX
8
Orange
10
5.94
20
24.78
0
VERTEX
8
Orange
10
6.06
20
24.42
0
VERTEX
8
Orange
10
6.36
20
25.14
0
VERTEX
8
Orange
10
6.36
20
25.62
0
VERTEX
8
Orange
10
6.18
20
25.26
0
VERTEX
8
Orange
10
6.18
20
24.48
0
VERTEX
8
Orange
10
6.24
20
24.24
0
VERTEX
8
Orange
10
6.42
20
24.6
0
VERTEX
8
Orange
10
6.48
20
24.9
0
VERTEX
8
Orange
10
6.48
20
25.44
0
VERTEX
8
Orange
10
6.42
20
25.62
0
VERTEX
8
Orange
10
6.12
20
24.78
0
VERTEX
8
Orange
10
6.12
20
24.48
0
VERTEX
8
Orange
10
6.18
20
24.36
0
VERTEX
8
Orange
10
6.24
20
25.14
0
VERTEX
8
Orange
10
6.18
20
25.44
0
VERTEX
8
Orange
10
6.06
20
24.9
0
VERTEX
8
Orange
10
6.12
20
24.42
0
VERTEX
8
Orange
10
6.36
20
24.36
0
SEQEND
0
POLYLINE
66
1
8
Blue
62
5
0
VERTEX
8
Blue
10
4.68
20
17.46
0
VERTEX
8
Blue
10
4.68
20
17.34
0
VERTEX
8
Blue
10
4.44
20
17.04
0
VERTEX
8
Blue
10
4.44
20
16.86
0
VERTEX
8
Blue
10
4.08
20
15.78
0
VERTEX
8
Blue
10
3.84
20
14.82
0
VERTEX
8
Blue
10
3.84
20
14.58
0
VERTEX
8
Blue
10
3.78
20
14.34
0
VERTEX
8
Blue
10
3.72
20
13.8
0
VERTEX
8
Blue
10
3.9
20
13.56
0
VERTEX
8
Blue
10
4.32
20
13.56
0
VERTEX
8
Blue
10
4.8
20
13.74
0
VERTEX
8
Blue
10
5.16
20
14.1
0
VERTEX
8
Blue
10
6.06
20
14.58
0
VERTEX
8
Blue
10
6.24
20
15.36
0
VERTEX
8
Blue
10
6.3
20
15.6
0
VERTEX
8
Blue
10
6.42
20
16.02
0
VERTEX
8
Blue
10
6.48
20
16.26
0
VERTEX
8
Blue
10
6.6
20
16.56
0
VERTEX
8
Blue
10
6.54
20
16.98
0
VERTEX
8
Blue
10
6.24
20
17.16
0
VERTEX
8
Blue
10
5.7
20
17.16
0
VERTEX
8
Blue
10
5.4
20
17.28
0
VERTEX
8
Blue
10
5.22
20
17.28
0
VERTEX
8
Blue
10
4.92
20
17.4
0
VERTEX
8
Blue
10
4.74
20
17.34
0
VERTEX
8
Blue
10
4.5
20
16.98
0
VERTEX
8
Blue
10
4.5
20
16.62
0
SEQEND
0
POLYLINE
66
1
8
Black
62
0
0
VERTEX
8
Black
10
5.94
20
29.04
0
VERTEX
8
Black
10
5.82
20
29.1
0
VERTEX
8
Black
10
5.34
20
28.56
0
VERTEX
8
Black
10
5.28
20
28.2
0
VERTEX
8
Black
10
5.34
20
27.9
0
VERTEX
8
Black
10
5.52
20
27.66
0
VERTEX
8
Black
10
5.76
20
27.54
0
SEQEND
0
POLYLINE
66
1
8
Black
62
0
0
VERTEX
8
Black
10
5.82
20
4.32
0
VERTEX
8
Black
10
6
20
4.62
0
VERTEX
8
Black
10
6.24
20
5.04
0
VERTEX
8
Black
10
6.48
20
5.16
0
VERTEX
8
Black
10
7.2
20
6.66
0
VERTEX
8
Black
10
7.74
20
7.92
0
VERTEX
8
Black
10
7.92
20
8.28
0
VERTEX
8
Black
10
7.98
20
8.52
0
VERTEX
8
Black
10
8.1
20
9.06
0
VERTEX
8
Black
10
8.46
20
9.96
0
VERTEX
8
Black
10
9.6
20
11.76
0
VERTEX
8
Black
10
9.6
20
11.88
0
VERTEX
8
Black
10
9.72
20
12.06
0
VERTEX
8
Black
10
9.72
20
12.36
0
VERTEX
8
Black
10
9.84
20
12.6
0
VERTEX
8
Black
10
9.84
20
12.9
0
VERTEX
8
Black
10
9.9
20
13.38
0
VERTEX
8
Black
10
9.96
20
14.22
0
VERTEX
8
Black
10
10.02
20
14.52
0
VERTEX
8
Black
10
9.96
20
14.82
0
VERTEX
8
Black
10
9.96
20
15.42
0
VERTEX
8
Black
10
9.84
20
15.78
0
VERTEX
8
Black
10
9.78
20
16.32
0
VERTEX
8
Black
10
9.48
20
17.22
0
VERTEX
8
Black
10
9.48
20
17.7
0
VERTEX
8
Black
10
9.42
20
17.94
0
VERTEX
8
Black
10
9.42
20
18.36
0
VERTEX
8
Black
10
9.54
20
18.78
0
VERTEX
8
Black
10
9.54
20
19.56
0
VERTEX
8
Black
10
9.6
20
19.8
0
VERTEX
8
Black
10
9.6
20
20.58
0
VERTEX
8
Black
10
9.78
20
21.18
0
VERTEX
8
Black
10
9.9
20
21.3
0
VERTEX
8
Black
10
9.9
20
21.6
0
VERTEX
8
Black
10
9.96
20
21.84
0
VERTEX
8
Black
10
10.02
20
22.2
0
VERTEX
8
Black
10
10.26
20
22.74
0
VERTEX
8
Black
10
10.44
20
22.98
0
VERTEX
8
Black
10
10.5
20
23.28
0
VERTEX
8
Black
10
10.56
20
23.52
0
VERTEX
8
Black
10
10.56
20
23.94
0
VERTEX
8
Black
10
10.8
20
24.66
0
VERTEX
8
Black
10
10.92
20
24.78
0
VERTEX
8
Black
10
10.92
20
24.96
0
VERTEX
8
Black
10
11.04
20
25.44
0
VERTEX
8
Black
10
10.98
20
25.68
0
VERTEX
8
Black
10
10.98
20
26.46
0
VERTEX
8
Black
10
10.68
20
26.7
0
VERTEX
8
Black
10
10.14
20
26.76
0
VERTEX
8
Black
10
9.42
20
26.76
0
VERTEX
8
Black
10
9
20
26.94
0
VERTEX
8
Black
10
8.52
20
27.42
0
VERTEX
8
Black
10
8.46
20
27.6
0
VERTEX
8
Black
10
7.56
20
28.26
0
VERTEX
8
Black
10
7.08
20
28.86
0
VERTEX
8
Black
10
6.3
20
29.28
0
VERTEX
8
Black
10
6.06
20
29.4
0
VERTEX
8
Black
10
5.82
20
29.22
0
VERTEX
8
Black
10
6
20
28.86
0
VERTEX
8
Black
10
7.38
20
27.42
0
VERTEX
8
Black
10
8.64
20
25.8
0
VERTEX
8
Black
10
7.92
20
26.34
0
VERTEX
8
Black
10
5.46
20
28.56
0
VERTEX
8
Black
10
6.48
20
27.6
0
VERTEX
8
Black
10
5.46
20
28.5
0
VERTEX
8
Black
10
5.76
20
27.96
0
VERTEX
8
Black
10
5.76
20
27.54
0
VERTEX
8
Black
10
5.58
20
26.88
0
VERTEX
8
Black
10
5.52
20
26.64
0
VERTEX
8
Black
10
5.52
20
26.4
0
VERTEX
8
Black
10
5.82
20
25.74
0
VERTEX
8
Black
10
6
20
25.62
0
VERTEX
8
Black
10
6
20
25.5
0
VERTEX
8
Black
10
5.88
20
25.32
0
VERTEX
8
Black
10
5.82
20
24.84
0
VERTEX
8
Black
10
6.42
20
24.06
0
SEQEND
0
POINT
8
Black
62
0
10
14.94
20
14.58
0
POINT
8
Black
62
0
10
8.82
20
23.1
0
POINT
8
Black
62
0
10
12.96
20
22.8
0
POLYLINE
66
1
8
Black
62
0
0
VERTEX
8
Black
10
3.6
20
19.68
0
VERTEX
8
Black
10
4.2
20
20.46
0
VERTEX
8
Black
10
4.62
20
20.64
0
VERTEX
8
Black
10
5.4
20
20.82
0
VERTEX
8
Black
10
5.7
20
21
0
VERTEX
8
Black
10
6
20
21.54
0
VERTEX
8
Black
10
6
20
21.84
0
VERTEX
8
Black
10
6.06
20
22.14
0
VERTEX
8
Black
10
6.06
20
22.62
0
VERTEX
8
Black
10
6.12
20
22.74
0
VERTEX
8
Black
10
5.88
20
22.92
0
VERTEX
8
Black
10
5.82
20
23.16
0
VERTEX
8
Black
10
5.76
20
23.4
0
VERTEX
8
Black
10
5.76
20
23.7
0
VERTEX
8
Black
10
5.58
20
24
0
VERTEX
8
Black
10
5.64
20
24.48
0
VERTEX
8
Black
10
5.76
20
25.2
0
VERTEX
8
Black
10
5.7
20
25.44
0
VERTEX
8
Black
10
5.94
20
26.7
0
VERTEX
8
Black
10
6
20
27.18
0
SEQEND
0
POLYLINE
66
1
8
Black
62
0
0
VERTEX
8
Black
10
17.6
20
7.2
0
VERTEX
8
Black
10
17.8
20
7.1
0
SEQEND
0
POINT
8
Black
62
0
10
17.3
20
-2.2
0
POLYLINE
66
1
8
Black
62
0
0
VERTEX
8
Black
10
-9.6
20
-6.2
0
VERTEX
8
Black
10
-9.9
20
-7.2
0
VERTEX
8
Black
10
-10.1
20
-7.4
0
VERTEX
8
Black
10
-10.1
20
-7.6
0
SEQEND
0
POLYLINE
66
1
8
Blue
62
5
0
VERTEX
8
Blue
10
3.8
20
0.5
0
VERTEX
8
Blue
10
4.8
20
2.8
0
VERTEX
8
Blue
10
4.9
20
3.7
0
VERTEX
8
Blue
10
4.6
20
4.5
0
VERTEX
8
Blue
10
3.5
20
5.2
0
VERTEX
8
Blue
10
3.1
20
5.8
0
VERTEX
8
Blue
10
2.4
20
5.8
0
VERTEX
8
Blue
10
1.5
20
5.5
0
VERTEX
8
Blue
10
0.9
20
4.9
0
VERTEX
8
Blue
10
0.3
20
4.7
0
VERTEX
8
Blue
10
-0.2
20
4.4
0
VERTEX
8
Blue
10
-1.7
20
3.7
0
VERTEX
8
Blue
10
-2.3
20
3.1
0
VERTEX
8
Blue
10
-2.6
20
2.2
0
VERTEX
8
Blue
10
-2.5
20
1.8
0
VERTEX
8
Blue
10
-2.7
20
1.5
0
VERTEX
8
Blue
10
-2.9
20
0.6
0
VERTEX
8
Blue
10
-3
20
0.2
0
VERTEX
8
Blue
10
-3
20
-0.2
0
VERTEX
8
Blue
10
-3.1
20
-0.6
0
VERTEX
8
Blue
10
-3.2
20
-1
0
VERTEX
8
Blue
10
-4.2
20
-3.2
0
VERTEX
8
Blue
10
-4.6
20
-3.9
0
VERTEX
8
Blue
10
-5
20
-4.5
0
VERTEX
8
Blue
10
-5
20
-4.8
0
VERTEX
8
Blue
10
-5.5
20
-5.7
0
VERTEX
8
Blue
10
-5.5
20
-6.9
0
VERTEX
8
Blue
10
-5.7
20
-7.9
0
VERTEX
8
Blue
10
-5.9
20
-8.2
0
VERTEX
8
Blue
10
-6.2
20
-9.5
0
VERTEX
8
Blue
10
-6.5
20
-10.6
0
VERTEX
8
Blue
10
-6.5
20
-10.9
0
VERTEX
8
Blue
10
-6.3
20
-11.2
0
SEQEND
0
POLYLINE
66
1
8
Blue
62
5
0
VERTEX
8
Blue
10
-6.8
20
-20.3
0
VERTEX
8
Blue
10
-6.3
20
-20.3
0
VERTEX
8
Blue
10
-5.7
20
-20.2
0
VERTEX
8
Blue
10
-4.1
20
-19.2
0
VERTEX
8
Blue
10
-3.7
20
-18.8
0
VERTEX
8
Blue
10
-2.9
20
-17.7
0
VERTEX
8
Blue
10
-2.5
20
-16.3
0
VERTEX
8
Blue
10
-2.4
20
-15.4
0
VERTEX
8
Blue
10
-1.7
20
-13.6
0
VERTEX
8
Blue
10
-1.4
20
-13.1
0
VERTEX
8
Blue
10
-0.8
20
-11.6
0
VERTEX
8
Blue
10
-0.8
20
-11.3
0
VERTEX
8
Blue
10
-0.4
20
-10.3
0
VERTEX
8
Blue
10
-0.2
20
-10.1
0
VERTEX
8
Blue
10
-0.2
20
-9.9
0
VERTEX
8
Blue
10
0
20
-9.8
0
VERTEX
8
Blue
10
-0.2
20
-9.8
0
VERTEX
8
Blue
10
0.6
20
-9.3
0
VERTEX
8
Blue
10
1
20
-9.2
0
VERTEX
8
Blue
10
1.3
20
-8.7
0
VERTEX
8
Blue
10
1.7
20
-8.2
0
VERTEX
8
Blue
10
2.1
20
-6.8
0
VERTEX
8
Blue
10
2.2
20
-6
0
VERTEX
8
Blue
10
2.2
20
-4.7
0
VERTEX
8
Blue
10
2.1
20
-4.3
0
VERTEX
8
Blue
10
2.1
20
-3.6
0
VERTEX
8
Blue
10
2.2
20
-2.9
0
VERTEX
8
Blue
10
2.5
20
-2.5
0
VERTEX
8
Blue
10
2.9
20
-1.8
0
VERTEX
8
Blue
10
3.3
20
-1.2
0
VERTEX
8
Blue
10
3.4
20
-0.7
0
VERTEX
8
Blue
10
3.9
20
0.1
0
VERTEX
8
Blue
10
3.9
20
0.3
0
VERTEX
8
Blue
10
5
20
2.5
0
VERTEX
8
Blue
10
5
20
2.8
0
VERTEX
8
Blue
10
5.4
20
3.2
0
VERTEX
8
Blue
10
5.7
20
3.9
0
VERTEX
8
Blue
10
6.1
20
4.5
0
SEQEND
0
POLYLINE
66
1
8
Blue
62
5
0
VERTEX
8
Blue
10
-6.5
20
-20.8
0
VERTEX
8
Blue
10
-6.7
20
-19.9
0
VERTEX
8
Blue
10
-6.7
20
-18.4
0
VERTEX
8
Blue
10
-6.8
20
-17.9
0
VERTEX
8
Blue
10
-6.8
20
-17.4
0
VERTEX
8
Blue
10
-6.7
20
-17.1
0
VERTEX
8
Blue
10
-7
20
-16.2
0
VERTEX
8
Blue
10
-7
20
-15.1
0
VERTEX
8
Blue
10
-7.1
20
-14.6
0
VERTEX
8
Blue
10
-7
20
-14.2
0
VERTEX
8
Blue
10
-7
20
-13.8
0
VERTEX
8
Blue
10
-6.8
20
-13.2
0
VERTEX
8
Blue
10
-6.6
20
-12
0
VERTEX
8
Blue
10
-6.5
20
-11.1
0
VERTEX
8
Blue
10
-6.4
20
-10.6
0
VERTEX
8
Blue
10
-6.3
20
-10.4
0
VERTEX
8
Blue
10
-6.5
20
-10.2
0
SEQEND
0
POLYLINE
66
1
8
Black
62
0
0
VERTEX
8
Black
10
2
20
1.4
0
VERTEX
8
Black
10
0.9
20
1.1
0
VERTEX
8
Black
10
0.4
20
0.8
0
VERTEX
8
Black
10
-0.5
20
0.5
0
VERTEX
8
Black
10
-1
20
0.2
0
VERTEX
8
Black
10
-1.4
20
0.1
0
VERTEX
8
Black
10
-1.8
20
-0.3
0
VERTEX
8
Black
10
-2.6
20
-2.2
0
VERTEX
8
Black
10
-2.8
20
-3
0
VERTEX
8
Black
10
-3
20
-3.6
0
VERTEX
8
Black
10
-3
20
-4.1
0
VERTEX
8
Black
10
-3.1
20
-4.8
0
VERTEX
8
Black
10
-3
20
-5.7
0
VERTEX
8
Black
10
-2.7
20
-5.9
0
VERTEX
8
Black
10
-2.1
20
-6
0
VERTEX
8
Black
10
-1.4
20
-5.2
0
VERTEX
8
Black
10
-1
20
-4.6
0
VERTEX
8
Black
10
-1
20
-4.2
0
VERTEX
8
Black
10
-0.9
20
-3.7
0
VERTEX
8
Black
10
-0.6
20
-3.1
0
VERTEX
8
Black
10
0.4
20
-2.2
0
VERTEX
8
Black
10
0.9
20
-1.9
0
VERTEX
8
Black
10
1.4
20
-0.1
0
VERTEX
8
Black
10
1.4
20
0.6
0
VERTEX
8
Black
10
1.3
20
1
0
VERTEX
8
Black
10
0.8
20
1
0
VERTEX
8
Black
10
0.3
20
0.6
0
VERTEX
8
Black
10
-0.4
20
0.4
0
VERTEX
8
Black
10
-1.3
20
-0.1
0
VERTEX
8
Black
10
-1.5
20
-0.4
0
VERTEX
8
Black
10
-1.5
20
-0.7
0
VERTEX
8
Black
10
-1.6
20
-0.9
0
SEQEND
0
POLYLINE
66
1
8
Black
62
0
0
VERTEX
8
Black
10
4
20
18.9
0
VERTEX
8
Black
10
4.1
20
19.3
0
VERTEX
8
Black
10
3.9
20
19.1
0
VERTEX
8
Black
10
2.7
20
16.7
0
VERTEX
8
Black
10
1.8
20
15.6
0
VERTEX
8
Black
10
1.1
20
14.8
0
VERTEX
8
Black
10
-0.1
20
12.2
0
VERTEX
8
Black
10
-0.3
20
11.5
0
VERTEX
8
Black
10
-0.2
20
11.1
0
VERTEX
8
Black
10
-0.7
20
10
0
VERTEX
8
Black
10
-2.4
20
9.2
0
VERTEX
8
Black
10
-2.9
20
8.5
0
VERTEX
8
Black
10
-3.4
20
8.3
0
VERTEX
8
Black
10
-4.3
20
8.3
0
VERTEX
8
Black
10
-5
20
7.7
0
VERTEX
8
Black
10
-6.1
20
5.5
0
VERTEX
8
Black
10
-6.8
20
3.1
0
VERTEX
8
Black
10
-6.9
20
2.7
0
VERTEX
8
Black
10
-7.1
20
2.4
0
VERTEX
8
Black
10
-7.1
20
2.2
0
VERTEX
8
Black
10
-7.4
20
1.7
0
VERTEX
8
Black
10
-7.7
20
0.7
0
VERTEX
8
Black
10
-7.7
20
0
0
VERTEX
8
Black
10
-7.6
20
-0.2
0
VERTEX
8
Black
10
-7.7
20
-0.4
0
VERTEX
8
Black
10
-7.5
20
-0.7
0
VERTEX
8
Black
10
-7.5
20
-1.8
0
VERTEX
8
Black
10
-7.7
20
-2.2
0
VERTEX
8
Black
10
-7.7
20
-2.7
0
VERTEX
8
Black
10
-7.8
20
-3.1
0
VERTEX
8
Black
10
-7.9
20
-3.9
0
VERTEX
8
Black
10
-9
20
-5.2
0
VERTEX
8
Black
10
-9.4
20
-6.1
0
VERTEX
8
Black
10
-9.4
20
-6.5
0
VERTEX
8
Black
10
-9.6
20
-7
0
SEQEND
0
POLYLINE
66
1
8
Black
62
0
0
VERTEX
8
Black
10
-7.9
20
-3.6
0
VERTEX
8
Black
10
-8.1
20
-3.6
0
SEQEND
0
LINE
8
Shots
62
1
10
-13.094
20
-22.174
11
-8.67
21
-21.372
0
CIRCLE
8
Shots
62
1
10
-8.67
20
-21.372
40
0.1
0
TEXT
8
Label
40
1
1
1.6
10
-8.67
20
-21.372
0
LINE
8
XSect
62
1
10
-8.67
20
-21.372
11
-4.418
21
-22.046
0
LINE
8
XSect
62
1
10
-8.67
20
-21.372
11
-4.098
21
-25.312
0
LINE
8
XSect
62
1
10
-8.67
20
-21.372
11
-4.406
21
-31.124
0
LINE
8
XSect
62
1
10
-8.67
20
-21.372
11
-15.27
21
-69.28
0
LINE
8
XSect
62
1
10
-8.67
20
-21.372
11
-15.49
21
-71.584
0
LINE
8
XSect
62
1
10
-8.67
20
-21.372
11
-16.032
21
-73.62
0
LINE
8
XSect
62
1
10
-8.67
20
-21.372
11
-15.22
21
-67.832
0
LINE
8
XSect
62
1
10
-8.67
20
-21.372
11
-15.426
21
-41.636
0
LINE
8
XSect
62
1
10
-8.67
20
-21.372
11
-16.032
21
-41.396
0
LINE
8
XSect
62
1
10
-8.67
20
-21.372
11
-15.26
21
-50.016
0
LINE
8
XSect
62
1
10
-8.67
20
-21.372
11
-11.136
21
-50.424
0
LINE
8
XSect
62
1
10
-8.67
20
-21.372
11
-7.112
21
-47.732
0
LINE
8
XSect
62
1
10
-8.67
20
-21.372
11
-13.182
21
-29.06
0
LINE
8
XSect
62
1
10
-8.67
20
-21.372
11
-14.47
21
-25.524
0
LINE
8
XSect
62
1
10
-8.67
20
-21.372
11
-15.936
21
-22.696
0
LINE
8
XSect
62
1
6
DASH
10
-8.67
20
-21.372
11
-9.254
21
-23.784
0
LINE
8
XSect
62
1
6
DASH
10
-8.67
20
-21.372
11
-9.464
21
-27.552
0
LINE
8
XSect
62
1
10
-8.67
20
-21.372
11
-10.482
21
-36.358
0
LINE
8
XSect
62
1
10
-8.67
20
-21.372
11
-11.26
21
-44.09
0
LINE
8
Shots
62
1
10
-7.382
20
-13.038
11
-13.094
21
-22.174
0
CIRCLE
8
Shots
62
1
10
-13.094
20
-22.174
40
0.1
0
TEXT
8
Label
40
1
1
1.5
10
-13.094
20
-22.174
0
LINE
8
XSect
62
1
10
-13.094
20
-22.174
11
-8.654
21
-21.318
0
LINE
8
XSect
62
1
10
-13.094
20
-22.174
11
-8.692
21
-21.322
0
LINE
8
XSect
62
1
10
-13.094
20
-22.174
11
-4.952
21
-20.616
0
LINE
8
Shots
62
1
10
0.03
20
-0.048
11
-7.382
21
-13.038
0
CIRCLE
8
Shots
62
1
10
-7.382
20
-13.038
40
0.1
0
TEXT
8
Label
40
1
1
1.4
10
-7.382
20
-13.038
0
LINE
8
XSect
62
1
10
-7.382
20
-13.038
11
-4.412
21
-13.652
0
LINE
8
XSect
62
1
10
-7.382
20
-13.038
11
-5.242
21
-17.424
0
LINE
8
XSect
62
1
10
-7.382
20
-13.038
11
-13.908
21
-10.188
0
LINE
8
XSect
62
1
10
-7.382
20
-13.038
11
-14.764
21
-13.28
0
LINE
8
XSect
62
1
10
-7.382
20
-13.038
11
-15.384
21
-17.024
0
LINE
8
XSect
62
1
10
-7.382
20
-13.038
11
-16.11
21
-21.984
0
LINE
8
XSect
62
1
10
-7.382
20
-13.038
11
-13.994
21
-25.446
0
LINE
8
XSect
62
1
10
-7.382
20
-13.038
11
-7.978
21
-15.14
0
LINE
8
XSect
62
1
10
-7.382
20
-13.038
11
-7.04
21
-18.754
0
LINE
8
XSect
62
1
10
-7.382
20
-13.038
11
-13.198
21
-22.114
0
LINE
8
XSect
62
1
10
-7.382
20
-13.038
11
-13.192
21
-22.112
0
LINE
8
XSect
62
1
6
DASH
10
-7.382
20
-13.038
11
-10.058
21
-12.56
0
LINE
8
XSect
62
1
6
DASH
10
-7.382
20
-13.038
11
-9.836
21
-15.588
0
LINE
8
XSect
62
1
10
-7.382
20
-13.038
11
-10.48
21
-21.666
0
LINE
8
Shots
62
1
10
8.346
20
10.054
11
6.128
21
24.064
0
CIRCLE
8
Shots
62
1
10
6.128
20
24.064
40
0.1
0
TEXT
8
Label
40
1
1
1.3
10
6.128
20
24.064
0
LINE
8
XSect
62
1
10
6.128
20
24.064
11
5.54
21
25.306
0
LINE
8
XSect
62
1
10
6.128
20
24.064
11
6.758
21
28.824
0
LINE
8
XSect
62
1
10
6.128
20
24.064
11
7.344
21
28.626
0
LINE
8
XSect
62
1
10
6.128
20
24.064
11
10.99
21
26.632
0
LINE
8
XSect
62
1
6
DASH
10
6.128
20
24.064
11
7.7
21
25.152
0
LINE
8
XSect
62
1
10
6.128
20
24.064
11
5.214
21
24.358
0
LINE
8
XSect
62
1
10
6.128
20
24.064
11
10.34
21
23.594
0
LINE
8
XSect
62
1
6
DASH
10
6.128
20
24.064
11
5.886
21
23.754
0
LINE
8
XSect
62
1
6
DASH
10
6.128
20
24.064
11
5.302
21
20.51
0
LINE
8
XSect
62
1
10
6.128
20
24.064
11
5.098
21
17.758
0
LINE
8
XSect
62
1
10
6.128
20
24.064
11
5.816
21
29.386
0
LINE
8
Shots
62
1
10
0.03
20
-0.048
11
8.346
21
10.054
0
CIRCLE
8
Shots
62
1
10
8.346
20
10.054
40
0.1
0
TEXT
8
Label
40
1
1
1.2
10
8.346
20
10.054
0
LINE
8
XSect
62
1
10
8.346
20
10.054
11
0.506
21
12.916
0
LINE
8
XSect
62
1
10
8.346
20
10.054
11
1.12
21
16.262
0
LINE
8
XSect
62
1
10
8.346
20
10.054
11
5.42
21
20.812
0
LINE
8
XSect
62
1
10
8.346
20
10.054
11
5.952
21
27.388
0
LINE
8
XSect
62
1
10
8.346
20
10.054
11
9.12
21
27.07
0
LINE
8
XSect
62
1
10
8.346
20
10.054
11
9.388
21
17.572
0
LINE
8
XSect
62
1
10
8.346
20
10.054
11
9.688
21
14.764
0
LINE
8
XSect
62
1
6
DASH
10
8.346
20
10.054
11
7.244
21
9.328
0
LINE
8
XSect
62
1
6
DASH
10
8.346
20
10.054
11
6.452
21
14.648
0
LINE
8
XSect
62
1
10
8.346
20
10.054
11
7.744
21
21.498
0
LINE
8
Shots
62
1
10
0
20
0
11
0.03
21
-0.048
0
CIRCLE
8
Shots
62
1
10
0.03
20
-0.048
40
0.1
0
TEXT
8
Label
40
1
1
1.1
10
0.03
20
-0.048
0
LINE
8
XSect
62
1
10
0.03
20
-0.048
11
3.156
21
-3.264
0
LINE
8
XSect
62
1
10
0.03
20
-0.048
11
2.082
21
-6.228
0
LINE
8
XSect
62
1
10
0.03
20
-0.048
11
-3.466
21
-17.752
0
LINE
8
XSect
62
1
10
0.03
20
-0.048
11
-6.252
21
-21.04
0
LINE
8
XSect
62
1
10
0.03
20
-0.048
11
-6.338
21
-10.506
0
LINE
8
XSect
62
1
10
0.03
20
-0.048
11
-7.476
21
1.072
0
LINE
8
XSect
62
1
10
0.03
20
-0.048
11
-5.154
21
7.062
0
LINE
8
XSect
62
1
10
0.03
20
-0.048
11
-8.112
21
-3.81
0
LINE
8
XSect
62
1
6
DASH
10
0.03
20
-0.048
11
-3.67
21
-1.714
0
LINE
8
XSect
62
1
6
DASH
10
0.03
20
-0.048
11
-1.13
21
1.608
0
LINE
8
XSect
62
1
6
DASH
10
0.03
20
-0.048
11
-4.176
21
-5.366
0
LINE
8
XSect
62
1
10
0.03
20
-0.048
11
5.172
21
3.576
0
LINE
8
XSect
62
1
10
0.03
20
-0.048
11
8.082
21
9.802
0
LINE
8
XSect
62
1
10
0.03
20
-0.048
11
8.92
21
16.224
0
LINE
8
XSect
62
1
10
0.03
20
-0.048
11
4.306
21
19.63
0
LINE
8
XSect
62
1
10
0.03
20
-0.048
11
1.444
21
16.526
0
LINE
8
XSect
62
1
10
0.03
20
-0.048
11
-1.408
21
11.102
0
LINE
8
XSect
62
1
10
0.03
20
-0.048
11
4.06
21
10.036
0
LINE
8
XSect
62
1
10
0.03
20
-0.048
11
7.156
21
15.06
0
LINE
8
XSect
62
1
10
0.03
20
-0.048
11
8.722
21
21.212
0
LINE
8
XSect
62
1
10
0.03
20
-0.048
11
4.406
21
10.722
0
LINE
8
XSect
62
1
10
0.03
20
-0.048
11
4.368
21
10.722
0
LINE
8
XSect
62
1
10
0.03
20
-0.048
11
7.64
21
11.178
0
LINE
8
XSect
62
1
10
0.03
20
-0.048
11
7.518
21
10.888
0
LINE
8
XSect
62
1
10
0.03
20
-0.048
11
7.498
21
10.868
0
LINE
8
XSect
62
1
10
0.03
20
-0.048
11
7.496
21
10.786
0
LINE
8
XSect
62
1
10
0
20
0
11
0.03
21
-0.048
0
CIRCLE
8
XSect
62
1
10
0.03
20
-0.048
40
0.1
0
TEXT
8
Label
40
1
1
1.1
10
0.03
20
-0.048
0
ENDSEC
0
EOF
