0
SECTION
2
HEADER
9
$ACADVER
1
AC1002
9
$INSUNITS
70
4
0
ENDSEC
0
SECTION
2
TABLES
0
TABLE
2
LTYPE
70
1
0
LTYPE
2
DASH
70
0
3
---
72
65
73
2
40
0.6
49
0.3
49
-0.3
0
ENDTAB
0
ENDSEC
0
SECTION
2
ENTITIES
0
POLYLINE
66
1
8
Black
62
0
0
VERTEX
8
Black
10
-5.5
20
0.4
0
VERTEX
8
Black
10
-5.8
20
0.4
0
VERTEX
8
Black
10
-6.6
20
1.1
0
VERTEX
8
Black
10
-7.1
20
1.1
0
VERTEX
8
Black
10
-7.6
20
1.3
0
VERTEX
8
Black
10
-8.2
20
2
0
VERTEX
8
Black
10
-8.7
20
2.2
0
VERTEX
8
Black
10
-9.1
20
2.9
0
VERTEX
8
Black
10
-8.9
20
3.2
0
VERTEX
8
Black
10
-8.7
20
3.2
0
VERTEX
8
Black
10
-8.3
20
3.6
0
VERTEX
8
Black
10
-8.4
20
3.8
0
VERTEX
8
Black
10
-8.3
20
4
0
VERTEX
8
Black
10
-9.1
20
5
0
VERTEX
8
Black
10
-9
20
5.3
0
VERTEX
8
Black
10
-9.1
20
5.7
0
VERTEX
8
Black
10
-8.6
20
6
0
VERTEX
8
Black
10
-7.7
20
6.4
0
VERTEX
8
Black
10
-7.5
20
6.4
0
VERTEX
8
Black
10
-7.1
20
6.1
0
VERTEX
8
Black
10
-6.6
20
6.2
0
VERTEX
8
Black
10
-6.4
20
6.3
0
VERTEX
8
Black
10
-5.4
20
6.1
0
VERTEX
8
Black
10
-5.2
20
6.1
0
VERTEX
8
Black
10
-4.5
20
7
0
VERTEX
8
Black
10
-4.5
20
7.2
0
VERTEX
8
Black
10
-4
20
7.7
0
VERTEX
8
Black
10
-3.7
20
8.3
0
VERTEX
8
Black
10
-3.7
20
8.6
0
VERTEX
8
Black
10
-3.8
20
8.8
0
VERTEX
8
Black
10
-3.7
20
9.2
0
VERTEX
8
Black
10
-3.7
20
9.7
0
VERTEX
8
Black
10
-3.6
20
10.1
0
VERTEX
8
Black
10
-3.5
20
11.6
0
VERTEX
8
Black
10
-3.3
20
12.6
0
VERTEX
8
Black
10
-3.2
20
13.2
0
VERTEX
8
Black
10
-3.1
20
13.7
0
VERTEX
8
Black
10
-2.9
20
14.6
0
VERTEX
8
Black
10
-2.5
20
15
0
VERTEX
8
Black
10
-2.2
20
15.3
0
VERTEX
8
Black
10
-1.3
20
14.9
0
VERTEX
8
Black
10
-0.7
20
14.9
0
VERTEX
8
Black
10
0
20
14.4
0
VERTEX
8
Black
10
0.4
20
13.7
0
VERTEX
8
Black
10
0.4
20
13.5
0
VERTEX
8
Black
10
1.6
20
13
0
VERTEX
8
Black
10
2
20
13
0
VERTEX
8
Black
10
3.1
20
12.7
0
VERTEX
8
Black
10
3.5
20
12.3
0
VERTEX
8
Black
10
4
20
11.2
0
VERTEX
8
Black
10
4.7
20
10.7
0
VERTEX
8
Black
10
5.2
20
10.1
0
VERTEX
8
Black
10
5.5
20
10
0
VERTEX
8
Black
10
5.9
20
10.1
0
VERTEX
8
Black
10
6.4
20
10
0
VERTEX
8
Black
10
6.6
20
9.8
0
VERTEX
8
Black
10
7
20
9.7
0
VERTEX
8
Black
10
7.5
20
9.6
0
VERTEX
8
Black
10
8.4
20
9.7
0
VERTEX
8
Black
10
9.8
20
9.7
0
VERTEX
8
Black
10
10.8
20
10.4
0
VERTEX
8
Black
10
11.1
20
11.5
0
VERTEX
8
Black
10
11.3
20
12.3
0
VERTEX
8
Black
10
11.5
20
12.5
0
VERTEX
8
Black
10
11.6
20
13
0
VERTEX
8
Black
10
11.9
20
13.4
0
VERTEX
8
Black
10
12.1
20
13.4
0
VERTEX
8
Black
10
13
20
12.7
0
VERTEX
8
Black
10
13.6
20
11.8
0
VERTEX
8
Black
10
13.6
20
11.5
0
VERTEX
8
Black
10
14.1
20
10.8
0
VERTEX
8
Black
10
14.7
20
10.6
0
VERTEX
8
Black
10
15
20
10.6
0
VERTEX
8
Black
10
15.2
20
10.8
0
VERTEX
8
Black
10
15.8
20
10.9
0
VERTEX
8
Black
10
16.3
20
11.2
0
VERTEX
8
Black
10
17.9
20
11.9
0
VERTEX
8
Black
10
18.1
20
11.9
0
VERTEX
8
Black
10
18.6
20
11.4
0
VERTEX
8
Black
10
18.9
20
11.1
0
VERTEX
8
Black
10
19.4
20
11.2
0
VERTEX
8
Black
10
20.1
20
11.4
0
VERTEX
8
Black
10
20.5
20
11.5
0
VERTEX
8
Black
10
21.2
20
11.6
0
VERTEX
8
Black
10
21.7
20
11.6
0
VERTEX
8
Black
10
22.3
20
11.8
0
VERTEX
8
Black
10
22.9
20
11.9
0
VERTEX
8
Black
10
23.8
20
12.2
0
VERTEX
8
Black
10
24.8
20
11.8
0
VERTEX
8
Black
10
25.2
20
11.4
0
VERTEX
8
Black
10
25.6
20
11.4
0
VERTEX
8
Black
10
26
20
11.3
0
VERTEX
8
Black
10
26.3
20
10.9
0
VERTEX
8
Black
10
26.4
20
10.6
0
VERTEX
8
Black
10
27.3
20
10.2
0
VERTEX
8
Black
10
27.7
20
10.1
0
VERTEX
8
Black
10
28.4
20
10
0
VERTEX
8
Black
10
29.3
20
10
0
SEQEND
0
POLYLINE
66
1
8
Black
62
0
0
VERTEX
8
Black
10
-5.3
20
0.4
0
VERTEX
8
Black
10
-5.6
20
0.4
0
VERTEX
8
Black
10
-5.1
20
0.6
0
VERTEX
8
Black
10
-4.1
20
0.6
0
VERTEX
8
Black
10
-3.5
20
0.4
0
VERTEX
8
Black
10
-1.9
20
0.4
0
VERTEX
8
Black
10
-1.3
20
0.2
0
VERTEX
8
Black
10
-0.9
20
0.4
0
VERTEX
8
Black
10
-0.2
20
0.4
0
VERTEX
8
Black
10
1
20
0.9
0
VERTEX
8
Black
10
2.8
20
0.9
0
VERTEX
8
Black
10
3.2
20
1
0
VERTEX
8
Black
10
3.6
20
0.9
0
VERTEX
8
Black
10
3.8
20
1
0
VERTEX
8
Black
10
4.5
20
0.8
0
VERTEX
8
Black
10
5.4
20
1
0
VERTEX
8
Black
10
5.7
20
1.2
0
VERTEX
8
Black
10
7
20
1.4
0
VERTEX
8
Black
10
7.6
20
1.4
0
VERTEX
8
Black
10
7.8
20
1.3
0
VERTEX
8
Black
10
8.5
20
1.4
0
VERTEX
8
Black
10
9
20
1.7
0
VERTEX
8
Black
10
9.9
20
1.9
0
VERTEX
8
Black
10
10.4
20
2.2
0
VERTEX
8
Black
10
10.9
20
2.3
0
VERTEX
8
Black
10
11.4
20
3.1
0
VERTEX
8
Black
10
12.1
20
3.4
0
VERTEX
8
Black
10
12.5
20
3.7
0
VERTEX
8
Black
10
13.2
20
3.8
0
VERTEX
8
Black
10
13.4
20
4
0
VERTEX
8
Black
10
14.3
20
3.8
0
VERTEX
8
Black
10
14.7
20
3.8
0
VERTEX
8
Black
10
15.2
20
3.7
0
VERTEX
8
Black
10
15.7
20
3.7
0
VERTEX
8
Black
10
16.5
20
3.9
0
VERTEX
8
Black
10
17.4
20
3.9
0
VERTEX
8
Black
10
17.8
20
3.8
0
VERTEX
8
Black
10
19.2
20
3.8
0
VERTEX
8
Black
10
19.6
20
3.7
0
VERTEX
8
Black
10
20.5
20
3.7
0
VERTEX
8
Black
10
20.9
20
3.6
0
VERTEX
8
Black
10
22.1
20
3.8
0
VERTEX
8
Black
10
22.6
20
3.9
0
VERTEX
8
Black
10
23.1
20
4
0
VERTEX
8
Black
10
24.3
20
4.4
0
VERTEX
8
Black
10
25
20
4.2
0
VERTEX
8
Black
10
25.9
20
4.3
0
VERTEX
8
Black
10
27
20
4.9
0
VERTEX
8
Black
10
27.2
20
5.4
0
VERTEX
8
Black
10
27.5
20
5.6
0
VERTEX
8
Black
10
29.4
20
5.6
0
VERTEX
8
Black
10
29.7
20
5.4
0
VERTEX
8
Black
10
29.9
20
5.4
0
SEQEND
0
LINE
8
Shots
62
1
10
25.788
20
3.146
11
30.286
21
2.982
0
CIRCLE
8
Shots
62
1
10
30.286
20
2.982
40
0.1
0
TEXT
8
Label
40
1
1
1.6
10
30.286
20
2.982
0
LINE
8
XSect
62
1
10
30.286
20
2.982
11
34.352
21
3.576
0
LINE
8
XSect
62
1
6
DASH
10
30.286
20
2.982
11
34.09
21
3.77
0
LINE
8
XSect
62
1
6
DASH
10
30.286
20
2.982
11
32.76
21
4.166
0
LINE
8
XSect
62
1
6
DASH
10
30.286
20
2.982
11
15.322
21
1.474
0
LINE
8
XSect
62
1
6
DASH
10
30.286
20
2.982
11
14.7
21
3.804
0
LINE
8
XSect
62
1
6
DASH
10
30.286
20
2.982
11
13.806
21
6.244
0
LINE
8
XSect
62
1
6
DASH
10
30.286
20
2.982
11
15.626
21
-0.094
0
LINE
8
XSect
62
1
6
DASH
10
30.286
20
2.982
11
20.054
21
0.45
0
LINE
8
XSect
62
1
6
DASH
10
30.286
20
2.982
11
19.5
21
-0.05
0
LINE
8
XSect
62
1
6
DASH
10
30.286
20
2.982
11
18.736
21
0.09
0
LINE
8
XSect
62
1
6
DASH
10
30.286
20
2.982
11
22.724
21
-0.014
0
LINE
8
XSect
62
1
6
DASH
10
30.286
20
2.982
11
27.16
21
-0.064
0
LINE
8
XSect
62
1
6
DASH
10
30.286
20
2.982
11
24.486
21
2.79
0
LINE
8
XSect
62
1
10
30.286
20
2.982
11
23.844
21
3.29
0
LINE
8
XSect
62
1
10
30.286
20
2.982
11
22.9
21
3.534
0
LINE
8
XSect
62
1
10
30.286
20
2.982
11
29.284
21
9.336
0
LINE
8
XSect
62
1
10
30.286
20
2.982
11
28.41
21
9.72
0
LINE
8
XSect
62
1
6
DASH
10
30.286
20
2.982
11
25.854
21
9.106
0
LINE
8
XSect
62
1
6
DASH
10
30.286
20
2.982
11
23.72
21
6.81
0
LINE
8
Shots
62
1
10
15.014
20
3.468
11
25.788
21
3.146
0
CIRCLE
8
Shots
62
1
10
25.788
20
3.146
40
0.1
0
TEXT
8
Label
40
1
1
1.5
10
25.788
20
3.146
0
LINE
8
XSect
62
1
10
25.788
20
3.146
11
30.308
21
2.976
0
LINE
8
XSect
62
1
10
25.788
20
3.146
11
30.27
21
2.98
0
LINE
8
XSect
62
1
10
25.788
20
3.146
11
34.076
21
2.87
0
LINE
8
Shots
62
1
10
0.058
20
1.148
11
15.014
21
3.468
0
CIRCLE
8
Shots
62
1
10
15.014
20
3.468
40
0.1
0
TEXT
8
Label
40
1
1
1.4
10
15.014
20
3.468
0
LINE
8
XSect
62
1
6
DASH
10
15.014
20
3.468
11
14.036
21
3.958
0
LINE
8
XSect
62
1
6
DASH
10
15.014
20
3.468
11
17.626
21
3.862
0
LINE
8
XSect
62
1
6
DASH
10
15.014
20
3.468
11
15.938
21
6.816
0
LINE
8
XSect
62
1
6
DASH
10
15.014
20
3.468
11
19.092
21
5.44
0
LINE
8
XSect
62
1
10
15.014
20
3.468
11
22.638
21
4.492
0
LINE
8
XSect
62
1
10
15.014
20
3.468
11
27.226
21
4.194
0
LINE
8
XSect
62
1
10
15.014
20
3.468
11
29.038
21
3.724
0
LINE
8
XSect
62
1
10
15.014
20
3.468
11
17.11
21
3.542
0
LINE
8
XSect
62
1
10
15.014
20
3.468
11
19.676
21
3.168
0
LINE
8
XSect
62
1
10
15.014
20
3.468
11
25.792
21
3.156
0
LINE
8
XSect
62
1
10
15.014
20
3.468
11
25.786
21
3.13
0
LINE
8
XSect
62
1
10
15.014
20
3.468
11
15.996
21
10.808
0
LINE
8
XSect
62
1
10
15.014
20
3.468
11
18.476
21
9.478
0
LINE
8
XSect
62
1
10
15.014
20
3.468
11
23.97
21
8.56
0
LINE
8
Shots
62
1
10
13.142
20
4.148
11
27.328
21
5.678
0
CIRCLE
8
Shots
62
1
10
27.328
20
5.678
40
0.1
0
TEXT
8
Label
40
1
1
1.3
10
27.328
20
5.678
0
LINE
8
XSect
62
1
10
27.328
20
5.678
11
28.646
21
6.378
0
LINE
8
XSect
62
1
10
27.328
20
5.678
11
31.928
21
7.346
0
LINE
8
XSect
62
1
10
27.328
20
5.678
11
31.64
21
7.43
0
LINE
8
XSect
62
1
6
DASH
10
27.328
20
5.678
11
29.092
21
7.592
0
LINE
8
XSect
62
1
10
27.328
20
5.678
11
28.154
21
11.484
0
LINE
8
XSect
62
1
6
DASH
10
27.328
20
5.678
11
27.762
21
6.208
0
LINE
8
XSect
62
1
6
DASH
10
27.328
20
5.678
11
26.196
21
6.126
0
LINE
8
XSect
62
1
10
27.328
20
5.678
11
27.058
21
1.714
0
LINE
8
XSect
62
1
10
27.328
20
5.678
11
23.95
21
0.156
0
LINE
8
XSect
62
1
10
27.328
20
5.678
11
21.264
21
0.542
0
LINE
8
XSect
62
1
10
27.328
20
5.678
11
32.632
21
2.84
0
LINE
8
Shots
62
1
10
0.058
20
1.148
11
13.142
21
4.148
0
CIRCLE
8
Shots
62
1
10
13.142
20
4.148
40
0.1
0
TEXT
8
Label
40
1
1
1.2
10
13.142
20
4.148
0
LINE
8
XSect
62
1
6
DASH
10
13.142
20
4.148
11
14.246
21
5.236
0
LINE
8
XSect
62
1
6
DASH
10
13.142
20
4.148
11
19.494
21
5.832
0
LINE
8
XSect
62
1
10
13.142
20
4.148
11
24.226
21
6.51
0
LINE
8
XSect
62
1
10
13.142
20
4.148
11
30.634
21
7.24
0
LINE
8
XSect
62
1
10
13.142
20
4.148
11
29.82
21
6.744
0
LINE
8
XSect
62
1
10
13.142
20
4.148
11
20.398
21
6.15
0
LINE
8
XSect
62
1
10
13.142
20
4.148
11
17.578
21
5.372
0
LINE
8
XSect
62
1
10
13.142
20
4.148
11
11.88
21
13.48
0
LINE
8
XSect
62
1
10
13.142
20
4.148
11
17.978
21
11.87
0
LINE
8
XSect
62
1
10
13.142
20
4.148
11
24.536
21
12.47
0
LINE
8
Shots
62
1
10
0
20
0
11
0.058
21
1.148
0
CIRCLE
8
Shots
62
1
10
0.058
20
1.148
40
0.1
0
TEXT
8
Label
40
1
1
1.1
10
0.058
20
1.148
0
LINE
8
XSect
62
1
6
DASH
10
0.058
20
1.148
11
2.044
21
0.436
0
LINE
8
XSect
62
1
6
DASH
10
0.058
20
1.148
11
1.344
21
0.546
0
LINE
8
XSect
62
1
6
DASH
10
0.058
20
1.148
11
-2.246
21
0.848
0
LINE
8
XSect
62
1
6
DASH
10
0.058
20
1.148
11
-4.04
21
0.766
0
LINE
8
XSect
62
1
6
DASH
10
0.058
20
1.148
11
-4.056
21
0.634
0
LINE
8
XSect
62
1
10
0.058
20
1.148
11
-5.636
21
6.156
0
LINE
8
XSect
62
1
10
0.058
20
1.148
11
-8.72
21
6.306
0
LINE
8
XSect
62
1
6
DASH
10
0.058
20
1.148
11
-5.164
21
4.992
0
LINE
8
XSect
62
1
10
0.058
20
1.148
11
-2.314
21
15.51
0
LINE
8
XSect
62
1
10
0.058
20
1.148
11
-1.958
21
8.352
0
LINE
8
XSect
62
1
10
0.058
20
1.148
11
-2.654
21
15.102
0
LINE
8
XSect
62
1
10
0.058
20
1.148
11
6.124
21
2.828
0
LINE
8
XSect
62
1
10
0.058
20
1.148
11
12.778
21
4.932
0
LINE
8
XSect
62
1
10
0.058
20
1.148
11
18.272
21
6.668
0
LINE
8
XSect
62
1
10
0.058
20
1.148
11
13.738
21
8.234
0
LINE
8
XSect
62
1
6
DASH
10
0.058
20
1.148
11
4.772
21
7.344
0
LINE
8
XSect
62
1
6
DASH
10
0.058
20
1.148
11
-4.21
21
6.256
0
LINE
8
XSect
62
1
10
0.058
20
1.148
11
10.406
21
10.124
0
LINE
8
XSect
62
1
10
0.058
20
1.148
11
16.252
21
11.476
0
LINE
8
XSect
62
1
10
0.058
20
1.148
11
22
21
5.474
0
LINE
8
XSect
62
1
10
0.058
20
1.148
11
11.156
21
3.316
0
LINE
8
XSect
62
1
10
0.058
20
1.148
11
11.13
21
3.33
0
LINE
8
XSect
62
1
10
0.058
20
1.148
11
13.562
21
4.312
0
LINE
8
XSect
62
1
10
0.058
20
1.148
11
13.26
21
4.242
0
LINE
8
XSect
62
1
10
0.058
20
1.148
11
13.232
21
4.236
0
LINE
8
XSect
62
1
10
0.058
20
1.148
11
13.168
21
4.176
0
LINE
8
XSect
62
1
10
0
20
0
11
0.058
21
1.148
0
CIRCLE
8
XSect
62
1
10
0.058
20
1.148
40
0.1
0
TEXT
8
Label
40
1
1
1.1
10
0.058
20
1.148
0
ENDSEC
0
EOF
