0
SECTION
2
HEADER
9
$ACADVER
1
AC1002
9
$INSUNITS
70
4
0
ENDSEC
0
SECTION
2
TABLES
0
TABLE
2
LTYPE
70
1
0
LTYPE
2
DASH
70
0
3
---
72
65
73
2
40
0.6
49
0.3
49
-0.3
0
ENDTAB
0
ENDSEC
0
SECTION
2
ENTITIES
0
POLYLINE
66
1
8
Black
62
0
0
VERTEX
8
Black
10
542.76
20
103.14
0
VERTEX
8
Black
10
543.66
20
103.14
0
VERTEX
8
Black
10
544.41
20
102.54
0
SEQEND
0
POLYLINE
66
1
8
Black
62
0
0
VERTEX
8
Black
10
542.31
20
93.09
0
VERTEX
8
Black
10
542.16
20
92.64
0
VERTEX
8
Black
10
542.46
20
91.59
0
VERTEX
8
Black
10
543.96
20
88.89
0
VERTEX
8
Black
10
544.56
20
87.54
0
VERTEX
8
Black
10
546.21
20
84.84
0
VERTEX
8
Black
10
546.81
20
84.39
0
VERTEX
8
Black
10
547.56
20
83.34
0
VERTEX
8
Black
10
547.71
20
82.89
0
VERTEX
8
Black
10
549.66
20
80.04
0
VERTEX
8
Black
10
550.11
20
79.74
0
VERTEX
8
Black
10
551.01
20
78.39
0
VERTEX
8
Black
10
551.31
20
78.24
0
VERTEX
8
Black
10
552.21
20
76.59
0
VERTEX
8
Black
10
552.96
20
75.69
0
VERTEX
8
Black
10
553.11
20
75.24
0
VERTEX
8
Black
10
553.56
20
74.64
0
VERTEX
8
Black
10
554.46
20
73.89
0
VERTEX
8
Black
10
554.91
20
72.84
0
VERTEX
8
Black
10
555.21
20
72.54
0
VERTEX
8
Black
10
555.81
20
71.04
0
VERTEX
8
Black
10
556.26
20
69.09
0
VERTEX
8
Black
10
557.01
20
67.59
0
VERTEX
8
Black
10
557.31
20
67.29
0
VERTEX
8
Black
10
557.61
20
66.54
0
VERTEX
8
Black
10
558.66
20
65.19
0
VERTEX
8
Black
10
558.21
20
63.54
0
VERTEX
8
Black
10
557.91
20
62.94
0
VERTEX
8
Black
10
558.21
20
62.34
0
SEQEND
0
POLYLINE
66
1
8
Black
62
0
0
VERTEX
8
Black
10
591.36
20
37.74
0
VERTEX
8
Black
10
590.16
20
37.59
0
VERTEX
8
Black
10
589.26
20
37.74
0
VERTEX
8
Black
10
584.01
20
37.74
0
VERTEX
8
Black
10
583.56
20
37.59
0
VERTEX
8
Black
10
583.26
20
37.74
0
VERTEX
8
Black
10
582.51
20
37.44
0
VERTEX
8
Black
10
582.06
20
37.74
0
VERTEX
8
Black
10
581.31
20
37.44
0
VERTEX
8
Black
10
580.86
20
37.44
0
VERTEX
8
Black
10
580.11
20
37.89
0
VERTEX
8
Black
10
579.66
20
37.89
0
VERTEX
8
Black
10
578.91
20
38.19
0
VERTEX
8
Black
10
578.76
20
38.49
0
VERTEX
8
Black
10
578.46
20
38.49
0
VERTEX
8
Black
10
577.56
20
39.39
0
VERTEX
8
Black
10
576.81
20
40.74
0
VERTEX
8
Black
10
576.81
20
41.19
0
VERTEX
8
Black
10
576.21
20
42.24
0
VERTEX
8
Black
10
575.91
20
43.29
0
VERTEX
8
Black
10
575.91
20
43.89
0
VERTEX
8
Black
10
575.61
20
44.34
0
VERTEX
8
Black
10
574.86
20
47.79
0
VERTEX
8
Black
10
573.96
20
50.94
0
VERTEX
8
Black
10
573.51
20
51.99
0
VERTEX
8
Black
10
573.36
20
52.74
0
VERTEX
8
Black
10
572.76
20
53.64
0
VERTEX
8
Black
10
572.76
20
53.94
0
VERTEX
8
Black
10
571.71
20
55.44
0
VERTEX
8
Black
10
571.26
20
56.04
0
VERTEX
8
Black
10
570.66
20
56.49
0
VERTEX
8
Black
10
570.51
20
57.09
0
VERTEX
8
Black
10
569.16
20
58.29
0
VERTEX
8
Black
10
568.71
20
58.44
0
VERTEX
8
Black
10
568.41
20
58.74
0
VERTEX
8
Black
10
568.71
20
59.64
0
VERTEX
8
Black
10
568.56
20
60.09
0
VERTEX
8
Black
10
568.11
20
60.39
0
VERTEX
8
Black
10
567.51
20
61.59
0
VERTEX
8
Black
10
567.51
20
62.19
0
VERTEX
8
Black
10
566.91
20
63.84
0
VERTEX
8
Black
10
566.01
20
65.64
0
VERTEX
8
Black
10
565.56
20
65.94
0
VERTEX
8
Black
10
564.66
20
67.89
0
VERTEX
8
Black
10
564.51
20
68.49
0
VERTEX
8
Black
10
563.01
20
71.64
0
VERTEX
8
Black
10
563.01
20
71.94
0
VERTEX
8
Black
10
562.56
20
73.44
0
VERTEX
8
Black
10
562.41
20
74.04
0
VERTEX
8
Black
10
561.66
20
75.54
0
VERTEX
8
Black
10
561.06
20
76.44
0
VERTEX
8
Black
10
560.91
20
77.04
0
VERTEX
8
Black
10
560.16
20
78.54
0
VERTEX
8
Black
10
559.56
20
80.04
0
VERTEX
8
Black
10
559.26
20
80.34
0
VERTEX
8
Black
10
559.26
20
80.64
0
VERTEX
8
Black
10
558.21
20
82.29
0
VERTEX
8
Black
10
558.21
20
82.59
0
VERTEX
8
Black
10
557.01
20
84.54
0
VERTEX
8
Black
10
554.46
20
88.14
0
VERTEX
8
Black
10
554.01
20
88.44
0
VERTEX
8
Black
10
553.71
20
88.89
0
VERTEX
8
Black
10
553.26
20
89.19
0
VERTEX
8
Black
10
552.81
20
89.79
0
VERTEX
8
Black
10
552.36
20
90.09
0
VERTEX
8
Black
10
552.06
20
90.54
0
VERTEX
8
Black
10
551.46
20
90.99
0
VERTEX
8
Black
10
549.96
20
93.09
0
VERTEX
8
Black
10
549.51
20
93.39
0
VERTEX
8
Black
10
547.56
20
95.49
0
VERTEX
8
Black
10
547.26
20
95.64
0
VERTEX
8
Black
10
546.96
20
96.09
0
VERTEX
8
Black
10
546.51
20
96.24
0
VERTEX
8
Black
10
545.61
20
97.14
0
SEQEND
0
POLYLINE
66
1
8
Black
62
0
0
VERTEX
8
Black
10
624.21
20
37.59
0
VERTEX
8
Black
10
628.11
20
43.89
0
SEQEND
0
POLYLINE
66
1
8
Black
62
0
0
VERTEX
8
Black
10
623.46
20
38.64
0
VERTEX
8
Black
10
626.31
20
44.19
0
SEQEND
0
POLYLINE
66
1
8
Black
62
0
0
VERTEX
8
Black
10
730.86
20
17.79
0
VERTEX
8
Black
10
731.16
20
17.79
0
VERTEX
8
Black
10
730.56
20
18.09
0
VERTEX
8
Black
10
730.11
20
18.09
0
VERTEX
8
Black
10
729.66
20
18.24
0
VERTEX
8
Black
10
729.06
20
18.24
0
VERTEX
8
Black
10
728.31
20
18.54
0
VERTEX
8
Black
10
728.16
20
19.59
0
VERTEX
8
Black
10
728.16
20
21.54
0
SEQEND
0
POLYLINE
66
1
8
Black
62
0
0
VERTEX
8
Black
10
734.01
20
14.49
0
VERTEX
8
Black
10
733.71
20
14.04
0
SEQEND
0
POLYLINE
66
1
8
Black
62
0
0
VERTEX
8
Black
10
731.76
20
20.64
0
VERTEX
8
Black
10
732.06
20
20.94
0
VERTEX
8
Black
10
732.51
20
20.94
0
VERTEX
8
Black
10
733.26
20
20.64
0
VERTEX
8
Black
10
733.71
20
19.89
0
VERTEX
8
Black
10
733.71
20
19.59
0
VERTEX
8
Black
10
734.16
20
18.84
0
VERTEX
8
Black
10
733.86
20
17.64
0
VERTEX
8
Black
10
734.16
20
16.44
0
SEQEND
0
POLYLINE
66
1
8
Black
62
0
0
VERTEX
8
Black
10
732.81
20
16.74
0
VERTEX
8
Black
10
733.11
20
16.44
0
SEQEND
0
POLYLINE
66
1
8
Black
62
0
0
VERTEX
8
Black
10
720.51
20
32.49
0
VERTEX
8
Black
10
720.06
20
31.29
0
SEQEND
0
POLYLINE
66
1
8
Black
62
0
0
VERTEX
8
Black
10
721.11
20
35.64
0
VERTEX
8
Black
10
722.76
20
35.94
0
VERTEX
8
Black
10
722.61
20
35.49
0
VERTEX
8
Black
10
720.51
20
33.69
0
VERTEX
8
Black
10
721.56
20
33.69
0
SEQEND
0
POLYLINE
66
1
8
Black
62
0
0
VERTEX
8
Black
10
718.26
20
30.24
0
VERTEX
8
Black
10
718.26
20
29.64
0
VERTEX
8
Black
10
717.21
20
28.14
0
VERTEX
8
Black
10
716.46
20
27.54
0
VERTEX
8
Black
10
715.41
20
27.24
0
VERTEX
8
Black
10
714.81
20
27.09
0
VERTEX
8
Black
10
713.61
20
27.09
0
VERTEX
8
Black
10
713.31
20
26.79
0
VERTEX
8
Black
10
712.56
20
26.64
0
VERTEX
8
Black
10
711.36
20
26.19
0
VERTEX
8
Black
10
710.61
20
26.19
0
VERTEX
8
Black
10
710.31
20
26.04
0
VERTEX
8
Black
10
709.41
20
26.04
0
VERTEX
8
Black
10
707.16
20
25.59
0
VERTEX
8
Black
10
705.36
20
25.59
0
VERTEX
8
Black
10
705.06
20
25.74
0
VERTEX
8
Black
10
704.61
20
25.74
0
VERTEX
8
Black
10
704.31
20
25.89
0
SEQEND
0
POLYLINE
66
1
8
Black
62
0
0
VERTEX
8
Black
10
730.26
20
19.59
0
VERTEX
8
Black
10
729.96
20
19.44
0
VERTEX
8
Black
10
729.66
20
19.74
0
VERTEX
8
Black
10
728.16
20
20.34
0
VERTEX
8
Black
10
728.01
20
20.64
0
VERTEX
8
Black
10
726.06
20
21.84
0
VERTEX
8
Black
10
724.71
20
22.44
0
VERTEX
8
Black
10
723.96
20
22.74
0
VERTEX
8
Black
10
723.66
20
23.04
0
VERTEX
8
Black
10
722.61
20
23.49
0
VERTEX
8
Black
10
721.11
20
25.14
0
VERTEX
8
Black
10
720.51
20
25.29
0
VERTEX
8
Black
10
719.61
20
26.34
0
VERTEX
8
Black
10
719.76
20
26.94
0
VERTEX
8
Black
10
719.76
20
27.24
0
VERTEX
8
Black
10
720.21
20
28.59
0
VERTEX
8
Black
10
720.51
20
28.89
0
SEQEND
0
POLYLINE
66
1
8
Black
62
0
0
VERTEX
8
Black
10
703.71
20
15.09
0
VERTEX
8
Black
10
704.61
20
15.09
0
VERTEX
8
Black
10
705.51
20
15.24
0
VERTEX
8
Black
10
706.26
20
15.24
0
VERTEX
8
Black
10
706.86
20
14.94
0
VERTEX
8
Black
10
707.61
20
15.09
0
VERTEX
8
Black
10
707.91
20
15.24
0
VERTEX
8
Black
10
708.51
20
15.24
0
VERTEX
8
Black
10
709.86
20
15.84
0
VERTEX
8
Black
10
710.31
20
15.84
0
VERTEX
8
Black
10
711.06
20
16.29
0
VERTEX
8
Black
10
711.81
20
16.29
0
VERTEX
8
Black
10
712.56
20
16.59
0
VERTEX
8
Black
10
713.16
20
17.34
0
VERTEX
8
Black
10
713.91
20
17.19
0
VERTEX
8
Black
10
714.21
20
17.34
0
VERTEX
8
Black
10
716.61
20
16.59
0
VERTEX
8
Black
10
717.96
20
16.29
0
VERTEX
8
Black
10
718.26
20
16.14
0
VERTEX
8
Black
10
718.56
20
16.29
0
VERTEX
8
Black
10
718.86
20
16.14
0
VERTEX
8
Black
10
719.31
20
16.14
0
VERTEX
8
Black
10
719.61
20
15.99
0
VERTEX
8
Black
10
719.91
20
16.14
0
VERTEX
8
Black
10
720.51
20
15.99
0
VERTEX
8
Black
10
720.96
20
15.99
0
VERTEX
8
Black
10
722.16
20
15.69
0
VERTEX
8
Black
10
722.91
20
15.69
0
VERTEX
8
Black
10
723.06
20
15.39
0
VERTEX
8
Black
10
723.51
20
15.39
0
VERTEX
8
Black
10
725.46
20
14.79
0
VERTEX
8
Black
10
726.81
20
14.64
0
VERTEX
8
Black
10
727.11
20
14.49
0
VERTEX
8
Black
10
727.56
20
14.49
0
VERTEX
8
Black
10
728.61
20
14.19
0
SEQEND
0
POLYLINE
66
1
8
Black
62
0
0
VERTEX
8
Black
10
669.36
20
41.49
0
VERTEX
8
Black
10
668.76
20
41.94
0
VERTEX
8
Black
10
669.06
20
41.64
0
VERTEX
8
Black
10
670.56
20
41.04
0
VERTEX
8
Black
10
670.71
20
40.74
0
VERTEX
8
Black
10
671.46
20
40.44
0
VERTEX
8
Black
10
672.21
20
39.39
0
VERTEX
8
Black
10
673.11
20
37.14
0
VERTEX
8
Black
10
673.11
20
36.84
0
VERTEX
8
Black
10
673.56
20
35.79
0
VERTEX
8
Black
10
673.56
20
35.49
0
VERTEX
8
Black
10
673.86
20
35.04
0
VERTEX
8
Black
10
673.86
20
34.59
0
VERTEX
8
Black
10
674.46
20
32.79
0
VERTEX
8
Black
10
674.76
20
32.49
0
VERTEX
8
Black
10
674.76
20
32.19
0
VERTEX
8
Black
10
675.21
20
31.89
0
VERTEX
8
Black
10
675.81
20
30.84
0
VERTEX
8
Black
10
675.96
20
30.54
0
VERTEX
8
Black
10
676.26
20
30.54
0
VERTEX
8
Black
10
677.61
20
29.34
0
VERTEX
8
Black
10
677.76
20
28.29
0
VERTEX
8
Black
10
678.81
20
27.09
0
VERTEX
8
Black
10
679.56
20
26.49
0
VERTEX
8
Black
10
679.86
20
25.89
0
VERTEX
8
Black
10
680.31
20
25.74
0
VERTEX
8
Black
10
680.61
20
25.29
0
VERTEX
8
Black
10
682.26
20
24.54
0
VERTEX
8
Black
10
683.16
20
23.94
0
VERTEX
8
Black
10
683.91
20
23.94
0
VERTEX
8
Black
10
685.86
20
23.34
0
VERTEX
8
Black
10
686.31
20
23.49
0
VERTEX
8
Black
10
687.21
20
23.49
0
VERTEX
8
Black
10
687.21
20
23.19
0
VERTEX
8
Black
10
687.51
20
23.19
0
VERTEX
8
Black
10
687.81
20
22.89
0
VERTEX
8
Black
10
689.16
20
22.44
0
VERTEX
8
Black
10
690.21
20
22.44
0
VERTEX
8
Black
10
691.11
20
22.29
0
VERTEX
8
Black
10
692.16
20
21.54
0
VERTEX
8
Black
10
693.21
20
21.24
0
VERTEX
8
Black
10
693.51
20
20.94
0
VERTEX
8
Black
10
694.26
20
20.79
0
VERTEX
8
Black
10
694.86
20
20.64
0
VERTEX
8
Black
10
695.16
20
20.34
0
VERTEX
8
Black
10
695.76
20
20.34
0
VERTEX
8
Black
10
696.51
20
20.49
0
VERTEX
8
Black
10
696.81
20
20.49
0
VERTEX
8
Black
10
697.41
20
20.64
0
VERTEX
8
Black
10
698.46
20
20.64
0
VERTEX
8
Black
10
698.76
20
20.34
0
VERTEX
8
Black
10
699.06
20
20.49
0
VERTEX
8
Black
10
699.81
20
20.49
0
VERTEX
8
Black
10
700.41
20
20.64
0
VERTEX
8
Black
10
701.46
20
21.39
0
VERTEX
8
Black
10
702.51
20
22.59
0
VERTEX
8
Black
10
703.11
20
23.04
0
VERTEX
8
Black
10
703.26
20
23.34
0
VERTEX
8
Black
10
704.01
20
23.79
0
VERTEX
8
Black
10
704.61
20
23.79
0
VERTEX
8
Black
10
705.21
20
24.09
0
VERTEX
8
Black
10
705.66
20
24.09
0
VERTEX
8
Black
10
706.26
20
24.24
0
VERTEX
8
Black
10
706.56
20
24.54
0
VERTEX
8
Black
10
706.86
20
24.54
0
VERTEX
8
Black
10
707.46
20
25.29
0
VERTEX
8
Black
10
707.76
20
25.44
0
SEQEND
0
POLYLINE
66
1
8
Black
62
0
0
VERTEX
8
Black
10
668.01
20
19.89
0
VERTEX
8
Black
10
669.66
20
20.19
0
VERTEX
8
Black
10
670.26
20
20.04
0
VERTEX
8
Black
10
671.01
20
19.59
0
VERTEX
8
Black
10
671.46
20
19.59
0
VERTEX
8
Black
10
671.76
20
19.29
0
VERTEX
8
Black
10
672.06
20
19.44
0
VERTEX
8
Black
10
673.11
20
18.99
0
VERTEX
8
Black
10
673.41
20
18.99
0
VERTEX
8
Black
10
674.91
20
18.39
0
VERTEX
8
Black
10
675.21
20
18.39
0
VERTEX
8
Black
10
676.26
20
17.94
0
VERTEX
8
Black
10
676.86
20
17.94
0
VERTEX
8
Black
10
677.16
20
17.79
0
VERTEX
8
Black
10
677.76
20
17.79
0
VERTEX
8
Black
10
678.06
20
17.64
0
VERTEX
8
Black
10
678.51
20
17.64
0
VERTEX
8
Black
10
678.81
20
17.49
0
VERTEX
8
Black
10
679.26
20
17.49
0
VERTEX
8
Black
10
679.56
20
17.34
0
VERTEX
8
Black
10
680.46
20
17.34
0
VERTEX
8
Black
10
681.21
20
17.04
0
VERTEX
8
Black
10
681.51
20
17.19
0
VERTEX
8
Black
10
681.96
20
16.89
0
VERTEX
8
Black
10
683.61
20
16.89
0
VERTEX
8
Black
10
684.36
20
16.74
0
VERTEX
8
Black
10
685.11
20
16.59
0
VERTEX
8
Black
10
685.41
20
16.29
0
VERTEX
8
Black
10
686.31
20
16.14
0
VERTEX
8
Black
10
686.61
20
15.99
0
VERTEX
8
Black
10
688.11
20
15.99
0
VERTEX
8
Black
10
689.61
20
15.69
0
VERTEX
8
Black
10
691.86
20
15.69
0
VERTEX
8
Black
10
692.31
20
15.39
0
VERTEX
8
Black
10
692.76
20
15.39
0
VERTEX
8
Black
10
693.06
20
15.24
0
VERTEX
8
Black
10
693.81
20
15.24
0
VERTEX
8
Black
10
694.26
20
15.09
0
VERTEX
8
Black
10
694.56
20
15.24
0
VERTEX
8
Black
10
695.31
20
14.94
0
VERTEX
8
Black
10
696.06
20
14.94
0
VERTEX
8
Black
10
697.41
20
14.64
0
VERTEX
8
Black
10
698.76
20
14.64
0
VERTEX
8
Black
10
699.36
20
14.79
0
VERTEX
8
Black
10
699.81
20
14.79
0
VERTEX
8
Black
10
701.01
20
15.09
0
VERTEX
8
Black
10
701.46
20
15.09
0
VERTEX
8
Black
10
702.51
20
15.39
0
VERTEX
8
Black
10
702.81
20
15.39
0
VERTEX
8
Black
10
703.41
20
15.54
0
VERTEX
8
Black
10
704.16
20
15.69
0
VERTEX
8
Black
10
704.46
20
15.54
0
VERTEX
8
Black
10
704.91
20
15.54
0
VERTEX
8
Black
10
705.21
20
15.39
0
VERTEX
8
Black
10
705.66
20
15.39
0
SEQEND
0
POLYLINE
66
1
8
Black
62
0
0
VERTEX
8
Black
10
657.66
20
20.49
0
VERTEX
8
Black
10
656.76
20
20.19
0
VERTEX
8
Black
10
658.26
20
20.04
0
VERTEX
8
Black
10
659.01
20
19.74
0
VERTEX
8
Black
10
659.61
20
20.04
0
VERTEX
8
Black
10
660.36
20
19.89
0
VERTEX
8
Black
10
660.81
20
19.89
0
VERTEX
8
Black
10
661.11
20
20.04
0
VERTEX
8
Black
10
661.41
20
19.89
0
VERTEX
8
Black
10
663.66
20
19.89
0
VERTEX
8
Black
10
663.96
20
19.74
0
VERTEX
8
Black
10
665.76
20
19.74
0
VERTEX
8
Black
10
666.66
20
19.59
0
VERTEX
8
Black
10
668.16
20
19.44
0
VERTEX
8
Black
10
669.21
20
19.59
0
SEQEND
0
POLYLINE
66
1
8
Black
62
0
0
VERTEX
8
Black
10
660.96
20
38.94
0
VERTEX
8
Black
10
661.26
20
39.09
0
VERTEX
8
Black
10
661.71
20
38.94
0
VERTEX
8
Black
10
662.01
20
39.09
0
VERTEX
8
Black
10
662.46
20
39.09
0
VERTEX
8
Black
10
664.56
20
40.14
0
VERTEX
8
Black
10
665.01
20
40.44
0
VERTEX
8
Black
10
665.61
20
41.19
0
VERTEX
8
Black
10
666.06
20
41.34
0
VERTEX
8
Black
10
666.51
20
41.94
0
VERTEX
8
Black
10
666.96
20
41.94
0
VERTEX
8
Black
10
667.26
20
42.24
0
VERTEX
8
Black
10
667.71
20
42.24
0
VERTEX
8
Black
10
668.01
20
42.54
0
VERTEX
8
Black
10
668.76
20
42.69
0
SEQEND
0
POLYLINE
66
1
8
Black
62
0
0
VERTEX
8
Black
10
635.31
20
44.04
0
VERTEX
8
Black
10
635.01
20
44.19
0
VERTEX
8
Black
10
635.61
20
43.74
0
VERTEX
8
Black
10
635.76
20
43.29
0
VERTEX
8
Black
10
636.81
20
42.69
0
VERTEX
8
Black
10
637.11
20
42.69
0
VERTEX
8
Black
10
638.76
20
42.24
0
VERTEX
8
Black
10
639.06
20
42.24
0
VERTEX
8
Black
10
639.51
20
41.94
0
VERTEX
8
Black
10
639.81
20
41.94
0
VERTEX
8
Black
10
640.86
20
41.04
0
VERTEX
8
Black
10
641.31
20
40.44
0
VERTEX
8
Black
10
642.36
20
39.84
0
VERTEX
8
Black
10
642.81
20
39.84
0
VERTEX
8
Black
10
643.86
20
39.54
0
VERTEX
8
Black
10
644.16
20
39.69
0
VERTEX
8
Black
10
644.46
20
39.54
0
VERTEX
8
Black
10
644.91
20
39.54
0
VERTEX
8
Black
10
647.31
20
38.79
0
VERTEX
8
Black
10
648.06
20
38.64
0
VERTEX
8
Black
10
648.81
20
38.94
0
VERTEX
8
Black
10
649.41
20
38.64
0
VERTEX
8
Black
10
651.51
20
38.64
0
VERTEX
8
Black
10
652.11
20
38.79
0
VERTEX
8
Black
10
652.41
20
38.64
0
VERTEX
8
Black
10
652.86
20
38.64
0
VERTEX
8
Black
10
654.06
20
38.34
0
VERTEX
8
Black
10
655.86
20
38.49
0
VERTEX
8
Black
10
656.91
20
38.04
0
VERTEX
8
Black
10
658.26
20
38.04
0
VERTEX
8
Black
10
659.76
20
38.64
0
VERTEX
8
Black
10
660.36
20
39.09
0
VERTEX
8
Black
10
661.11
20
39.39
0
VERTEX
8
Black
10
661.41
20
39.69
0
VERTEX
8
Black
10
662.46
20
39.84
0
VERTEX
8
Black
10
662.76
20
40.14
0
VERTEX
8
Black
10
662.16
20
39.99
0
VERTEX
8
Black
10
661.86
20
39.99
0
SEQEND
0
POLYLINE
66
1
8
Black
62
0
0
VERTEX
8
Black
10
628.91
20
44.54
0
VERTEX
8
Black
10
629.61
20
44.94
0
VERTEX
8
Black
10
630.41
20
45.04
0
VERTEX
8
Black
10
631.01
20
44.94
0
VERTEX
8
Black
10
631.21
20
44.84
0
VERTEX
8
Black
10
632.61
20
44.74
0
VERTEX
8
Black
10
633.21
20
44.54
0
VERTEX
8
Black
10
633.71
20
44.74
0
VERTEX
8
Black
10
634.81
20
44.74
0
VERTEX
8
Black
10
635.81
20
44.94
0
VERTEX
8
Black
10
636.01
20
44.84
0
SEQEND
0
POLYLINE
66
1
8
Black
62
0
0
VERTEX
8
Black
10
634.31
20
21.14
0
VERTEX
8
Black
10
634.91
20
21.04
0
VERTEX
8
Black
10
636.41
20
21.04
0
VERTEX
8
Black
10
637.01
20
21.14
0
VERTEX
8
Black
10
637.31
20
21.14
0
VERTEX
8
Black
10
637.71
20
21.24
0
VERTEX
8
Black
10
638.21
20
21.24
0
VERTEX
8
Black
10
638.91
20
21.04
0
VERTEX
8
Black
10
639.11
20
21.04
0
VERTEX
8
Black
10
639.61
20
20.74
0
VERTEX
8
Black
10
640.31
20
20.54
0
VERTEX
8
Black
10
640.61
20
20.34
0
VERTEX
8
Black
10
642.11
20
20.34
0
VERTEX
8
Black
10
642.41
20
20.44
0
VERTEX
8
Black
10
642.61
20
20.34
0
VERTEX
8
Black
10
642.81
20
20.54
0
VERTEX
8
Black
10
643.11
20
20.34
0
VERTEX
8
Black
10
643.71
20
20.34
0
VERTEX
8
Black
10
644.21
20
20.44
0
VERTEX
8
Black
10
644.71
20
20.34
0
VERTEX
8
Black
10
645.21
20
20.44
0
VERTEX
8
Black
10
645.91
20
20.44
0
VERTEX
8
Black
10
646.41
20
20.34
0
VERTEX
8
Black
10
646.61
20
20.44
0
VERTEX
8
Black
10
647.01
20
20.44
0
VERTEX
8
Black
10
647.51
20
20.54
0
VERTEX
8
Black
10
647.91
20
20.44
0
VERTEX
8
Black
10
649.61
20
20.74
0
VERTEX
8
Black
10
651.01
20
20.34
0
VERTEX
8
Black
10
651.21
20
20.44
0
VERTEX
8
Black
10
651.81
20
20.34
0
VERTEX
8
Black
10
652.31
20
20.34
0
VERTEX
8
Black
10
652.81
20
20.24
0
VERTEX
8
Black
10
653.81
20
20.24
0
VERTEX
8
Black
10
654.61
20
20.04
0
VERTEX
8
Black
10
655.41
20
20.04
0
VERTEX
8
Black
10
655.91
20
19.94
0
VERTEX
8
Black
10
657.01
20
19.94
0
VERTEX
8
Black
10
657.21
20
20.04
0
VERTEX
8
Black
10
657.61
20
19.94
0
VERTEX
8
Black
10
658.31
20
20.04
0
SEQEND
0
POINT
8
Black
62
0
10
631.41
20
11.44
0
POLYLINE
66
1
8
Black
62
0
0
VERTEX
8
Black
10
624.11
20
43.74
0
VERTEX
8
Black
10
625.11
20
44.74
0
VERTEX
8
Black
10
625.51
20
44.74
0
VERTEX
8
Black
10
625.71
20
44.84
0
VERTEX
8
Black
10
626.41
20
44.74
0
VERTEX
8
Black
10
626.91
20
44.84
0
SEQEND
0
POLYLINE
66
1
8
Black
62
0
0
VERTEX
8
Black
10
603.91
20
31.04
0
VERTEX
8
Black
10
603.61
20
31.04
0
VERTEX
8
Black
10
603.91
20
30.74
0
VERTEX
8
Black
10
604.61
20
30.74
0
VERTEX
8
Black
10
605.11
20
30.54
0
VERTEX
8
Black
10
605.31
20
30.64
0
VERTEX
8
Black
10
605.81
20
30.54
0
VERTEX
8
Black
10
607.11
20
30.54
0
VERTEX
8
Black
10
608.71
20
29.84
0
VERTEX
8
Black
10
609.21
20
29.74
0
VERTEX
8
Black
10
610.11
20
29.44
0
VERTEX
8
Black
10
610.41
20
29.44
0
VERTEX
8
Black
10
611.31
20
28.94
0
VERTEX
8
Black
10
611.91
20
28.64
0
VERTEX
8
Black
10
612.21
20
28.74
0
VERTEX
8
Black
10
612.41
20
28.64
0
VERTEX
8
Black
10
613.11
20
28.74
0
VERTEX
8
Black
10
613.71
20
28.64
0
VERTEX
8
Black
10
614.11
20
28.74
0
VERTEX
8
Black
10
614.91
20
28.74
0
VERTEX
8
Black
10
615.31
20
28.94
0
VERTEX
8
Black
10
615.61
20
28.84
0
VERTEX
8
Black
10
616.31
20
29.04
0
VERTEX
8
Black
10
616.91
20
29.04
0
VERTEX
8
Black
10
617.11
20
29.24
0
VERTEX
8
Black
10
617.71
20
29.34
0
VERTEX
8
Black
10
619.01
20
29.64
0
VERTEX
8
Black
10
620.11
20
30.14
0
VERTEX
8
Black
10
620.91
20
30.34
0
VERTEX
8
Black
10
621.61
20
30.94
0
VERTEX
8
Black
10
621.81
20
30.94
0
VERTEX
8
Black
10
622.51
20
31.64
0
VERTEX
8
Black
10
623.01
20
32.54
0
VERTEX
8
Black
10
623.41
20
34.44
0
VERTEX
8
Black
10
623.41
20
36.34
0
VERTEX
8
Black
10
623.31
20
36.74
0
VERTEX
8
Black
10
623.31
20
37.24
0
VERTEX
8
Black
10
623.21
20
37.74
0
VERTEX
8
Black
10
623.01
20
37.94
0
VERTEX
8
Black
10
622.91
20
38.44
0
VERTEX
8
Black
10
622.81
20
38.84
0
VERTEX
8
Black
10
622.81
20
39.34
0
VERTEX
8
Black
10
622.71
20
39.54
0
VERTEX
8
Black
10
622.81
20
40.24
0
VERTEX
8
Black
10
622.81
20
41.04
0
VERTEX
8
Black
10
623.01
20
41.64
0
VERTEX
8
Black
10
623.01
20
41.94
0
VERTEX
8
Black
10
623.31
20
42.34
0
VERTEX
8
Black
10
623.41
20
42.74
0
VERTEX
8
Black
10
623.91
20
43.84
0
VERTEX
8
Black
10
624.51
20
44.54
0
SEQEND
0
POLYLINE
66
1
8
Black
62
0
0
VERTEX
8
Black
10
626.81
20
18.84
0
VERTEX
8
Black
10
627.21
20
18.84
0
VERTEX
8
Black
10
628.91
20
20.04
0
VERTEX
8
Black
10
629.61
20
20.24
0
VERTEX
8
Black
10
630.21
20
20.24
0
VERTEX
8
Black
10
630.51
20
20.14
0
VERTEX
8
Black
10
630.71
20
20.24
0
VERTEX
8
Black
10
630.91
20
20.14
0
VERTEX
8
Black
10
631.31
20
20.24
0
VERTEX
8
Black
10
631.81
20
20.24
0
VERTEX
8
Black
10
633.11
20
20.84
0
VERTEX
8
Black
10
633.41
20
20.84
0
VERTEX
8
Black
10
634.01
20
21.04
0
VERTEX
8
Black
10
635.11
20
21.04
0
VERTEX
8
Black
10
635.31
20
21.14
0
SEQEND
0
POLYLINE
66
1
8
Black
62
0
0
VERTEX
8
Black
10
603.71
20
28.24
0
VERTEX
8
Black
10
603.21
20
28.24
0
VERTEX
8
Black
10
604.31
20
28.44
0
VERTEX
8
Black
10
604.61
20
28.64
0
VERTEX
8
Black
10
605.11
20
28.54
0
VERTEX
8
Black
10
605.61
20
28.44
0
VERTEX
8
Black
10
605.81
20
28.24
0
VERTEX
8
Black
10
606.11
20
28.24
0
VERTEX
8
Black
10
607.11
20
27.74
0
VERTEX
8
Black
10
609.01
20
25.84
0
VERTEX
8
Black
10
609.91
20
23.94
0
VERTEX
8
Black
10
609.91
20
23.14
0
VERTEX
8
Black
10
610.41
20
21.64
0
VERTEX
8
Black
10
610.41
20
21.34
0
VERTEX
8
Black
10
610.71
20
20.54
0
VERTEX
8
Black
10
612.51
20
19.24
0
VERTEX
8
Black
10
612.81
20
18.94
0
VERTEX
8
Black
10
613.21
20
18.84
0
VERTEX
8
Black
10
613.51
20
18.94
0
VERTEX
8
Black
10
614.01
20
18.84
0
VERTEX
8
Black
10
614.91
20
18.74
0
VERTEX
8
Black
10
615.21
20
18.94
0
VERTEX
8
Black
10
615.41
20
18.74
0
VERTEX
8
Black
10
615.71
20
18.74
0
VERTEX
8
Black
10
615.91
20
18.84
0
VERTEX
8
Black
10
616.61
20
18.84
0
VERTEX
8
Black
10
617.11
20
18.94
0
VERTEX
8
Black
10
617.31
20
18.84
0
VERTEX
8
Black
10
617.81
20
19.04
0
VERTEX
8
Black
10
618.91
20
19.04
0
VERTEX
8
Black
10
620.01
20
19.24
0
VERTEX
8
Black
10
620.51
20
19.14
0
VERTEX
8
Black
10
621.21
20
19.14
0
VERTEX
8
Black
10
621.61
20
19.04
0
VERTEX
8
Black
10
622.01
20
18.94
0
VERTEX
8
Black
10
622.71
20
18.84
0
VERTEX
8
Black
10
623.61
20
18.84
0
VERTEX
8
Black
10
624.11
20
18.74
0
VERTEX
8
Black
10
624.51
20
18.84
0
VERTEX
8
Black
10
625.01
20
18.84
0
VERTEX
8
Black
10
625.81
20
18.64
0
VERTEX
8
Black
10
626.01
20
18.74
0
VERTEX
8
Black
10
626.31
20
18.64
0
VERTEX
8
Black
10
626.71
20
18.74
0
VERTEX
8
Black
10
627.61
20
18.74
0
VERTEX
8
Black
10
628.01
20
18.84
0
VERTEX
8
Black
10
628.21
20
18.84
0
SEQEND
0
POINT
8
Black
62
0
10
604.19
20
41.04
0
POLYLINE
66
1
8
Black
62
0
0
VERTEX
8
Black
10
590.75
20
36.68
0
VERTEX
8
Black
10
590.63
20
36.68
0
VERTEX
8
Black
10
591.75
20
36.28
0
VERTEX
8
Black
10
592.63
20
35.72
0
VERTEX
8
Black
10
592.99
20
35.52
0
VERTEX
8
Black
10
593.63
20
35.08
0
VERTEX
8
Black
10
593.71
20
35.08
0
VERTEX
8
Black
10
595.07
20
34.4
0
VERTEX
8
Black
10
595.35
20
34.12
0
VERTEX
8
Black
10
595.47
20
34.08
0
VERTEX
8
Black
10
595.55
20
33.96
0
VERTEX
8
Black
10
595.91
20
33.72
0
VERTEX
8
Black
10
596.23
20
33.48
0
VERTEX
8
Black
10
596.43
20
33.28
0
VERTEX
8
Black
10
597.23
20
32.88
0
VERTEX
8
Black
10
597.51
20
32.76
0
VERTEX
8
Black
10
597.59
20
32.68
0
VERTEX
8
Black
10
598.19
20
32.76
0
VERTEX
8
Black
10
598.39
20
32.68
0
VERTEX
8
Black
10
598.47
20
32.6
0
VERTEX
8
Black
10
599.03
20
32.56
0
VERTEX
8
Black
10
599.19
20
32.44
0
VERTEX
8
Black
10
599.27
20
32.44
0
VERTEX
8
Black
10
599.35
20
32.32
0
VERTEX
8
Black
10
599.71
20
32.16
0
VERTEX
8
Black
10
599.83
20
32.04
0
VERTEX
8
Black
10
599.95
20
32.04
0
VERTEX
8
Black
10
600.03
20
31.96
0
VERTEX
8
Black
10
600.19
20
31.96
0
VERTEX
8
Black
10
600.39
20
31.8
0
VERTEX
8
Black
10
600.47
20
31.8
0
VERTEX
8
Black
10
600.83
20
31.56
0
VERTEX
8
Black
10
601.19
20
31.4
0
VERTEX
8
Black
10
601.27
20
31.4
0
VERTEX
8
Black
10
601.47
20
31.28
0
VERTEX
8
Black
10
601.75
20
31.16
0
VERTEX
8
Black
10
601.87
20
31.16
0
VERTEX
8
Black
10
602.07
20
31.04
0
VERTEX
8
Black
10
602.23
20
31.04
0
VERTEX
8
Black
10
602.31
20
30.96
0
VERTEX
8
Black
10
602.39
20
31
0
VERTEX
8
Black
10
602.59
20
30.96
0
VERTEX
8
Black
10
602.67
20
30.88
0
VERTEX
8
Black
10
602.83
20
30.84
0
VERTEX
8
Black
10
603.03
20
30.8
0
VERTEX
8
Black
10
603.35
20
30.64
0
SEQEND
0
POLYLINE
66
1
8
Black
62
0
0
VERTEX
8
Black
10
590.79
20
36.8
0
VERTEX
8
Black
10
590.87
20
36.68
0
VERTEX
8
Black
10
590.87
20
36.6
0
VERTEX
8
Black
10
590.95
20
36.52
0
VERTEX
8
Black
10
591.11
20
36.48
0
SEQEND
0
POLYLINE
66
1
8
Black
62
0
0
VERTEX
8
Black
10
587.95
20
29.85
0
VERTEX
8
Black
10
588.4
20
30.15
0
VERTEX
8
Black
10
590.05
20
30.3
0
VERTEX
8
Black
10
591.25
20
30.75
0
VERTEX
8
Black
10
592
20
30.3
0
VERTEX
8
Black
10
592.3
20
30.3
0
VERTEX
8
Black
10
593.8
20
29.55
0
VERTEX
8
Black
10
594.1
20
29.25
0
VERTEX
8
Black
10
594.85
20
29.1
0
VERTEX
8
Black
10
595.15
20
28.95
0
VERTEX
8
Black
10
595.6
20
28.95
0
VERTEX
8
Black
10
595.9
20
28.8
0
VERTEX
8
Black
10
596.35
20
28.8
0
VERTEX
8
Black
10
597.55
20
28.35
0
VERTEX
8
Black
10
598
20
28.35
0
VERTEX
8
Black
10
598.3
20
28.2
0
VERTEX
8
Black
10
600.7
20
28.2
0
VERTEX
8
Black
10
601
20
28.35
0
VERTEX
8
Black
10
601.3
20
28.2
0
VERTEX
8
Black
10
602.5
20
28.5
0
VERTEX
8
Black
10
603.1
20
28.35
0
VERTEX
8
Black
10
603.55
20
28.35
0
SEQEND
0
POLYLINE
66
1
8
Black
62
0
0
VERTEX
8
Black
10
580.6
20
20.25
0
VERTEX
8
Black
10
581.65
20
21
0
VERTEX
8
Black
10
582.4
20
22.05
0
VERTEX
8
Black
10
582.4
20
23.1
0
VERTEX
8
Black
10
581.8
20
25.05
0
VERTEX
8
Black
10
581.8
20
27.45
0
VERTEX
8
Black
10
582.4
20
28.35
0
VERTEX
8
Black
10
582.4
20
28.8
0
VERTEX
8
Black
10
582.7
20
29.4
0
VERTEX
8
Black
10
583.3
20
29.55
0
VERTEX
8
Black
10
584.35
20
29.55
0
VERTEX
8
Black
10
584.95
20
29.7
0
VERTEX
8
Black
10
587.05
20
30
0
VERTEX
8
Black
10
587.5
20
30
0
VERTEX
8
Black
10
588.1
20
30.15
0
VERTEX
8
Black
10
590.35
20
30.3
0
VERTEX
8
Black
10
591.1
20
30.9
0
VERTEX
8
Black
10
591.4
20
30.9
0
VERTEX
8
Black
10
591.7
20
31.35
0
VERTEX
8
Black
10
592
20
31.5
0
SEQEND
0
POLYLINE
66
1
8
Black
62
0
0
VERTEX
8
Black
10
526.9
20
15.45
0
VERTEX
8
Black
10
528.4
20
15.9
0
VERTEX
8
Black
10
528.7
20
16.05
0
VERTEX
8
Black
10
529.45
20
16.05
0
VERTEX
8
Black
10
529.75
20
16.2
0
VERTEX
8
Black
10
530.5
20
16.2
0
VERTEX
8
Black
10
532.15
20
16.5
0
VERTEX
8
Black
10
533.65
20
16.65
0
VERTEX
8
Black
10
534.25
20
16.95
0
VERTEX
8
Black
10
534.85
20
16.95
0
VERTEX
8
Black
10
535.6
20
17.1
0
VERTEX
8
Black
10
536.5
20
17.1
0
VERTEX
8
Black
10
537.4
20
17.25
0
VERTEX
8
Black
10
538.3
20
17.25
0
VERTEX
8
Black
10
539.2
20
17.55
0
VERTEX
8
Black
10
539.5
20
17.4
0
VERTEX
8
Black
10
540.4
20
17.7
0
VERTEX
8
Black
10
543.85
20
17.7
0
VERTEX
8
Black
10
544.75
20
17.55
0
VERTEX
8
Black
10
547.75
20
17.55
0
VERTEX
8
Black
10
548.05
20
17.4
0
VERTEX
8
Black
10
548.5
20
17.4
0
VERTEX
8
Black
10
550
20
17.7
0
VERTEX
8
Black
10
550.45
20
17.7
0
VERTEX
8
Black
10
551.05
20
18
0
VERTEX
8
Black
10
551.35
20
18
0
VERTEX
8
Black
10
551.65
20
18.15
0
VERTEX
8
Black
10
552.1
20
18.15
0
VERTEX
8
Black
10
553.3
20
17.85
0
VERTEX
8
Black
10
554.35
20
17.85
0
VERTEX
8
Black
10
554.65
20
18
0
VERTEX
8
Black
10
555.55
20
17.85
0
VERTEX
8
Black
10
555.85
20
17.4
0
VERTEX
8
Black
10
556.6
20
17.55
0
VERTEX
8
Black
10
556.9
20
17.4
0
VERTEX
8
Black
10
557.35
20
17.55
0
VERTEX
8
Black
10
557.8
20
17.4
0
VERTEX
8
Black
10
558.25
20
17.55
0
VERTEX
8
Black
10
558.55
20
17.85
0
VERTEX
8
Black
10
559.75
20
18.3
0
VERTEX
8
Black
10
560.35
20
18.9
0
VERTEX
8
Black
10
562.3
20
19.5
0
VERTEX
8
Black
10
563.8
20
19.5
0
VERTEX
8
Black
10
564.25
20
19.35
0
VERTEX
8
Black
10
564.55
20
19.5
0
VERTEX
8
Black
10
564.85
20
19.35
0
VERTEX
8
Black
10
567.4
20
19.35
0
VERTEX
8
Black
10
567.85
20
19.5
0
VERTEX
8
Black
10
568.15
20
19.35
0
VERTEX
8
Black
10
570.25
20
19.35
0
VERTEX
8
Black
10
570.7
20
19.2
0
VERTEX
8
Black
10
571.15
20
19.35
0
VERTEX
8
Black
10
571.9
20
19.2
0
VERTEX
8
Black
10
572.35
20
19.35
0
VERTEX
8
Black
10
573.4
20
19.05
0
VERTEX
8
Black
10
574.6
20
19.05
0
VERTEX
8
Black
10
575.8
20
18.75
0
VERTEX
8
Black
10
576.1
20
18.9
0
VERTEX
8
Black
10
576.4
20
18.75
0
VERTEX
8
Black
10
576.85
20
18.9
0
VERTEX
8
Black
10
577.15
20
18.75
0
VERTEX
8
Black
10
577.45
20
18.9
0
VERTEX
8
Black
10
577.9
20
18.9
0
VERTEX
8
Black
10
578.5
20
19.05
0
VERTEX
8
Black
10
579.55
20
19.05
0
VERTEX
8
Black
10
579.85
20
19.5
0
VERTEX
8
Black
10
580.9
20
19.5
0
VERTEX
8
Black
10
581.2
20
19.8
0
VERTEX
8
Black
10
581.2
20
20.1
0
VERTEX
8
Black
10
581.5
20
20.4
0
VERTEX
8
Black
10
581.8
20
20.4
0
VERTEX
8
Black
10
582.1
20
20.55
0
SEQEND
0
POLYLINE
66
1
8
Black
62
0
0
VERTEX
8
Black
10
564.1
20
66.6
0
VERTEX
8
Black
10
563.95
20
65.85
0
SEQEND
0
POLYLINE
66
1
8
Black
62
0
0
VERTEX
8
Black
10
523.9
20
34.8
0
VERTEX
8
Black
10
523.6
20
34.8
0
VERTEX
8
Black
10
526.45
20
35.85
0
VERTEX
8
Black
10
527.65
20
35.7
0
VERTEX
8
Black
10
530.2
20
35.7
0
VERTEX
8
Black
10
532
20
36
0
VERTEX
8
Black
10
532.3
20
36
0
VERTEX
8
Black
10
532.6
20
36.15
0
VERTEX
8
Black
10
533.5
20
36.15
0
VERTEX
8
Black
10
533.8
20
36.3
0
VERTEX
8
Black
10
534.4
20
36.3
0
VERTEX
8
Black
10
534.7
20
36.45
0
VERTEX
8
Black
10
537.4
20
36.45
0
VERTEX
8
Black
10
539.05
20
36.75
0
VERTEX
8
Black
10
540.55
20
36.75
0
VERTEX
8
Black
10
540.85
20
36.9
0
VERTEX
8
Black
10
541.3
20
36.9
0
VERTEX
8
Black
10
542.35
20
37.2
0
VERTEX
8
Black
10
543.4
20
37.2
0
VERTEX
8
Black
10
545.05
20
37.5
0
VERTEX
8
Black
10
545.8
20
37.5
0
VERTEX
8
Black
10
550.3
20
38.55
0
VERTEX
8
Black
10
552.55
20
41.1
0
VERTEX
8
Black
10
554.35
20
42.6
0
VERTEX
8
Black
10
554.65
20
43.2
0
VERTEX
8
Black
10
554.5
20
43.8
0
VERTEX
8
Black
10
554.5
20
44.7
0
VERTEX
8
Black
10
554.35
20
45
0
VERTEX
8
Black
10
554.5
20
45.3
0
VERTEX
8
Black
10
554.5
20
45.75
0
VERTEX
8
Black
10
554.8
20
47.1
0
VERTEX
8
Black
10
554.95
20
47.85
0
VERTEX
8
Black
10
555.25
20
49.2
0
VERTEX
8
Black
10
555.4
20
49.95
0
VERTEX
8
Black
10
555.55
20
50.25
0
VERTEX
8
Black
10
555.55
20
50.85
0
VERTEX
8
Black
10
555.7
20
51.45
0
VERTEX
8
Black
10
555.7
20
52.35
0
VERTEX
8
Black
10
556
20
53.1
0
VERTEX
8
Black
10
556
20
53.7
0
VERTEX
8
Black
10
556.15
20
54.45
0
VERTEX
8
Black
10
556.15
20
55.05
0
VERTEX
8
Black
10
556.3
20
55.95
0
VERTEX
8
Black
10
556.45
20
57.6
0
VERTEX
8
Black
10
556.45
20
58.35
0
VERTEX
8
Black
10
556.6
20
58.8
0
VERTEX
8
Black
10
556.9
20
59.1
0
VERTEX
8
Black
10
556.9
20
59.85
0
VERTEX
8
Black
10
557.35
20
60.9
0
VERTEX
8
Black
10
557.35
20
61.35
0
VERTEX
8
Black
10
558.25
20
63.6
0
VERTEX
8
Black
10
558.25
20
63.9
0
VERTEX
8
Black
10
558.7
20
64.65
0
SEQEND
0
POLYLINE
66
1
8
Black
62
0
0
VERTEX
8
Black
10
496.45
20
14.25
0
VERTEX
8
Black
10
497.05
20
14.1
0
VERTEX
8
Black
10
498.55
20
14.55
0
VERTEX
8
Black
10
499.45
20
14.25
0
VERTEX
8
Black
10
499.75
20
14.4
0
VERTEX
8
Black
10
500.5
20
14.25
0
VERTEX
8
Black
10
501.4
20
14.25
0
VERTEX
8
Black
10
503.05
20
14.55
0
VERTEX
8
Black
10
504.4
20
14.55
0
VERTEX
8
Black
10
506.05
20
14.85
0
VERTEX
8
Black
10
507.1
20
14.85
0
VERTEX
8
Black
10
507.4
20
14.55
0
VERTEX
8
Black
10
507.7
20
14.55
0
VERTEX
8
Black
10
508.15
20
14.25
0
VERTEX
8
Black
10
511.75
20
14.25
0
VERTEX
8
Black
10
512.5
20
14.55
0
VERTEX
8
Black
10
513.4
20
14.25
0
VERTEX
8
Black
10
514.15
20
14.25
0
VERTEX
8
Black
10
515.65
20
13.8
0
VERTEX
8
Black
10
515.95
20
13.8
0
VERTEX
8
Black
10
516.55
20
13.65
0
VERTEX
8
Black
10
517.3
20
13.5
0
VERTEX
8
Black
10
517.9
20
13.65
0
VERTEX
8
Black
10
518.2
20
13.65
0
VERTEX
8
Black
10
519.25
20
14.1
0
VERTEX
8
Black
10
519.55
20
13.95
0
VERTEX
8
Black
10
520.75
20
14.55
0
VERTEX
8
Black
10
521.5
20
14.7
0
VERTEX
8
Black
10
522.85
20
15.15
0
VERTEX
8
Black
10
523.3
20
15
0
VERTEX
8
Black
10
524.05
20
15.15
0
VERTEX
8
Black
10
524.5
20
15.15
0
VERTEX
8
Black
10
524.8
20
15.3
0
VERTEX
8
Black
10
525.25
20
15.3
0
VERTEX
8
Black
10
526
20
15.6
0
VERTEX
8
Black
10
526.3
20
15.9
0
VERTEX
8
Black
10
526.75
20
16.05
0
VERTEX
8
Black
10
527.2
20
15.9
0
VERTEX
8
Black
10
527.5
20
16.05
0
VERTEX
8
Black
10
528.25
20
16.05
0
VERTEX
8
Black
10
529
20
16.2
0
VERTEX
8
Black
10
529.3
20
16.05
0
VERTEX
8
Black
10
529.75
20
16.05
0
VERTEX
8
Black
10
530.05
20
16.2
0
VERTEX
8
Black
10
530.5
20
16.2
0
SEQEND
0
POLYLINE
66
1
8
Black
62
0
0
VERTEX
8
Black
10
478.75
20
36
0
VERTEX
8
Black
10
478.75
20
36
0
VERTEX
8
Black
10
481.15
20
36
0
VERTEX
8
Black
10
481.6
20
35.7
0
VERTEX
8
Black
10
482.2
20
35.7
0
VERTEX
8
Black
10
482.5
20
35.55
0
VERTEX
8
Black
10
482.95
20
35.55
0
VERTEX
8
Black
10
483.7
20
35.4
0
VERTEX
8
Black
10
484.15
20
35.55
0
VERTEX
8
Black
10
484.75
20
35.4
0
VERTEX
8
Black
10
487.3
20
35.4
0
VERTEX
8
Black
10
487.6
20
35.25
0
VERTEX
8
Black
10
488.05
20
35.25
0
VERTEX
8
Black
10
488.35
20
35.4
0
VERTEX
8
Black
10
489.4
20
35.25
0
VERTEX
8
Black
10
490.75
20
35.1
0
VERTEX
8
Black
10
491.2
20
35.1
0
VERTEX
8
Black
10
491.8
20
34.8
0
VERTEX
8
Black
10
492.55
20
34.65
0
VERTEX
8
Black
10
493.75
20
34.05
0
VERTEX
8
Black
10
494.05
20
33.75
0
VERTEX
8
Black
10
495.4
20
33.3
0
VERTEX
8
Black
10
496.45
20
33.3
0
VERTEX
8
Black
10
497.8
20
33.9
0
VERTEX
8
Black
10
498.7
20
33.75
0
VERTEX
8
Black
10
500.8
20
33.75
0
VERTEX
8
Black
10
501.4
20
33.6
0
VERTEX
8
Black
10
502.9
20
34.05
0
VERTEX
8
Black
10
503.95
20
34.2
0
VERTEX
8
Black
10
504.55
20
35.4
0
VERTEX
8
Black
10
504.55
20
35.85
0
VERTEX
8
Black
10
504.85
20
36.3
0
VERTEX
8
Black
10
504.85
20
36.6
0
VERTEX
8
Black
10
505.15
20
36.6
0
VERTEX
8
Black
10
506.2
20
37.05
0
VERTEX
8
Black
10
507.55
20
37.05
0
VERTEX
8
Black
10
507.85
20
36.9
0
VERTEX
8
Black
10
509.2
20
35.25
0
VERTEX
8
Black
10
509.5
20
34.95
0
VERTEX
8
Black
10
510.25
20
34.65
0
VERTEX
8
Black
10
510.7
20
34.65
0
VERTEX
8
Black
10
511.45
20
34.35
0
VERTEX
8
Black
10
512.8
20
34.65
0
VERTEX
8
Black
10
513.25
20
34.35
0
VERTEX
8
Black
10
513.7
20
34.35
0
VERTEX
8
Black
10
514
20
34.2
0
VERTEX
8
Black
10
514.6
20
34.2
0
VERTEX
8
Black
10
515.2
20
33.9
0
VERTEX
8
Black
10
516.55
20
33.9
0
VERTEX
8
Black
10
517.45
20
34.05
0
VERTEX
8
Black
10
517.75
20
34.05
0
VERTEX
8
Black
10
518.2
20
34.35
0
VERTEX
8
Black
10
518.65
20
34.35
0
VERTEX
8
Black
10
519.85
20
34.65
0
VERTEX
8
Black
10
520.15
20
35.1
0
VERTEX
8
Black
10
520.6
20
35.1
0
VERTEX
8
Black
10
521.2
20
35.4
0
VERTEX
8
Black
10
521.95
20
35.4
0
VERTEX
8
Black
10
523
20
34.95
0
VERTEX
8
Black
10
524.35
20
34.95
0
VERTEX
8
Black
10
524.05
20
35.1
0
SEQEND
0
POLYLINE
66
1
8
Black
62
0
0
VERTEX
8
Black
10
459.85
20
36.9
0
VERTEX
8
Black
10
461.65
20
36.6
0
VERTEX
8
Black
10
462.1
20
36.75
0
VERTEX
8
Black
10
462.4
20
36.6
0
VERTEX
8
Black
10
462.85
20
36.6
0
VERTEX
8
Black
10
463.15
20
36.3
0
VERTEX
8
Black
10
464.05
20
36.3
0
VERTEX
8
Black
10
464.5
20
36.15
0
VERTEX
8
Black
10
464.8
20
36.3
0
VERTEX
8
Black
10
465.4
20
36.15
0
VERTEX
8
Black
10
466.15
20
36.3
0
VERTEX
8
Black
10
466.6
20
36.6
0
VERTEX
8
Black
10
467.35
20
36.75
0
VERTEX
8
Black
10
467.95
20
36.9
0
VERTEX
8
Black
10
468.25
20
36.9
0
VERTEX
8
Black
10
468.55
20
37.05
0
VERTEX
8
Black
10
469.3
20
36.9
0
VERTEX
8
Black
10
470.05
20
36.9
0
VERTEX
8
Black
10
470.65
20
36.75
0
VERTEX
8
Black
10
473.65
20
36.75
0
VERTEX
8
Black
10
474.7
20
36.45
0
VERTEX
8
Black
10
478
20
36.45
0
VERTEX
8
Black
10
478.3
20
36.6
0
SEQEND
0
POLYLINE
66
1
8
Black
62
0
0
VERTEX
8
Black
10
458.8
20
16.2
0
VERTEX
8
Black
10
458.5
20
16.2
0
VERTEX
8
Black
10
459.1
20
15.9
0
VERTEX
8
Black
10
460.6
20
15.9
0
VERTEX
8
Black
10
461.8
20
15.6
0
VERTEX
8
Black
10
462.25
20
15.6
0
VERTEX
8
Black
10
462.55
20
15.45
0
VERTEX
8
Black
10
463
20
15.45
0
VERTEX
8
Black
10
463.3
20
15.3
0
VERTEX
8
Black
10
463.9
20
15.3
0
VERTEX
8
Black
10
464.8
20
15.15
0
VERTEX
8
Black
10
465.25
20
15.15
0
VERTEX
8
Black
10
466.15
20
15.3
0
VERTEX
8
Black
10
466.9
20
15.15
0
VERTEX
8
Black
10
468.1
20
15
0
VERTEX
8
Black
10
469
20
15
0
VERTEX
8
Black
10
469.75
20
14.7
0
VERTEX
8
Black
10
472.9
20
14.7
0
VERTEX
8
Black
10
473.5
20
15
0
VERTEX
8
Black
10
474.1
20
14.85
0
VERTEX
8
Black
10
474.85
20
15
0
VERTEX
8
Black
10
475.6
20
14.85
0
VERTEX
8
Black
10
476.05
20
14.85
0
VERTEX
8
Black
10
476.5
20
14.7
0
VERTEX
8
Black
10
476.8
20
14.4
0
VERTEX
8
Black
10
479.2
20
14.4
0
VERTEX
8
Black
10
479.8
20
14.55
0
VERTEX
8
Black
10
480.1
20
14.4
0
VERTEX
8
Black
10
482.5
20
14.55
0
VERTEX
8
Black
10
483.55
20
14.7
0
VERTEX
8
Black
10
484.45
20
14.7
0
VERTEX
8
Black
10
484.75
20
14.55
0
VERTEX
8
Black
10
485.5
20
14.55
0
VERTEX
8
Black
10
485.8
20
14.4
0
VERTEX
8
Black
10
488.8
20
14.4
0
VERTEX
8
Black
10
489.1
20
14.25
0
VERTEX
8
Black
10
491.5
20
14.25
0
VERTEX
8
Black
10
491.8
20
14.1
0
VERTEX
8
Black
10
492.25
20
14.25
0
VERTEX
8
Black
10
492.85
20
14.25
0
VERTEX
8
Black
10
493.15
20
14.1
0
VERTEX
8
Black
10
496.75
20
13.8
0
VERTEX
8
Black
10
497.05
20
13.8
0
VERTEX
8
Black
10
497.65
20
13.5
0
SEQEND
0
POLYLINE
66
1
8
Black
62
0
0
VERTEX
8
Black
10
438.85
20
17.4
0
VERTEX
8
Black
10
438.25
20
17.25
0
VERTEX
8
Black
10
437.65
20
17.55
0
VERTEX
8
Black
10
436.6
20
17.4
0
VERTEX
8
Black
10
435.4
20
17.7
0
VERTEX
8
Black
10
435.7
20
17.85
0
VERTEX
8
Black
10
438.25
20
17.85
0
VERTEX
8
Black
10
438.55
20
17.7
0
VERTEX
8
Black
10
439.75
20
17.7
0
VERTEX
8
Black
10
440.35
20
17.55
0
VERTEX
8
Black
10
440.8
20
17.55
0
VERTEX
8
Black
10
441.1
20
17.7
0
VERTEX
8
Black
10
442
20
17.55
0
VERTEX
8
Black
10
442.6
20
17.55
0
VERTEX
8
Black
10
442.9
20
17.4
0
VERTEX
8
Black
10
443.35
20
17.4
0
VERTEX
8
Black
10
445.6
20
16.8
0
VERTEX
8
Black
10
446.05
20
16.5
0
VERTEX
8
Black
10
446.65
20
16.5
0
VERTEX
8
Black
10
446.95
20
16.2
0
VERTEX
8
Black
10
448.15
20
16.2
0
VERTEX
8
Black
10
448.9
20
16.05
0
VERTEX
8
Black
10
449.2
20
16.05
0
VERTEX
8
Black
10
449.5
20
15.9
0
VERTEX
8
Black
10
455.95
20
15.9
0
VERTEX
8
Black
10
456.25
20
15.75
0
VERTEX
8
Black
10
457
20
15.75
0
VERTEX
8
Black
10
457.3
20
15.9
0
VERTEX
8
Black
10
457.75
20
15.75
0
VERTEX
8
Black
10
458.35
20
16.05
0
VERTEX
8
Black
10
459.25
20
16.05
0
SEQEND
0
POLYLINE
66
1
8
Black
62
0
0
VERTEX
8
Black
10
444.85
20
35.25
0
VERTEX
8
Black
10
445.9
20
34.65
0
VERTEX
8
Black
10
447.25
20
33.9
0
VERTEX
8
Black
10
447.7
20
33.75
0
VERTEX
8
Black
10
448
20
33.45
0
VERTEX
8
Black
10
448.45
20
33.3
0
VERTEX
8
Black
10
448.75
20
33
0
VERTEX
8
Black
10
449.5
20
32.85
0
VERTEX
8
Black
10
449.8
20
32.7
0
VERTEX
8
Black
10
449.95
20
32.4
0
VERTEX
8
Black
10
450.55
20
32.25
0
VERTEX
8
Black
10
451.15
20
31.65
0
VERTEX
8
Black
10
451.45
20
31.65
0
VERTEX
8
Black
10
452.2
20
31.05
0
VERTEX
8
Black
10
452.95
20
31.05
0
VERTEX
8
Black
10
453.55
20
30.6
0
VERTEX
8
Black
10
454.15
20
30.6
0
VERTEX
8
Black
10
454.6
20
30.45
0
VERTEX
8
Black
10
455.2
20
30.75
0
VERTEX
8
Black
10
455.2
20
31.05
0
VERTEX
8
Black
10
455.95
20
31.65
0
VERTEX
8
Black
10
456.25
20
32.55
0
VERTEX
8
Black
10
456.25
20
33
0
VERTEX
8
Black
10
456.4
20
33.45
0
VERTEX
8
Black
10
456.7
20
33.75
0
VERTEX
8
Black
10
457
20
34.5
0
VERTEX
8
Black
10
457.6
20
35.4
0
VERTEX
8
Black
10
459.25
20
36.75
0
VERTEX
8
Black
10
459.7
20
37.05
0
VERTEX
8
Black
10
460
20
37.05
0
SEQEND
0
POLYLINE
66
1
8
Black
62
0
0
VERTEX
8
Black
10
404.2
20
25.65
0
VERTEX
8
Black
10
404.65
20
25.35
0
VERTEX
8
Black
10
405.85
20
25.5
0
VERTEX
8
Black
10
406.9
20
25.35
0
VERTEX
8
Black
10
407.35
20
25.5
0
VERTEX
8
Black
10
407.65
20
25.35
0
VERTEX
8
Black
10
408.7
20
25.65
0
VERTEX
8
Black
10
409.45
20
25.65
0
VERTEX
8
Black
10
410.2
20
25.35
0
VERTEX
8
Black
10
411.55
20
25.35
0
VERTEX
8
Black
10
412.15
20
25.2
0
VERTEX
8
Black
10
412.75
20
25.2
0
VERTEX
8
Black
10
413.05
20
25.05
0
VERTEX
8
Black
10
415.15
20
25.05
0
VERTEX
8
Black
10
415.9
20
24.9
0
VERTEX
8
Black
10
416.35
20
25.05
0
VERTEX
8
Black
10
416.8
20
24.75
0
VERTEX
8
Black
10
417.85
20
24.75
0
VERTEX
8
Black
10
418.15
20
24.9
0
VERTEX
8
Black
10
418.6
20
24.9
0
VERTEX
8
Black
10
418.9
20
25.05
0
VERTEX
8
Black
10
419.35
20
25.05
0
VERTEX
8
Black
10
419.8
20
25.2
0
VERTEX
8
Black
10
420.1
20
25.5
0
VERTEX
8
Black
10
420.55
20
25.5
0
VERTEX
8
Black
10
421.3
20
25.8
0
VERTEX
8
Black
10
422.35
20
27
0
VERTEX
8
Black
10
422.35
20
27.6
0
VERTEX
8
Black
10
422.5
20
27.9
0
VERTEX
8
Black
10
422.5
20
28.35
0
VERTEX
8
Black
10
422.35
20
28.65
0
VERTEX
8
Black
10
422.5
20
28.95
0
VERTEX
8
Black
10
422.65
20
30
0
VERTEX
8
Black
10
423.25
20
30.75
0
VERTEX
8
Black
10
423.55
20
31.5
0
VERTEX
8
Black
10
423.85
20
31.8
0
VERTEX
8
Black
10
423.85
20
32.1
0
VERTEX
8
Black
10
424.3
20
33.6
0
VERTEX
8
Black
10
424.3
20
34.05
0
VERTEX
8
Black
10
424.15
20
34.65
0
VERTEX
8
Black
10
424.15
20
36.15
0
VERTEX
8
Black
10
424
20
36.75
0
VERTEX
8
Black
10
424
20
37.8
0
VERTEX
8
Black
10
424.15
20
38.4
0
VERTEX
8
Black
10
424.15
20
39
0
VERTEX
8
Black
10
424.9
20
40.2
0
VERTEX
8
Black
10
425.5
20
40.5
0
VERTEX
8
Black
10
426.4
20
40.5
0
VERTEX
8
Black
10
427
20
40.8
0
VERTEX
8
Black
10
427.45
20
40.8
0
VERTEX
8
Black
10
427.75
20
40.95
0
VERTEX
8
Black
10
428.2
20
40.8
0
VERTEX
8
Black
10
428.5
20
40.95
0
VERTEX
8
Black
10
430.9
20
40.2
0
VERTEX
8
Black
10
431.65
20
39.9
0
VERTEX
8
Black
10
434.05
20
39.6
0
VERTEX
8
Black
10
435.25
20
39
0
VERTEX
8
Black
10
436.6
20
37.5
0
VERTEX
8
Black
10
438.25
20
36.3
0
VERTEX
8
Black
10
440.05
20
35.1
0
VERTEX
8
Black
10
440.35
20
34.65
0
VERTEX
8
Black
10
440.65
20
34.65
0
VERTEX
8
Black
10
440.95
20
34.5
0
VERTEX
8
Black
10
441.85
20
34.5
0
VERTEX
8
Black
10
442.9
20
34.8
0
VERTEX
8
Black
10
443.95
20
34.8
0
VERTEX
8
Black
10
444.55
20
34.65
0
VERTEX
8
Black
10
445
20
34.65
0
VERTEX
8
Black
10
445.45
20
34.5
0
VERTEX
8
Black
10
446.05
20
34.65
0
VERTEX
8
Black
10
446.35
20
34.5
0
SEQEND
0
POLYLINE
66
1
8
Black
62
0
0
VERTEX
8
Black
10
407.2
20
26.7
0
VERTEX
8
Black
10
408.1
20
25.95
0
VERTEX
8
Black
10
408.7
20
25.65
0
VERTEX
8
Black
10
409.15
20
25.65
0
VERTEX
8
Black
10
409.45
20
25.5
0
VERTEX
8
Black
10
409.75
20
25.65
0
VERTEX
8
Black
10
410.5
20
25.2
0
VERTEX
8
Black
10
412.15
20
24.9
0
VERTEX
8
Black
10
412.6
20
24.6
0
VERTEX
8
Black
10
413.2
20
24.6
0
VERTEX
8
Black
10
413.95
20
24.75
0
VERTEX
8
Black
10
414.25
20
24.75
0
SEQEND
0
POLYLINE
66
1
8
Black
62
0
0
VERTEX
8
Black
10
402.55
20
19.05
0
VERTEX
8
Black
10
403
20
18.45
0
VERTEX
8
Black
10
403.6
20
18.3
0
VERTEX
8
Black
10
403.9
20
18.45
0
VERTEX
8
Black
10
404.35
20
18.15
0
VERTEX
8
Black
10
404.8
20
18.15
0
VERTEX
8
Black
10
405.55
20
18
0
VERTEX
8
Black
10
406
20
18
0
VERTEX
8
Black
10
406.45
20
17.85
0
VERTEX
8
Black
10
406.75
20
18
0
VERTEX
8
Black
10
408.1
20
18
0
VERTEX
8
Black
10
408.55
20
18.15
0
VERTEX
8
Black
10
408.85
20
18.45
0
VERTEX
8
Black
10
409.6
20
18.45
0
VERTEX
8
Black
10
410.65
20
18.75
0
VERTEX
8
Black
10
412.15
20
18.75
0
VERTEX
8
Black
10
413.8
20
18.45
0
VERTEX
8
Black
10
414.1
20
18.15
0
VERTEX
8
Black
10
415.3
20
18.15
0
VERTEX
8
Black
10
416.35
20
17.85
0
VERTEX
8
Black
10
416.65
20
17.85
0
VERTEX
8
Black
10
417.55
20
17.4
0
VERTEX
8
Black
10
420.1
20
17.4
0
VERTEX
8
Black
10
420.55
20
17.1
0
VERTEX
8
Black
10
425.2
20
17.1
0
VERTEX
8
Black
10
425.8
20
17.25
0
VERTEX
8
Black
10
426.25
20
17.1
0
VERTEX
8
Black
10
426.7
20
17.25
0
VERTEX
8
Black
10
427.6
20
16.95
0
VERTEX
8
Black
10
428.05
20
16.95
0
VERTEX
8
Black
10
428.5
20
16.8
0
VERTEX
8
Black
10
428.95
20
16.95
0
VERTEX
8
Black
10
429.7
20
16.8
0
VERTEX
8
Black
10
431.05
20
16.8
0
VERTEX
8
Black
10
431.8
20
16.95
0
VERTEX
8
Black
10
436.3
20
16.95
0
SEQEND
0
POINT
8
Black
62
0
10
408.55
20
18.3
0
POLYLINE
66
1
8
Black
62
0
0
VERTEX
8
Black
10
377.5
20
19.65
0
VERTEX
8
Black
10
378.85
20
19.65
0
VERTEX
8
Black
10
379.75
20
19.35
0
VERTEX
8
Black
10
381.55
20
19.35
0
VERTEX
8
Black
10
383.35
20
19.05
0
VERTEX
8
Black
10
386.2
20
19.05
0
VERTEX
8
Black
10
387.25
20
18.75
0
VERTEX
8
Black
10
388.15
20
18.75
0
VERTEX
8
Black
10
389.05
20
18.45
0
VERTEX
8
Black
10
391
20
18.45
0
VERTEX
8
Black
10
391.9
20
18.3
0
VERTEX
8
Black
10
392.8
20
18.45
0
VERTEX
8
Black
10
394.75
20
18.3
0
VERTEX
8
Black
10
396.25
20
18
0
VERTEX
8
Black
10
398.5
20
18
0
VERTEX
8
Black
10
399.1
20
18.15
0
VERTEX
8
Black
10
400.15
20
18.15
0
VERTEX
8
Black
10
400.45
20
18
0
VERTEX
8
Black
10
400.75
20
18.15
0
VERTEX
8
Black
10
401.5
20
18
0
VERTEX
8
Black
10
402.55
20
18
0
VERTEX
8
Black
10
403
20
18.15
0
VERTEX
8
Black
10
403.3
20
18
0
VERTEX
8
Black
10
403.6
20
18.15
0
VERTEX
8
Black
10
404.35
20
18.15
0
VERTEX
8
Black
10
405.4
20
18.45
0
VERTEX
8
Black
10
406
20
18.45
0
SEQEND
0
POLYLINE
66
1
8
Black
62
0
0
VERTEX
8
Black
10
385.75
20
32.1
0
VERTEX
8
Black
10
386.65
20
32.1
0
VERTEX
8
Black
10
387.1
20
31.95
0
VERTEX
8
Black
10
387.7
20
31.5
0
VERTEX
8
Black
10
388.15
20
31.35
0
VERTEX
8
Black
10
388.3
20
31.05
0
VERTEX
8
Black
10
388.75
20
30.9
0
VERTEX
8
Black
10
389.05
20
30.6
0
VERTEX
8
Black
10
390.85
20
30.6
0
VERTEX
8
Black
10
391.45
20
30.3
0
VERTEX
8
Black
10
391.9
20
30.3
0
VERTEX
8
Black
10
392.8
20
30
0
VERTEX
8
Black
10
393.4
20
30.15
0
VERTEX
8
Black
10
394
20
30
0
VERTEX
8
Black
10
395.5
20
28.2
0
VERTEX
8
Black
10
395.95
20
27.3
0
VERTEX
8
Black
10
396.4
20
26.85
0
VERTEX
8
Black
10
397
20
27
0
VERTEX
8
Black
10
397.3
20
26.85
0
VERTEX
8
Black
10
398.05
20
26.85
0
VERTEX
8
Black
10
399.7
20
26.4
0
VERTEX
8
Black
10
401.2
20
26.25
0
VERTEX
8
Black
10
403.6
20
26.25
0
SEQEND
0
POLYLINE
66
1
8
Orange
62
30
0
VERTEX
8
Orange
10
326.8
20
25.8
0
VERTEX
8
Orange
10
327.4
20
25.95
0
VERTEX
8
Orange
10
328.3
20
25.95
0
VERTEX
8
Orange
10
330.1
20
26.4
0
VERTEX
8
Orange
10
331.3
20
26.4
0
VERTEX
8
Orange
10
332.35
20
26.7
0
VERTEX
8
Orange
10
335.65
20
27.15
0
VERTEX
8
Orange
10
337.9
20
27
0
VERTEX
8
Orange
10
338.95
20
27.15
0
VERTEX
8
Orange
10
341.8
20
27.15
0
VERTEX
8
Orange
10
343.9
20
26.55
0
VERTEX
8
Orange
10
344.65
20
26.55
0
VERTEX
8
Orange
10
345.85
20
26.4
0
VERTEX
8
Orange
10
346.6
20
26.1
0
VERTEX
8
Orange
10
347.65
20
25.95
0
VERTEX
8
Orange
10
347.95
20
25.65
0
VERTEX
8
Orange
10
348.25
20
25.65
0
VERTEX
8
Orange
10
348.85
20
25.2
0
VERTEX
8
Orange
10
350.95
20
24.75
0
VERTEX
8
Orange
10
352.15
20
24.75
0
VERTEX
8
Orange
10
353.05
20
24.45
0
VERTEX
8
Orange
10
355.75
20
24.45
0
VERTEX
8
Orange
10
355.9
20
24.15
0
VERTEX
8
Orange
10
358
20
23.7
0
VERTEX
8
Orange
10
360.85
20
23.7
0
VERTEX
8
Orange
10
361.75
20
23.85
0
VERTEX
8
Orange
10
363.85
20
23.85
0
SEQEND
0
POLYLINE
66
1
8
Black
62
0
0
VERTEX
8
Black
10
347.95
20
26.1
0
VERTEX
8
Black
10
347.95
20
25.8
0
VERTEX
8
Black
10
347.5
20
25.05
0
VERTEX
8
Black
10
347.5
20
25.35
0
VERTEX
8
Black
10
347.65
20
25.95
0
VERTEX
8
Black
10
348.25
20
25.5
0
SEQEND
0
POLYLINE
66
1
8
Black
62
0
0
VERTEX
8
Black
10
347.95
20
27.75
0
VERTEX
8
Black
10
348.55
20
27.75
0
VERTEX
8
Black
10
348.25
20
25.95
0
SEQEND
0
POLYLINE
66
1
8
Black
62
0
0
VERTEX
8
Black
10
319.75
20
37.2
0
VERTEX
8
Black
10
319.3
20
36.45
0
VERTEX
8
Black
10
319.15
20
33.9
0
VERTEX
8
Black
10
319.45
20
34.65
0
VERTEX
8
Black
10
319.75
20
34.8
0
SEQEND
0
POLYLINE
66
1
8
Black
62
0
0
VERTEX
8
Black
10
327.1
20
36.9
0
VERTEX
8
Black
10
326.65
20
36.75
0
VERTEX
8
Black
10
328
20
35.7
0
VERTEX
8
Black
10
328.75
20
36.45
0
VERTEX
8
Black
10
329.2
20
37.35
0
SEQEND
0
POLYLINE
66
1
8
Black
62
0
0
VERTEX
8
Black
10
328
20
36.3
0
VERTEX
8
Black
10
327.55
20
36.15
0
VERTEX
8
Black
10
327.85
20
35.85
0
VERTEX
8
Black
10
328
20
35.4
0
VERTEX
8
Black
10
327.85
20
35.1
0
VERTEX
8
Black
10
327.85
20
34.5
0
VERTEX
8
Black
10
327.7
20
33.9
0
VERTEX
8
Black
10
327.85
20
33.3
0
VERTEX
8
Black
10
327.55
20
33
0
VERTEX
8
Black
10
328
20
32.7
0
VERTEX
8
Black
10
328.3
20
32.85
0
SEQEND
0
POLYLINE
66
1
8
Black
62
0
0
VERTEX
8
Black
10
338.5
20
38.1
0
VERTEX
8
Black
10
338.8
20
37.5
0
VERTEX
8
Black
10
338.95
20
36.75
0
SEQEND
0
POLYLINE
66
1
8
Black
62
0
0
VERTEX
8
Black
10
337.15
20
39.75
0
VERTEX
8
Black
10
336.85
20
39.75
0
VERTEX
8
Black
10
337
20
39.45
0
VERTEX
8
Black
10
338.05
20
38.85
0
VERTEX
8
Black
10
338.35
20
38.4
0
VERTEX
8
Black
10
339.1
20
38.7
0
VERTEX
8
Black
10
339.7
20
39.15
0
SEQEND
0
POINT
8
Black
62
0
10
342.55
20
38.55
0
POLYLINE
66
1
8
Black
62
0
0
VERTEX
8
Black
10
343.15
20
38.25
0
VERTEX
8
Black
10
342.7
20
38.4
0
VERTEX
8
Black
10
343.3
20
37.35
0
VERTEX
8
Black
10
343.75
20
37.2
0
SEQEND
0
POLYLINE
66
1
8
Black
62
0
0
VERTEX
8
Black
10
343.3
20
38.25
0
VERTEX
8
Black
10
342.55
20
37.5
0
VERTEX
8
Black
10
342.55
20
37.2
0
VERTEX
8
Black
10
342.7
20
36.9
0
SEQEND
0
POLYLINE
66
1
8
Black
62
0
0
VERTEX
8
Black
10
343
20
37.95
0
VERTEX
8
Black
10
342.7
20
38.1
0
VERTEX
8
Black
10
342.7
20
38.55
0
VERTEX
8
Black
10
343.15
20
36.6
0
VERTEX
8
Black
10
343.15
20
35.4
0
VERTEX
8
Black
10
343.6
20
35.55
0
SEQEND
0
POLYLINE
66
1
8
Black
62
0
0
VERTEX
8
Black
10
352.9
20
32.7
0
VERTEX
8
Black
10
352.75
20
32.25
0
VERTEX
8
Black
10
353.2
20
30.9
0
SEQEND
0
POLYLINE
66
1
8
Black
62
0
0
VERTEX
8
Black
10
352.75
20
33
0
VERTEX
8
Black
10
352.3
20
32.85
0
VERTEX
8
Black
10
352.15
20
32.4
0
VERTEX
8
Black
10
351.55
20
31.95
0
VERTEX
8
Black
10
351.4
20
31.65
0
VERTEX
8
Black
10
351.85
20
31.65
0
SEQEND
0
POLYLINE
66
1
8
Black
62
0
0
VERTEX
8
Black
10
352.6
20
34.95
0
VERTEX
8
Black
10
352.45
20
34.65
0
VERTEX
8
Black
10
352.45
20
34.05
0
VERTEX
8
Black
10
352.75
20
32.85
0
VERTEX
8
Black
10
353.05
20
32.4
0
SEQEND
0
POLYLINE
66
1
8
Black
62
0
0
VERTEX
8
Black
10
347.95
20
32.85
0
VERTEX
8
Black
10
347.65
20
33
0
VERTEX
8
Black
10
346.45
20
31.65
0
VERTEX
8
Black
10
346
20
30.9
0
VERTEX
8
Black
10
346.45
20
31.2
0
VERTEX
8
Black
10
347.05
20
32.55
0
VERTEX
8
Black
10
348.4
20
30.9
0
SEQEND
0
POLYLINE
66
1
8
Black
62
0
0
VERTEX
8
Black
10
346.75
20
33
0
VERTEX
8
Black
10
346.9
20
32.55
0
VERTEX
8
Black
10
347.5
20
32.1
0
VERTEX
8
Black
10
347.65
20
31.8
0
VERTEX
8
Black
10
347.95
20
31.8
0
SEQEND
0
POLYLINE
66
1
8
Black
62
0
0
VERTEX
8
Black
10
346.9
20
35.25
0
VERTEX
8
Black
10
347.05
20
34.65
0
VERTEX
8
Black
10
347.05
20
33
0
VERTEX
8
Black
10
347.35
20
31.95
0
VERTEX
8
Black
10
347.8
20
31.8
0
SEQEND
0
POLYLINE
66
1
8
Black
62
0
0
VERTEX
8
Black
10
349.45
20
20.4
0
VERTEX
8
Black
10
349.45
20
20.1
0
VERTEX
8
Black
10
350.5
20
19.8
0
VERTEX
8
Black
10
351.25
20
19.95
0
VERTEX
8
Black
10
353.35
20
20.4
0
VERTEX
8
Black
10
358.15
20
20.4
0
VERTEX
8
Black
10
358.75
20
20.25
0
VERTEX
8
Black
10
359.2
20
20.25
0
VERTEX
8
Black
10
359.5
20
20.1
0
VERTEX
8
Black
10
361.15
20
20.1
0
VERTEX
8
Black
10
362.35
20
19.8
0
VERTEX
8
Black
10
362.65
20
19.95
0
VERTEX
8
Black
10
363.55
20
19.8
0
VERTEX
8
Black
10
364.3
20
19.65
0
VERTEX
8
Black
10
364.6
20
19.5
0
VERTEX
8
Black
10
366.4
20
19.8
0
VERTEX
8
Black
10
366.85
20
19.65
0
VERTEX
8
Black
10
367.15
20
19.8
0
VERTEX
8
Black
10
369.1
20
19.65
0
VERTEX
8
Black
10
369.85
20
19.5
0
VERTEX
8
Black
10
371.2
20
19.5
0
VERTEX
8
Black
10
371.8
20
19.65
0
VERTEX
8
Black
10
372.25
20
19.65
0
VERTEX
8
Black
10
372.55
20
19.8
0
VERTEX
8
Black
10
373.9
20
19.8
0
VERTEX
8
Black
10
374.2
20
19.65
0
VERTEX
8
Black
10
374.65
20
19.65
0
VERTEX
8
Black
10
376
20
19.35
0
VERTEX
8
Black
10
376.9
20
19.35
0
VERTEX
8
Black
10
377.35
20
19.5
0
VERTEX
8
Black
10
377.65
20
19.35
0
VERTEX
8
Black
10
377.95
20
19.5
0
VERTEX
8
Black
10
378.4
20
19.5
0
SEQEND
0
POLYLINE
66
1
8
Black
62
0
0
VERTEX
8
Black
10
348.55
20
39.6
0
VERTEX
8
Black
10
348.25
20
39.6
0
VERTEX
8
Black
10
348.7
20
39.3
0
VERTEX
8
Black
10
348.85
20
39
0
VERTEX
8
Black
10
350.05
20
38.25
0
VERTEX
8
Black
10
350.35
20
38.25
0
VERTEX
8
Black
10
351.4
20
37.8
0
VERTEX
8
Black
10
351.85
20
37.8
0
VERTEX
8
Black
10
352.15
20
37.65
0
VERTEX
8
Black
10
352.6
20
37.65
0
VERTEX
8
Black
10
353.2
20
37.5
0
VERTEX
8
Black
10
353.65
20
37.5
0
VERTEX
8
Black
10
354.4
20
37.65
0
VERTEX
8
Black
10
355.6
20
37.65
0
VERTEX
8
Black
10
357.4
20
36.9
0
VERTEX
8
Black
10
357.7
20
36.6
0
VERTEX
8
Black
10
358.15
20
36.45
0
VERTEX
8
Black
10
359.2
20
35.7
0
VERTEX
8
Black
10
360.85
20
34.95
0
VERTEX
8
Black
10
361.15
20
34.65
0
VERTEX
8
Black
10
361.6
20
34.5
0
VERTEX
8
Black
10
361.75
20
34.2
0
VERTEX
8
Black
10
362.2
20
33.9
0
VERTEX
8
Black
10
363.7
20
33.75
0
VERTEX
8
Black
10
365.05
20
33.15
0
VERTEX
8
Black
10
365.35
20
32.85
0
VERTEX
8
Black
10
365.5
20
32.4
0
VERTEX
8
Black
10
365.95
20
32.4
0
VERTEX
8
Black
10
366.25
20
32.25
0
VERTEX
8
Black
10
368.65
20
32.1
0
VERTEX
8
Black
10
368.95
20
31.8
0
VERTEX
8
Black
10
369.7
20
31.5
0
VERTEX
8
Black
10
370.6
20
30.75
0
VERTEX
8
Black
10
371.2
20
30.3
0
VERTEX
8
Black
10
371.95
20
30.15
0
VERTEX
8
Black
10
372.25
20
30
0
VERTEX
8
Black
10
372.7
20
30
0
VERTEX
8
Black
10
373.75
20
29.7
0
VERTEX
8
Black
10
374.35
20
29.7
0
VERTEX
8
Black
10
374.8
20
29.4
0
VERTEX
8
Black
10
375.1
20
29.4
0
VERTEX
8
Black
10
375.4
20
29.25
0
VERTEX
8
Black
10
376.15
20
29.25
0
VERTEX
8
Black
10
376.45
20
29.4
0
VERTEX
8
Black
10
377.05
20
29.4
0
VERTEX
8
Black
10
379
20
30
0
VERTEX
8
Black
10
380.35
20
30.9
0
VERTEX
8
Black
10
380.8
20
30.9
0
VERTEX
8
Black
10
381.25
20
31.5
0
VERTEX
8
Black
10
381.7
20
31.5
0
VERTEX
8
Black
10
383.05
20
31.8
0
VERTEX
8
Black
10
383.5
20
31.8
0
VERTEX
8
Black
10
384.25
20
32.25
0
VERTEX
8
Black
10
384.7
20
32.25
0
VERTEX
8
Black
10
385.9
20
32.55
0
VERTEX
8
Black
10
387.25
20
32.55
0
SEQEND
0
POLYLINE
66
1
8
Black
62
0
0
VERTEX
8
Black
10
333.25
20
19.8
0
VERTEX
8
Black
10
333.55
20
19.65
0
VERTEX
8
Black
10
334
20
19.65
0
VERTEX
8
Black
10
334.9
20
19.95
0
VERTEX
8
Black
10
335.35
20
19.95
0
VERTEX
8
Black
10
335.8
20
19.8
0
VERTEX
8
Black
10
336.4
20
19.95
0
VERTEX
8
Black
10
337.15
20
19.8
0
VERTEX
8
Black
10
337.6
20
19.8
0
VERTEX
8
Black
10
337.9
20
19.65
0
VERTEX
8
Black
10
338.2
20
19.8
0
VERTEX
8
Black
10
340.9
20
19.8
0
VERTEX
8
Black
10
342.55
20
20.1
0
VERTEX
8
Black
10
347.2
20
20.1
0
VERTEX
8
Black
10
347.65
20
20.25
0
VERTEX
8
Black
10
348.25
20
20.25
0
VERTEX
8
Black
10
348.85
20
20.1
0
VERTEX
8
Black
10
349.6
20
20.25
0
VERTEX
8
Black
10
350.95
20
20.4
0
VERTEX
8
Black
10
351.7
20
20.4
0
SEQEND
0
POLYLINE
66
1
8
Black
62
0
0
VERTEX
8
Black
10
335.65
20
39.9
0
VERTEX
8
Black
10
337.45
20
39.9
0
VERTEX
8
Black
10
339.4
20
39.3
0
VERTEX
8
Black
10
339.85
20
39.3
0
VERTEX
8
Black
10
340.3
20
39
0
VERTEX
8
Black
10
341.2
20
38.85
0
VERTEX
8
Black
10
341.5
20
38.7
0
VERTEX
8
Black
10
344.5
20
38.7
0
VERTEX
8
Black
10
344.8
20
38.85
0
VERTEX
8
Black
10
345.55
20
38.7
0
VERTEX
8
Black
10
346.75
20
38.7
0
VERTEX
8
Black
10
347.35
20
38.55
0
VERTEX
8
Black
10
348.85
20
38.55
0
VERTEX
8
Black
10
348.85
20
38.55
0
SEQEND
0
POLYLINE
66
1
8
Black
62
0
0
VERTEX
8
Black
10
291.55
20
36.45
0
VERTEX
8
Black
10
291.25
20
36.3
0
VERTEX
8
Black
10
291.85
20
36.15
0
VERTEX
8
Black
10
295.15
20
36.15
0
VERTEX
8
Black
10
296.05
20
36.45
0
VERTEX
8
Black
10
296.5
20
36.45
0
VERTEX
8
Black
10
296.95
20
36.75
0
VERTEX
8
Black
10
298
20
36.75
0
VERTEX
8
Black
10
298.75
20
36.45
0
VERTEX
8
Black
10
299.2
20
36.45
0
VERTEX
8
Black
10
300.85
20
36.15
0
VERTEX
8
Black
10
303.25
20
36.15
0
VERTEX
8
Black
10
303.85
20
35.7
0
VERTEX
8
Black
10
304.3
20
35.55
0
VERTEX
8
Black
10
304.6
20
35.25
0
VERTEX
8
Black
10
305.35
20
35.1
0
VERTEX
8
Black
10
305.8
20
35.1
0
VERTEX
8
Black
10
306.4
20
34.95
0
VERTEX
8
Black
10
306.85
20
35.1
0
VERTEX
8
Black
10
308.65
20
35.1
0
VERTEX
8
Black
10
309.1
20
34.8
0
VERTEX
8
Black
10
309.85
20
34.8
0
VERTEX
8
Black
10
310.6
20
34.5
0
VERTEX
8
Black
10
311.35
20
34.5
0
VERTEX
8
Black
10
312.4
20
34.2
0
VERTEX
8
Black
10
313.75
20
34.2
0
VERTEX
8
Black
10
314.05
20
34.05
0
VERTEX
8
Black
10
315.1
20
34.05
0
VERTEX
8
Black
10
316.45
20
33.75
0
VERTEX
8
Black
10
317.2
20
33.75
0
VERTEX
8
Black
10
317.65
20
34.05
0
VERTEX
8
Black
10
319.45
20
34.2
0
VERTEX
8
Black
10
322.15
20
34.2
0
VERTEX
8
Black
10
324.7
20
35.1
0
VERTEX
8
Black
10
325.15
20
35.1
0
VERTEX
8
Black
10
327.85
20
36.75
0
VERTEX
8
Black
10
329.65
20
38.1
0
VERTEX
8
Black
10
331.3
20
38.85
0
VERTEX
8
Black
10
331.6
20
38.85
0
VERTEX
8
Black
10
332.5
20
39.3
0
VERTEX
8
Black
10
332.95
20
39.3
0
VERTEX
8
Black
10
334.3
20
39.9
0
VERTEX
8
Black
10
335.65
20
39.9
0
VERTEX
8
Black
10
336.4
20
39.75
0
SEQEND
0
POLYLINE
66
1
8
Black
62
0
0
VERTEX
8
Black
10
294.55
20
20.25
0
VERTEX
8
Black
10
296.5
20
20.25
0
VERTEX
8
Black
10
296.8
20
20.1
0
VERTEX
8
Black
10
297.55
20
20.1
0
VERTEX
8
Black
10
297.85
20
19.95
0
VERTEX
8
Black
10
300.1
20
19.95
0
VERTEX
8
Black
10
300.4
20
20.1
0
VERTEX
8
Black
10
302.05
20
19.95
0
VERTEX
8
Black
10
303.55
20
19.65
0
VERTEX
8
Black
10
304.6
20
19.65
0
VERTEX
8
Black
10
305.35
20
19.8
0
VERTEX
8
Black
10
306.1
20
19.8
0
VERTEX
8
Black
10
306.4
20
19.65
0
VERTEX
8
Black
10
307.15
20
19.8
0
VERTEX
8
Black
10
309.4
20
19.8
0
VERTEX
8
Black
10
310
20
19.95
0
VERTEX
8
Black
10
310.3
20
19.95
0
VERTEX
8
Black
10
310.9
20
19.8
0
VERTEX
8
Black
10
311.35
20
20.1
0
VERTEX
8
Black
10
311.65
20
19.95
0
VERTEX
8
Black
10
313.45
20
19.95
0
VERTEX
8
Black
10
314.95
20
19.65
0
VERTEX
8
Black
10
316.45
20
19.95
0
VERTEX
8
Black
10
317.35
20
19.8
0
VERTEX
8
Black
10
317.95
20
19.8
0
VERTEX
8
Black
10
318.4
20
19.65
0
VERTEX
8
Black
10
319.6
20
19.8
0
VERTEX
8
Black
10
320.2
20
19.8
0
VERTEX
8
Black
10
320.5
20
19.65
0
VERTEX
8
Black
10
321.25
20
19.65
0
VERTEX
8
Black
10
321.7
20
19.35
0
VERTEX
8
Black
10
322
20
19.5
0
VERTEX
8
Black
10
322.3
20
19.35
0
VERTEX
8
Black
10
323.05
20
19.5
0
VERTEX
8
Black
10
323.5
20
19.5
0
VERTEX
8
Black
10
324.4
20
19.35
0
VERTEX
8
Black
10
324.85
20
19.35
0
VERTEX
8
Black
10
325.3
20
19.05
0
VERTEX
8
Black
10
326.35
20
19.05
0
VERTEX
8
Black
10
327.1
20
18.9
0
VERTEX
8
Black
10
328.3
20
18.75
0
VERTEX
8
Black
10
331.75
20
18.75
0
VERTEX
8
Black
10
332.05
20
18.6
0
VERTEX
8
Black
10
332.35
20
18.75
0
VERTEX
8
Black
10
333.85
20
18.75
0
VERTEX
8
Black
10
334.3
20
18.9
0
VERTEX
8
Black
10
334.6
20
18.75
0
VERTEX
8
Black
10
335.05
20
18.75
0
SEQEND
0
POLYLINE
66
1
8
Black
62
0
0
VERTEX
8
Black
10
256.45
20
19.35
0
VERTEX
8
Black
10
256.3
20
19.05
0
VERTEX
8
Black
10
259.3
20
19.95
0
VERTEX
8
Black
10
259.6
20
19.95
0
VERTEX
8
Black
10
260.8
20
20.25
0
VERTEX
8
Black
10
261.55
20
20.4
0
VERTEX
8
Black
10
261.85
20
20.7
0
VERTEX
8
Black
10
262.15
20
20.55
0
VERTEX
8
Black
10
264.25
20
21.45
0
VERTEX
8
Black
10
265
20
21.45
0
VERTEX
8
Black
10
265.3
20
21.6
0
VERTEX
8
Black
10
266.05
20
21.6
0
VERTEX
8
Black
10
266.8
20
21.45
0
VERTEX
8
Black
10
267.1
20
21.45
0
VERTEX
8
Black
10
267.4
20
21.3
0
VERTEX
8
Black
10
268.45
20
21.6
0
VERTEX
8
Black
10
268.75
20
21.3
0
VERTEX
8
Black
10
269.5
20
21.45
0
VERTEX
8
Black
10
269.8
20
21.3
0
VERTEX
8
Black
10
271.75
20
21.3
0
VERTEX
8
Black
10
272.35
20
21.15
0
VERTEX
8
Black
10
273.7
20
21.15
0
VERTEX
8
Black
10
275.35
20
21.3
0
VERTEX
8
Black
10
275.8
20
21.45
0
VERTEX
8
Black
10
278.95
20
21.45
0
VERTEX
8
Black
10
280
20
21.15
0
VERTEX
8
Black
10
283
20
21.15
0
VERTEX
8
Black
10
283.9
20
21.3
0
VERTEX
8
Black
10
284.2
20
21.3
0
VERTEX
8
Black
10
284.5
20
21.6
0
VERTEX
8
Black
10
285.25
20
21.45
0
VERTEX
8
Black
10
285.85
20
21.6
0
VERTEX
8
Black
10
288.55
20
21.6
0
VERTEX
8
Black
10
289.3
20
21.45
0
VERTEX
8
Black
10
289.9
20
21.45
0
VERTEX
8
Black
10
290.35
20
21.6
0
VERTEX
8
Black
10
290.65
20
21.45
0
SEQEND
0
POLYLINE
66
1
8
Black
62
0
0
VERTEX
8
Black
10
256.75
20
40.95
0
VERTEX
8
Black
10
256.3
20
40.8
0
VERTEX
8
Black
10
256.45
20
40.35
0
VERTEX
8
Black
10
257.35
20
39.6
0
VERTEX
8
Black
10
257.65
20
39.6
0
VERTEX
8
Black
10
258.7
20
39.15
0
VERTEX
8
Black
10
259
20
39.15
0
VERTEX
8
Black
10
259.6
20
38.85
0
VERTEX
8
Black
10
260.35
20
38.7
0
VERTEX
8
Black
10
263.2
20
37.8
0
VERTEX
8
Black
10
263.5
20
37.8
0
VERTEX
8
Black
10
264.1
20
37.5
0
VERTEX
8
Black
10
264.55
20
37.5
0
VERTEX
8
Black
10
265.3
20
37.2
0
VERTEX
8
Black
10
268.15
20
37.2
0
VERTEX
8
Black
10
269.2
20
36.75
0
VERTEX
8
Black
10
270.25
20
35.55
0
VERTEX
8
Black
10
271.15
20
35.4
0
VERTEX
8
Black
10
272.95
20
35.4
0
VERTEX
8
Black
10
274
20
35.1
0
VERTEX
8
Black
10
277.9
20
35.1
0
VERTEX
8
Black
10
278.95
20
34.95
0
VERTEX
8
Black
10
279.7
20
35.1
0
VERTEX
8
Black
10
280.75
20
35.55
0
VERTEX
8
Black
10
281.65
20
36.15
0
VERTEX
8
Black
10
283.3
20
36.9
0
VERTEX
8
Black
10
284.2
20
36.9
0
VERTEX
8
Black
10
285.7
20
36.3
0
VERTEX
8
Black
10
286
20
36.3
0
VERTEX
8
Black
10
287.05
20
36
0
VERTEX
8
Black
10
287.35
20
36
0
VERTEX
8
Black
10
289
20
35.55
0
VERTEX
8
Black
10
289
20
35.55
0
SEQEND
0
POLYLINE
66
1
8
Black
62
0
0
VERTEX
8
Black
10
258.7
20
18.3
0
VERTEX
8
Black
10
260.8
20
18.3
0
VERTEX
8
Black
10
261.1
20
18.15
0
VERTEX
8
Black
10
261.4
20
18.3
0
VERTEX
8
Black
10
261.7
20
18.15
0
VERTEX
8
Black
10
262.15
20
18.15
0
VERTEX
8
Black
10
262.75
20
18.3
0
VERTEX
8
Black
10
263.2
20
18.3
0
VERTEX
8
Black
10
263.5
20
18.45
0
VERTEX
8
Black
10
264.4
20
18.45
0
VERTEX
8
Black
10
264.7
20
18.6
0
VERTEX
8
Black
10
265
20
18.45
0
VERTEX
8
Black
10
265.3
20
18.6
0
VERTEX
8
Black
10
265.75
20
18.45
0
VERTEX
8
Black
10
266.2
20
18.6
0
VERTEX
8
Black
10
266.5
20
18.45
0
VERTEX
8
Black
10
266.95
20
18.6
0
VERTEX
8
Black
10
267.25
20
18.45
0
VERTEX
8
Black
10
267.85
20
18.6
0
VERTEX
8
Black
10
268.75
20
18.6
0
VERTEX
8
Black
10
269.5
20
18.45
0
VERTEX
8
Black
10
269.8
20
18.6
0
VERTEX
8
Black
10
270.55
20
18.6
0
VERTEX
8
Black
10
271.75
20
18.3
0
VERTEX
8
Black
10
274
20
18.45
0
VERTEX
8
Black
10
275.2
20
18.75
0
VERTEX
8
Black
10
278.05
20
19.2
0
VERTEX
8
Black
10
279.25
20
19.2
0
VERTEX
8
Black
10
280.3
20
19.5
0
VERTEX
8
Black
10
281.2
20
19.5
0
VERTEX
8
Black
10
282.4
20
19.35
0
VERTEX
8
Black
10
283
20
19.35
0
VERTEX
8
Black
10
283.75
20
19.2
0
VERTEX
8
Black
10
284.5
20
19.2
0
VERTEX
8
Black
10
284.8
20
19.35
0
VERTEX
8
Black
10
285.25
20
19.35
0
VERTEX
8
Black
10
285.55
20
19.2
0
VERTEX
8
Black
10
286.3
20
19.35
0
VERTEX
8
Black
10
287.65
20
19.35
0
VERTEX
8
Black
10
288.1
20
19.5
0
VERTEX
8
Black
10
288.85
20
19.35
0
VERTEX
8
Black
10
289.6
20
19.35
0
VERTEX
8
Black
10
289.9
20
19.5
0
VERTEX
8
Black
10
290.65
20
19.5
0
SEQEND
0
POLYLINE
66
1
8
Blue
62
5
0
VERTEX
8
Blue
10
235.6
20
21.6
0
VERTEX
8
Blue
10
236.2
20
21.45
0
VERTEX
8
Blue
10
239.05
20
21.45
0
VERTEX
8
Blue
10
242.35
20
21.9
0
VERTEX
8
Blue
10
243.1
20
21.75
0
VERTEX
8
Blue
10
244.75
20
21.45
0
VERTEX
8
Blue
10
245.5
20
21.45
0
VERTEX
8
Blue
10
245.95
20
21.15
0
VERTEX
8
Blue
10
247.3
20
21.15
0
VERTEX
8
Blue
10
248.65
20
20.85
0
VERTEX
8
Blue
10
249.1
20
20.85
0
VERTEX
8
Blue
10
249.4
20
20.7
0
VERTEX
8
Blue
10
250.45
20
20.7
0
VERTEX
8
Blue
10
251.2
20
20.55
0
VERTEX
8
Blue
10
253.45
20
20.55
0
VERTEX
8
Blue
10
253.9
20
20.4
0
VERTEX
8
Blue
10
254.2
20
20.55
0
VERTEX
8
Blue
10
254.8
20
20.4
0
VERTEX
8
Blue
10
255.55
20
20.4
0
VERTEX
8
Blue
10
256.15
20
20.55
0
VERTEX
8
Blue
10
257.5
20
20.55
0
VERTEX
8
Blue
10
258.55
20
20.85
0
VERTEX
8
Blue
10
259
20
20.85
0
VERTEX
8
Blue
10
259.9
20
21.15
0
VERTEX
8
Blue
10
260.65
20
21.15
0
SEQEND
0
POLYLINE
66
1
8
Black
62
0
0
VERTEX
8
Black
10
233.8
20
37.95
0
VERTEX
8
Black
10
235.6
20
38.55
0
VERTEX
8
Black
10
237.85
20
38.85
0
VERTEX
8
Black
10
238.15
20
39.15
0
VERTEX
8
Black
10
240.55
20
39.6
0
VERTEX
8
Black
10
242.35
20
39.6
0
VERTEX
8
Black
10
243.7
20
39.9
0
VERTEX
8
Black
10
244.75
20
39.9
0
VERTEX
8
Black
10
245.65
20
40.05
0
VERTEX
8
Black
10
246.4
20
40.2
0
VERTEX
8
Black
10
248.2
20
40.65
0
VERTEX
8
Black
10
248.5
20
40.8
0
VERTEX
8
Black
10
248.95
20
40.8
0
VERTEX
8
Black
10
249.25
20
41.1
0
VERTEX
8
Black
10
250
20
41.1
0
VERTEX
8
Black
10
251.05
20
41.4
0
VERTEX
8
Black
10
251.8
20
41.4
0
VERTEX
8
Black
10
252.1
20
41.55
0
VERTEX
8
Black
10
253.6
20
41.55
0
VERTEX
8
Black
10
254.35
20
41.1
0
VERTEX
8
Black
10
255.1
20
40.95
0
VERTEX
8
Black
10
255.25
20
40.65
0
VERTEX
8
Black
10
256.9
20
39.45
0
VERTEX
8
Black
10
257.2
20
39.15
0
VERTEX
8
Black
10
257.95
20
37.2
0
VERTEX
8
Black
10
257.95
20
36.9
0
VERTEX
8
Black
10
258.7
20
35.25
0
VERTEX
8
Black
10
258.85
20
34.5
0
VERTEX
8
Black
10
259.15
20
33.9
0
VERTEX
8
Black
10
259.15
20
33.6
0
SEQEND
0
POLYLINE
66
1
8
Black
62
0
0
VERTEX
8
Black
10
235.45
20
20.55
0
VERTEX
8
Black
10
236.05
20
20.4
0
VERTEX
8
Black
10
236.35
20
20.1
0
VERTEX
8
Black
10
236.8
20
20.1
0
VERTEX
8
Black
10
237.7
20
19.8
0
VERTEX
8
Black
10
239.8
20
19.95
0
VERTEX
8
Black
10
240.85
20
19.65
0
VERTEX
8
Black
10
243.1
20
19.65
0
VERTEX
8
Black
10
243.85
20
19.35
0
VERTEX
8
Black
10
245.95
20
19.35
0
VERTEX
8
Black
10
247
20
19.05
0
VERTEX
8
Black
10
247.45
20
19.05
0
VERTEX
8
Black
10
248.5
20
18.75
0
VERTEX
8
Black
10
248.8
20
18.75
0
VERTEX
8
Black
10
249.25
20
18.45
0
VERTEX
8
Black
10
249.55
20
18.45
0
VERTEX
8
Black
10
250.15
20
18.3
0
VERTEX
8
Black
10
250.9
20
18.3
0
VERTEX
8
Black
10
252.55
20
18.6
0
VERTEX
8
Black
10
253.75
20
18.75
0
VERTEX
8
Black
10
254.5
20
18.45
0
VERTEX
8
Black
10
254.8
20
18.6
0
VERTEX
8
Black
10
255.55
20
18.45
0
VERTEX
8
Black
10
257.2
20
18.45
0
VERTEX
8
Black
10
257.5
20
18.6
0
VERTEX
8
Black
10
258.25
20
18.45
0
VERTEX
8
Black
10
258.7
20
18.45
0
VERTEX
8
Black
10
259
20
18.6
0
VERTEX
8
Black
10
260.8
20
18.6
0
SEQEND
0
POLYLINE
66
1
8
Black
62
0
0
VERTEX
8
Black
10
236.2
20
20.55
0
VERTEX
8
Black
10
237.25
20
19.65
0
VERTEX
8
Black
10
237.7
20
19.65
0
VERTEX
8
Black
10
238.75
20
19.2
0
VERTEX
8
Black
10
241.15
20
19.65
0
VERTEX
8
Black
10
242.95
20
19.65
0
VERTEX
8
Black
10
243.25
20
19.95
0
VERTEX
8
Black
10
243.7
20
19.95
0
VERTEX
8
Black
10
244.3
20
20.1
0
VERTEX
8
Black
10
247.75
20
20.1
0
VERTEX
8
Black
10
248.2
20
19.95
0
VERTEX
8
Black
10
248.8
20
20.1
0
VERTEX
8
Black
10
252.55
20
20.1
0
VERTEX
8
Black
10
253.15
20
19.8
0
VERTEX
8
Black
10
253.75
20
19.8
0
VERTEX
8
Black
10
254.05
20
19.65
0
VERTEX
8
Black
10
254.5
20
19.65
0
VERTEX
8
Black
10
255.1
20
19.5
0
VERTEX
8
Black
10
255.7
20
19.5
0
VERTEX
8
Black
10
256.45
20
19.35
0
VERTEX
8
Black
10
256.75
20
19.5
0
VERTEX
8
Black
10
257.35
20
19.2
0
VERTEX
8
Black
10
258.1
20
19.2
0
VERTEX
8
Black
10
258.4
20
19.05
0
VERTEX
8
Black
10
259.15
20
19.2
0
VERTEX
8
Black
10
259.6
20
19.2
0
VERTEX
8
Black
10
259.9
20
19.05
0
VERTEX
8
Black
10
260.2
20
19.2
0
VERTEX
8
Black
10
261.25
20
19.2
0
SEQEND
0
POLYLINE
66
1
8
Blue
62
5
0
VERTEX
8
Blue
10
189.6
20
20.7
0
VERTEX
8
Blue
10
189.9
20
20.55
0
VERTEX
8
Blue
10
190.2
20
21.15
0
VERTEX
8
Blue
10
190.65
20
21.3
0
VERTEX
8
Blue
10
190.95
20
21.6
0
VERTEX
8
Blue
10
191.55
20
21.6
0
VERTEX
8
Blue
10
192
20
21.75
0
VERTEX
8
Blue
10
193.65
20
21.75
0
VERTEX
8
Blue
10
194.1
20
21.6
0
VERTEX
8
Blue
10
194.7
20
21.75
0
VERTEX
8
Blue
10
198.6
20
21.75
0
VERTEX
8
Blue
10
199.2
20
21.9
0
VERTEX
8
Blue
10
200.85
20
21.9
0
VERTEX
8
Blue
10
205.5
20
22.65
0
SEQEND
0
POLYLINE
66
1
8
Blue
62
5
0
VERTEX
8
Blue
10
201
20
21.9
0
VERTEX
8
Blue
10
202.8
20
21.3
0
VERTEX
8
Blue
10
203.1
20
21.45
0
VERTEX
8
Blue
10
203.85
20
21.3
0
VERTEX
8
Blue
10
204.15
20
21.45
0
VERTEX
8
Blue
10
205.5
20
21.45
0
VERTEX
8
Blue
10
206.85
20
21.75
0
VERTEX
8
Blue
10
211.95
20
21.75
0
VERTEX
8
Blue
10
213
20
21.9
0
VERTEX
8
Blue
10
218.25
20
21.9
0
VERTEX
8
Blue
10
218.7
20
22.05
0
VERTEX
8
Blue
10
219.9
20
22.05
0
VERTEX
8
Blue
10
221.1
20
22.2
0
VERTEX
8
Blue
10
222.15
20
22.2
0
VERTEX
8
Blue
10
223.95
20
22.35
0
VERTEX
8
Blue
10
224.55
20
22.5
0
VERTEX
8
Blue
10
224.85
20
22.35
0
VERTEX
8
Blue
10
225.75
20
22.35
0
VERTEX
8
Blue
10
226.05
20
22.2
0
VERTEX
8
Blue
10
226.35
20
22.35
0
VERTEX
8
Blue
10
226.95
20
22.05
0
VERTEX
8
Blue
10
228.75
20
22.35
0
VERTEX
8
Blue
10
229.95
20
22.35
0
VERTEX
8
Blue
10
230.85
20
22.05
0
VERTEX
8
Blue
10
233.4
20
22.05
0
VERTEX
8
Blue
10
234.15
20
21.75
0
VERTEX
8
Blue
10
234.9
20
21.75
0
VERTEX
8
Blue
10
236.4
20
21.6
0
SEQEND
0
POLYLINE
66
1
8
Black
62
0
0
VERTEX
8
Black
10
214.35
20
36.9
0
VERTEX
8
Black
10
214.8
20
37.2
0
VERTEX
8
Black
10
219.3
20
37.2
0
VERTEX
8
Black
10
220.8
20
37.35
0
VERTEX
8
Black
10
223.35
20
37.95
0
VERTEX
8
Black
10
227.85
20
37.8
0
VERTEX
8
Black
10
232.65
20
38.4
0
VERTEX
8
Black
10
232.5
20
38.85
0
VERTEX
8
Black
10
232.8
20
38.85
0
VERTEX
8
Black
10
233.55
20
39.15
0
VERTEX
8
Black
10
236.4
20
39.15
0
VERTEX
8
Black
10
237
20
38.7
0
VERTEX
8
Black
10
237.45
20
37.65
0
VERTEX
8
Black
10
237.45
20
37.35
0
SEQEND
0
POLYLINE
66
1
8
Black
62
0
0
VERTEX
8
Black
10
212.4
20
19.95
0
VERTEX
8
Black
10
212.7
20
19.8
0
VERTEX
8
Black
10
214.2
20
19.8
0
VERTEX
8
Black
10
214.5
20
19.95
0
VERTEX
8
Black
10
217.35
20
19.95
0
VERTEX
8
Black
10
218.1
20
20.1
0
VERTEX
8
Black
10
219.6
20
20.1
0
VERTEX
8
Black
10
220.05
20
19.95
0
VERTEX
8
Black
10
220.65
20
20.1
0
VERTEX
8
Black
10
221.85
20
20.1
0
VERTEX
8
Black
10
222.3
20
20.4
0
VERTEX
8
Black
10
224.25
20
20.7
0
VERTEX
8
Black
10
225.9
20
20.7
0
VERTEX
8
Black
10
226.2
20
20.55
0
VERTEX
8
Black
10
228.75
20
20.55
0
VERTEX
8
Black
10
229.65
20
20.7
0
VERTEX
8
Black
10
230.4
20
20.55
0
VERTEX
8
Black
10
233.55
20
20.7
0
VERTEX
8
Black
10
234.45
20
20.4
0
VERTEX
8
Black
10
235.35
20
20.4
0
VERTEX
8
Black
10
235.65
20
20.25
0
VERTEX
8
Black
10
235.95
20
20.4
0
VERTEX
8
Black
10
236.25
20
20.25
0
VERTEX
8
Black
10
236.7
20
20.25
0
VERTEX
8
Black
10
237.45
20
20.4
0
VERTEX
8
Black
10
238.05
20
20.25
0
VERTEX
8
Black
10
238.35
20
20.25
0
SEQEND
0
POLYLINE
66
1
8
Black
62
0
0
VERTEX
8
Black
10
179.55
20
36.15
0
VERTEX
8
Black
10
179.25
20
36
0
VERTEX
8
Black
10
177.6
20
36.3
0
VERTEX
8
Black
10
176.7
20
36.3
0
VERTEX
8
Black
10
176.25
20
36
0
VERTEX
8
Black
10
174.75
20
35.85
0
SEQEND
0
POLYLINE
66
1
8
Black
62
0
0
VERTEX
8
Black
10
178.05
20
36.3
0
VERTEX
8
Black
10
180.75
20
34.95
0
VERTEX
8
Black
10
181.2
20
34.8
0
VERTEX
8
Black
10
181.95
20
34.95
0
VERTEX
8
Black
10
182.7
20
34.95
0
VERTEX
8
Black
10
183.9
20
35.25
0
VERTEX
8
Black
10
184.5
20
35.1
0
VERTEX
8
Black
10
185.4
20
35.1
0
VERTEX
8
Black
10
186
20
34.95
0
VERTEX
8
Black
10
187.65
20
34.65
0
VERTEX
8
Black
10
187.95
20
34.8
0
VERTEX
8
Black
10
188.55
20
34.8
0
VERTEX
8
Black
10
188.85
20
34.95
0
VERTEX
8
Black
10
189.45
20
34.95
0
VERTEX
8
Black
10
189.75
20
35.1
0
VERTEX
8
Black
10
190.2
20
35.1
0
VERTEX
8
Black
10
190.5
20
35.25
0
VERTEX
8
Black
10
192
20
35.25
0
VERTEX
8
Black
10
192.3
20
35.4
0
VERTEX
8
Black
10
196.5
20
35.4
0
VERTEX
8
Black
10
197.55
20
35.7
0
VERTEX
8
Black
10
199.35
20
37.05
0
VERTEX
8
Black
10
199.95
20
37.2
0
VERTEX
8
Black
10
200.85
20
37.2
0
VERTEX
8
Black
10
201.9
20
37.5
0
VERTEX
8
Black
10
203.85
20
37.65
0
VERTEX
8
Black
10
204.6
20
37.8
0
VERTEX
8
Black
10
205.35
20
37.65
0
VERTEX
8
Black
10
205.65
20
37.65
0
VERTEX
8
Black
10
205.95
20
37.05
0
VERTEX
8
Black
10
205.95
20
36.6
0
VERTEX
8
Black
10
206.55
20
34.5
0
VERTEX
8
Black
10
207
20
33.9
0
VERTEX
8
Black
10
208.05
20
33.45
0
VERTEX
8
Black
10
209.4
20
34.35
0
VERTEX
8
Black
10
211.2
20
36.6
0
VERTEX
8
Black
10
212.7
20
37.95
0
VERTEX
8
Black
10
213
20
37.65
0
VERTEX
8
Black
10
214.35
20
37.5
0
VERTEX
8
Black
10
214.65
20
37.5
0
SEQEND
0
POLYLINE
66
1
8
Black
62
0
0
VERTEX
8
Black
10
178.5
20
20.55
0
VERTEX
8
Black
10
178.2
20
20.55
0
VERTEX
8
Black
10
178.8
20
20.55
0
VERTEX
8
Black
10
179.55
20
20.85
0
VERTEX
8
Black
10
181.5
20
20.85
0
VERTEX
8
Black
10
182.1
20
20.7
0
VERTEX
8
Black
10
182.4
20
20.85
0
VERTEX
8
Black
10
182.7
20
20.7
0
VERTEX
8
Black
10
183.15
20
20.7
0
VERTEX
8
Black
10
183.75
20
20.55
0
VERTEX
8
Black
10
184.65
20
20.55
0
VERTEX
8
Black
10
185.55
20
20.4
0
VERTEX
8
Black
10
185.85
20
20.4
0
VERTEX
8
Black
10
186.15
20
20.25
0
VERTEX
8
Black
10
187.65
20
20.25
0
VERTEX
8
Black
10
188.55
20
20.1
0
VERTEX
8
Black
10
190.05
20
19.95
0
VERTEX
8
Black
10
194.1
20
19.95
0
VERTEX
8
Black
10
194.4
20
19.8
0
VERTEX
8
Black
10
196.95
20
19.8
0
VERTEX
8
Black
10
197.85
20
19.65
0
VERTEX
8
Black
10
198.3
20
19.8
0
VERTEX
8
Black
10
198.6
20
19.65
0
VERTEX
8
Black
10
199.35
20
19.65
0
VERTEX
8
Black
10
199.65
20
19.35
0
VERTEX
8
Black
10
200.7
20
19.35
0
VERTEX
8
Black
10
201.9
20
19.65
0
VERTEX
8
Black
10
202.8
20
19.65
0
VERTEX
8
Black
10
203.85
20
19.95
0
VERTEX
8
Black
10
204.3
20
19.95
0
VERTEX
8
Black
10
204.6
20
20.1
0
VERTEX
8
Black
10
205.35
20
20.1
0
VERTEX
8
Black
10
206.4
20
20.4
0
VERTEX
8
Black
10
207.9
20
20.55
0
VERTEX
8
Black
10
208.2
20
20.7
0
VERTEX
8
Black
10
208.5
20
20.4
0
VERTEX
8
Black
10
208.8
20
20.4
0
VERTEX
8
Black
10
209.1
20
20.25
0
VERTEX
8
Black
10
209.55
20
20.4
0
VERTEX
8
Black
10
210.15
20
20.25
0
VERTEX
8
Black
10
210.6
20
20.25
0
VERTEX
8
Black
10
211.2
20
20.1
0
VERTEX
8
Black
10
211.8
20
20.4
0
VERTEX
8
Black
10
212.4
20
20.1
0
VERTEX
8
Black
10
212.7
20
20.25
0
VERTEX
8
Black
10
213.45
20
20.1
0
SEQEND
0
POLYLINE
66
1
8
Black
62
0
0
VERTEX
8
Black
10
172.95
20
34.95
0
VERTEX
8
Black
10
174.45
20
35.4
0
VERTEX
8
Black
10
174.75
20
35.4
0
SEQEND
0
POLYLINE
66
1
8
Black
62
0
0
VERTEX
8
Black
10
161.25
20
31.5
0
VERTEX
8
Black
10
161.55
20
31.8
0
VERTEX
8
Black
10
162.45
20
32.1
0
VERTEX
8
Black
10
162.75
20
32.4
0
VERTEX
8
Black
10
163.2
20
32.4
0
VERTEX
8
Black
10
166.35
20
33.3
0
VERTEX
8
Black
10
166.65
20
33.45
0
VERTEX
8
Black
10
167.4
20
33.45
0
VERTEX
8
Black
10
167.85
20
33.75
0
VERTEX
8
Black
10
169.5
20
33.9
0
VERTEX
8
Black
10
171.15
20
34.2
0
VERTEX
8
Black
10
171.9
20
34.35
0
VERTEX
8
Black
10
173.1
20
34.65
0
VERTEX
8
Black
10
173.55
20
34.95
0
VERTEX
8
Black
10
174
20
35.55
0
VERTEX
8
Black
10
174.45
20
35.55
0
VERTEX
8
Black
10
175.05
20
36
0
VERTEX
8
Black
10
174
20
35.55
0
SEQEND
0
POLYLINE
66
1
8
Black
62
0
0
VERTEX
8
Black
10
147.75
20
36.75
0
VERTEX
8
Black
10
151.35
20
35.25
0
VERTEX
8
Black
10
152.85
20
34.95
0
VERTEX
8
Black
10
157.35
20
32.25
0
VERTEX
8
Black
10
160.95
20
31.35
0
VERTEX
8
Black
10
162.15
20
31.65
0
VERTEX
8
Black
10
162.75
20
31.35
0
SEQEND
0
POLYLINE
66
1
8
Black
62
0
0
VERTEX
8
Black
10
152.25
20
18.15
0
VERTEX
8
Black
10
154.35
20
18.45
0
VERTEX
8
Black
10
156.15
20
18.75
0
VERTEX
8
Black
10
158.25
20
18.75
0
VERTEX
8
Black
10
159.45
20
19.05
0
VERTEX
8
Black
10
160.95
20
19.05
0
VERTEX
8
Black
10
161.55
20
19.35
0
VERTEX
8
Black
10
162.75
20
19.05
0
VERTEX
8
Black
10
164.25
20
19.35
0
VERTEX
8
Black
10
166.35
20
19.35
0
VERTEX
8
Black
10
167.25
20
19.95
0
VERTEX
8
Black
10
167.85
20
19.65
0
VERTEX
8
Black
10
170.55
20
20.25
0
VERTEX
8
Black
10
175.05
20
20.25
0
VERTEX
8
Black
10
178.35
20
20.85
0
VERTEX
8
Black
10
179.55
20
20.55
0
SEQEND
0
POLYLINE
66
1
8
Black
62
0
0
VERTEX
8
Black
10
100.95
20
-2.4
0
VERTEX
8
Black
10
104.7
20
-2.4
0
VERTEX
8
Black
10
105.9
20
-2.7
0
VERTEX
8
Black
10
107.1
20
-2.7
0
VERTEX
8
Black
10
108.6
20
-3.15
0
VERTEX
8
Black
10
108.9
20
-3.15
0
VERTEX
8
Black
10
110.4
20
-3.6
0
VERTEX
8
Black
10
110.7
20
-3.75
0
VERTEX
8
Black
10
112.95
20
-3.75
0
VERTEX
8
Black
10
114.3
20
-3.15
0
VERTEX
8
Black
10
115.35
20
-2.85
0
VERTEX
8
Black
10
118.35
20
-0.9
0
VERTEX
8
Black
10
118.65
20
-0.6
0
VERTEX
8
Black
10
119.55
20
-0.15
0
VERTEX
8
Black
10
119.7
20
0.3
0
VERTEX
8
Black
10
120.45
20
0.9
0
VERTEX
8
Black
10
120.6
20
1.35
0
VERTEX
8
Black
10
121.2
20
2.25
0
VERTEX
8
Black
10
123.15
20
4.05
0
VERTEX
8
Black
10
124.35
20
5.55
0
VERTEX
8
Black
10
124.95
20
6.3
0
VERTEX
8
Black
10
125.4
20
6.6
0
VERTEX
8
Black
10
125.7
20
7.35
0
VERTEX
8
Black
10
126.75
20
8.55
0
VERTEX
8
Black
10
127.2
20
8.7
0
VERTEX
8
Black
10
128.4
20
9.75
0
VERTEX
8
Black
10
129.45
20
10.2
0
VERTEX
8
Black
10
129.75
20
10.5
0
VERTEX
8
Black
10
130.05
20
10.5
0
VERTEX
8
Black
10
131.1
20
11.25
0
VERTEX
8
Black
10
131.7
20
11.85
0
VERTEX
8
Black
10
134.1
20
12.3
0
VERTEX
8
Black
10
134.4
20
12.6
0
VERTEX
8
Black
10
134.55
20
13.35
0
VERTEX
8
Black
10
135
20
13.35
0
VERTEX
8
Black
10
135.9
20
13.65
0
VERTEX
8
Black
10
136.95
20
13.8
0
VERTEX
8
Black
10
138.75
20
15.15
0
VERTEX
8
Black
10
141.45
20
16.05
0
VERTEX
8
Black
10
141.9
20
16.05
0
VERTEX
8
Black
10
142.2
20
16.2
0
VERTEX
8
Black
10
142.95
20
16.2
0
VERTEX
8
Black
10
143.55
20
16.35
0
VERTEX
8
Black
10
143.85
20
16.35
0
VERTEX
8
Black
10
144.15
20
16.5
0
VERTEX
8
Black
10
146.4
20
16.5
0
VERTEX
8
Black
10
146.7
20
16.65
0
VERTEX
8
Black
10
147.15
20
16.65
0
VERTEX
8
Black
10
147.9
20
16.95
0
VERTEX
8
Black
10
149.1
20
16.95
0
VERTEX
8
Black
10
149.4
20
17.1
0
VERTEX
8
Black
10
149.85
20
17.1
0
VERTEX
8
Black
10
151.5
20
17.55
0
VERTEX
8
Black
10
152.25
20
17.7
0
VERTEX
8
Black
10
152.55
20
18
0
VERTEX
8
Black
10
153.3
20
18
0
VERTEX
8
Black
10
154.2
20
18.45
0
VERTEX
8
Black
10
154.95
20
18.6
0
VERTEX
8
Black
10
155.55
20
18.75
0
VERTEX
8
Black
10
155.1
20
18.75
0
SEQEND
0
POLYLINE
66
1
8
Black
62
0
0
VERTEX
8
Black
10
141.9
20
19.35
0
VERTEX
8
Black
10
139.8
20
19.5
0
VERTEX
8
Black
10
138.15
20
19.35
0
VERTEX
8
Black
10
136.8
20
19.5
0
VERTEX
8
Black
10
135.75
20
19.2
0
VERTEX
8
Black
10
133.8
20
19.05
0
VERTEX
8
Black
10
131.4
20
18.75
0
VERTEX
8
Black
10
130.5
20
18.45
0
VERTEX
8
Black
10
129
20
18.3
0
VERTEX
8
Black
10
128.7
20
18.15
0
VERTEX
8
Black
10
127.65
20
18.15
0
VERTEX
8
Black
10
127.35
20
18
0
VERTEX
8
Black
10
126.9
20
18
0
VERTEX
8
Black
10
126.6
20
17.85
0
VERTEX
8
Black
10
126.15
20
17.85
0
VERTEX
8
Black
10
124.35
20
17.55
0
VERTEX
8
Black
10
123.3
20
17.4
0
SEQEND
0
POINT
8
Black
62
0
10
94.95
20
45.3
0
POLYLINE
66
1
8
Black
62
0
0
VERTEX
8
Black
10
101.25
20
25.8
0
VERTEX
8
Black
10
102.6
20
26.7
0
VERTEX
8
Black
10
103.05
20
26.85
0
VERTEX
8
Black
10
103.35
20
27.15
0
VERTEX
8
Black
10
103.8
20
27.3
0
VERTEX
8
Black
10
104.1
20
27.75
0
VERTEX
8
Black
10
104.55
20
28.05
0
VERTEX
8
Black
10
104.85
20
28.05
0
VERTEX
8
Black
10
105.45
20
28.65
0
VERTEX
8
Black
10
106.35
20
29.1
0
VERTEX
8
Black
10
106.65
20
29.4
0
VERTEX
8
Black
10
106.95
20
29.4
0
VERTEX
8
Black
10
107.7
20
29.85
0
VERTEX
8
Black
10
109.2
20
29.85
0
VERTEX
8
Black
10
109.5
20
30
0
VERTEX
8
Black
10
110.4
20
29.85
0
VERTEX
8
Black
10
111.3
20
29.85
0
VERTEX
8
Black
10
112.2
20
29.55
0
VERTEX
8
Black
10
113.1
20
29.55
0
VERTEX
8
Black
10
113.85
20
29.4
0
VERTEX
8
Black
10
116.1
20
29.4
0
VERTEX
8
Black
10
119.55
20
29.7
0
VERTEX
8
Black
10
120.3
20
29.85
0
VERTEX
8
Black
10
123.15
20
29.85
0
VERTEX
8
Black
10
123.45
20
30
0
VERTEX
8
Black
10
123.9
20
29.85
0
VERTEX
8
Black
10
124.5
20
30
0
VERTEX
8
Black
10
124.8
20
30
0
VERTEX
8
Black
10
125.4
20
30.3
0
VERTEX
8
Black
10
126.6
20
30.3
0
VERTEX
8
Black
10
127.65
20
30.75
0
VERTEX
8
Black
10
128.7
20
30.75
0
VERTEX
8
Black
10
129.6
20
30.9
0
VERTEX
8
Black
10
131.1
20
31.05
0
VERTEX
8
Black
10
133.5
20
31.05
0
VERTEX
8
Black
10
134.55
20
31.5
0
VERTEX
8
Black
10
135.45
20
31.5
0
VERTEX
8
Black
10
135.75
20
31.65
0
VERTEX
8
Black
10
136.2
20
31.65
0
VERTEX
8
Black
10
136.8
20
31.8
0
VERTEX
8
Black
10
137.25
20
31.8
0
VERTEX
8
Black
10
137.55
20
31.95
0
VERTEX
8
Black
10
138
20
31.95
0
VERTEX
8
Black
10
138.6
20
32.25
0
VERTEX
8
Black
10
139.2
20
32.25
0
VERTEX
8
Black
10
139.65
20
32.55
0
VERTEX
8
Black
10
140.1
20
32.55
0
VERTEX
8
Black
10
140.4
20
32.85
0
VERTEX
8
Black
10
142.05
20
33.6
0
VERTEX
8
Black
10
142.35
20
33.6
0
VERTEX
8
Black
10
143.4
20
34.05
0
VERTEX
8
Black
10
144.15
20
34.2
0
VERTEX
8
Black
10
146.1
20
34.8
0
VERTEX
8
Black
10
147.9
20
35.55
0
VERTEX
8
Black
10
148.2
20
35.85
0
VERTEX
8
Black
10
148.5
20
35.85
0
SEQEND
0
POLYLINE
66
1
8
Black
62
0
0
VERTEX
8
Black
10
92.85
20
28.2
0
VERTEX
8
Black
10
93.45
20
28.65
0
VERTEX
8
Black
10
94.5
20
28.95
0
VERTEX
8
Black
10
95.55
20
28.95
0
VERTEX
8
Black
10
96.9
20
28.65
0
VERTEX
8
Black
10
98.4
20
27.9
0
VERTEX
8
Black
10
99.75
20
26.85
0
VERTEX
8
Black
10
100.05
20
26.85
0
VERTEX
8
Black
10
101.25
20
25.5
0
VERTEX
8
Black
10
102.75
20
24.45
0
VERTEX
8
Black
10
103.65
20
23.7
0
VERTEX
8
Black
10
104.85
20
22.05
0
VERTEX
8
Black
10
105.3
20
22.05
0
VERTEX
8
Black
10
106.65
20
21
0
VERTEX
8
Black
10
106.95
20
21
0
VERTEX
8
Black
10
107.7
20
20.4
0
VERTEX
8
Black
10
108.45
20
20.4
0
VERTEX
8
Black
10
109.5
20
19.95
0
VERTEX
8
Black
10
109.8
20
19.95
0
VERTEX
8
Black
10
110.85
20
19.65
0
VERTEX
8
Black
10
111.15
20
19.65
0
SEQEND
0
POLYLINE
66
1
8
Orange
62
30
0
VERTEX
8
Orange
10
72.15
20
4.35
0
VERTEX
8
Orange
10
72.3
20
4.65
0
VERTEX
8
Orange
10
72.75
20
4.95
0
VERTEX
8
Orange
10
73.2
20
4.95
0
VERTEX
8
Orange
10
73.5
20
4.8
0
VERTEX
8
Orange
10
74.7
20
4.95
0
VERTEX
8
Orange
10
75.6
20
4.95
0
VERTEX
8
Orange
10
76.05
20
4.8
0
VERTEX
8
Orange
10
76.95
20
4.05
0
VERTEX
8
Orange
10
77.4
20
3.9
0
VERTEX
8
Orange
10
77.7
20
3.6
0
VERTEX
8
Orange
10
79.05
20
2.85
0
VERTEX
8
Orange
10
79.65
20
2.85
0
VERTEX
8
Orange
10
83.1
20
1.5
0
VERTEX
8
Orange
10
85.65
20
1.5
0
VERTEX
8
Orange
10
86.4
20
0.45
0
VERTEX
8
Orange
10
87
20
0.15
0
VERTEX
8
Orange
10
88.35
20
0.15
0
VERTEX
8
Orange
10
88.95
20
-0.3
0
VERTEX
8
Orange
10
89.7
20
-0.45
0
SEQEND
0
POLYLINE
66
1
8
Orange
62
30
0
VERTEX
8
Orange
10
66.45
20
3
0
VERTEX
8
Orange
10
67.95
20
3.3
0
VERTEX
8
Orange
10
68.7
20
3.3
0
VERTEX
8
Orange
10
69
20
3.45
0
VERTEX
8
Orange
10
69.45
20
3.45
0
VERTEX
8
Orange
10
69.75
20
3.6
0
VERTEX
8
Orange
10
71.1
20
3.6
0
VERTEX
8
Orange
10
71.4
20
3.75
0
VERTEX
8
Orange
10
74.55
20
3.75
0
VERTEX
8
Orange
10
74.85
20
3.6
0
VERTEX
8
Orange
10
75.6
20
3.6
0
VERTEX
8
Orange
10
75
20
3.9
0
VERTEX
8
Orange
10
71.25
20
3.9
0
VERTEX
8
Orange
10
69.9
20
3.6
0
VERTEX
8
Orange
10
69.6
20
3.45
0
VERTEX
8
Orange
10
68.7
20
3.45
0
VERTEX
8
Orange
10
67.2
20
2.85
0
VERTEX
8
Orange
10
66.9
20
2.55
0
VERTEX
8
Orange
10
66.45
20
2.4
0
VERTEX
8
Orange
10
65.1
20
1.35
0
VERTEX
8
Orange
10
64.65
20
1.35
0
VERTEX
8
Orange
10
63.6
20
0.6
0
VERTEX
8
Orange
10
62.85
20
0.45
0
VERTEX
8
Orange
10
61.95
20
0.3
0
VERTEX
8
Orange
10
60.9
20
0.3
0
VERTEX
8
Orange
10
60.6
20
0.6
0
VERTEX
8
Orange
10
60.15
20
0.6
0
VERTEX
8
Orange
10
59.1
20
0.9
0
VERTEX
8
Orange
10
58.35
20
0.9
0
SEQEND
0
POINT
8
Black
62
0
10
75
20
45.6
0
POLYLINE
66
1
8
Black
62
0
0
VERTEX
8
Black
10
44.1
20
-5.7
0
VERTEX
8
Black
10
44.25
20
-6
0
VERTEX
8
Black
10
45.6
20
-6
0
VERTEX
8
Black
10
46.5
20
-6.15
0
VERTEX
8
Black
10
46.95
20
-6.15
0
VERTEX
8
Black
10
47.85
20
-6
0
VERTEX
8
Black
10
48.15
20
-6
0
VERTEX
8
Black
10
48.75
20
-5.85
0
VERTEX
8
Black
10
49.8
20
-5.85
0
VERTEX
8
Black
10
50.25
20
-5.7
0
VERTEX
8
Black
10
50.85
20
-5.7
0
VERTEX
8
Black
10
51.15
20
-5.55
0
VERTEX
8
Black
10
51.6
20
-5.55
0
VERTEX
8
Black
10
51.9
20
-5.4
0
VERTEX
8
Black
10
52.35
20
-5.4
0
VERTEX
8
Black
10
53.55
20
-5.1
0
VERTEX
8
Black
10
53.85
20
-4.8
0
VERTEX
8
Black
10
54.6
20
-4.8
0
VERTEX
8
Black
10
55.65
20
-4.35
0
VERTEX
8
Black
10
56.7
20
-4.35
0
VERTEX
8
Black
10
57.45
20
-4.05
0
VERTEX
8
Black
10
58.65
20
-4.05
0
VERTEX
8
Black
10
59.7
20
-4.2
0
VERTEX
8
Black
10
60.75
20
-3.9
0
VERTEX
8
Black
10
63.3
20
-3.9
0
VERTEX
8
Black
10
63.75
20
-3.75
0
VERTEX
8
Black
10
67.05
20
-3.75
0
VERTEX
8
Black
10
67.8
20
-3.6
0
VERTEX
8
Black
10
68.85
20
-3.75
0
VERTEX
8
Black
10
69.45
20
-3.6
0
VERTEX
8
Black
10
71.4
20
-3.6
0
VERTEX
8
Black
10
72.15
20
-3.45
0
VERTEX
8
Black
10
74.25
20
-3.45
0
VERTEX
8
Black
10
75
20
-3.3
0
VERTEX
8
Black
10
75.9
20
-3.45
0
VERTEX
8
Black
10
76.2
20
-3.3
0
VERTEX
8
Black
10
76.95
20
-3.6
0
VERTEX
8
Black
10
78
20
-3.45
0
VERTEX
8
Black
10
79.2
20
-3.45
0
VERTEX
8
Black
10
79.5
20
-3.6
0
VERTEX
8
Black
10
82.2
20
-3.6
0
VERTEX
8
Black
10
82.5
20
-3.75
0
VERTEX
8
Black
10
82.8
20
-3.6
0
VERTEX
8
Black
10
83.55
20
-3.6
0
VERTEX
8
Black
10
84.45
20
-3.75
0
VERTEX
8
Black
10
84.75
20
-3.75
0
VERTEX
8
Black
10
85.05
20
-3.6
0
VERTEX
8
Black
10
85.35
20
-3.9
0
VERTEX
8
Black
10
86.4
20
-3.9
0
SEQEND
0
POLYLINE
66
1
8
Blue
62
5
0
VERTEX
8
Blue
10
53.4
20
-1.35
0
VERTEX
8
Blue
10
53.4
20
-2.1
0
VERTEX
8
Blue
10
53.1
20
-2.1
0
VERTEX
8
Blue
10
52.65
20
-2.4
0
VERTEX
8
Blue
10
51.75
20
-2.4
0
VERTEX
8
Blue
10
51
20
-2.55
0
VERTEX
8
Blue
10
50.4
20
-2.85
0
VERTEX
8
Blue
10
48.15
20
-2.85
0
VERTEX
8
Blue
10
47.4
20
-3
0
VERTEX
8
Blue
10
46.95
20
-3
0
VERTEX
8
Blue
10
46.2
20
-3.15
0
VERTEX
8
Blue
10
45.3
20
-3.15
0
VERTEX
8
Blue
10
45
20
-3.3
0
VERTEX
8
Blue
10
44.1
20
-3.15
0
VERTEX
8
Blue
10
43.35
20
-3.15
0
VERTEX
8
Blue
10
42.9
20
-3.3
0
VERTEX
8
Blue
10
42.15
20
-3.15
0
VERTEX
8
Blue
10
41.1
20
-3.3
0
VERTEX
8
Blue
10
40.5
20
-3
0
VERTEX
8
Blue
10
40.05
20
-3.15
0
VERTEX
8
Blue
10
39
20
-2.85
0
VERTEX
8
Blue
10
38.7
20
-3
0
VERTEX
8
Blue
10
37.8
20
-2.85
0
VERTEX
8
Blue
10
37.5
20
-3
0
VERTEX
8
Blue
10
36.45
20
-2.85
0
VERTEX
8
Blue
10
34.95
20
-2.85
0
VERTEX
8
Blue
10
34.05
20
-2.7
0
VERTEX
8
Blue
10
33.6
20
-2.7
0
VERTEX
8
Blue
10
32.55
20
-3
0
VERTEX
8
Blue
10
30.9
20
-3
0
SEQEND
0
POLYLINE
66
1
8
Blue
62
5
0
VERTEX
8
Blue
10
55.2
20
0.6
0
VERTEX
8
Blue
10
57
20
0.3
0
VERTEX
8
Blue
10
58.5
20
0.15
0
VERTEX
8
Blue
10
58.8
20
0
0
VERTEX
8
Blue
10
59.25
20
0
0
VERTEX
8
Blue
10
59.85
20
-0.3
0
VERTEX
8
Blue
10
61.05
20
-0.3
0
VERTEX
8
Blue
10
62.25
20
0
0
VERTEX
8
Blue
10
64.5
20
0
0
VERTEX
8
Blue
10
65.4
20
-0.3
0
VERTEX
8
Blue
10
70.35
20
-0.3
0
SEQEND
0
POLYLINE
66
1
8
Black
62
0
0
VERTEX
8
Black
10
74.1
20
33
0
VERTEX
8
Black
10
75.45
20
29.1
0
VERTEX
8
Black
10
75.75
20
28.8
0
VERTEX
8
Black
10
76.65
20
26.7
0
VERTEX
8
Black
10
76.65
20
26.25
0
VERTEX
8
Black
10
76.8
20
25.65
0
VERTEX
8
Black
10
76.8
20
23.25
0
VERTEX
8
Black
10
77.4
20
22.35
0
VERTEX
8
Black
10
78
20
22.2
0
VERTEX
8
Black
10
78.45
20
22.2
0
VERTEX
8
Black
10
79.05
20
23.25
0
VERTEX
8
Black
10
79.05
20
23.85
0
VERTEX
8
Black
10
79.65
20
24.3
0
VERTEX
8
Black
10
80.4
20
24.45
0
VERTEX
8
Black
10
80.85
20
24.6
0
VERTEX
8
Black
10
81.3
20
25.2
0
VERTEX
8
Black
10
82.35
20
25.95
0
VERTEX
8
Black
10
83.85
20
26.1
0
VERTEX
8
Black
10
85.2
20
26.4
0
VERTEX
8
Black
10
87.15
20
27.75
0
VERTEX
8
Black
10
87.45
20
27.75
0
VERTEX
8
Black
10
87.75
20
27.9
0
VERTEX
8
Black
10
88.2
20
27.9
0
VERTEX
8
Black
10
88.5
20
28.05
0
VERTEX
8
Black
10
88.95
20
27.9
0
VERTEX
8
Black
10
89.25
20
28.2
0
VERTEX
8
Black
10
90.9
20
28.2
0
VERTEX
8
Black
10
91.95
20
28.65
0
VERTEX
8
Black
10
93
20
28.8
0
SEQEND
0
POLYLINE
66
1
8
Black
62
0
0
VERTEX
8
Black
10
31.2
20
7.2
0
VERTEX
8
Black
10
31.35
20
6.9
0
VERTEX
8
Black
10
31.95
20
6.9
0
VERTEX
8
Black
10
32.55
20
6.45
0
VERTEX
8
Black
10
34.2
20
6.45
0
VERTEX
8
Black
10
35.25
20
6.9
0
VERTEX
8
Black
10
35.85
20
7.35
0
VERTEX
8
Black
10
36
20
7.8
0
VERTEX
8
Black
10
35.85
20
8.25
0
VERTEX
8
Black
10
35.4
20
8.85
0
VERTEX
8
Black
10
33.15
20
10.05
0
VERTEX
8
Black
10
32.4
20
10.2
0
VERTEX
8
Black
10
32.1
20
10.35
0
VERTEX
8
Black
10
30.6
20
10.35
0
VERTEX
8
Black
10
29.7
20
9.75
0
VERTEX
8
Black
10
29.25
20
8.7
0
VERTEX
8
Black
10
29.55
20
7.8
0
VERTEX
8
Black
10
30.45
20
7.05
0
VERTEX
8
Black
10
32.85
20
7.05
0
VERTEX
8
Black
10
34.8
20
6.45
0
VERTEX
8
Black
10
35.25
20
6.6
0
SEQEND
0
POLYLINE
66
1
8
Black
62
0
0
VERTEX
8
Black
10
34.2
20
31.35
0
VERTEX
8
Black
10
33.9
20
31.05
0
VERTEX
8
Black
10
33.9
20
28.95
0
VERTEX
8
Black
10
34.05
20
28.65
0
VERTEX
8
Black
10
34.05
20
28.2
0
VERTEX
8
Black
10
34.65
20
27.15
0
VERTEX
8
Black
10
34.8
20
26.55
0
VERTEX
8
Black
10
34.5
20
24.9
0
VERTEX
8
Black
10
34.2
20
24.6
0
VERTEX
8
Black
10
33.9
20
22.95
0
VERTEX
8
Black
10
33.6
20
21.9
0
VERTEX
8
Black
10
33.6
20
21.45
0
VERTEX
8
Black
10
33.45
20
21.15
0
VERTEX
8
Black
10
33.75
20
19.8
0
VERTEX
8
Black
10
34.05
20
19.8
0
VERTEX
8
Black
10
35.55
20
20.85
0
VERTEX
8
Black
10
36.3
20
21.75
0
VERTEX
8
Black
10
36.6
20
22.65
0
VERTEX
8
Black
10
36.9
20
22.95
0
VERTEX
8
Black
10
37.35
20
24
0
VERTEX
8
Black
10
37.35
20
24.45
0
VERTEX
8
Black
10
38.25
20
25.95
0
VERTEX
8
Black
10
38.85
20
27.75
0
VERTEX
8
Black
10
38.85
20
28.2
0
VERTEX
8
Black
10
38.4
20
29.7
0
VERTEX
8
Black
10
38.4
20
30.6
0
VERTEX
8
Black
10
39.9
20
33.9
0
VERTEX
8
Black
10
40.05
20
34.65
0
VERTEX
8
Black
10
40.95
20
36
0
VERTEX
8
Black
10
41.55
20
36.15
0
VERTEX
8
Black
10
42.6
20
35.7
0
VERTEX
8
Black
10
42.9
20
35.4
0
VERTEX
8
Black
10
43.35
20
35.25
0
VERTEX
8
Black
10
43.8
20
34.35
0
VERTEX
8
Black
10
43.65
20
33.9
0
SEQEND
0
POLYLINE
66
1
8
Black
62
0
0
VERTEX
8
Black
10
43.95
20
10.05
0
VERTEX
8
Black
10
44.25
20
10.05
0
VERTEX
8
Black
10
45.15
20
10.5
0
VERTEX
8
Black
10
46.35
20
12.9
0
VERTEX
8
Black
10
47.7
20
13.2
0
VERTEX
8
Black
10
48.75
20
13.65
0
VERTEX
8
Black
10
49.65
20
15
0
VERTEX
8
Black
10
49.95
20
15.6
0
VERTEX
8
Black
10
50.55
20
16.05
0
VERTEX
8
Black
10
51.9
20
16.65
0
VERTEX
8
Black
10
52.2
20
16.95
0
VERTEX
8
Black
10
52.8
20
18.6
0
VERTEX
8
Black
10
53.1
20
19.05
0
VERTEX
8
Black
10
53.7
20
19.35
0
VERTEX
8
Black
10
54
20
19.35
0
VERTEX
8
Black
10
54.75
20
18.3
0
VERTEX
8
Black
10
55.35
20
17.4
0
VERTEX
8
Black
10
55.8
20
17.25
0
VERTEX
8
Black
10
56.1
20
16.95
0
VERTEX
8
Black
10
57.15
20
16.5
0
VERTEX
8
Black
10
57.6
20
16.5
0
VERTEX
8
Black
10
57.9
20
16.2
0
VERTEX
8
Black
10
58.65
20
15.9
0
VERTEX
8
Black
10
58.95
20
15.6
0
VERTEX
8
Black
10
59.7
20
15.75
0
VERTEX
8
Black
10
60
20
15.9
0
VERTEX
8
Black
10
60.3
20
16.35
0
VERTEX
8
Black
10
60.3
20
17.55
0
VERTEX
8
Black
10
60
20
18.6
0
VERTEX
8
Black
10
60
20
19.05
0
VERTEX
8
Black
10
59.7
20
19.35
0
VERTEX
8
Black
10
59.7
20
19.8
0
VERTEX
8
Black
10
59.55
20
20.1
0
VERTEX
8
Black
10
59.55
20
21.15
0
VERTEX
8
Black
10
59.4
20
21.45
0
VERTEX
8
Black
10
59.4
20
22.8
0
VERTEX
8
Black
10
59.55
20
23.25
0
VERTEX
8
Black
10
59.55
20
23.85
0
VERTEX
8
Black
10
59.7
20
24.3
0
VERTEX
8
Black
10
59.7
20
25.35
0
VERTEX
8
Black
10
60
20
26.1
0
VERTEX
8
Black
10
59.85
20
26.4
0
VERTEX
8
Black
10
60.3
20
28.05
0
VERTEX
8
Black
10
60.3
20
28.8
0
VERTEX
8
Black
10
61.05
20
30.6
0
VERTEX
8
Black
10
61.2
20
31.35
0
VERTEX
8
Black
10
61.8
20
32.4
0
VERTEX
8
Black
10
62.85
20
34.5
0
VERTEX
8
Black
10
63.15
20
34.95
0
VERTEX
8
Black
10
64.5
20
35.85
0
VERTEX
8
Black
10
65.7
20
36.3
0
VERTEX
8
Black
10
67.05
20
37.5
0
VERTEX
8
Black
10
67.65
20
38.4
0
VERTEX
8
Black
10
70.5
20
42.3
0
VERTEX
8
Black
10
70.65
20
43.05
0
VERTEX
8
Black
10
71.55
20
44.1
0
VERTEX
8
Black
10
72.75
20
46.8
0
VERTEX
8
Black
10
73.95
20
48.45
0
VERTEX
8
Black
10
74.25
20
48.6
0
VERTEX
8
Black
10
74.4
20
48.9
0
VERTEX
8
Black
10
74.85
20
48.9
0
VERTEX
8
Black
10
75
20
47.7
0
VERTEX
8
Black
10
74.85
20
47.4
0
VERTEX
8
Black
10
75.3
20
45.75
0
VERTEX
8
Black
10
75.3
20
43.5
0
VERTEX
8
Black
10
75.15
20
43.2
0
VERTEX
8
Black
10
75.15
20
42.75
0
VERTEX
8
Black
10
74.85
20
41.7
0
VERTEX
8
Black
10
74.85
20
40.5
0
VERTEX
8
Black
10
74.1
20
38.1
0
VERTEX
8
Black
10
74.1
20
37.65
0
VERTEX
8
Black
10
73.5
20
35.85
0
VERTEX
8
Black
10
73.5
20
34.95
0
VERTEX
8
Black
10
73.95
20
33.9
0
VERTEX
8
Black
10
74.1
20
32.85
0
VERTEX
8
Black
10
74.4
20
31.8
0
VERTEX
8
Black
10
75
20
31.05
0
SEQEND
0
POLYLINE
66
1
8
Black
62
0
0
VERTEX
8
Black
10
43.2
20
36.15
0
VERTEX
8
Black
10
43.2
20
35.55
0
VERTEX
8
Black
10
43.5
20
34.35
0
VERTEX
8
Black
10
43.5
20
34.05
0
VERTEX
8
Black
10
43.8
20
33.45
0
VERTEX
8
Black
10
43.95
20
32.55
0
VERTEX
8
Black
10
44.85
20
29.7
0
VERTEX
8
Black
10
45
20
28.8
0
VERTEX
8
Black
10
45
20
28.05
0
VERTEX
8
Black
10
45.15
20
27.6
0
VERTEX
8
Black
10
45.15
20
26.7
0
VERTEX
8
Black
10
45.3
20
26.4
0
VERTEX
8
Black
10
45.15
20
25.95
0
VERTEX
8
Black
10
45.3
20
25.5
0
VERTEX
8
Black
10
45.3
20
24.15
0
VERTEX
8
Black
10
45.15
20
23.85
0
VERTEX
8
Black
10
45.3
20
23.55
0
VERTEX
8
Black
10
45.3
20
21.6
0
VERTEX
8
Black
10
45.15
20
20.7
0
VERTEX
8
Black
10
45.15
20
19.2
0
VERTEX
8
Black
10
44.85
20
17.4
0
VERTEX
8
Black
10
44.55
20
17.1
0
VERTEX
8
Black
10
44.4
20
15
0
VERTEX
8
Black
10
44.1
20
12.6
0
VERTEX
8
Black
10
44.1
20
12
0
VERTEX
8
Black
10
43.8
20
11.4
0
VERTEX
8
Black
10
43.8
20
9.75
0
VERTEX
8
Black
10
44.1
20
9.15
0
SEQEND
0
POINT
8
Black
62
0
10
-19.5
20
57.3
0
POLYLINE
66
1
8
Black
62
0
0
VERTEX
8
Black
10
-9.75
20
34.35
0
VERTEX
8
Black
10
-9.9
20
34.65
0
VERTEX
8
Black
10
-9.75
20
35.4
0
VERTEX
8
Black
10
-9.9
20
36.6
0
VERTEX
8
Black
10
-9.9
20
37.2
0
VERTEX
8
Black
10
-10.5
20
38.25
0
VERTEX
8
Black
10
-10.8
20
39.6
0
VERTEX
8
Black
10
-11.25
20
41.1
0
VERTEX
8
Black
10
-11.4
20
41.7
0
VERTEX
8
Black
10
-11.4
20
42.15
0
VERTEX
8
Black
10
-11.55
20
42.45
0
VERTEX
8
Black
10
-11.55
20
43.2
0
VERTEX
8
Black
10
-11.85
20
44.1
0
VERTEX
8
Black
10
-11.85
20
44.55
0
VERTEX
8
Black
10
-11.55
20
45.3
0
VERTEX
8
Black
10
-9.9
20
46.5
0
VERTEX
8
Black
10
-8.55
20
46.95
0
VERTEX
8
Black
10
-7.8
20
46.95
0
VERTEX
8
Black
10
-7.05
20
47.4
0
VERTEX
8
Black
10
-5.55
20
47.4
0
VERTEX
8
Black
10
-5.25
20
47.1
0
VERTEX
8
Black
10
-4.2
20
46.95
0
VERTEX
8
Black
10
-3.45
20
46.5
0
VERTEX
8
Black
10
-3.3
20
46.2
0
VERTEX
8
Black
10
-2.85
20
45.9
0
VERTEX
8
Black
10
-1.8
20
44.55
0
VERTEX
8
Black
10
-1.35
20
44.1
0
VERTEX
8
Black
10
-1.35
20
43.8
0
VERTEX
8
Black
10
-0.15
20
42.45
0
VERTEX
8
Black
10
1.5
20
41.7
0
VERTEX
8
Black
10
2.4
20
41.55
0
VERTEX
8
Black
10
2.4
20
41.25
0
VERTEX
8
Black
10
3
20
40.35
0
VERTEX
8
Black
10
4.05
20
39.9
0
VERTEX
8
Black
10
4.35
20
39.45
0
VERTEX
8
Black
10
3.75
20
38.25
0
VERTEX
8
Black
10
4.05
20
37.65
0
VERTEX
8
Black
10
5.25
20
37.65
0
VERTEX
8
Black
10
5.4
20
36.9
0
VERTEX
8
Black
10
5.7
20
36.6
0
VERTEX
8
Black
10
5.7
20
36.3
0
VERTEX
8
Black
10
6.3
20
35.1
0
VERTEX
8
Black
10
7.05
20
32.7
0
VERTEX
8
Black
10
7.65
20
31.65
0
VERTEX
8
Black
10
8.1
20
31.35
0
VERTEX
8
Black
10
8.25
20
31.05
0
VERTEX
8
Black
10
9
20
30.6
0
VERTEX
8
Black
10
9.9
20
30.6
0
VERTEX
8
Black
10
10.8
20
30.45
0
VERTEX
8
Black
10
11.85
20
30.45
0
VERTEX
8
Black
10
12.75
20
30.3
0
VERTEX
8
Black
10
13.35
20
30.3
0
VERTEX
8
Black
10
13.65
20
30
0
VERTEX
8
Black
10
13.95
20
30
0
VERTEX
8
Black
10
14.7
20
29.7
0
VERTEX
8
Black
10
15
20
29.4
0
VERTEX
8
Black
10
16.95
20
28.8
0
VERTEX
8
Black
10
18.45
20
28.8
0
VERTEX
8
Black
10
19.5
20
29.1
0
VERTEX
8
Black
10
21.6
20
29.85
0
VERTEX
8
Black
10
22.65
20
30.3
0
VERTEX
8
Black
10
23.1
20
30.3
0
VERTEX
8
Black
10
23.85
20
30.45
0
VERTEX
8
Black
10
24.9
20
30.45
0
VERTEX
8
Black
10
26.25
20
30.75
0
VERTEX
8
Black
10
26.85
20
30.75
0
VERTEX
8
Black
10
27.3
20
30.6
0
VERTEX
8
Black
10
28.95
20
30.9
0
VERTEX
8
Black
10
29.85
20
30.9
0
VERTEX
8
Black
10
30.45
20
31.05
0
VERTEX
8
Black
10
31.95
20
31.2
0
VERTEX
8
Black
10
32.4
20
31.2
0
VERTEX
8
Black
10
32.7
20
31.35
0
VERTEX
8
Black
10
34.35
20
31.35
0
SEQEND
0
POLYLINE
66
1
8
Black
62
0
0
VERTEX
8
Black
10
45.75
20
-6.6
0
VERTEX
8
Black
10
45.3
20
-6.6
0
VERTEX
8
Black
10
41.4
20
-5.4
0
VERTEX
8
Black
10
40.95
20
-5.4
0
VERTEX
8
Black
10
40.05
20
-5.25
0
VERTEX
8
Black
10
37.5
20
-5.25
0
VERTEX
8
Black
10
37.2
20
-5.1
0
VERTEX
8
Black
10
35.7
20
-5.4
0
VERTEX
8
Black
10
35.25
20
-5.4
0
VERTEX
8
Black
10
33.45
20
-5.7
0
VERTEX
8
Black
10
33
20
-5.7
0
VERTEX
8
Black
10
32.1
20
-5.85
0
VERTEX
8
Black
10
29.85
20
-5.85
0
VERTEX
8
Black
10
28.5
20
-5.55
0
VERTEX
8
Black
10
27.75
20
-5.55
0
VERTEX
8
Black
10
27.3
20
-5.25
0
VERTEX
8
Black
10
26.4
20
-5.1
0
VERTEX
8
Black
10
26.1
20
-4.8
0
VERTEX
8
Black
10
24
20
-4.8
0
VERTEX
8
Black
10
22.35
20
-4.35
0
VERTEX
8
Black
10
21.15
20
-4.5
0
VERTEX
8
Black
10
19.65
20
-4.5
0
VERTEX
8
Black
10
18.75
20
-4.95
0
VERTEX
8
Black
10
17.85
20
-4.95
0
VERTEX
8
Black
10
16.8
20
-5.25
0
VERTEX
8
Black
10
16.35
20
-5.25
0
VERTEX
8
Black
10
15.3
20
-5.55
0
VERTEX
8
Black
10
14.1
20
-5.55
0
VERTEX
8
Black
10
13.8
20
-5.7
0
VERTEX
8
Black
10
13.5
20
-5.55
0
VERTEX
8
Black
10
13.2
20
-5.7
0
VERTEX
8
Black
10
12.45
20
-5.55
0
VERTEX
8
Black
10
12
20
-5.55
0
VERTEX
8
Black
10
11.4
20
-5.7
0
VERTEX
8
Black
10
10.65
20
-5.55
0
VERTEX
8
Black
10
10.2
20
-5.55
0
VERTEX
8
Black
10
9.9
20
-5.4
0
VERTEX
8
Black
10
8.85
20
-5.4
0
VERTEX
8
Black
10
7.8
20
-4.95
0
VERTEX
8
Black
10
7.05
20
-4.95
0
VERTEX
8
Black
10
6.75
20
-4.65
0
VERTEX
8
Black
10
6.45
20
-4.65
0
VERTEX
8
Black
10
4.95
20
-4.05
0
VERTEX
8
Black
10
3.3
20
-3
0
VERTEX
8
Black
10
2.4
20
-2.85
0
VERTEX
8
Black
10
2.1
20
-2.55
0
VERTEX
8
Black
10
1.5
20
-2.55
0
VERTEX
8
Black
10
1.2
20
-2.25
0
VERTEX
8
Black
10
0.9
20
-2.25
0
VERTEX
8
Black
10
0.45
20
-1.95
0
VERTEX
8
Black
10
0.15
20
-1.95
0
VERTEX
8
Black
10
-0.75
20
-1.2
0
VERTEX
8
Black
10
-0.9
20
-0.9
0
VERTEX
8
Black
10
-1.35
20
-0.9
0
VERTEX
8
Black
10
-1.65
20
0.15
0
VERTEX
8
Black
10
-1.65
20
0.75
0
VERTEX
8
Black
10
-2.4
20
2.25
0
VERTEX
8
Black
10
-3.9
20
3.6
0
VERTEX
8
Black
10
-4.2
20
4.05
0
VERTEX
8
Black
10
-4.2
20
4.35
0
VERTEX
8
Black
10
-4.5
20
4.65
0
VERTEX
8
Black
10
-4.5
20
4.95
0
VERTEX
8
Black
10
-5.55
20
6.15
0
VERTEX
8
Black
10
-5.55
20
6.45
0
VERTEX
8
Black
10
-6
20
7.05
0
VERTEX
8
Black
10
-6
20
8.25
0
VERTEX
8
Black
10
-4.95
20
9.75
0
VERTEX
8
Black
10
-3.6
20
11.1
0
VERTEX
8
Black
10
-3.45
20
11.85
0
VERTEX
8
Black
10
-3.45
20
12.45
0
VERTEX
8
Black
10
-3.3
20
13.05
0
VERTEX
8
Black
10
-3.3
20
13.8
0
VERTEX
8
Black
10
-3.15
20
14.1
0
VERTEX
8
Black
10
-3.15
20
16.2
0
VERTEX
8
Black
10
-4.35
20
19.35
0
VERTEX
8
Black
10
-4.5
20
20.4
0
VERTEX
8
Black
10
-5.25
20
21.9
0
VERTEX
8
Black
10
-5.7
20
22.8
0
VERTEX
8
Black
10
-5.7
20
23.1
0
VERTEX
8
Black
10
-7.05
20
25.8
0
VERTEX
8
Black
10
-7.05
20
27.6
0
VERTEX
8
Black
10
-7.35
20
28.8
0
VERTEX
8
Black
10
-7.35
20
29.4
0
VERTEX
8
Black
10
-7.65
20
30.6
0
VERTEX
8
Black
10
-8.1
20
33
0
VERTEX
8
Black
10
-8.55
20
34.05
0
VERTEX
8
Black
10
-8.55
20
34.8
0
VERTEX
8
Black
10
-8.85
20
35.4
0
VERTEX
8
Black
10
-8.85
20
35.85
0
VERTEX
8
Black
10
-9.15
20
36.45
0
VERTEX
8
Black
10
-8.85
20
36.15
0
VERTEX
8
Black
10
-8.85
20
36.45
0
VERTEX
8
Black
10
-8.55
20
37.5
0
VERTEX
8
Black
10
-8.55
20
37.95
0
VERTEX
8
Black
10
-8.85
20
38.55
0
VERTEX
8
Black
10
-8.25
20
39.3
0
VERTEX
8
Black
10
-8.25
20
40.5
0
VERTEX
8
Black
10
-8.4
20
40.8
0
VERTEX
8
Black
10
-8.25
20
41.25
0
SEQEND
0
LINE
8
Shots
62
30
10
47.6
20
-4.628
11
52.21
21
-4.394
0
CIRCLE
8
Shots
62
30
10
52.21
20
-4.394
40
0.1
0
TEXT
8
Label
40
1
1
1.7
10
52.21
20
-4.394
0
LINE
8
Shots
62
30
10
47.22
20
-4.026
11
51.418
21
-4.042
0
CIRCLE
8
Shots
62
30
10
51.418
20
-4.042
40
0.1
0
TEXT
8
Label
40
1
1
5.2
10
51.418
20
-4.042
0
LINE
8
Shots
62
30
10
36.204
20
-4.03
11
47.22
21
-4.026
0
CIRCLE
8
Shots
62
30
10
47.22
20
-4.026
40
0.1
0
TEXT
8
Label
40
1
1
5.1
10
47.22
20
-4.026
0
LINE
8
XSect
62
30
10
47.22
20
-4.026
11
51.064
21
-4.044
0
LINE
8
XSect
62
30
10
47.22
20
-4.026
11
51.074
21
-4.03
0
LINE
8
XSect
62
30
10
47.22
20
-4.026
11
51.44
21
-4.034
0
LINE
8
Shots
62
30
10
36.204
20
-4.03
11
36.204
21
-4.03
0
CIRCLE
8
Shots
62
30
10
36.204
20
-4.03
40
0.1
0
LINE
8
Shots
62
30
10
43.102
20
-4.464
11
49.846
21
-5.626
0
CIRCLE
8
Shots
62
30
10
49.846
20
-5.626
40
0.1
0
TEXT
8
Label
40
1
1
1.6
10
49.846
20
-5.626
0
LINE
8
Shots
62
30
10
36.204
20
-4.03
11
39.042
21
-0.774
0
CIRCLE
8
Shots
62
30
10
39.042
20
-0.774
40
0.1
0
TEXT
8
Label
40
1
1
1.5
10
39.042
20
-0.774
0
LINE
8
Shots
62
30
10
24.748
20
-1.644
11
32.352
21
1.474
0
CIRCLE
8
Shots
62
30
10
32.352
20
1.474
40
0.1
0
TEXT
8
Label
40
1
1
1.4
10
32.352
20
1.474
0
LINE
8
Shots
62
30
10
8.554
20
-1.064
11
8.646
21
-3.114
0
CIRCLE
8
Shots
62
30
10
8.646
20
-3.114
40
0.1
0
TEXT
8
Label
40
1
1
1.3
10
8.646
20
-3.114
0
LINE
8
Shots
62
30
10
2.308
20
-2.14
11
2.49
21
0.88
0
CIRCLE
8
Shots
62
30
10
2.49
20
0.88
40
0.1
0
TEXT
8
Label
40
1
1
1.2
10
2.49
20
0.88
0
LINE
8
Shots
62
30
10
0
20
0
11
8.73
21
-0.864
0
CIRCLE
8
Shots
62
30
10
8.73
20
-0.864
40
0.1
0
TEXT
8
Label
40
1
1
1.1
10
8.73
20
-0.864
0
LINE
8
Shots
62
30
10
36.204
20
-4.03
11
43.09
21
-4.464
0
CIRCLE
8
Shots
62
30
10
43.09
20
-4.464
40
0.1
0
TEXT
8
Label
40
1
1
1.5
10
43.09
20
-4.464
0
LINE
8
Shots
62
30
10
24.748
20
-1.644
11
36.202
21
-4.028
0
CIRCLE
8
Shots
62
30
10
36.202
20
-4.028
40
0.1
0
TEXT
8
Label
40
1
1
1.4
10
36.202
20
-4.028
0
LINE
8
Shots
62
30
10
8.554
20
-1.064
11
24.744
21
-1.644
0
CIRCLE
8
Shots
62
30
10
24.744
20
-1.644
40
0.1
0
TEXT
8
Label
40
1
1
1.3
10
24.744
20
-1.644
0
LINE
8
Shots
62
30
10
2.308
20
-2.14
11
8.556
21
-1.064
0
CIRCLE
8
Shots
62
30
10
8.556
20
-1.064
40
0.1
0
TEXT
8
Label
40
1
1
1.2
10
8.556
20
-1.064
0
LINE
8
Shots
62
30
10
0
20
0
11
2.302
21
-2.134
0
CIRCLE
8
Shots
62
30
10
2.302
20
-2.134
40
0.1
0
TEXT
8
Label
40
1
1
1.1
10
2.302
20
-2.134
0
LINE
8
Shots
62
30
10
602.536
20
13.762
11
640.554
21
8.936
0
CIRCLE
8
Shots
62
30
10
640.554
20
8.936
40
0.1
0
TEXT
8
Label
40
1
1
1.30
10
640.554
20
8.936
0
LINE
8
Shots
62
30
10
568.03
20
14.94
11
602.536
21
13.762
0
CIRCLE
8
Shots
62
30
10
602.536
20
13.762
40
0.1
0
TEXT
8
Label
40
1
1
1.29
10
602.536
20
13.762
0
LINE
8
XSect
62
30
10
602.536
20
13.762
11
605.514
21
34.994
0
LINE
8
XSect
62
30
10
602.536
20
13.762
11
603.376
21
11.682
0
LINE
8
Shots
62
30
10
540.444
20
21.392
11
568.03
21
14.94
0
CIRCLE
8
Shots
62
30
10
568.03
20
14.94
40
0.1
0
TEXT
8
Label
40
1
1
1.28
10
568.03
20
14.94
0
LINE
8
XSect
62
30
10
568.03
20
14.94
11
547.928
21
14.2
0
LINE
8
XSect
62
30
10
568.03
20
14.94
11
549.606
21
11.718
0
LINE
8
XSect
62
30
10
568.03
20
14.94
11
594.352
21
12.228
0
LINE
8
XSect
62
30
10
568.03
20
14.94
11
580.884
21
13.158
0
LINE
8
XSect
62
30
10
568.03
20
14.94
11
571.708
21
37.218
0
LINE
8
XSect
62
30
10
568.03
20
14.94
11
561.784
21
24.888
0
LINE
8
XSect
62
30
10
568.03
20
14.94
11
602.668
21
13.86
0
LINE
8
Shots
62
30
10
520.502
20
24.17
11
540.444
21
21.392
0
CIRCLE
8
Shots
62
30
10
540.444
20
21.392
40
0.1
0
TEXT
8
Label
40
1
1
1.27
10
540.444
20
21.392
0
LINE
8
XSect
62
30
10
540.444
20
21.392
11
540.442
21
23.094
0
LINE
8
XSect
62
30
10
540.444
20
21.392
11
568.258
21
14.952
0
LINE
8
Shots
62
30
10
517.496
20
22.462
11
520.502
21
24.17
0
CIRCLE
8
Shots
62
30
10
520.502
20
24.17
40
0.1
0
TEXT
8
Label
40
1
1
1.26
10
520.502
20
24.17
0
LINE
8
XSect
62
30
10
520.502
20
24.17
11
521.186
21
21.858
0
LINE
8
XSect
62
30
10
520.502
20
24.17
11
521.348
21
27.79
0
LINE
8
Shots
62
30
10
490.608
20
11.516
11
517.496
21
22.462
0
CIRCLE
8
Shots
62
30
10
517.496
20
22.462
40
0.1
0
TEXT
8
Label
40
1
1
1.25
10
517.496
20
22.462
0
LINE
8
XSect
62
30
10
517.496
20
22.462
11
478.156
21
25.462
0
LINE
8
XSect
62
30
10
517.496
20
22.462
11
522.268
21
23.008
0
LINE
8
XSect
62
30
10
517.496
20
22.462
11
529.38
21
22.716
0
LINE
8
XSect
62
30
10
517.496
20
22.462
11
515.592
21
29.416
0
LINE
8
XSect
62
30
10
517.496
20
22.462
11
520.406
21
23.414
0
LINE
8
XSect
62
30
10
517.496
20
22.462
11
518.788
21
21.508
0
LINE
8
Shots
62
30
10
464.578
20
9.65
11
490.608
21
11.516
0
CIRCLE
8
Shots
62
30
10
490.608
20
11.516
40
0.1
0
TEXT
8
Label
40
1
1
1.24
10
490.608
20
11.516
0
LINE
8
XSect
62
30
10
490.608
20
11.516
11
490.698
21
22.086
0
LINE
8
XSect
62
30
10
490.608
20
11.516
11
489.888
21
7.978
0
LINE
8
XSect
62
30
10
490.608
20
11.516
11
494.648
21
34.262
0
LINE
8
XSect
62
30
10
490.608
20
11.516
11
504.048
21
56.992
0
LINE
8
XSect
62
30
10
490.608
20
11.516
11
504.72
21
17.364
0
LINE
8
XSect
62
30
10
490.608
20
11.516
11
529.816
21
28.396
0
LINE
8
XSect
62
30
10
490.608
20
11.516
11
506.354
21
11.748
0
LINE
8
XSect
62
30
10
490.608
20
11.516
11
487.708
21
29.488
0
LINE
8
XSect
62
30
10
490.608
20
11.516
11
488.902
21
30.048
0
LINE
8
Shots
62
30
10
436.316
20
7.614
11
464.578
21
9.65
0
CIRCLE
8
Shots
62
30
10
464.578
20
9.65
40
0.1
0
TEXT
8
Label
40
1
1
1.23
10
464.578
20
9.65
0
LINE
8
XSect
62
30
10
464.578
20
9.65
11
463.818
21
27.172
0
LINE
8
XSect
62
30
10
464.578
20
9.65
11
464.286
21
7.938
0
LINE
8
Shots
62
30
10
396.638
20
8.946
11
436.316
21
7.614
0
CIRCLE
8
Shots
62
30
10
436.316
20
7.614
40
0.1
0
TEXT
8
Label
40
1
1
1.22
10
436.316
20
7.614
0
LINE
8
XSect
62
30
10
436.316
20
7.614
11
437.568
21
25.886
0
LINE
8
XSect
62
30
10
436.316
20
7.614
11
436.562
21
13.074
0
LINE
8
XSect
62
30
10
436.316
20
7.614
11
436.45
21
6.404
0
LINE
8
Shots
62
30
10
375.166
20
10.754
11
396.638
21
8.946
0
CIRCLE
8
Shots
62
30
10
396.638
20
8.946
40
0.1
0
TEXT
8
Label
40
1
1
1.21
10
396.638
20
8.946
0
LINE
8
XSect
62
30
10
396.638
20
8.946
11
396.184
21
21.866
0
LINE
8
XSect
62
30
10
396.638
20
8.946
11
397.998
21
29.2
0
LINE
8
XSect
62
30
10
396.638
20
8.946
11
397.434
21
6.714
0
LINE
8
XSect
62
30
10
396.638
20
8.946
11
363.316
21
32.85
0
LINE
8
XSect
62
30
10
396.638
20
8.946
11
380.65
21
26.732
0
LINE
8
XSect
62
30
10
396.638
20
8.946
11
383.306
21
15.49
0
LINE
8
Shots
62
30
10
354.468
20
11.978
11
375.166
21
10.754
0
CIRCLE
8
Shots
62
30
10
375.166
20
10.754
40
0.1
0
TEXT
8
Label
40
1
1
1.20
10
375.166
20
10.754
0
LINE
8
XSect
62
30
10
375.166
20
10.754
11
375.826
21
9.186
0
LINE
8
XSect
62
30
10
375.166
20
10.754
11
377.956
21
28.128
0
LINE
8
Shots
62
30
10
337.822
20
12.276
11
354.468
21
11.978
0
CIRCLE
8
Shots
62
30
10
354.468
20
11.978
40
0.1
0
TEXT
8
Label
40
1
1
1.19
10
354.468
20
11.978
0
LINE
8
XSect
62
30
10
354.468
20
11.978
11
354.676
21
16.024
0
LINE
8
XSect
62
30
10
354.468
20
11.978
11
356.864
21
9.578
0
LINE
8
Shots
62
30
10
312.778
20
13.996
11
337.822
21
12.276
0
CIRCLE
8
Shots
62
30
10
337.822
20
12.276
40
0.1
0
TEXT
8
Label
40
1
1
1.18
10
337.822
20
12.276
0
LINE
8
XSect
62
30
10
337.822
20
12.276
11
337.904
21
18.394
0
LINE
8
XSect
62
30
10
337.822
20
12.276
11
338.122
21
9.854
0
LINE
8
Shots
62
30
10
302.592
20
14.004
11
312.778
21
13.996
0
CIRCLE
8
Shots
62
30
10
312.778
20
13.996
40
0.1
0
TEXT
8
Label
40
1
1
1.17
10
312.778
20
13.996
0
LINE
8
XSect
62
30
10
312.778
20
13.996
11
313.784
21
21.728
0
LINE
8
XSect
62
30
10
312.778
20
13.996
11
310.754
21
22.048
0
LINE
8
XSect
62
30
10
312.778
20
13.996
11
313.346
21
12.17
0
LINE
8
Shots
62
30
10
269.512
20
13.666
11
302.592
21
14.004
0
CIRCLE
8
Shots
62
30
10
302.592
20
14.004
40
0.1
0
TEXT
8
Label
40
1
1
1.16
10
302.592
20
14.004
0
LINE
8
XSect
62
30
10
302.592
20
14.004
11
305.572
21
20.418
0
LINE
8
XSect
62
30
10
302.592
20
14.004
11
303.966
21
22.238
0
LINE
8
XSect
62
30
10
302.592
20
14.004
11
303.84
21
24.988
0
LINE
8
XSect
62
30
10
302.592
20
14.004
11
303.126
21
12.956
0
LINE
8
XSect
62
30
10
302.592
20
14.004
11
313.218
21
13.862
0
LINE
8
XSect
62
30
10
302.592
20
14.004
11
313.346
21
13.852
0
LINE
8
XSect
62
30
10
302.592
20
14.004
11
312.78
21
13.856
0
LINE
8
XSect
62
30
10
302.592
20
14.004
11
310.232
21
14.798
0
LINE
8
Shots
62
30
10
228.754
20
14.086
11
269.512
21
13.666
0
CIRCLE
8
Shots
62
30
10
269.512
20
13.666
40
0.1
0
TEXT
8
Label
40
1
1
1.15
10
269.512
20
13.666
0
LINE
8
XSect
62
30
10
269.512
20
13.666
11
301.808
21
13.298
0
LINE
8
XSect
62
30
10
269.512
20
13.666
11
301.836
21
13.22
0
LINE
8
XSect
62
30
10
269.512
20
13.666
11
282.118
21
17.2
0
LINE
8
XSect
62
30
10
269.512
20
13.666
11
269.624
21
32.064
0
LINE
8
XSect
62
30
10
269.512
20
13.666
11
269.264
21
31.16
0
LINE
8
XSect
62
30
10
269.512
20
13.666
11
259.682
21
26.148
0
LINE
8
XSect
62
30
10
269.512
20
13.666
11
267.75
21
21.132
0
LINE
8
Shots
62
30
10
193.614
20
14.014
11
228.754
21
14.086
0
CIRCLE
8
Shots
62
30
10
228.754
20
14.086
40
0.1
0
TEXT
8
Label
40
1
1
1.14
10
228.754
20
14.086
0
LINE
8
XSect
62
30
10
228.754
20
14.086
11
234.714
21
28.28
0
LINE
8
XSect
62
30
10
228.754
20
14.086
11
240.572
21
28.234
0
LINE
8
XSect
62
30
10
228.754
20
14.086
11
229.89
21
18.638
0
LINE
8
XSect
62
30
10
228.754
20
14.086
11
228.772
21
17.008
0
LINE
8
XSect
62
30
10
228.754
20
14.086
11
269.524
21
13.758
0
LINE
8
XSect
62
30
10
228.754
20
14.086
11
269.636
21
13.78
0
LINE
8
Shots
62
30
10
173.81
20
16.07
11
193.614
21
14.014
0
CIRCLE
8
Shots
62
30
10
193.614
20
14.014
40
0.1
0
TEXT
8
Label
40
1
1
1.13
10
193.614
20
14.014
0
LINE
8
XSect
62
30
10
193.614
20
14.014
11
195.114
21
25.176
0
LINE
8
XSect
62
30
10
193.614
20
14.014
11
194.53
21
33.546
0
LINE
8
XSect
62
30
10
193.614
20
14.014
11
195.166
21
22.358
0
LINE
8
XSect
62
30
10
193.614
20
14.014
11
193.988
21
28.468
0
LINE
8
XSect
62
30
10
193.614
20
14.014
11
193.372
21
11.57
0
LINE
8
XSect
62
30
10
193.614
20
14.014
11
230.134
21
14.564
0
LINE
8
XSect
62
30
10
193.614
20
14.014
11
228.946
21
14.522
0
LINE
8
XSect
62
30
10
193.614
20
14.014
11
227.844
21
14.612
0
LINE
8
XSect
62
30
10
193.614
20
14.014
11
228.982
21
14.492
0
LINE
8
Shots
62
30
10
145.692
20
15.116
11
173.81
21
16.07
0
CIRCLE
8
Shots
62
30
10
173.81
20
16.07
40
0.1
0
TEXT
8
Label
40
1
1
1.12
10
173.81
20
16.07
0
LINE
8
XSect
62
30
10
173.81
20
16.07
11
175.798
21
26.536
0
LINE
8
XSect
62
30
10
173.81
20
16.07
11
175.674
21
31.9
0
LINE
8
XSect
62
30
10
173.81
20
16.07
11
173.462
21
23.028
0
LINE
8
XSect
62
30
10
173.81
20
16.07
11
175.454
21
11.638
0
LINE
8
Shots
62
30
10
113.228
20
15.096
11
145.692
21
15.116
0
CIRCLE
8
Shots
62
30
10
145.692
20
15.116
40
0.1
0
TEXT
8
Label
40
1
1
1.11
10
145.692
20
15.116
0
LINE
8
XSect
62
30
10
145.692
20
15.116
11
145.86
21
19.344
0
LINE
8
XSect
62
30
10
145.692
20
15.116
11
146.968
21
25.168
0
LINE
8
XSect
62
30
10
145.692
20
15.116
11
146.536
21
22.218
0
LINE
8
XSect
62
30
10
145.692
20
15.116
11
150.396
21
30.24
0
LINE
8
XSect
62
30
10
145.692
20
15.116
11
141.742
21
30.174
0
LINE
8
XSect
62
30
10
145.692
20
15.116
11
145.646
21
12.552
0
LINE
8
XSect
62
30
10
145.692
20
15.116
11
173.372
21
15.922
0
LINE
8
XSect
62
30
10
145.692
20
15.116
11
173.548
21
15.922
0
LINE
8
XSect
62
30
10
145.692
20
15.116
11
173.358
21
15.9
0
LINE
8
XSect
62
30
10
145.692
20
15.116
11
173.072
21
15.918
0
LINE
8
XSect
62
30
10
145.692
20
15.116
11
154.63
21
14.572
0
LINE
8
XSect
62
30
10
145.692
20
15.116
11
173.314
21
15.978
0
LINE
8
XSect
62
30
10
145.692
20
15.116
11
173.114
21
15.922
0
LINE
8
XSect
62
30
10
145.692
20
15.116
11
173.31
21
15.826
0
LINE
8
XSect
62
30
10
145.692
20
15.116
11
173.34
21
16.06
0
LINE
8
XSect
62
30
10
145.692
20
15.116
11
173.062
21
16.052
0
LINE
8
XSect
62
30
10
145.692
20
15.116
11
173.422
21
16.13
0
LINE
8
XSect
62
30
10
145.692
20
15.116
11
173.428
21
16.048
0
LINE
8
XSect
62
30
10
145.692
20
15.116
11
173.778
21
16.076
0
LINE
8
XSect
62
30
10
145.692
20
15.116
11
173.768
21
16.086
0
LINE
8
Shots
62
30
10
98.488
20
13.368
11
113.228
21
15.096
0
CIRCLE
8
Shots
62
30
10
113.228
20
15.096
40
0.1
0
TEXT
8
Label
40
1
1
1.10
10
113.228
20
15.096
0
LINE
8
XSect
62
30
10
113.228
20
15.096
11
113.21
21
22.338
0
LINE
8
XSect
62
30
10
113.228
20
15.096
11
112.176
21
26.996
0
LINE
8
XSect
62
30
10
113.228
20
15.096
11
114.988
21
28.18
0
LINE
8
XSect
62
30
10
113.228
20
15.096
11
111.244
21
20.628
0
LINE
8
Shots
62
30
10
83.068
20
10.886
11
98.488
21
13.368
0
CIRCLE
8
Shots
62
30
10
98.488
20
13.368
40
0.1
0
TEXT
8
Label
40
1
1
1.9
10
98.488
20
13.368
0
LINE
8
XSect
62
30
10
98.488
20
13.368
11
99.016
21
18.996
0
LINE
8
XSect
62
30
10
98.488
20
13.368
11
101.508
21
23.094
0
LINE
8
XSect
62
30
10
98.488
20
13.368
11
99.546
21
20.868
0
LINE
8
XSect
62
30
10
98.488
20
13.368
11
113.298
21
15.094
0
LINE
8
Shots
62
30
10
60.824
20
0.066
11
83.068
21
10.886
0
CIRCLE
8
Shots
62
30
10
83.068
20
10.886
40
0.1
0
TEXT
8
Label
40
1
1
1.8
10
83.068
20
10.886
0
LINE
8
XSect
62
30
10
83.068
20
10.886
11
83.438
21
12.17
0
LINE
8
XSect
62
30
10
83.068
20
10.886
11
85.108
21
15.508
0
LINE
8
XSect
62
30
10
83.068
20
10.886
11
86.45
21
17.338
0
LINE
8
XSect
62
30
10
83.068
20
10.886
11
84.558
21
7.818
0
LINE
8
XSect
62
30
10
83.068
20
10.886
11
98.396
21
13.354
0
LINE
8
Shots
62
30
10
47.6
20
-4.628
11
60.824
21
0.066
0
CIRCLE
8
Shots
62
30
10
60.824
20
0.066
40
0.1
0
TEXT
8
Label
40
1
1
1.7
10
60.824
20
0.066
0
LINE
8
XSect
62
30
10
60.824
20
0.066
11
83.158
21
11.042
0
LINE
8
Shots
62
30
10
43.102
20
-4.464
11
62.212
21
0.354
0
CIRCLE
8
Shots
62
30
10
62.212
20
0.354
40
0.1
0
TEXT
8
Label
40
1
1
1.6
10
62.212
20
0.354
0
LINE
8
Shots
62
30
10
36.204
20
-4.03
11
63.35
21
-4.226
0
CIRCLE
8
Shots
62
30
10
63.35
20
-4.226
40
0.1
0
TEXT
8
Label
40
1
1
1.5
10
63.35
20
-4.226
0
LINE
8
Shots
62
30
10
24.748
20
-1.644
11
46.678
21
-1.334
0
CIRCLE
8
Shots
62
30
10
46.678
20
-1.334
40
0.1
0
TEXT
8
Label
40
1
1
1.4
10
46.678
20
-1.334
0
LINE
8
Shots
62
30
10
8.554
20
-1.064
11
18.806
21
-1.21
0
CIRCLE
8
Shots
62
30
10
18.806
20
-1.21
40
0.1
0
TEXT
8
Label
40
1
1
1.3
10
18.806
20
-1.21
0
LINE
8
Shots
62
30
10
2.308
20
-2.14
11
21.642
21
-2.886
0
CIRCLE
8
Shots
62
30
10
21.642
20
-2.886
40
0.1
0
TEXT
8
Label
40
1
1
1.2
10
21.642
20
-2.886
0
LINE
8
Shots
62
30
10
0
20
0
11
11.798
21
-0.618
0
CIRCLE
8
Shots
62
30
10
11.798
20
-0.618
40
0.1
0
TEXT
8
Label
40
1
1
1.1
10
11.798
20
-0.618
0
LINE
8
Shots
62
30
10
43.102
20
-4.464
11
47.6
21
-4.628
0
CIRCLE
8
Shots
62
30
10
47.6
20
-4.628
40
0.1
0
TEXT
8
Label
40
1
1
1.6
10
47.6
20
-4.628
0
LINE
8
XSect
62
30
10
47.6
20
-4.628
11
31.958
21
-7.16
0
LINE
8
XSect
62
30
10
47.6
20
-4.628
11
31.754
21
-7.66
0
LINE
8
XSect
62
30
10
47.6
20
-4.628
11
40.56
21
-4.82
0
LINE
8
XSect
62
30
10
47.6
20
-4.628
11
41.158
21
-4.32
0
LINE
8
XSect
62
30
10
47.6
20
-4.628
11
40.214
21
-4.076
0
LINE
8
XSect
62
30
10
47.6
20
-4.628
11
45.864
21
1.726
0
LINE
8
XSect
62
30
10
47.6
20
-4.628
11
43.548
21
2.11
0
LINE
8
XSect
62
30
10
47.6
20
-4.628
11
37.84
21
1.496
0
LINE
8
XSect
62
30
10
47.6
20
-4.628
11
49.688
21
5.828
0
LINE
8
XSect
62
30
10
47.6
20
-4.628
11
49.082
21
21.62
0
LINE
8
XSect
62
30
10
47.6
20
-4.628
11
45.648
21
22.086
0
LINE
8
XSect
62
30
10
47.6
20
-4.628
11
41.258
21
4.482
0
LINE
8
XSect
62
30
10
47.6
20
-4.628
11
39.834
21
-2.384
0
LINE
8
XSect
62
30
10
47.6
20
-4.628
11
52.64
21
-12.01
0
LINE
8
XSect
62
30
10
47.6
20
-4.628
11
61.606
21
3.094
0
LINE
8
XSect
62
30
10
47.6
20
-4.628
11
63.154
21
5.378
0
LINE
8
XSect
62
30
10
47.6
20
-4.628
11
62.532
21
4.556
0
LINE
8
XSect
62
30
10
47.6
20
-4.628
11
64.26
21
-3.064
0
LINE
8
XSect
62
30
10
47.6
20
-4.628
11
83.576
21
24.834
0
LINE
8
XSect
62
30
10
47.6
20
-4.628
11
34.74
21
-2.176
0
LINE
8
XSect
62
30
10
47.6
20
-4.628
11
89.902
21
27.422
0
LINE
8
XSect
62
30
10
47.6
20
-4.628
11
68.038
21
2.386
0
LINE
8
XSect
62
30
10
47.6
20
-4.628
11
65.158
21
23.004
0
LINE
8
XSect
62
30
10
47.6
20
-4.628
11
47.576
21
-0.898
0
LINE
8
XSect
62
30
10
47.6
20
-4.628
11
47.498
21
-0.896
0
LINE
8
XSect
62
30
10
47.6
20
-4.628
11
47.764
21
-0.904
0
LINE
8
XSect
62
30
10
47.6
20
-4.628
11
47.672
21
-0.904
0
LINE
8
Shots
62
30
10
36.204
20
-4.03
11
46.978
21
-4.352
0
CIRCLE
8
Shots
62
30
10
46.978
20
-4.352
40
0.1
0
TEXT
8
Label
40
1
1
1.5
10
46.978
20
-4.352
0
LINE
8
Shots
62
30
10
2.308
20
-2.14
11
17.264
21
0.18
0
CIRCLE
8
Shots
62
30
10
17.264
20
0.18
40
0.1
0
TEXT
8
Label
40
1
1
1.4
10
17.264
20
0.18
0
LINE
8
Shots
62
30
10
8.554
20
-1.064
11
22.74
21
0.466
0
CIRCLE
8
Shots
62
30
10
22.74
20
0.466
40
0.1
0
TEXT
8
Label
40
1
1
1.3
10
22.74
20
0.466
0
LINE
8
Shots
62
30
10
2.308
20
-2.14
11
15.392
21
0.86
0
CIRCLE
8
Shots
62
30
10
15.392
20
0.86
40
0.1
0
TEXT
8
Label
40
1
1
1.2
10
15.392
20
0.86
0
LINE
8
Shots
62
30
10
0
20
0
11
0.058
21
1.148
0
CIRCLE
8
Shots
62
30
10
0.058
20
1.148
40
0.1
0
TEXT
8
Label
40
1
1
1.1
10
0.058
20
1.148
0
LINE
8
Shots
62
30
10
36.204
20
-4.03
11
43.102
21
-4.464
0
CIRCLE
8
Shots
62
30
10
43.102
20
-4.464
40
0.1
0
TEXT
8
Label
40
1
1
1.5
10
43.102
20
-4.464
0
LINE
8
XSect
62
30
10
43.102
20
-4.464
11
47.25
21
-4.634
0
LINE
8
XSect
62
30
10
43.102
20
-4.464
11
47.22
21
-4.63
0
LINE
8
XSect
62
30
10
43.102
20
-4.464
11
50.686
21
-4.74
0
LINE
8
XSect
62
30
10
43.102
20
-4.464
11
66.87
21
-4.644
0
LINE
8
XSect
62
30
10
43.102
20
-4.464
11
66.794
21
-4.68
0
LINE
8
XSect
62
30
10
43.102
20
-4.464
11
37.4
21
14.028
0
LINE
8
XSect
62
30
10
43.102
20
-4.464
11
37.328
21
19.242
0
LINE
8
XSect
62
30
10
43.102
20
-4.464
11
37.012
21
22.108
0
LINE
8
XSect
62
30
10
43.102
20
-4.464
11
40.244
21
7.544
0
LINE
8
XSect
62
30
10
43.102
20
-4.464
11
56.516
21
15.646
0
LINE
8
XSect
62
30
10
43.102
20
-4.464
11
45.328
21
26.106
0
LINE
8
XSect
62
30
10
43.102
20
-4.464
11
40.626
21
11.862
0
LINE
8
XSect
62
30
10
43.102
20
-4.464
11
45.074
21
-1.232
0
LINE
8
XSect
62
30
10
43.102
20
-4.464
11
49.842
21
-5.604
0
LINE
8
Shots
62
30
10
24.748
20
-1.644
11
36.204
21
-4.03
0
CIRCLE
8
Shots
62
30
10
36.204
20
-4.03
40
0.1
0
TEXT
8
Label
40
1
1
1.4
10
36.204
20
-4.03
0
LINE
8
XSect
62
30
10
36.204
20
-4.03
11
41.96
21
-4.668
0
LINE
8
XSect
62
30
10
36.204
20
-4.03
11
44.186
21
-4.488
0
LINE
8
XSect
62
30
10
36.204
20
-4.03
11
42.95
21
-3.116
0
LINE
8
XSect
62
30
10
36.204
20
-4.03
11
42.342
21
-2.798
0
LINE
8
XSect
62
30
10
36.204
20
-4.03
11
40.848
21
-0.184
0
LINE
8
XSect
62
30
10
36.204
20
-4.03
11
40.768
21
-0.284
0
LINE
8
XSect
62
30
10
36.204
20
-4.03
11
31.348
21
-3.636
0
LINE
8
XSect
62
30
10
36.204
20
-4.03
11
34.63
21
-3.956
0
LINE
8
XSect
62
30
10
36.204
20
-4.03
11
31.162
21
-4.33
0
LINE
8
XSect
62
30
10
36.204
20
-4.03
11
37.282
21
3.31
0
LINE
8
XSect
62
30
10
36.204
20
-4.03
11
34.738
21
1.98
0
LINE
8
XSect
62
30
10
36.204
20
-4.03
11
29.908
21
1.062
0
LINE
8
XSect
62
30
10
36.204
20
-4.03
11
37.754
21
-0.134
0
LINE
8
XSect
62
30
10
36.204
20
-4.03
11
37.966
21
11.442
0
LINE
8
XSect
62
30
10
36.204
20
-4.03
11
33.284
21
31.746
0
LINE
8
XSect
62
30
10
36.204
20
-4.03
11
33.552
21
10.58
0
LINE
8
XSect
62
30
10
36.204
20
-4.03
11
26.578
21
23.452
0
LINE
8
XSect
62
30
10
36.204
20
-4.03
11
38.244
21
34.368
0
LINE
8
XSect
62
30
10
36.204
20
-4.03
11
46.464
21
31.4
0
LINE
8
XSect
62
30
10
36.204
20
-4.03
11
47.024
21
46.296
0
LINE
8
XSect
62
30
10
36.204
20
-4.03
11
32.55
21
0.154
0
LINE
8
XSect
62
30
10
36.204
20
-4.03
11
31.136
21
10.678
0
LINE
8
XSect
62
30
10
36.204
20
-4.03
11
36.204
21
-0.19
0
LINE
8
Shots
62
30
10
8.554
20
-1.064
11
24.748
21
-1.644
0
CIRCLE
8
Shots
62
30
10
24.748
20
-1.644
40
0.1
0
TEXT
8
Label
40
1
1
1.3
10
24.748
20
-1.644
0
LINE
8
XSect
62
30
10
24.748
20
-1.644
11
24.386
21
-4.308
0
LINE
8
XSect
62
30
10
24.748
20
-1.644
11
26.036
21
-0.418
0
LINE
8
XSect
62
30
10
24.748
20
-1.644
11
29.814
21
0.27
0
LINE
8
XSect
62
30
10
24.748
20
-1.644
11
26.408
21
4.162
0
LINE
8
XSect
62
30
10
24.748
20
-1.644
11
28.902
21
-1.196
0
LINE
8
XSect
62
30
10
24.748
20
-1.644
11
24.484
21
-5.608
0
LINE
8
XSect
62
30
10
24.748
20
-1.644
11
21.4
21
-7.166
0
LINE
8
XSect
62
30
10
24.748
20
-1.644
11
18.728
21
-6.78
0
LINE
8
XSect
62
30
10
24.748
20
-1.644
11
29.224
21
0.966
0
LINE
8
XSect
62
30
10
24.748
20
-1.644
11
28.188
21
8.438
0
LINE
8
XSect
62
30
10
24.748
20
-1.644
11
26.524
21
36.34
0
LINE
8
XSect
62
30
10
24.748
20
-1.644
11
23.916
21
9.196
0
LINE
8
XSect
62
30
10
24.748
20
-1.644
11
26.306
21
36.114
0
LINE
8
XSect
62
30
10
24.748
20
-1.644
11
25.958
21
-1.644
0
LINE
8
XSect
62
30
10
24.748
20
-1.644
11
24.748
21
-0.424
0
LINE
8
XSect
62
30
10
24.748
20
-1.644
11
24.748
21
-4.304
0
LINE
8
XSect
62
30
10
24.748
20
-1.644
11
24.702
21
-3.728
0
LINE
8
XSect
62
30
10
24.748
20
-1.644
11
26.924
21
1.326
0
LINE
8
XSect
62
30
10
24.748
20
-1.644
11
27.056
21
1.224
0
LINE
8
XSect
62
30
10
24.748
20
-1.644
11
26.99
21
1.27
0
LINE
8
XSect
62
30
10
24.748
20
-1.644
11
27.04
21
1.288
0
LINE
8
Shots
62
30
10
2.308
20
-2.14
11
8.554
21
-1.064
0
CIRCLE
8
Shots
62
30
10
8.554
20
-1.064
40
0.1
0
TEXT
8
Label
40
1
1
1.2
10
8.554
20
-1.064
0
LINE
8
XSect
62
30
10
8.554
20
-1.064
11
10.746
21
-1.226
0
LINE
8
XSect
62
30
10
8.554
20
-1.064
11
12.32
21
-3.62
0
LINE
8
XSect
62
30
10
8.554
20
-1.064
11
7.932
21
1.5
0
LINE
8
XSect
62
30
10
8.554
20
-1.064
11
14.782
21
0.024
0
LINE
8
XSect
62
30
10
8.554
20
-1.064
11
9.846
21
8.268
0
LINE
8
XSect
62
30
10
8.554
20
-1.064
11
10.642
21
6.658
0
LINE
8
XSect
62
30
10
8.554
20
-1.064
11
9.438
21
6.118
0
LINE
8
XSect
62
30
10
8.554
20
-1.064
11
13.722
21
4.176
0
LINE
8
XSect
62
30
10
8.554
20
-1.064
11
13.35
21
-1.472
0
LINE
8
XSect
62
30
10
8.554
20
-1.064
11
8.222
21
1.008
0
LINE
8
XSect
62
30
10
8.554
20
-1.064
11
10.886
21
-1.064
0
LINE
8
XSect
62
30
10
8.554
20
-1.064
11
8.554
21
1.496
0
LINE
8
XSect
62
30
10
8.554
20
-1.064
11
8.554
21
-3.624
0
LINE
8
Shots
62
30
10
0
20
0
11
2.308
21
-2.14
0
CIRCLE
8
Shots
62
30
10
2.308
20
-2.14
40
0.1
0
TEXT
8
Label
40
1
1
1.1
10
2.308
20
-2.14
0
LINE
8
XSect
62
30
10
2.308
20
-2.14
11
1.716
21
-0.258
0
LINE
8
XSect
62
30
10
2.308
20
-2.14
11
-4.46
21
2.868
0
LINE
8
XSect
62
30
10
2.308
20
-2.14
11
-6.038
21
3.018
0
LINE
8
XSect
62
30
10
2.308
20
-2.14
11
-4.334
21
1.704
0
LINE
8
XSect
62
30
10
2.308
20
-2.14
11
-0.71
21
12.222
0
LINE
8
XSect
62
30
10
2.308
20
-2.14
11
0.402
21
5.064
0
LINE
8
XSect
62
30
10
2.308
20
-2.14
11
-1.112
21
11.814
0
LINE
8
XSect
62
30
10
2.308
20
-2.14
11
8.598
21
-0.46
0
LINE
8
XSect
62
30
10
2.308
20
-2.14
11
14.548
21
1.644
0
LINE
8
XSect
62
30
10
2.308
20
-2.14
11
18.91
21
3.38
0
LINE
8
XSect
62
30
10
2.308
20
-2.14
11
9.99
21
6.836
0
LINE
8
XSect
62
30
10
2.308
20
-2.14
11
15.916
21
8.188
0
LINE
8
XSect
62
30
10
2.308
20
-2.14
11
18.882
21
2.186
0
LINE
8
XSect
62
30
10
2.308
20
-2.14
11
10.654
21
0.028
0
LINE
8
XSect
62
30
10
2.308
20
-2.14
11
10.578
21
0.042
0
LINE
8
XSect
62
30
10
2.308
20
-2.14
11
14.972
21
1.024
0
LINE
8
XSect
62
30
10
2.308
20
-2.14
11
14.706
21
0.954
0
LINE
8
XSect
62
30
10
2.308
20
-2.14
11
14.678
21
0.948
0
LINE
8
XSect
62
30
10
2.308
20
-2.14
11
14.632
21
0.888
0
LINE
8
XSect
62
30
10
2.308
20
-2.14
11
-0.586
21
30.51
0
LINE
8
XSect
62
30
10
2.308
20
-2.14
11
-4.402
21
46.364
0
LINE
8
XSect
62
30
10
2.308
20
-2.14
11
5.354
21
29.032
0
LINE
8
XSect
62
30
10
2.308
20
-2.14
11
11.49
21
29.92
0
LINE
8
XSect
62
30
10
2.308
20
-2.14
11
-6.904
21
-3.002
0
LINE
8
XSect
62
30
10
2.308
20
-2.14
11
-10.066
21
-3.074
0
LINE
8
XSect
62
30
10
2.308
20
-2.14
11
-0.36
21
-3.196
0
LINE
8
XSect
62
30
10
2.308
20
-2.14
11
20.15
21
-3.098
0
LINE
8
XSect
62
30
10
2.308
20
-2.14
11
20.058
21
-2.962
0
LINE
8
XSect
62
30
10
2.308
20
-2.14
11
20.096
21
-3.016
0
LINE
8
XSect
62
30
10
2.308
20
-2.14
11
2.308
21
-0.26
0
LINE
8
XSect
62
30
10
2.308
20
-2.14
11
11.064
21
-2.934
0
LINE
8
XSect
62
30
10
2.308
20
-2.14
11
2.418
21
0.898
0
LINE
8
XSect
62
30
10
0
20
0
11
3.026
21
1.442
0
LINE
8
XSect
62
30
10
0
20
0
11
0.87
21
1.308
0
LINE
8
XSect
62
30
10
0
20
0
11
1.596
21
-2.422
0
LINE
8
XSect
62
30
10
0
20
0
11
1.664
21
-2.358
0
LINE
8
XSect
62
30
10
0
20
0
11
1.706
21
-2.334
0
LINE
8
XSect
62
30
10
0
20
0
11
1.814
21
-2.296
0
LINE
8
XSect
62
30
10
0
20
0
11
17.044
21
-1.39
0
LINE
8
XSect
62
30
10
0
20
0
11
0.62
21
1.5
0
LINE
8
XSect
62
30
10
0
20
0
11
0.57
21
-1.98
0
LINE
8
XSect
62
30
10
0
20
0
11
3.9
21
-0.406
0
LINE
8
XSect
62
30
10
0
20
0
11
17.044
21
-1.39
0
LINE
8
XSect
62
30
10
0
20
0
11
0.62
21
1.5
0
LINE
8
XSect
62
30
10
0
20
0
11
0.57
21
-1.98
0
LINE
8
Shots
62
1
10
713.318
20
24.28
11
727.83
21
16.82
0
CIRCLE
8
Shots
62
1
10
727.83
20
16.82
40
0.1
0
TEXT
8
Label
40
1
1
1.32
10
727.83
20
16.82
0
LINE
8
Shots
62
1
10
702.524
20
16.986
11
713.318
21
24.28
0
CIRCLE
8
Shots
62
1
10
713.318
20
24.28
40
0.1
0
TEXT
8
Label
40
1
1
1.31
10
713.318
20
24.28
0
LINE
8
XSect
62
1
10
713.318
20
24.28
11
727.95
21
16.688
0
LINE
8
Shots
62
1
10
664.506
20
21.812
11
702.524
21
16.986
0
CIRCLE
8
Shots
62
1
10
702.524
20
16.986
40
0.1
0
TEXT
8
Label
40
1
1
1.30
10
702.524
20
16.986
0
LINE
8
XSect
62
1
6
DASH
10
702.524
20
16.986
11
702.182
21
16.434
0
LINE
8
XSect
62
1
6
DASH
10
702.524
20
16.986
11
703.738
21
17.596
0
LINE
8
XSect
62
1
10
702.524
20
16.986
11
705.426
21
24.26
0
LINE
8
XSect
62
1
10
702.524
20
16.986
11
703.112
21
15.266
0
LINE
8
XSect
62
1
10
702.524
20
16.986
11
712.018
21
16.97
0
LINE
8
Shots
62
1
10
630
20
22.99
11
664.506
21
21.812
0
CIRCLE
8
Shots
62
1
10
664.506
20
21.812
40
0.1
0
TEXT
8
Label
40
1
1
1.29
10
664.506
20
21.812
0
LINE
8
XSect
62
1
6
DASH
10
664.506
20
21.812
11
664.264
21
21.81
0
LINE
8
XSect
62
1
10
664.506
20
21.812
11
667.484
21
43.044
0
LINE
8
XSect
62
1
6
DASH
10
664.506
20
21.812
11
666.67
21
21.376
0
LINE
8
XSect
62
1
10
664.506
20
21.812
11
665.346
21
19.732
0
LINE
8
Shots
62
1
10
602.414
20
29.442
11
630
21
22.99
0
CIRCLE
8
Shots
62
1
10
630
20
22.99
40
0.1
0
TEXT
8
Label
40
1
1
1.28
10
630
20
22.99
0
LINE
8
XSect
62
1
10
630
20
22.99
11
609.898
21
22.25
0
LINE
8
XSect
62
1
10
630
20
22.99
11
611.576
21
19.768
0
LINE
8
XSect
62
1
6
DASH
10
630
20
22.99
11
622.388
21
20.588
0
LINE
8
XSect
62
1
6
DASH
10
630
20
22.99
11
642.378
21
20.488
0
LINE
8
XSect
62
1
10
630
20
22.99
11
656.322
21
20.278
0
LINE
8
XSect
62
1
10
630
20
22.99
11
642.854
21
21.208
0
LINE
8
XSect
62
1
10
630
20
22.99
11
633.678
21
45.268
0
LINE
8
XSect
62
1
10
630
20
22.99
11
623.754
21
32.938
0
LINE
8
XSect
62
1
10
630
20
22.99
11
664.638
21
21.91
0
LINE
8
XSect
62
1
10
630
20
22.99
11
616.176
21
46.09
0
LINE
8
Shots
62
1
10
582.472
20
32.22
11
602.414
21
29.442
0
CIRCLE
8
Shots
62
1
10
602.414
20
29.442
40
0.1
0
TEXT
8
Label
40
1
1
1.27
10
602.414
20
29.442
0
LINE
8
XSect
62
1
6
DASH
10
602.414
20
29.442
11
601.916
21
30.614
0
LINE
8
XSect
62
1
10
602.414
20
29.442
11
602.412
21
31.144
0
LINE
8
XSect
62
1
6
DASH
10
602.414
20
29.442
11
600.09
21
30.142
0
LINE
8
XSect
62
1
10
602.414
20
29.442
11
630.228
21
23.002
0
LINE
8
Shots
62
1
10
579.466
20
30.512
11
582.472
21
32.22
0
CIRCLE
8
Shots
62
1
10
582.472
20
32.22
40
0.1
0
TEXT
8
Label
40
1
1
1.26
10
582.472
20
32.22
0
LINE
8
XSect
62
1
6
DASH
10
582.472
20
32.22
11
586.978
21
32.046
0
LINE
8
XSect
62
1
6
DASH
10
582.472
20
32.22
11
581.116
21
32.13
0
LINE
8
XSect
62
1
10
582.472
20
32.22
11
583.156
21
29.908
0
LINE
8
XSect
62
1
10
582.472
20
32.22
11
583.318
21
35.84
0
LINE
8
Shots
62
1
10
552.578
20
19.566
11
579.466
21
30.512
0
CIRCLE
8
Shots
62
1
10
579.466
20
30.512
40
0.1
0
TEXT
8
Label
40
1
1
1.25
10
579.466
20
30.512
0
LINE
8
XSect
62
1
6
DASH
10
579.466
20
30.512
11
581.958
21
19.002
0
LINE
8
XSect
62
1
10
579.466
20
30.512
11
540.126
21
33.512
0
LINE
8
XSect
62
1
10
579.466
20
30.512
11
584.238
21
31.058
0
LINE
8
XSect
62
1
10
579.466
20
30.512
11
591.35
21
30.766
0
LINE
8
XSect
62
1
10
579.466
20
30.512
11
577.562
21
37.466
0
LINE
8
XSect
62
1
10
579.466
20
30.512
11
582.376
21
31.464
0
LINE
8
XSect
62
1
10
579.466
20
30.512
11
580.758
21
29.558
0
LINE
8
XSect
62
1
10
579.466
20
30.512
11
544.996
21
96.246
0
LINE
8
XSect
62
1
10
579.466
20
30.512
11
542.046
21
97.15
0
LINE
8
Shots
62
1
10
526.548
20
17.7
11
552.578
21
19.566
0
CIRCLE
8
Shots
62
1
10
552.578
20
19.566
40
0.1
0
TEXT
8
Label
40
1
1
1.24
10
552.578
20
19.566
0
LINE
8
XSect
62
1
6
DASH
10
552.578
20
19.566
11
551.764
21
21.736
0
LINE
8
XSect
62
1
10
552.578
20
19.566
11
552.668
21
30.136
0
LINE
8
XSect
62
1
6
DASH
10
552.578
20
19.566
11
553.154
21
20.388
0
LINE
8
XSect
62
1
10
552.578
20
19.566
11
551.858
21
16.028
0
LINE
8
XSect
62
1
10
552.578
20
19.566
11
556.618
21
42.312
0
LINE
8
XSect
62
1
10
552.578
20
19.566
11
566.018
21
65.042
0
LINE
8
XSect
62
1
10
552.578
20
19.566
11
566.69
21
25.414
0
LINE
8
XSect
62
1
10
552.578
20
19.566
11
591.786
21
36.446
0
LINE
8
XSect
62
1
10
552.578
20
19.566
11
568.324
21
19.798
0
LINE
8
XSect
62
1
10
552.578
20
19.566
11
549.678
21
37.538
0
LINE
8
XSect
62
1
10
552.578
20
19.566
11
550.872
21
38.098
0
LINE
8
Shots
62
1
10
498.286
20
15.664
11
526.548
21
17.7
0
CIRCLE
8
Shots
62
1
10
526.548
20
17.7
40
0.1
0
TEXT
8
Label
40
1
1
1.23
10
526.548
20
17.7
0
LINE
8
XSect
62
1
6
DASH
10
526.548
20
17.7
11
528.564
21
19.108
0
LINE
8
XSect
62
1
10
526.548
20
17.7
11
525.788
21
35.222
0
LINE
8
XSect
62
1
6
DASH
10
526.548
20
17.7
11
525.624
21
21.516
0
LINE
8
XSect
62
1
10
526.548
20
17.7
11
526.256
21
15.988
0
LINE
8
Shots
62
1
10
458.608
20
16.996
11
498.286
21
15.664
0
CIRCLE
8
Shots
62
1
10
498.286
20
15.664
40
0.1
0
TEXT
8
Label
40
1
1
1.22
10
498.286
20
15.664
0
LINE
8
XSect
62
1
6
DASH
10
498.286
20
15.664
11
500.032
21
20.17
0
LINE
8
XSect
62
1
10
498.286
20
15.664
11
499.538
21
33.936
0
LINE
8
XSect
62
1
10
498.286
20
15.664
11
498.532
21
21.124
0
LINE
8
XSect
62
1
6
DASH
10
498.286
20
15.664
11
500.556
21
16.222
0
LINE
8
XSect
62
1
10
498.286
20
15.664
11
498.42
21
14.454
0
LINE
8
Shots
62
1
10
437.136
20
18.804
11
458.608
21
16.996
0
CIRCLE
8
Shots
62
1
10
458.608
20
16.996
40
0.1
0
TEXT
8
Label
40
1
1
1.21
10
458.608
20
16.996
0
LINE
8
XSect
62
1
6
DASH
10
458.608
20
16.996
11
458.608
21
19.262
0
LINE
8
XSect
62
1
10
458.608
20
16.996
11
458.154
21
29.916
0
LINE
8
XSect
62
1
10
458.608
20
16.996
11
459.968
21
37.25
0
LINE
8
XSect
62
1
6
DASH
10
458.608
20
16.996
11
459.854
21
18.46
0
LINE
8
XSect
62
1
10
458.608
20
16.996
11
459.404
21
14.764
0
LINE
8
XSect
62
1
10
458.608
20
16.996
11
425.286
21
40.9
0
LINE
8
XSect
62
1
10
458.608
20
16.996
11
442.62
21
34.782
0
LINE
8
XSect
62
1
10
458.608
20
16.996
11
445.276
21
23.54
0
LINE
8
Shots
62
1
10
416.438
20
20.028
11
437.136
21
18.804
0
CIRCLE
8
Shots
62
1
10
437.136
20
18.804
40
0.1
0
TEXT
8
Label
40
1
1
1.20
10
437.136
20
18.804
0
LINE
8
XSect
62
1
10
437.136
20
18.804
11
437.796
21
17.236
0
LINE
8
XSect
62
1
6
DASH
10
437.136
20
18.804
11
437.272
21
24.26
0
LINE
8
XSect
62
1
10
437.136
20
18.804
11
439.926
21
36.178
0
LINE
8
XSect
62
1
6
DASH
10
437.136
20
18.804
11
437.622
21
23.028
0
LINE
8
Shots
62
1
10
399.792
20
20.326
11
416.438
21
20.028
0
CIRCLE
8
Shots
62
1
10
416.438
20
20.028
40
0.1
0
TEXT
8
Label
40
1
1
1.19
10
416.438
20
20.028
0
LINE
8
XSect
62
1
6
DASH
10
416.438
20
20.028
11
417.898
21
21.528
0
LINE
8
XSect
62
1
10
416.438
20
20.028
11
416.646
21
24.074
0
LINE
8
XSect
62
1
6
DASH
10
416.438
20
20.028
11
415.63
21
21.022
0
LINE
8
XSect
62
1
10
416.438
20
20.028
11
418.834
21
17.628
0
LINE
8
Shots
62
1
10
374.748
20
22.046
11
399.792
21
20.326
0
CIRCLE
8
Shots
62
1
10
399.792
20
20.326
40
0.1
0
TEXT
8
Label
40
1
1
1.18
10
399.792
20
20.326
0
LINE
8
XSect
62
1
6
DASH
10
399.792
20
20.326
11
399.968
21
18.254
0
LINE
8
XSect
62
1
6
DASH
10
399.792
20
20.326
11
399.924
21
20.166
0
LINE
8
XSect
62
1
6
DASH
10
399.792
20
20.326
11
400.114
21
24.29
0
LINE
8
XSect
62
1
10
399.792
20
20.326
11
399.874
21
26.444
0
LINE
8
XSect
62
1
6
DASH
10
399.792
20
20.326
11
401.94
21
21.19
0
LINE
8
XSect
62
1
10
399.792
20
20.326
11
400.092
21
17.904
0
LINE
8
Shots
62
1
10
364.562
20
22.054
11
374.748
21
22.046
0
CIRCLE
8
Shots
62
1
10
374.748
20
22.046
40
0.1
0
TEXT
8
Label
40
1
1
1.17
10
374.748
20
22.046
0
LINE
8
XSect
62
1
6
DASH
10
374.748
20
22.046
11
378.824
21
32.882
0
LINE
8
XSect
62
1
6
DASH
10
374.748
20
22.046
11
376.812
21
24.118
0
LINE
8
XSect
62
1
10
374.748
20
22.046
11
375.754
21
29.778
0
LINE
8
XSect
62
1
6
DASH
10
374.748
20
22.046
11
374.642
21
26.358
0
LINE
8
XSect
62
1
6
DASH
10
374.748
20
22.046
11
381.174
21
28.18
0
LINE
8
XSect
62
1
10
374.748
20
22.046
11
372.724
21
30.098
0
LINE
8
XSect
62
1
6
DASH
10
374.748
20
22.046
11
366.804
21
35.41
0
LINE
8
XSect
62
1
6
DASH
10
374.748
20
22.046
11
375.482
21
23.778
0
LINE
8
XSect
62
1
6
DASH
10
374.748
20
22.046
11
368.538
21
24.164
0
LINE
8
XSect
62
1
10
374.748
20
22.046
11
375.316
21
20.22
0
LINE
8
XSect
62
1
6
DASH
10
374.748
20
22.046
11
378.01
21
21.934
0
LINE
8
Shots
62
1
10
331.482
20
21.716
11
364.562
21
22.054
0
CIRCLE
8
Shots
62
1
10
364.562
20
22.054
40
0.1
0
TEXT
8
Label
40
1
1
1.16
10
364.562
20
22.054
0
LINE
8
XSect
62
1
6
DASH
10
364.562
20
22.054
11
366.618
21
22.108
0
LINE
8
XSect
62
1
6
DASH
10
364.562
20
22.054
11
365.476
21
19.83
0
LINE
8
XSect
62
1
10
364.562
20
22.054
11
367.542
21
28.468
0
LINE
8
XSect
62
1
10
364.562
20
22.054
11
365.936
21
30.288
0
LINE
8
XSect
62
1
10
364.562
20
22.054
11
365.81
21
33.038
0
LINE
8
XSect
62
1
6
DASH
10
364.562
20
22.054
11
364.084
21
32.808
0
LINE
8
XSect
62
1
6
DASH
10
364.562
20
22.054
11
364.462
21
34.894
0
LINE
8
XSect
62
1
6
DASH
10
364.562
20
22.054
11
364.334
21
21.96
0
LINE
8
XSect
62
1
6
DASH
10
364.562
20
22.054
11
364.504
21
20.978
0
LINE
8
XSect
62
1
10
364.562
20
22.054
11
365.096
21
21.006
0
LINE
8
XSect
62
1
10
364.562
20
22.054
11
375.188
21
21.912
0
LINE
8
XSect
62
1
10
364.562
20
22.054
11
375.316
21
21.902
0
LINE
8
XSect
62
1
10
364.562
20
22.054
11
374.75
21
21.906
0
LINE
8
XSect
62
1
10
364.562
20
22.054
11
372.202
21
22.848
0
LINE
8
XSect
62
1
6
DASH
10
364.562
20
22.054
11
368.296
21
22.562
0
LINE
8
Shots
62
1
10
290.724
20
22.136
11
331.482
21
21.716
0
CIRCLE
8
Shots
62
1
10
331.482
20
21.716
40
0.1
0
TEXT
8
Label
40
1
1
1.15
10
331.482
20
21.716
0
LINE
8
XSect
62
1
10
331.482
20
21.716
11
363.778
21
21.348
0
LINE
8
XSect
62
1
10
331.482
20
21.716
11
363.806
21
21.27
0
LINE
8
XSect
62
1
10
331.482
20
21.716
11
344.088
21
25.25
0
LINE
8
XSect
62
1
6
DASH
10
331.482
20
21.716
11
331.61
21
21.342
0
LINE
8
XSect
62
1
6
DASH
10
331.482
20
21.716
11
332.032
21
22.802
0
LINE
8
XSect
62
1
6
DASH
10
331.482
20
21.716
11
332.06
21
29.04
0
LINE
8
XSect
62
1
10
331.482
20
21.716
11
331.594
21
40.114
0
LINE
8
XSect
62
1
10
331.482
20
21.716
11
331.234
21
39.21
0
LINE
8
XSect
62
1
10
331.482
20
21.716
11
321.652
21
34.198
0
LINE
8
XSect
62
1
10
331.482
20
21.716
11
329.72
21
29.182
0
LINE
8
XSect
62
1
6
DASH
10
331.482
20
21.716
11
331.76
21
21.918
0
LINE
8
XSect
62
1
6
DASH
10
331.482
20
21.716
11
331.946
21
19.542
0
LINE
8
XSect
62
1
6
DASH
10
331.482
20
21.716
11
338.162
21
38.096
0
LINE
8
Shots
62
1
10
255.584
20
22.064
11
290.724
21
22.136
0
CIRCLE
8
Shots
62
1
10
290.724
20
22.136
40
0.1
0
TEXT
8
Label
40
1
1
1.14
10
290.724
20
22.136
0
LINE
8
XSect
62
1
6
DASH
10
290.724
20
22.136
11
291.674
21
20.276
0
LINE
8
XSect
62
1
6
DASH
10
290.724
20
22.136
11
292.732
21
22.268
0
LINE
8
XSect
62
1
6
DASH
10
290.724
20
22.136
11
295.684
21
27.9
0
LINE
8
XSect
62
1
10
290.724
20
22.136
11
296.684
21
36.33
0
LINE
8
XSect
62
1
10
290.724
20
22.136
11
302.542
21
36.284
0
LINE
8
XSect
62
1
10
290.724
20
22.136
11
291.86
21
26.688
0
LINE
8
XSect
62
1
10
290.724
20
22.136
11
290.742
21
25.058
0
LINE
8
XSect
62
1
6
DASH
10
290.724
20
22.136
11
290.71
21
22.488
0
LINE
8
XSect
62
1
6
DASH
10
290.724
20
22.136
11
290.886
21
20.14
0
LINE
8
XSect
62
1
10
290.724
20
22.136
11
331.494
21
21.808
0
LINE
8
XSect
62
1
10
290.724
20
22.136
11
331.606
21
21.83
0
LINE
8
Shots
62
1
10
235.78
20
24.12
11
255.584
21
22.064
0
CIRCLE
8
Shots
62
1
10
255.584
20
22.064
40
0.1
0
TEXT
8
Label
40
1
1
1.13
10
255.584
20
22.064
0
LINE
8
XSect
62
1
6
DASH
10
255.584
20
22.064
11
255.726
21
21.612
0
LINE
8
XSect
62
1
6
DASH
10
255.584
20
22.064
11
256.576
21
26.176
0
LINE
8
XSect
62
1
10
255.584
20
22.064
11
257.084
21
33.226
0
LINE
8
XSect
62
1
10
255.584
20
22.064
11
256.5
21
41.596
0
LINE
8
XSect
62
1
10
255.584
20
22.064
11
257.136
21
30.408
0
LINE
8
XSect
62
1
10
255.584
20
22.064
11
255.958
21
36.518
0
LINE
8
XSect
62
1
6
DASH
10
255.584
20
22.064
11
256.448
21
25.422
0
LINE
8
XSect
62
1
6
DASH
10
255.584
20
22.064
11
254.142
21
23.016
0
LINE
8
XSect
62
1
6
DASH
10
255.584
20
22.064
11
252.588
21
20.054
0
LINE
8
XSect
62
1
10
255.584
20
22.064
11
255.342
21
19.62
0
LINE
8
XSect
62
1
6
DASH
10
255.584
20
22.064
11
255.75
21
21.726
0
LINE
8
XSect
62
1
10
255.584
20
22.064
11
292.104
21
22.614
0
LINE
8
XSect
62
1
10
255.584
20
22.064
11
290.916
21
22.572
0
LINE
8
XSect
62
1
10
255.584
20
22.064
11
289.814
21
22.662
0
LINE
8
XSect
62
1
10
255.584
20
22.064
11
290.952
21
22.542
0
LINE
8
Shots
62
1
10
207.662
20
23.166
11
235.78
21
24.12
0
CIRCLE
8
Shots
62
1
10
235.78
20
24.12
40
0.1
0
TEXT
8
Label
40
1
1
1.12
10
235.78
20
24.12
0
LINE
8
XSect
62
1
6
DASH
10
235.78
20
24.12
11
237.84
21
27.65
0
LINE
8
XSect
62
1
10
235.78
20
24.12
11
237.768
21
34.586
0
LINE
8
XSect
62
1
10
235.78
20
24.12
11
237.644
21
39.95
0
LINE
8
XSect
62
1
10
235.78
20
24.12
11
235.432
21
31.078
0
LINE
8
XSect
62
1
6
DASH
10
235.78
20
24.12
11
236.534
21
27.98
0
LINE
8
XSect
62
1
6
DASH
10
235.78
20
24.12
11
238.038
21
21.896
0
LINE
8
XSect
62
1
10
235.78
20
24.12
11
237.424
21
19.688
0
LINE
8
XSect
62
1
6
DASH
10
235.78
20
24.12
11
235.862
21
23.884
0
LINE
8
Shots
62
1
10
175.198
20
23.146
11
207.662
21
23.166
0
CIRCLE
8
Shots
62
1
10
207.662
20
23.166
40
0.1
0
TEXT
8
Label
40
1
1
1.11
10
207.662
20
23.166
0
LINE
8
XSect
62
1
6
DASH
10
207.662
20
23.166
11
207.812
21
21.134
0
LINE
8
XSect
62
1
6
DASH
10
207.662
20
23.166
11
207.872
21
24.706
0
LINE
8
XSect
62
1
10
207.662
20
23.166
11
207.83
21
27.394
0
LINE
8
XSect
62
1
10
207.662
20
23.166
11
208.938
21
33.218
0
LINE
8
XSect
62
1
6
DASH
10
207.662
20
23.166
11
206.972
21
26.61
0
LINE
8
XSect
62
1
10
207.662
20
23.166
11
208.506
21
30.268
0
LINE
8
XSect
62
1
10
207.662
20
23.166
11
212.366
21
38.29
0
LINE
8
XSect
62
1
10
207.662
20
23.166
11
203.712
21
38.224
0
LINE
8
XSect
62
1
10
207.662
20
23.166
11
207.616
21
20.602
0
LINE
8
XSect
62
1
10
207.662
20
23.166
11
235.342
21
23.972
0
LINE
8
XSect
62
1
10
207.662
20
23.166
11
235.518
21
23.972
0
LINE
8
XSect
62
1
10
207.662
20
23.166
11
235.328
21
23.95
0
LINE
8
XSect
62
1
10
207.662
20
23.166
11
235.042
21
23.968
0
LINE
8
XSect
62
1
10
207.662
20
23.166
11
216.6
21
22.622
0
LINE
8
XSect
62
1
10
207.662
20
23.166
11
235.284
21
24.028
0
LINE
8
XSect
62
1
10
207.662
20
23.166
11
235.084
21
23.972
0
LINE
8
XSect
62
1
10
207.662
20
23.166
11
235.28
21
23.876
0
LINE
8
XSect
62
1
10
207.662
20
23.166
11
235.31
21
24.11
0
LINE
8
XSect
62
1
10
207.662
20
23.166
11
235.032
21
24.102
0
LINE
8
XSect
62
1
10
207.662
20
23.166
11
235.392
21
24.18
0
LINE
8
XSect
62
1
10
207.662
20
23.166
11
235.398
21
24.098
0
LINE
8
XSect
62
1
10
207.662
20
23.166
11
235.748
21
24.126
0
LINE
8
XSect
62
1
10
207.662
20
23.166
11
235.738
21
24.136
0
LINE
8
Shots
62
1
10
160.458
20
21.418
11
175.198
21
23.146
0
CIRCLE
8
Shots
62
1
10
175.198
20
23.146
40
0.1
0
TEXT
8
Label
40
1
1
1.10
10
175.198
20
23.146
0
LINE
8
XSect
62
1
6
DASH
10
175.198
20
23.146
11
175.608
21
24.574
0
LINE
8
XSect
62
1
6
DASH
10
175.198
20
23.146
11
177.026
21
33.87
0
LINE
8
XSect
62
1
10
175.198
20
23.146
11
175.18
21
30.388
0
LINE
8
XSect
62
1
10
175.198
20
23.146
11
174.146
21
35.046
0
LINE
8
XSect
62
1
10
175.198
20
23.146
11
176.958
21
36.23
0
LINE
8
XSect
62
1
10
175.198
20
23.146
11
173.214
21
28.678
0
LINE
8
XSect
62
1
6
DASH
10
175.198
20
23.146
11
172.712
21
26.994
0
LINE
8
XSect
62
1
6
DASH
10
175.198
20
23.146
11
173.722
21
23.29
0
LINE
8
XSect
62
1
6
DASH
10
175.198
20
23.146
11
173.754
21
21.646
0
LINE
8
Shots
62
1
10
145.038
20
18.936
11
160.458
21
21.418
0
CIRCLE
8
Shots
62
1
10
160.458
20
21.418
40
0.1
0
TEXT
8
Label
40
1
1
1.9
10
160.458
20
21.418
0
LINE
8
XSect
62
1
6
DASH
10
160.458
20
21.418
11
160.944
21
21.614
0
LINE
8
XSect
62
1
6
DASH
10
160.458
20
21.418
11
160.25
21
25.166
0
LINE
8
XSect
62
1
10
160.458
20
21.418
11
160.986
21
27.046
0
LINE
8
XSect
62
1
6
DASH
10
160.458
20
21.418
11
160.918
21
22.236
0
LINE
8
XSect
62
1
10
160.458
20
21.418
11
163.478
21
31.144
0
LINE
8
XSect
62
1
10
160.458
20
21.418
11
161.516
21
28.918
0
LINE
8
XSect
62
1
10
160.458
20
21.418
11
175.268
21
23.144
0
LINE
8
Shots
62
1
10
122.794
20
8.116
11
145.038
21
18.936
0
CIRCLE
8
Shots
62
1
10
145.038
20
18.936
40
0.1
0
TEXT
8
Label
40
1
1
1.8
10
145.038
20
18.936
0
LINE
8
XSect
62
1
6
DASH
10
145.038
20
18.936
11
144.678
21
18.566
0
LINE
8
XSect
62
1
10
145.038
20
18.936
11
145.408
21
20.22
0
LINE
8
XSect
62
1
10
145.038
20
18.936
11
147.078
21
23.558
0
LINE
8
XSect
62
1
10
145.038
20
18.936
11
148.42
21
25.388
0
LINE
8
XSect
62
1
6
DASH
10
145.038
20
18.936
11
147.206
21
22.476
0
LINE
8
XSect
62
1
6
DASH
10
145.038
20
18.936
11
147.58
21
18.68
0
LINE
8
XSect
62
1
10
145.038
20
18.936
11
146.528
21
15.868
0
LINE
8
XSect
62
1
6
DASH
10
145.038
20
18.936
11
144.358
21
17.77
0
LINE
8
XSect
62
1
10
145.038
20
18.936
11
160.366
21
21.404
0
LINE
8
Shots
62
1
10
109.57
20
3.422
11
122.794
21
8.116
0
CIRCLE
8
Shots
62
1
10
122.794
20
8.116
40
0.1
0
TEXT
8
Label
40
1
1
1.7
10
122.794
20
8.116
0
LINE
8
XSect
62
1
10
122.794
20
8.116
11
145.128
21
19.092
0
LINE
8
Shots
62
1
10
90.46
20
-1.396
11
109.57
21
3.422
0
CIRCLE
8
Shots
62
1
10
109.57
20
3.422
40
0.1
0
TEXT
8
Label
40
1
1
1.6
10
109.57
20
3.422
0
LINE
8
XSect
62
1
6
DASH
10
109.57
20
3.422
11
109.334
21
3.786
0
LINE
8
XSect
62
1
6
DASH
10
109.57
20
3.422
11
107.798
21
10.794
0
LINE
8
XSect
62
1
10
109.57
20
3.422
11
108.966
21
13.878
0
LINE
8
XSect
62
1
10
109.57
20
3.422
11
107.91
21
29.67
0
LINE
8
XSect
62
1
10
109.57
20
3.422
11
111.076
21
30.136
0
LINE
8
XSect
62
1
10
109.57
20
3.422
11
110.874
21
12.532
0
LINE
8
XSect
62
1
6
DASH
10
109.57
20
3.422
11
111.294
21
5.666
0
LINE
8
XSect
62
1
6
DASH
10
109.57
20
3.422
11
111.214
21
1.906
0
LINE
8
XSect
62
1
6
DASH
10
109.57
20
3.422
11
111.268
21
0.6
0
LINE
8
XSect
62
1
10
109.57
20
3.422
11
113.944
21
-3.96
0
LINE
8
XSect
62
1
10
109.57
20
3.422
11
124.58
21
11.144
0
LINE
8
XSect
62
1
10
109.57
20
3.422
11
125.33
21
13.428
0
LINE
8
XSect
62
1
10
109.57
20
3.422
11
122.938
21
12.606
0
LINE
8
XSect
62
1
10
109.57
20
3.422
11
125.196
21
4.986
0
LINE
8
XSect
62
1
10
109.57
20
3.422
11
143.852
21
32.884
0
LINE
8
XSect
62
1
6
DASH
10
109.57
20
3.422
11
103.196
21
5.874
0
LINE
8
XSect
62
1
10
109.57
20
3.422
11
149.48
21
35.472
0
LINE
8
XSect
62
1
10
109.57
20
3.422
11
129.47
21
10.436
0
LINE
8
XSect
62
1
10
109.57
20
3.422
11
127.008
21
31.054
0
LINE
8
Shots
62
1
10
63.314
20
-1.2
11
90.46
21
-1.396
0
CIRCLE
8
Shots
62
1
10
90.46
20
-1.396
40
0.1
0
TEXT
8
Label
40
1
1
1.5
10
90.46
20
-1.396
0
LINE
8
XSect
62
1
10
90.46
20
-1.396
11
112.486
21
-1.576
0
LINE
8
XSect
62
1
10
90.46
20
-1.396
11
112.448
21
-1.612
0
LINE
8
XSect
62
1
10
90.46
20
-1.396
11
60.98
21
1.714
0
LINE
8
XSect
62
1
10
90.46
20
-1.396
11
73.072
21
-2.314
0
LINE
8
XSect
62
1
10
90.46
20
-1.396
11
69.056
21
3.79
0
LINE
8
XSect
62
1
10
90.46
20
-1.396
11
79.724
21
-2.42
0
LINE
8
XSect
62
1
10
90.46
20
-1.396
11
72.474
21
4.28
0
LINE
8
XSect
62
1
10
90.46
20
-1.396
11
82.3
21
-2.38
0
LINE
8
XSect
62
1
6
DASH
10
90.46
20
-1.396
11
84.514
21
1.732
0
LINE
8
XSect
62
1
10
90.46
20
-1.396
11
84.078
21
10.034
0
LINE
8
XSect
62
1
10
90.46
20
-1.396
11
80.082
21
17.096
0
LINE
8
XSect
62
1
10
90.46
20
-1.396
11
80.792
21
22.31
0
LINE
8
XSect
62
1
10
90.46
20
-1.396
11
80.758
21
25.176
0
LINE
8
XSect
62
1
10
90.46
20
-1.396
11
86.48
21
10.612
0
LINE
8
XSect
62
1
6
DASH
10
90.46
20
-1.396
11
90.144
21
-1.416
0
LINE
8
XSect
62
1
10
90.46
20
-1.396
11
113.068
21
18.714
0
LINE
8
XSect
62
1
10
90.46
20
-1.396
11
95.28
21
29.174
0
LINE
8
XSect
62
1
10
90.46
20
-1.396
11
86.42
21
14.93
0
LINE
8
Shots
62
1
10
41.384
20
-1.51
11
63.314
21
-1.2
0
CIRCLE
8
Shots
62
1
10
63.314
20
-1.2
40
0.1
0
TEXT
8
Label
40
1
1
1.4
10
63.314
20
-1.2
0
LINE
8
XSect
62
1
6
DASH
10
63.314
20
-1.2
11
63.292
21
-1.08
0
LINE
8
XSect
62
1
10
63.314
20
-1.2
11
63.37
21
2.696
0
LINE
8
XSect
62
1
10
63.314
20
-1.2
11
64.136
21
14.272
0
LINE
8
XSect
62
1
10
63.314
20
-1.2
11
63.19
21
34.576
0
LINE
8
XSect
62
1
10
63.314
20
-1.2
11
66.82
21
13.41
0
LINE
8
XSect
62
1
6
DASH
10
63.314
20
-1.2
11
65.618
21
1.96
0
LINE
8
XSect
62
1
10
63.314
20
-1.2
11
66.766
21
26.282
0
LINE
8
XSect
62
1
10
63.314
20
-1.2
11
66.57
21
37.198
0
LINE
8
XSect
62
1
10
63.314
20
-1.2
11
73.992
21
34.23
0
LINE
8
XSect
62
1
10
63.314
20
-1.2
11
76.418
21
49.126
0
LINE
8
XSect
62
1
6
DASH
10
63.314
20
-1.2
11
64.93
21
-1.5
0
LINE
8
XSect
62
1
6
DASH
10
63.314
20
-1.2
11
63.982
21
2.984
0
LINE
8
XSect
62
1
10
63.314
20
-1.2
11
62.646
21
13.508
0
LINE
8
Shots
62
1
10
31.132
20
-1.364
11
41.384
21
-1.51
0
CIRCLE
8
Shots
62
1
10
41.384
20
-1.51
40
0.1
0
TEXT
8
Label
40
1
1
1.3
10
41.384
20
-1.51
0
LINE
8
XSect
62
1
10
41.384
20
-1.51
11
51.562
21
-1.626
0
LINE
8
XSect
62
1
6
DASH
10
41.384
20
-1.51
11
40.614
21
1.1
0
LINE
8
XSect
62
1
10
41.384
20
-1.51
11
41.546
21
8.572
0
LINE
8
XSect
62
1
10
41.384
20
-1.51
11
41.752
21
36.474
0
LINE
8
XSect
62
1
10
41.384
20
-1.51
11
43.132
21
9.33
0
LINE
8
XSect
62
1
6
DASH
10
41.384
20
-1.51
11
44.216
21
1.76
0
LINE
8
XSect
62
1
6
DASH
10
41.384
20
-1.51
11
42.59
21
-1.98
0
LINE
8
XSect
62
1
10
41.384
20
-1.51
11
41.166
21
36.248
0
LINE
8
Shots
62
1
10
11.798
20
-0.618
11
31.132
21
-1.364
0
CIRCLE
8
Shots
62
1
10
31.132
20
-1.364
40
0.1
0
TEXT
8
Label
40
1
1
1.2
10
31.132
20
-1.364
0
LINE
8
XSect
62
1
10
31.132
20
-1.364
11
33.274
21
5.818
0
LINE
8
XSect
62
1
6
DASH
10
31.132
20
-1.364
11
32.804
21
3.876
0
LINE
8
XSect
62
1
6
DASH
10
31.132
20
-1.364
11
32.204
21
-1.772
0
LINE
8
XSect
62
1
10
31.132
20
-1.364
11
31.316
21
0.708
0
LINE
8
Shots
62
1
10
0
20
0
11
11.798
21
-0.618
0
CIRCLE
8
Shots
62
1
10
11.798
20
-0.618
40
0.1
0
TEXT
8
Label
40
1
1
1.1
10
11.798
20
-0.618
0
LINE
8
XSect
62
1
10
11.798
20
-0.618
11
7.83
21
32.032
0
LINE
8
XSect
62
1
10
11.798
20
-0.618
11
-6.684
21
47.886
0
LINE
8
XSect
62
1
10
11.798
20
-0.618
11
22.852
21
30.554
0
LINE
8
XSect
62
1
10
11.798
20
-0.618
11
-1.206
21
5.792
0
LINE
8
XSect
62
1
6
DASH
10
11.798
20
-0.618
11
5.434
21
2.562
0
LINE
8
XSect
62
1
10
11.798
20
-0.618
11
33.856
21
31.442
0
LINE
8
XSect
62
1
6
DASH
10
11.798
20
-0.618
11
-6.346
21
8.828
0
LINE
8
XSect
62
1
10
11.798
20
-0.618
11
-11.532
21
43.566
0
LINE
8
XSect
62
1
6
DASH
10
11.798
20
-0.618
11
11.012
21
-1.814
0
LINE
8
XSect
62
1
6
DASH
10
11.798
20
-0.618
11
8.516
21
-1.382
0
LINE
8
XSect
62
1
6
DASH
10
11.798
20
-0.618
11
4.188
21
-1.898
0
LINE
8
XSect
62
1
10
11.798
20
-0.618
11
1.622
21
-1.48
0
LINE
8
XSect
62
1
10
11.798
20
-0.618
11
-0.904
21
-1.552
0
LINE
8
XSect
62
1
6
DASH
10
11.798
20
-0.618
11
11.422
21
-1.674
0
LINE
8
XSect
62
1
10
11.798
20
-0.618
11
31.468
21
-1.576
0
LINE
8
XSect
62
1
10
11.798
20
-0.618
11
31.354
21
-1.44
0
LINE
8
XSect
62
1
10
11.798
20
-0.618
11
31.428
21
-1.494
0
LINE
8
Grid
62
255
10
-4
20
36
11
-4
21
-8
0
LINE
8
Grid
62
255
10
-2
20
36
11
-2
21
-8
0
LINE
8
Grid
62
255
10
0
20
36
11
0
21
-8
0
LINE
8
Grid
62
255
10
2
20
36
11
2
21
-8
0
LINE
8
Grid
62
255
10
4
20
36
11
4
21
-8
0
LINE
8
Grid
62
255
10
6
20
36
11
6
21
-8
0
LINE
8
Grid
62
255
10
8
20
36
11
8
21
-8
0
LINE
8
Grid
62
255
10
10
20
36
11
10
21
-8
0
LINE
8
Grid
62
255
10
12
20
36
11
12
21
-8
0
LINE
8
Grid
62
255
10
14
20
36
11
14
21
-8
0
LINE
8
Grid
62
255
10
16
20
36
11
16
21
-8
0
LINE
8
Grid
62
255
10
18
20
36
11
18
21
-8
0
LINE
8
Grid
62
255
10
20
20
36
11
20
21
-8
0
LINE
8
Grid
62
255
10
22
20
36
11
22
21
-8
0
LINE
8
Grid
62
255
10
24
20
36
11
24
21
-8
0
LINE
8
Grid
62
255
10
26
20
36
11
26
21
-8
0
LINE
8
Grid
62
255
10
28
20
36
11
28
21
-8
0
LINE
8
Grid
62
255
10
30
20
36
11
30
21
-8
0
LINE
8
Grid
62
255
10
32
20
36
11
32
21
-8
0
LINE
8
Grid
62
255
10
34
20
36
11
34
21
-8
0
LINE
8
Grid
62
255
10
36
20
36
11
36
21
-8
0
LINE
8
Grid
62
255
10
38
20
36
11
38
21
-8
0
LINE
8
Grid
62
255
10
40
20
36
11
40
21
-8
0
LINE
8
Grid
62
255
10
42
20
36
11
42
21
-8
0
LINE
8
Grid
62
255
10
44
20
36
11
44
21
-8
0
LINE
8
Grid
62
255
10
46
20
36
11
46
21
-8
0
LINE
8
Grid
62
255
10
48
20
36
11
48
21
-8
0
LINE
8
Grid
62
255
10
50
20
36
11
50
21
-8
0
LINE
8
Grid
62
255
10
52
20
36
11
52
21
-8
0
LINE
8
Grid
62
255
10
54
20
36
11
54
21
-8
0
LINE
8
Grid
62
255
10
56
20
36
11
56
21
-8
0
LINE
8
Grid
62
255
10
58
20
36
11
58
21
-8
0
LINE
8
Grid
62
255
10
60
20
36
11
60
21
-8
0
LINE
8
Grid
62
255
10
62
20
36
11
62
21
-8
0
LINE
8
Grid
62
255
10
64
20
36
11
64
21
-8
0
LINE
8
Grid
62
255
10
66
20
36
11
66
21
-8
0
LINE
8
Grid
62
255
10
68
20
36
11
68
21
-8
0
LINE
8
Grid
62
255
10
70
20
36
11
70
21
-8
0
LINE
8
Grid
62
255
10
72
20
36
11
72
21
-8
0
LINE
8
Grid
62
255
10
74
20
36
11
74
21
-8
0
LINE
8
Grid
62
255
10
76
20
36
11
76
21
-8
0
LINE
8
Grid
62
255
10
78
20
36
11
78
21
-8
0
LINE
8
Grid
62
255
10
80
20
36
11
80
21
-8
0
LINE
8
Grid
62
255
10
82
20
36
11
82
21
-8
0
LINE
8
Grid
62
255
10
84
20
36
11
84
21
-8
0
LINE
8
Grid
62
255
10
86
20
36
11
86
21
-8
0
LINE
8
Grid
62
255
10
88
20
36
11
88
21
-8
0
LINE
8
Grid
62
255
10
90
20
36
11
90
21
-8
0
LINE
8
Grid
62
255
10
92
20
36
11
92
21
-8
0
LINE
8
Grid
62
255
10
94
20
36
11
94
21
-8
0
LINE
8
Grid
62
255
10
96
20
36
11
96
21
-8
0
LINE
8
Grid
62
255
10
98
20
36
11
98
21
-8
0
LINE
8
Grid
62
255
10
100
20
36
11
100
21
-8
0
LINE
8
Grid
62
255
10
102
20
36
11
102
21
-8
0
LINE
8
Grid
62
255
10
104
20
36
11
104
21
-8
0
LINE
8
Grid
62
255
10
106
20
36
11
106
21
-8
0
LINE
8
Grid
62
255
10
108
20
36
11
108
21
-8
0
LINE
8
Grid
62
255
10
110
20
36
11
110
21
-8
0
LINE
8
Grid
62
255
10
112
20
36
11
112
21
-8
0
LINE
8
Grid
62
255
10
114
20
36
11
114
21
-8
0
LINE
8
Grid
62
255
10
116
20
36
11
116
21
-8
0
LINE
8
Grid
62
255
10
118
20
36
11
118
21
-8
0
LINE
8
Grid
62
255
10
120
20
36
11
120
21
-8
0
LINE
8
Grid
62
255
10
122
20
36
11
122
21
-8
0
LINE
8
Grid
62
255
10
124
20
36
11
124
21
-8
0
LINE
8
Grid
62
255
10
126
20
36
11
126
21
-8
0
LINE
8
Grid
62
255
10
128
20
36
11
128
21
-8
0
LINE
8
Grid
62
255
10
130
20
36
11
130
21
-8
0
LINE
8
Grid
62
255
10
132
20
36
11
132
21
-8
0
LINE
8
Grid
62
255
10
134
20
36
11
134
21
-8
0
LINE
8
Grid
62
255
10
136
20
36
11
136
21
-8
0
LINE
8
Grid
62
255
10
138
20
36
11
138
21
-8
0
LINE
8
Grid
62
255
10
140
20
36
11
140
21
-8
0
LINE
8
Grid
62
255
10
142
20
36
11
142
21
-8
0
LINE
8
Grid
62
255
10
144
20
36
11
144
21
-8
0
LINE
8
Grid
62
255
10
146
20
36
11
146
21
-8
0
LINE
8
Grid
62
255
10
148
20
36
11
148
21
-8
0
LINE
8
Grid
62
255
10
150
20
36
11
150
21
-8
0
LINE
8
Grid
62
255
10
152
20
36
11
152
21
-8
0
LINE
8
Grid
62
255
10
154
20
36
11
154
21
-8
0
LINE
8
Grid
62
255
10
156
20
36
11
156
21
-8
0
LINE
8
Grid
62
255
10
158
20
36
11
158
21
-8
0
LINE
8
Grid
62
255
10
160
20
36
11
160
21
-8
0
LINE
8
Grid
62
255
10
162
20
36
11
162
21
-8
0
LINE
8
Grid
62
255
10
164
20
36
11
164
21
-8
0
LINE
8
Grid
62
255
10
166
20
36
11
166
21
-8
0
LINE
8
Grid
62
255
10
168
20
36
11
168
21
-8
0
LINE
8
Grid
62
255
10
170
20
36
11
170
21
-8
0
LINE
8
Grid
62
255
10
172
20
36
11
172
21
-8
0
LINE
8
Grid
62
255
10
174
20
36
11
174
21
-8
0
LINE
8
Grid
62
255
10
176
20
36
11
176
21
-8
0
LINE
8
Grid
62
255
10
178
20
36
11
178
21
-8
0
LINE
8
Grid
62
255
10
180
20
36
11
180
21
-8
0
LINE
8
Grid
62
255
10
182
20
36
11
182
21
-8
0
LINE
8
Grid
62
255
10
184
20
36
11
184
21
-8
0
LINE
8
Grid
62
255
10
186
20
36
11
186
21
-8
0
LINE
8
Grid
62
255
10
188
20
36
11
188
21
-8
0
LINE
8
Grid
62
255
10
190
20
36
11
190
21
-8
0
LINE
8
Grid
62
255
10
192
20
36
11
192
21
-8
0
LINE
8
Grid
62
255
10
194
20
36
11
194
21
-8
0
LINE
8
Grid
62
255
10
196
20
36
11
196
21
-8
0
LINE
8
Grid
62
255
10
198
20
36
11
198
21
-8
0
LINE
8
Grid
62
255
10
200
20
36
11
200
21
-8
0
LINE
8
Grid
62
255
10
202
20
36
11
202
21
-8
0
LINE
8
Grid
62
255
10
204
20
36
11
204
21
-8
0
LINE
8
Grid
62
255
10
206
20
36
11
206
21
-8
0
LINE
8
Grid
62
255
10
208
20
36
11
208
21
-8
0
LINE
8
Grid
62
255
10
210
20
36
11
210
21
-8
0
LINE
8
Grid
62
255
10
212
20
36
11
212
21
-8
0
LINE
8
Grid
62
255
10
214
20
36
11
214
21
-8
0
LINE
8
Grid
62
255
10
216
20
36
11
216
21
-8
0
LINE
8
Grid
62
255
10
218
20
36
11
218
21
-8
0
LINE
8
Grid
62
255
10
220
20
36
11
220
21
-8
0
LINE
8
Grid
62
255
10
222
20
36
11
222
21
-8
0
LINE
8
Grid
62
255
10
224
20
36
11
224
21
-8
0
LINE
8
Grid
62
255
10
226
20
36
11
226
21
-8
0
LINE
8
Grid
62
255
10
228
20
36
11
228
21
-8
0
LINE
8
Grid
62
255
10
230
20
36
11
230
21
-8
0
LINE
8
Grid
62
255
10
232
20
36
11
232
21
-8
0
LINE
8
Grid
62
255
10
234
20
36
11
234
21
-8
0
LINE
8
Grid
62
255
10
236
20
36
11
236
21
-8
0
LINE
8
Grid
62
255
10
238
20
36
11
238
21
-8
0
LINE
8
Grid
62
255
10
240
20
36
11
240
21
-8
0
LINE
8
Grid
62
255
10
242
20
36
11
242
21
-8
0
LINE
8
Grid
62
255
10
244
20
36
11
244
21
-8
0
LINE
8
Grid
62
255
10
246
20
36
11
246
21
-8
0
LINE
8
Grid
62
255
10
248
20
36
11
248
21
-8
0
LINE
8
Grid
62
255
10
250
20
36
11
250
21
-8
0
LINE
8
Grid
62
255
10
252
20
36
11
252
21
-8
0
LINE
8
Grid
62
255
10
254
20
36
11
254
21
-8
0
LINE
8
Grid
62
255
10
256
20
36
11
256
21
-8
0
LINE
8
Grid
62
255
10
258
20
36
11
258
21
-8
0
LINE
8
Grid
62
255
10
260
20
36
11
260
21
-8
0
LINE
8
Grid
62
255
10
262
20
36
11
262
21
-8
0
LINE
8
Grid
62
255
10
264
20
36
11
264
21
-8
0
LINE
8
Grid
62
255
10
266
20
36
11
266
21
-8
0
LINE
8
Grid
62
255
10
268
20
36
11
268
21
-8
0
LINE
8
Grid
62
255
10
270
20
36
11
270
21
-8
0
LINE
8
Grid
62
255
10
272
20
36
11
272
21
-8
0
LINE
8
Grid
62
255
10
274
20
36
11
274
21
-8
0
LINE
8
Grid
62
255
10
276
20
36
11
276
21
-8
0
LINE
8
Grid
62
255
10
278
20
36
11
278
21
-8
0
LINE
8
Grid
62
255
10
280
20
36
11
280
21
-8
0
LINE
8
Grid
62
255
10
282
20
36
11
282
21
-8
0
LINE
8
Grid
62
255
10
284
20
36
11
284
21
-8
0
LINE
8
Grid
62
255
10
286
20
36
11
286
21
-8
0
LINE
8
Grid
62
255
10
288
20
36
11
288
21
-8
0
LINE
8
Grid
62
255
10
290
20
36
11
290
21
-8
0
LINE
8
Grid
62
255
10
292
20
36
11
292
21
-8
0
LINE
8
Grid
62
255
10
294
20
36
11
294
21
-8
0
LINE
8
Grid
62
255
10
296
20
36
11
296
21
-8
0
LINE
8
Grid
62
255
10
298
20
36
11
298
21
-8
0
LINE
8
Grid
62
255
10
300
20
36
11
300
21
-8
0
LINE
8
Grid
62
255
10
302
20
36
11
302
21
-8
0
LINE
8
Grid
62
255
10
304
20
36
11
304
21
-8
0
LINE
8
Grid
62
255
10
306
20
36
11
306
21
-8
0
LINE
8
Grid
62
255
10
308
20
36
11
308
21
-8
0
LINE
8
Grid
62
255
10
310
20
36
11
310
21
-8
0
LINE
8
Grid
62
255
10
312
20
36
11
312
21
-8
0
LINE
8
Grid
62
255
10
314
20
36
11
314
21
-8
0
LINE
8
Grid
62
255
10
316
20
36
11
316
21
-8
0
LINE
8
Grid
62
255
10
318
20
36
11
318
21
-8
0
LINE
8
Grid
62
255
10
320
20
36
11
320
21
-8
0
LINE
8
Grid
62
255
10
322
20
36
11
322
21
-8
0
LINE
8
Grid
62
255
10
324
20
36
11
324
21
-8
0
LINE
8
Grid
62
255
10
326
20
36
11
326
21
-8
0
LINE
8
Grid
62
255
10
328
20
36
11
328
21
-8
0
LINE
8
Grid
62
255
10
330
20
36
11
330
21
-8
0
LINE
8
Grid
62
255
10
332
20
36
11
332
21
-8
0
LINE
8
Grid
62
255
10
334
20
36
11
334
21
-8
0
LINE
8
Grid
62
255
10
336
20
36
11
336
21
-8
0
LINE
8
Grid
62
255
10
338
20
36
11
338
21
-8
0
LINE
8
Grid
62
255
10
340
20
36
11
340
21
-8
0
LINE
8
Grid
62
255
10
342
20
36
11
342
21
-8
0
LINE
8
Grid
62
255
10
344
20
36
11
344
21
-8
0
LINE
8
Grid
62
255
10
346
20
36
11
346
21
-8
0
LINE
8
Grid
62
255
10
348
20
36
11
348
21
-8
0
LINE
8
Grid
62
255
10
350
20
36
11
350
21
-8
0
LINE
8
Grid
62
255
10
352
20
36
11
352
21
-8
0
LINE
8
Grid
62
255
10
354
20
36
11
354
21
-8
0
LINE
8
Grid
62
255
10
356
20
36
11
356
21
-8
0
LINE
8
Grid
62
255
10
358
20
36
11
358
21
-8
0
LINE
8
Grid
62
255
10
360
20
36
11
360
21
-8
0
LINE
8
Grid
62
255
10
362
20
36
11
362
21
-8
0
LINE
8
Grid
62
255
10
364
20
36
11
364
21
-8
0
LINE
8
Grid
62
255
10
366
20
36
11
366
21
-8
0
LINE
8
Grid
62
255
10
368
20
36
11
368
21
-8
0
LINE
8
Grid
62
255
10
370
20
36
11
370
21
-8
0
LINE
8
Grid
62
255
10
372
20
36
11
372
21
-8
0
LINE
8
Grid
62
255
10
374
20
36
11
374
21
-8
0
LINE
8
Grid
62
255
10
376
20
36
11
376
21
-8
0
LINE
8
Grid
62
255
10
378
20
36
11
378
21
-8
0
LINE
8
Grid
62
255
10
380
20
36
11
380
21
-8
0
LINE
8
Grid
62
255
10
382
20
36
11
382
21
-8
0
LINE
8
Grid
62
255
10
384
20
36
11
384
21
-8
0
LINE
8
Grid
62
255
10
386
20
36
11
386
21
-8
0
LINE
8
Grid
62
255
10
388
20
36
11
388
21
-8
0
LINE
8
Grid
62
255
10
390
20
36
11
390
21
-8
0
LINE
8
Grid
62
255
10
392
20
36
11
392
21
-8
0
LINE
8
Grid
62
255
10
394
20
36
11
394
21
-8
0
LINE
8
Grid
62
255
10
396
20
36
11
396
21
-8
0
LINE
8
Grid
62
255
10
398
20
36
11
398
21
-8
0
LINE
8
Grid
62
255
10
400
20
36
11
400
21
-8
0
LINE
8
Grid
62
255
10
402
20
36
11
402
21
-8
0
LINE
8
Grid
62
255
10
404
20
36
11
404
21
-8
0
LINE
8
Grid
62
255
10
406
20
36
11
406
21
-8
0
LINE
8
Grid
62
255
10
408
20
36
11
408
21
-8
0
LINE
8
Grid
62
255
10
410
20
36
11
410
21
-8
0
LINE
8
Grid
62
255
10
412
20
36
11
412
21
-8
0
LINE
8
Grid
62
255
10
414
20
36
11
414
21
-8
0
LINE
8
Grid
62
255
10
416
20
36
11
416
21
-8
0
LINE
8
Grid
62
255
10
418
20
36
11
418
21
-8
0
LINE
8
Grid
62
255
10
420
20
36
11
420
21
-8
0
LINE
8
Grid
62
255
10
422
20
36
11
422
21
-8
0
LINE
8
Grid
62
255
10
424
20
36
11
424
21
-8
0
LINE
8
Grid
62
255
10
426
20
36
11
426
21
-8
0
LINE
8
Grid
62
255
10
428
20
36
11
428
21
-8
0
LINE
8
Grid
62
255
10
430
20
36
11
430
21
-8
0
LINE
8
Grid
62
255
10
432
20
36
11
432
21
-8
0
LINE
8
Grid
62
255
10
434
20
36
11
434
21
-8
0
LINE
8
Grid
62
255
10
436
20
36
11
436
21
-8
0
LINE
8
Grid
62
255
10
438
20
36
11
438
21
-8
0
LINE
8
Grid
62
255
10
440
20
36
11
440
21
-8
0
LINE
8
Grid
62
255
10
442
20
36
11
442
21
-8
0
LINE
8
Grid
62
255
10
444
20
36
11
444
21
-8
0
LINE
8
Grid
62
255
10
446
20
36
11
446
21
-8
0
LINE
8
Grid
62
255
10
448
20
36
11
448
21
-8
0
LINE
8
Grid
62
255
10
450
20
36
11
450
21
-8
0
LINE
8
Grid
62
255
10
452
20
36
11
452
21
-8
0
LINE
8
Grid
62
255
10
454
20
36
11
454
21
-8
0
LINE
8
Grid
62
255
10
456
20
36
11
456
21
-8
0
LINE
8
Grid
62
255
10
458
20
36
11
458
21
-8
0
LINE
8
Grid
62
255
10
460
20
36
11
460
21
-8
0
LINE
8
Grid
62
255
10
462
20
36
11
462
21
-8
0
LINE
8
Grid
62
255
10
464
20
36
11
464
21
-8
0
LINE
8
Grid
62
255
10
466
20
36
11
466
21
-8
0
LINE
8
Grid
62
255
10
468
20
36
11
468
21
-8
0
LINE
8
Grid
62
255
10
470
20
36
11
470
21
-8
0
LINE
8
Grid
62
255
10
472
20
36
11
472
21
-8
0
LINE
8
Grid
62
255
10
474
20
36
11
474
21
-8
0
LINE
8
Grid
62
255
10
476
20
36
11
476
21
-8
0
LINE
8
Grid
62
255
10
478
20
36
11
478
21
-8
0
LINE
8
Grid
62
255
10
480
20
36
11
480
21
-8
0
LINE
8
Grid
62
255
10
482
20
36
11
482
21
-8
0
LINE
8
Grid
62
255
10
484
20
36
11
484
21
-8
0
LINE
8
Grid
62
255
10
486
20
36
11
486
21
-8
0
LINE
8
Grid
62
255
10
488
20
36
11
488
21
-8
0
LINE
8
Grid
62
255
10
490
20
36
11
490
21
-8
0
LINE
8
Grid
62
255
10
492
20
36
11
492
21
-8
0
LINE
8
Grid
62
255
10
494
20
36
11
494
21
-8
0
LINE
8
Grid
62
255
10
496
20
36
11
496
21
-8
0
LINE
8
Grid
62
255
10
498
20
36
11
498
21
-8
0
LINE
8
Grid
62
255
10
500
20
36
11
500
21
-8
0
LINE
8
Grid
62
255
10
502
20
36
11
502
21
-8
0
LINE
8
Grid
62
255
10
504
20
36
11
504
21
-8
0
LINE
8
Grid
62
255
10
506
20
36
11
506
21
-8
0
LINE
8
Grid
62
255
10
508
20
36
11
508
21
-8
0
LINE
8
Grid
62
255
10
510
20
36
11
510
21
-8
0
LINE
8
Grid
62
255
10
512
20
36
11
512
21
-8
0
LINE
8
Grid
62
255
10
514
20
36
11
514
21
-8
0
LINE
8
Grid
62
255
10
516
20
36
11
516
21
-8
0
LINE
8
Grid
62
255
10
518
20
36
11
518
21
-8
0
LINE
8
Grid
62
255
10
520
20
36
11
520
21
-8
0
LINE
8
Grid
62
255
10
522
20
36
11
522
21
-8
0
LINE
8
Grid
62
255
10
524
20
36
11
524
21
-8
0
LINE
8
Grid
62
255
10
526
20
36
11
526
21
-8
0
LINE
8
Grid
62
255
10
528
20
36
11
528
21
-8
0
LINE
8
Grid
62
255
10
530
20
36
11
530
21
-8
0
LINE
8
Grid
62
255
10
532
20
36
11
532
21
-8
0
LINE
8
Grid
62
255
10
534
20
36
11
534
21
-8
0
LINE
8
Grid
62
255
10
536
20
36
11
536
21
-8
0
LINE
8
Grid
62
255
10
538
20
36
11
538
21
-8
0
LINE
8
Grid
62
255
10
540
20
36
11
540
21
-8
0
LINE
8
Grid
62
255
10
542
20
36
11
542
21
-8
0
LINE
8
Grid
62
255
10
544
20
36
11
544
21
-8
0
LINE
8
Grid
62
255
10
546
20
36
11
546
21
-8
0
LINE
8
Grid
62
255
10
548
20
36
11
548
21
-8
0
LINE
8
Grid
62
255
10
550
20
36
11
550
21
-8
0
LINE
8
Grid
62
255
10
552
20
36
11
552
21
-8
0
LINE
8
Grid
62
255
10
554
20
36
11
554
21
-8
0
LINE
8
Grid
62
255
10
556
20
36
11
556
21
-8
0
LINE
8
Grid
62
255
10
558
20
36
11
558
21
-8
0
LINE
8
Grid
62
255
10
560
20
36
11
560
21
-8
0
LINE
8
Grid
62
255
10
562
20
36
11
562
21
-8
0
LINE
8
Grid
62
255
10
564
20
36
11
564
21
-8
0
LINE
8
Grid
62
255
10
566
20
36
11
566
21
-8
0
LINE
8
Grid
62
255
10
568
20
36
11
568
21
-8
0
LINE
8
Grid
62
255
10
570
20
36
11
570
21
-8
0
LINE
8
Grid
62
255
10
572
20
36
11
572
21
-8
0
LINE
8
Grid
62
255
10
574
20
36
11
574
21
-8
0
LINE
8
Grid
62
255
10
576
20
36
11
576
21
-8
0
LINE
8
Grid
62
255
10
578
20
36
11
578
21
-8
0
LINE
8
Grid
62
255
10
580
20
36
11
580
21
-8
0
LINE
8
Grid
62
255
10
582
20
36
11
582
21
-8
0
LINE
8
Grid
62
255
10
584
20
36
11
584
21
-8
0
LINE
8
Grid
62
255
10
586
20
36
11
586
21
-8
0
LINE
8
Grid
62
255
10
588
20
36
11
588
21
-8
0
LINE
8
Grid
62
255
10
590
20
36
11
590
21
-8
0
LINE
8
Grid
62
255
10
592
20
36
11
592
21
-8
0
LINE
8
Grid
62
255
10
594
20
36
11
594
21
-8
0
LINE
8
Grid
62
255
10
596
20
36
11
596
21
-8
0
LINE
8
Grid
62
255
10
598
20
36
11
598
21
-8
0
LINE
8
Grid
62
255
10
600
20
36
11
600
21
-8
0
LINE
8
Grid
62
255
10
602
20
36
11
602
21
-8
0
LINE
8
Grid
62
255
10
604
20
36
11
604
21
-8
0
LINE
8
Grid
62
255
10
606
20
36
11
606
21
-8
0
LINE
8
Grid
62
255
10
608
20
36
11
608
21
-8
0
LINE
8
Grid
62
255
10
610
20
36
11
610
21
-8
0
LINE
8
Grid
62
255
10
612
20
36
11
612
21
-8
0
LINE
8
Grid
62
255
10
614
20
36
11
614
21
-8
0
LINE
8
Grid
62
255
10
616
20
36
11
616
21
-8
0
LINE
8
Grid
62
255
10
618
20
36
11
618
21
-8
0
LINE
8
Grid
62
255
10
620
20
36
11
620
21
-8
0
LINE
8
Grid
62
255
10
622
20
36
11
622
21
-8
0
LINE
8
Grid
62
255
10
624
20
36
11
624
21
-8
0
LINE
8
Grid
62
255
10
626
20
36
11
626
21
-8
0
LINE
8
Grid
62
255
10
628
20
36
11
628
21
-8
0
LINE
8
Grid
62
255
10
630
20
36
11
630
21
-8
0
LINE
8
Grid
62
255
10
632
20
36
11
632
21
-8
0
LINE
8
Grid
62
255
10
634
20
36
11
634
21
-8
0
LINE
8
Grid
62
255
10
636
20
36
11
636
21
-8
0
LINE
8
Grid
62
255
10
638
20
36
11
638
21
-8
0
LINE
8
Grid
62
255
10
640
20
36
11
640
21
-8
0
LINE
8
Grid
62
255
10
642
20
36
11
642
21
-8
0
LINE
8
Grid
62
255
10
644
20
36
11
644
21
-8
0
LINE
8
Grid
62
255
10
646
20
36
11
646
21
-8
0
LINE
8
Grid
62
255
10
648
20
36
11
648
21
-8
0
LINE
8
Grid
62
255
10
650
20
36
11
650
21
-8
0
LINE
8
Grid
62
255
10
652
20
36
11
652
21
-8
0
LINE
8
Grid
62
255
10
654
20
36
11
654
21
-8
0
LINE
8
Grid
62
255
10
656
20
36
11
656
21
-8
0
LINE
8
Grid
62
255
10
658
20
36
11
658
21
-8
0
LINE
8
Grid
62
255
10
660
20
36
11
660
21
-8
0
LINE
8
Grid
62
255
10
662
20
36
11
662
21
-8
0
LINE
8
Grid
62
255
10
664
20
36
11
664
21
-8
0
LINE
8
Grid
62
255
10
666
20
36
11
666
21
-8
0
LINE
8
Grid
62
255
10
668
20
36
11
668
21
-8
0
LINE
8
Grid
62
255
10
670
20
36
11
670
21
-8
0
LINE
8
Grid
62
255
10
672
20
36
11
672
21
-8
0
LINE
8
Grid
62
255
10
674
20
36
11
674
21
-8
0
LINE
8
Grid
62
255
10
676
20
36
11
676
21
-8
0
LINE
8
Grid
62
255
10
678
20
36
11
678
21
-8
0
LINE
8
Grid
62
255
10
680
20
36
11
680
21
-8
0
LINE
8
Grid
62
255
10
682
20
36
11
682
21
-8
0
LINE
8
Grid
62
255
10
684
20
36
11
684
21
-8
0
LINE
8
Grid
62
255
10
686
20
36
11
686
21
-8
0
LINE
8
Grid
62
255
10
688
20
36
11
688
21
-8
0
LINE
8
Grid
62
255
10
690
20
36
11
690
21
-8
0
LINE
8
Grid
62
255
10
692
20
36
11
692
21
-8
0
LINE
8
Grid
62
255
10
694
20
36
11
694
21
-8
0
LINE
8
Grid
62
255
10
696
20
36
11
696
21
-8
0
LINE
8
Grid
62
255
10
698
20
36
11
698
21
-8
0
LINE
8
Grid
62
255
10
700
20
36
11
700
21
-8
0
LINE
8
Grid
62
255
10
702
20
36
11
702
21
-8
0
LINE
8
Grid
62
255
10
704
20
36
11
704
21
-8
0
LINE
8
Grid
62
255
10
706
20
36
11
706
21
-8
0
LINE
8
Grid
62
255
10
708
20
36
11
708
21
-8
0
LINE
8
Grid
62
255
10
710
20
36
11
710
21
-8
0
LINE
8
Grid
62
255
10
712
20
36
11
712
21
-8
0
LINE
8
Grid
62
255
10
714
20
36
11
714
21
-8
0
LINE
8
Grid
62
255
10
716
20
36
11
716
21
-8
0
LINE
8
Grid
62
255
10
718
20
36
11
718
21
-8
0
LINE
8
Grid
62
255
10
720
20
36
11
720
21
-8
0
LINE
8
Grid
62
255
10
722
20
36
11
722
21
-8
0
LINE
8
Grid
62
255
10
724
20
36
11
724
21
-8
0
LINE
8
Grid
62
255
10
726
20
36
11
726
21
-8
0
LINE
8
Grid
62
255
10
728
20
36
11
728
21
-8
0
LINE
8
Grid
62
255
10
730
20
36
11
730
21
-8
0
LINE
8
Grid
62
255
10
-4
20
36
11
730
21
36
0
LINE
8
Grid
62
255
10
-4
20
34
11
730
21
34
0
LINE
8
Grid
62
255
10
-4
20
32
11
730
21
32
0
LINE
8
Grid
62
255
10
-4
20
30
11
730
21
30
0
LINE
8
Grid
62
255
10
-4
20
28
11
730
21
28
0
LINE
8
Grid
62
255
10
-4
20
26
11
730
21
26
0
LINE
8
Grid
62
255
10
-4
20
24
11
730
21
24
0
LINE
8
Grid
62
255
10
-4
20
22
11
730
21
22
0
LINE
8
Grid
62
255
10
-4
20
20
11
730
21
20
0
LINE
8
Grid
62
255
10
-4
20
18
11
730
21
18
0
LINE
8
Grid
62
255
10
-4
20
16
11
730
21
16
0
LINE
8
Grid
62
255
10
-4
20
14
11
730
21
14
0
LINE
8
Grid
62
255
10
-4
20
12
11
730
21
12
0
LINE
8
Grid
62
255
10
-4
20
10
11
730
21
10
0
LINE
8
Grid
62
255
10
-4
20
8
11
730
21
8
0
LINE
8
Grid
62
255
10
-4
20
6
11
730
21
6
0
LINE
8
Grid
62
255
10
-4
20
4
11
730
21
4
0
LINE
8
Grid
62
255
10
-4
20
2
11
730
21
2
0
LINE
8
Grid
62
255
10
-4
20
0
11
730
21
0
0
LINE
8
Grid
62
255
10
-4
20
-2
11
730
21
-2
0
LINE
8
Grid
62
255
10
-4
20
-4
11
730
21
-4
0
LINE
8
Grid
62
255
10
-4
20
-6
11
730
21
-6
0
LINE
8
Grid
62
255
10
-4
20
-8
11
730
21
-8
0
ENDSEC
0
EOF
